G04 #@! TF.FileFunction,Legend,Top*
%FSLAX46Y46*%
G04 Gerber Fmt 4.6, Leading zero omitted, Abs format (unit mm)*
G04 Created by KiCad (PCBNEW 4.0.4-stable) date 09/28/17 23:31:09*
%MOMM*%
%LPD*%
G01*
G04 APERTURE LIST*
%ADD10C,0.100000*%
%ADD11C,0.300000*%
%ADD12C,0.120000*%
%ADD13C,0.150000*%
G04 APERTURE END LIST*
D10*
D11*
X29508259Y70027935D02*
X30508259Y70028148D01*
X29865722Y68528011D01*
X31865721Y68528438D02*
X31008578Y68528255D01*
X31437150Y68528346D02*
X31436830Y70028346D01*
X31294019Y69814030D01*
X31151191Y69671142D01*
X31008349Y69599683D01*
X32579991Y68600018D02*
X32580006Y68528590D01*
X32508608Y68385717D01*
X32437195Y68314274D01*
X33151145Y69885854D02*
X33222559Y69957298D01*
X33365401Y70028758D01*
X33722544Y70028834D01*
X33865416Y69957435D01*
X33936860Y69886022D01*
X34008319Y69743180D01*
X34008349Y69600323D01*
X33936967Y69386022D01*
X33080007Y68528697D01*
X34008578Y68528895D01*
X34722863Y68529047D02*
X35008578Y68529108D01*
X35151420Y68600567D01*
X35222832Y68672011D01*
X35365645Y68886327D01*
X35437012Y69172057D01*
X35436890Y69743485D01*
X35365431Y69886327D01*
X35293987Y69957740D01*
X35151115Y70029139D01*
X34865401Y70029078D01*
X34722558Y69957618D01*
X34651145Y69886174D01*
X34579747Y69743302D01*
X34579823Y69386159D01*
X34651282Y69243317D01*
X34722726Y69171904D01*
X34865599Y69100506D01*
X35151313Y69100567D01*
X35294155Y69172026D01*
X35365568Y69243470D01*
X35436966Y69386342D01*
X35936829Y70029306D02*
X36865400Y70029505D01*
X36365522Y69457969D01*
X36579808Y69458015D01*
X36722680Y69386616D01*
X36794124Y69315203D01*
X36865583Y69172362D01*
X36865659Y68815219D01*
X36794261Y68672346D01*
X36722848Y68600902D01*
X36580006Y68529444D01*
X36151434Y68529352D01*
X36008562Y68600750D01*
X35937118Y68672163D01*
X38651434Y68529886D02*
X38651220Y69529886D01*
X38651251Y69387028D02*
X38722664Y69458472D01*
X38865506Y69529931D01*
X39079791Y69529977D01*
X39222664Y69458579D01*
X39294123Y69315737D01*
X39294291Y68530023D01*
X39294123Y69315737D02*
X39365522Y69458609D01*
X39508363Y69530069D01*
X39722648Y69530114D01*
X39865522Y69458716D01*
X39936980Y69315874D01*
X39937148Y68530160D01*
X40651434Y68530312D02*
X40651220Y69530312D01*
X40651251Y69387454D02*
X40722664Y69458899D01*
X40865506Y69530358D01*
X41079791Y69530404D01*
X41222664Y69459005D01*
X41294123Y69316164D01*
X41294291Y68530450D01*
X41294123Y69316164D02*
X41365522Y69459036D01*
X41508363Y69530495D01*
X41722648Y69530541D01*
X41865522Y69459143D01*
X41936980Y69316301D01*
X41937148Y68530587D01*
X71441057Y67865453D02*
X147813Y67850240D01*
X71443244Y57615213D02*
X71440481Y70565453D01*
X150000Y57600000D02*
X147237Y70550240D01*
X147813Y67850240D02*
X1274192Y68436901D01*
X147813Y67850240D02*
X1274442Y67264060D01*
X71441057Y67865453D02*
X70314428Y68451633D01*
X71441057Y67865453D02*
X70314678Y67278792D01*
X84972412Y34303570D02*
X84972412Y35017856D01*
X84258126Y35089285D01*
X84329554Y35017856D01*
X84400983Y34874999D01*
X84400983Y34517856D01*
X84329554Y34374999D01*
X84258126Y34303570D01*
X84115269Y34232142D01*
X83758126Y34232142D01*
X83615269Y34303570D01*
X83543840Y34374999D01*
X83472412Y34517856D01*
X83472412Y34874999D01*
X83543840Y35017856D01*
X83615269Y35089285D01*
X84972412Y33732142D02*
X84972412Y32732142D01*
X83472412Y33374999D01*
X83543840Y32089286D02*
X83472412Y32089286D01*
X83329554Y32160714D01*
X83258126Y32232143D01*
X84472412Y30803571D02*
X83472412Y30803571D01*
X85043840Y31160714D02*
X83972412Y31517857D01*
X83972412Y30589285D01*
X84972412Y29303571D02*
X84972412Y30017857D01*
X84258126Y30089286D01*
X84329554Y30017857D01*
X84400983Y29875000D01*
X84400983Y29517857D01*
X84329554Y29375000D01*
X84258126Y29303571D01*
X84115269Y29232143D01*
X83758126Y29232143D01*
X83615269Y29303571D01*
X83543840Y29375000D01*
X83472412Y29517857D01*
X83472412Y29875000D01*
X83543840Y30017857D01*
X83615269Y30089286D01*
X84972412Y28303572D02*
X84972412Y28160715D01*
X84900983Y28017858D01*
X84829554Y27946429D01*
X84686697Y27875000D01*
X84400983Y27803572D01*
X84043840Y27803572D01*
X83758126Y27875000D01*
X83615269Y27946429D01*
X83543840Y28017858D01*
X83472412Y28160715D01*
X83472412Y28303572D01*
X83543840Y28446429D01*
X83615269Y28517858D01*
X83758126Y28589286D01*
X84043840Y28660715D01*
X84400983Y28660715D01*
X84686697Y28589286D01*
X84829554Y28517858D01*
X84900983Y28446429D01*
X84972412Y28303572D01*
X83472412Y26017858D02*
X84472412Y26017858D01*
X84329554Y26017858D02*
X84400983Y25946430D01*
X84472412Y25803572D01*
X84472412Y25589287D01*
X84400983Y25446430D01*
X84258126Y25375001D01*
X83472412Y25375001D01*
X84258126Y25375001D02*
X84400983Y25303572D01*
X84472412Y25160715D01*
X84472412Y24946430D01*
X84400983Y24803572D01*
X84258126Y24732144D01*
X83472412Y24732144D01*
X83472412Y24017858D02*
X84472412Y24017858D01*
X84329554Y24017858D02*
X84400983Y23946430D01*
X84472412Y23803572D01*
X84472412Y23589287D01*
X84400983Y23446430D01*
X84258126Y23375001D01*
X83472412Y23375001D01*
X84258126Y23375001D02*
X84400983Y23303572D01*
X84472412Y23160715D01*
X84472412Y22946430D01*
X84400983Y22803572D01*
X84258126Y22732144D01*
X83472412Y22732144D01*
X82800983Y57600000D02*
X82800983Y150000D01*
X71450000Y57600000D02*
X85500983Y57600000D01*
X71450000Y150000D02*
X85500983Y150000D01*
X82800983Y150000D02*
X82214562Y1276504D01*
X82800983Y150000D02*
X83387404Y1276504D01*
X82800983Y57600000D02*
X82214562Y56473496D01*
X82800983Y57600000D02*
X83387404Y56473496D01*
D12*
X29383149Y35272555D02*
G75*
G03X37216082Y35270000I3916851J1177445D01*
G01*
X29383149Y37627445D02*
G75*
G02X37216082Y37630000I3916851J-1177445D01*
G01*
X29383149Y37627445D02*
G75*
G03X29383918Y35270000I3916851J-1177445D01*
G01*
X33300000Y32400000D02*
X33300000Y40500000D01*
X33260000Y32400000D02*
X33260000Y40500000D01*
X33220000Y32400000D02*
X33220000Y40500000D01*
X33180000Y32401000D02*
X33180000Y40499000D01*
X33140000Y32403000D02*
X33140000Y40497000D01*
X33100000Y32404000D02*
X33100000Y40496000D01*
X33060000Y32407000D02*
X33060000Y40493000D01*
X33020000Y32409000D02*
X33020000Y40491000D01*
X32980000Y32412000D02*
X32980000Y40488000D01*
X32940000Y32415000D02*
X32940000Y40485000D01*
X32900000Y32419000D02*
X32900000Y40481000D01*
X32860000Y32423000D02*
X32860000Y40477000D01*
X32820000Y32428000D02*
X32820000Y40472000D01*
X32780000Y32433000D02*
X32780000Y40467000D01*
X32740000Y32438000D02*
X32740000Y40462000D01*
X32700000Y32444000D02*
X32700000Y40456000D01*
X32660000Y32450000D02*
X32660000Y40450000D01*
X32620000Y32456000D02*
X32620000Y40444000D01*
X32579000Y32463000D02*
X32579000Y40437000D01*
X32539000Y32471000D02*
X32539000Y40429000D01*
X32499000Y32479000D02*
X32499000Y40421000D01*
X32459000Y32487000D02*
X32459000Y40413000D01*
X32419000Y32495000D02*
X32419000Y40405000D01*
X32379000Y32504000D02*
X32379000Y40396000D01*
X32339000Y32514000D02*
X32339000Y40386000D01*
X32299000Y32524000D02*
X32299000Y40376000D01*
X32259000Y32534000D02*
X32259000Y40366000D01*
X32219000Y32545000D02*
X32219000Y40355000D01*
X32179000Y32556000D02*
X32179000Y40344000D01*
X32139000Y32567000D02*
X32139000Y40333000D01*
X32099000Y32580000D02*
X32099000Y40320000D01*
X32059000Y32592000D02*
X32059000Y40308000D01*
X32019000Y32605000D02*
X32019000Y40295000D01*
X31979000Y32618000D02*
X31979000Y40282000D01*
X31939000Y32632000D02*
X31939000Y40268000D01*
X31899000Y32647000D02*
X31899000Y40253000D01*
X31859000Y32661000D02*
X31859000Y40239000D01*
X31819000Y32677000D02*
X31819000Y40223000D01*
X31779000Y32692000D02*
X31779000Y35470000D01*
X31779000Y37430000D02*
X31779000Y40208000D01*
X31739000Y32709000D02*
X31739000Y35470000D01*
X31739000Y37430000D02*
X31739000Y40191000D01*
X31699000Y32725000D02*
X31699000Y35470000D01*
X31699000Y37430000D02*
X31699000Y40175000D01*
X31659000Y32743000D02*
X31659000Y35470000D01*
X31659000Y37430000D02*
X31659000Y40157000D01*
X31619000Y32760000D02*
X31619000Y35470000D01*
X31619000Y37430000D02*
X31619000Y40140000D01*
X31579000Y32779000D02*
X31579000Y35470000D01*
X31579000Y37430000D02*
X31579000Y40121000D01*
X31539000Y32798000D02*
X31539000Y35470000D01*
X31539000Y37430000D02*
X31539000Y40102000D01*
X31499000Y32817000D02*
X31499000Y35470000D01*
X31499000Y37430000D02*
X31499000Y40083000D01*
X31459000Y32837000D02*
X31459000Y35470000D01*
X31459000Y37430000D02*
X31459000Y40063000D01*
X31419000Y32857000D02*
X31419000Y35470000D01*
X31419000Y37430000D02*
X31419000Y40043000D01*
X31379000Y32878000D02*
X31379000Y35470000D01*
X31379000Y37430000D02*
X31379000Y40022000D01*
X31339000Y32900000D02*
X31339000Y35470000D01*
X31339000Y37430000D02*
X31339000Y40000000D01*
X31299000Y32922000D02*
X31299000Y35470000D01*
X31299000Y37430000D02*
X31299000Y39978000D01*
X31259000Y32945000D02*
X31259000Y35470000D01*
X31259000Y37430000D02*
X31259000Y39955000D01*
X31219000Y32968000D02*
X31219000Y35470000D01*
X31219000Y37430000D02*
X31219000Y39932000D01*
X31179000Y32992000D02*
X31179000Y35470000D01*
X31179000Y37430000D02*
X31179000Y39908000D01*
X31139000Y33016000D02*
X31139000Y35470000D01*
X31139000Y37430000D02*
X31139000Y39884000D01*
X31099000Y33042000D02*
X31099000Y35470000D01*
X31099000Y37430000D02*
X31099000Y39858000D01*
X31059000Y33067000D02*
X31059000Y35470000D01*
X31059000Y37430000D02*
X31059000Y39833000D01*
X31019000Y33094000D02*
X31019000Y35470000D01*
X31019000Y37430000D02*
X31019000Y39806000D01*
X30979000Y33121000D02*
X30979000Y35470000D01*
X30979000Y37430000D02*
X30979000Y39779000D01*
X30939000Y33149000D02*
X30939000Y35470000D01*
X30939000Y37430000D02*
X30939000Y39751000D01*
X30899000Y33178000D02*
X30899000Y35470000D01*
X30899000Y37430000D02*
X30899000Y39722000D01*
X30859000Y33207000D02*
X30859000Y35470000D01*
X30859000Y37430000D02*
X30859000Y39693000D01*
X30819000Y33237000D02*
X30819000Y35470000D01*
X30819000Y37430000D02*
X30819000Y39663000D01*
X30779000Y33268000D02*
X30779000Y35470000D01*
X30779000Y37430000D02*
X30779000Y39632000D01*
X30739000Y33300000D02*
X30739000Y35470000D01*
X30739000Y37430000D02*
X30739000Y39600000D01*
X30699000Y33332000D02*
X30699000Y35470000D01*
X30699000Y37430000D02*
X30699000Y39568000D01*
X30659000Y33366000D02*
X30659000Y35470000D01*
X30659000Y37430000D02*
X30659000Y39534000D01*
X30619000Y33400000D02*
X30619000Y35470000D01*
X30619000Y37430000D02*
X30619000Y39500000D01*
X30579000Y33435000D02*
X30579000Y35470000D01*
X30579000Y37430000D02*
X30579000Y39465000D01*
X30539000Y33471000D02*
X30539000Y35470000D01*
X30539000Y37430000D02*
X30539000Y39429000D01*
X30499000Y33508000D02*
X30499000Y35470000D01*
X30499000Y37430000D02*
X30499000Y39392000D01*
X30459000Y33546000D02*
X30459000Y35470000D01*
X30459000Y37430000D02*
X30459000Y39354000D01*
X30419000Y33585000D02*
X30419000Y35470000D01*
X30419000Y37430000D02*
X30419000Y39315000D01*
X30379000Y33626000D02*
X30379000Y35470000D01*
X30379000Y37430000D02*
X30379000Y39274000D01*
X30339000Y33667000D02*
X30339000Y35470000D01*
X30339000Y37430000D02*
X30339000Y39233000D01*
X30299000Y33710000D02*
X30299000Y35470000D01*
X30299000Y37430000D02*
X30299000Y39190000D01*
X30259000Y33753000D02*
X30259000Y35470000D01*
X30259000Y37430000D02*
X30259000Y39147000D01*
X30219000Y33798000D02*
X30219000Y35470000D01*
X30219000Y37430000D02*
X30219000Y39102000D01*
X30179000Y33845000D02*
X30179000Y35470000D01*
X30179000Y37430000D02*
X30179000Y39055000D01*
X30139000Y33893000D02*
X30139000Y35470000D01*
X30139000Y37430000D02*
X30139000Y39007000D01*
X30099000Y33942000D02*
X30099000Y35470000D01*
X30099000Y37430000D02*
X30099000Y38958000D01*
X30059000Y33993000D02*
X30059000Y35470000D01*
X30059000Y37430000D02*
X30059000Y38907000D01*
X30019000Y34046000D02*
X30019000Y35470000D01*
X30019000Y37430000D02*
X30019000Y38854000D01*
X29979000Y34101000D02*
X29979000Y35470000D01*
X29979000Y37430000D02*
X29979000Y38799000D01*
X29939000Y34157000D02*
X29939000Y35470000D01*
X29939000Y37430000D02*
X29939000Y38743000D01*
X29899000Y34216000D02*
X29899000Y35470000D01*
X29899000Y37430000D02*
X29899000Y38684000D01*
X29859000Y34277000D02*
X29859000Y35470000D01*
X29859000Y37430000D02*
X29859000Y38623000D01*
X29819000Y34341000D02*
X29819000Y38559000D01*
X29779000Y34407000D02*
X29779000Y38493000D01*
X29739000Y34476000D02*
X29739000Y38424000D01*
X29699000Y34548000D02*
X29699000Y38352000D01*
X29659000Y34624000D02*
X29659000Y38276000D01*
X29619000Y34705000D02*
X29619000Y38195000D01*
X29579000Y34790000D02*
X29579000Y38110000D01*
X29539000Y34880000D02*
X29539000Y38020000D01*
X29499000Y34977000D02*
X29499000Y37923000D01*
X29459000Y35081000D02*
X29459000Y37819000D01*
X29419000Y35196000D02*
X29419000Y37704000D01*
X29379000Y35323000D02*
X29379000Y37577000D01*
X29339000Y35467000D02*
X29339000Y37433000D01*
X29299000Y35636000D02*
X29299000Y37264000D01*
X29259000Y35852000D02*
X29259000Y37048000D01*
X29219000Y36204000D02*
X29219000Y36696000D01*
X38000000Y36450000D02*
X36800000Y36450000D01*
X37400000Y35800000D02*
X37400000Y37100000D01*
X28710000Y49790000D02*
X25590000Y49790000D01*
X28710000Y51910000D02*
X25590000Y51910000D01*
X28710000Y49790000D02*
X28710000Y49854000D01*
X28710000Y51846000D02*
X28710000Y51910000D01*
X25590000Y49790000D02*
X25590000Y49854000D01*
X25590000Y51846000D02*
X25590000Y51910000D01*
X24360000Y51460000D02*
X24360000Y48340000D01*
X22240000Y51460000D02*
X22240000Y48340000D01*
X24360000Y51460000D02*
X24296000Y51460000D01*
X22304000Y51460000D02*
X22240000Y51460000D01*
X24360000Y48340000D02*
X24296000Y48340000D01*
X22304000Y48340000D02*
X22240000Y48340000D01*
X34916851Y48427445D02*
G75*
G03X27083918Y48430000I-3916851J-1177445D01*
G01*
X34916851Y46072555D02*
G75*
G02X27083918Y46070000I-3916851J1177445D01*
G01*
X34916851Y46072555D02*
G75*
G03X34916082Y48430000I-3916851J1177445D01*
G01*
X31000000Y51300000D02*
X31000000Y43200000D01*
X31040000Y51300000D02*
X31040000Y43200000D01*
X31080000Y51300000D02*
X31080000Y43200000D01*
X31120000Y51299000D02*
X31120000Y43201000D01*
X31160000Y51297000D02*
X31160000Y43203000D01*
X31200000Y51296000D02*
X31200000Y43204000D01*
X31240000Y51293000D02*
X31240000Y43207000D01*
X31280000Y51291000D02*
X31280000Y43209000D01*
X31320000Y51288000D02*
X31320000Y43212000D01*
X31360000Y51285000D02*
X31360000Y43215000D01*
X31400000Y51281000D02*
X31400000Y43219000D01*
X31440000Y51277000D02*
X31440000Y43223000D01*
X31480000Y51272000D02*
X31480000Y43228000D01*
X31520000Y51267000D02*
X31520000Y43233000D01*
X31560000Y51262000D02*
X31560000Y43238000D01*
X31600000Y51256000D02*
X31600000Y43244000D01*
X31640000Y51250000D02*
X31640000Y43250000D01*
X31680000Y51244000D02*
X31680000Y43256000D01*
X31721000Y51237000D02*
X31721000Y43263000D01*
X31761000Y51229000D02*
X31761000Y43271000D01*
X31801000Y51221000D02*
X31801000Y43279000D01*
X31841000Y51213000D02*
X31841000Y43287000D01*
X31881000Y51205000D02*
X31881000Y43295000D01*
X31921000Y51196000D02*
X31921000Y43304000D01*
X31961000Y51186000D02*
X31961000Y43314000D01*
X32001000Y51176000D02*
X32001000Y43324000D01*
X32041000Y51166000D02*
X32041000Y43334000D01*
X32081000Y51155000D02*
X32081000Y43345000D01*
X32121000Y51144000D02*
X32121000Y43356000D01*
X32161000Y51133000D02*
X32161000Y43367000D01*
X32201000Y51120000D02*
X32201000Y43380000D01*
X32241000Y51108000D02*
X32241000Y43392000D01*
X32281000Y51095000D02*
X32281000Y43405000D01*
X32321000Y51082000D02*
X32321000Y43418000D01*
X32361000Y51068000D02*
X32361000Y43432000D01*
X32401000Y51053000D02*
X32401000Y43447000D01*
X32441000Y51039000D02*
X32441000Y43461000D01*
X32481000Y51023000D02*
X32481000Y43477000D01*
X32521000Y51008000D02*
X32521000Y48230000D01*
X32521000Y46270000D02*
X32521000Y43492000D01*
X32561000Y50991000D02*
X32561000Y48230000D01*
X32561000Y46270000D02*
X32561000Y43509000D01*
X32601000Y50975000D02*
X32601000Y48230000D01*
X32601000Y46270000D02*
X32601000Y43525000D01*
X32641000Y50957000D02*
X32641000Y48230000D01*
X32641000Y46270000D02*
X32641000Y43543000D01*
X32681000Y50940000D02*
X32681000Y48230000D01*
X32681000Y46270000D02*
X32681000Y43560000D01*
X32721000Y50921000D02*
X32721000Y48230000D01*
X32721000Y46270000D02*
X32721000Y43579000D01*
X32761000Y50902000D02*
X32761000Y48230000D01*
X32761000Y46270000D02*
X32761000Y43598000D01*
X32801000Y50883000D02*
X32801000Y48230000D01*
X32801000Y46270000D02*
X32801000Y43617000D01*
X32841000Y50863000D02*
X32841000Y48230000D01*
X32841000Y46270000D02*
X32841000Y43637000D01*
X32881000Y50843000D02*
X32881000Y48230000D01*
X32881000Y46270000D02*
X32881000Y43657000D01*
X32921000Y50822000D02*
X32921000Y48230000D01*
X32921000Y46270000D02*
X32921000Y43678000D01*
X32961000Y50800000D02*
X32961000Y48230000D01*
X32961000Y46270000D02*
X32961000Y43700000D01*
X33001000Y50778000D02*
X33001000Y48230000D01*
X33001000Y46270000D02*
X33001000Y43722000D01*
X33041000Y50755000D02*
X33041000Y48230000D01*
X33041000Y46270000D02*
X33041000Y43745000D01*
X33081000Y50732000D02*
X33081000Y48230000D01*
X33081000Y46270000D02*
X33081000Y43768000D01*
X33121000Y50708000D02*
X33121000Y48230000D01*
X33121000Y46270000D02*
X33121000Y43792000D01*
X33161000Y50684000D02*
X33161000Y48230000D01*
X33161000Y46270000D02*
X33161000Y43816000D01*
X33201000Y50658000D02*
X33201000Y48230000D01*
X33201000Y46270000D02*
X33201000Y43842000D01*
X33241000Y50633000D02*
X33241000Y48230000D01*
X33241000Y46270000D02*
X33241000Y43867000D01*
X33281000Y50606000D02*
X33281000Y48230000D01*
X33281000Y46270000D02*
X33281000Y43894000D01*
X33321000Y50579000D02*
X33321000Y48230000D01*
X33321000Y46270000D02*
X33321000Y43921000D01*
X33361000Y50551000D02*
X33361000Y48230000D01*
X33361000Y46270000D02*
X33361000Y43949000D01*
X33401000Y50522000D02*
X33401000Y48230000D01*
X33401000Y46270000D02*
X33401000Y43978000D01*
X33441000Y50493000D02*
X33441000Y48230000D01*
X33441000Y46270000D02*
X33441000Y44007000D01*
X33481000Y50463000D02*
X33481000Y48230000D01*
X33481000Y46270000D02*
X33481000Y44037000D01*
X33521000Y50432000D02*
X33521000Y48230000D01*
X33521000Y46270000D02*
X33521000Y44068000D01*
X33561000Y50400000D02*
X33561000Y48230000D01*
X33561000Y46270000D02*
X33561000Y44100000D01*
X33601000Y50368000D02*
X33601000Y48230000D01*
X33601000Y46270000D02*
X33601000Y44132000D01*
X33641000Y50334000D02*
X33641000Y48230000D01*
X33641000Y46270000D02*
X33641000Y44166000D01*
X33681000Y50300000D02*
X33681000Y48230000D01*
X33681000Y46270000D02*
X33681000Y44200000D01*
X33721000Y50265000D02*
X33721000Y48230000D01*
X33721000Y46270000D02*
X33721000Y44235000D01*
X33761000Y50229000D02*
X33761000Y48230000D01*
X33761000Y46270000D02*
X33761000Y44271000D01*
X33801000Y50192000D02*
X33801000Y48230000D01*
X33801000Y46270000D02*
X33801000Y44308000D01*
X33841000Y50154000D02*
X33841000Y48230000D01*
X33841000Y46270000D02*
X33841000Y44346000D01*
X33881000Y50115000D02*
X33881000Y48230000D01*
X33881000Y46270000D02*
X33881000Y44385000D01*
X33921000Y50074000D02*
X33921000Y48230000D01*
X33921000Y46270000D02*
X33921000Y44426000D01*
X33961000Y50033000D02*
X33961000Y48230000D01*
X33961000Y46270000D02*
X33961000Y44467000D01*
X34001000Y49990000D02*
X34001000Y48230000D01*
X34001000Y46270000D02*
X34001000Y44510000D01*
X34041000Y49947000D02*
X34041000Y48230000D01*
X34041000Y46270000D02*
X34041000Y44553000D01*
X34081000Y49902000D02*
X34081000Y48230000D01*
X34081000Y46270000D02*
X34081000Y44598000D01*
X34121000Y49855000D02*
X34121000Y48230000D01*
X34121000Y46270000D02*
X34121000Y44645000D01*
X34161000Y49807000D02*
X34161000Y48230000D01*
X34161000Y46270000D02*
X34161000Y44693000D01*
X34201000Y49758000D02*
X34201000Y48230000D01*
X34201000Y46270000D02*
X34201000Y44742000D01*
X34241000Y49707000D02*
X34241000Y48230000D01*
X34241000Y46270000D02*
X34241000Y44793000D01*
X34281000Y49654000D02*
X34281000Y48230000D01*
X34281000Y46270000D02*
X34281000Y44846000D01*
X34321000Y49599000D02*
X34321000Y48230000D01*
X34321000Y46270000D02*
X34321000Y44901000D01*
X34361000Y49543000D02*
X34361000Y48230000D01*
X34361000Y46270000D02*
X34361000Y44957000D01*
X34401000Y49484000D02*
X34401000Y48230000D01*
X34401000Y46270000D02*
X34401000Y45016000D01*
X34441000Y49423000D02*
X34441000Y48230000D01*
X34441000Y46270000D02*
X34441000Y45077000D01*
X34481000Y49359000D02*
X34481000Y45141000D01*
X34521000Y49293000D02*
X34521000Y45207000D01*
X34561000Y49224000D02*
X34561000Y45276000D01*
X34601000Y49152000D02*
X34601000Y45348000D01*
X34641000Y49076000D02*
X34641000Y45424000D01*
X34681000Y48995000D02*
X34681000Y45505000D01*
X34721000Y48910000D02*
X34721000Y45590000D01*
X34761000Y48820000D02*
X34761000Y45680000D01*
X34801000Y48723000D02*
X34801000Y45777000D01*
X34841000Y48619000D02*
X34841000Y45881000D01*
X34881000Y48504000D02*
X34881000Y45996000D01*
X34921000Y48377000D02*
X34921000Y46123000D01*
X34961000Y48233000D02*
X34961000Y46267000D01*
X35001000Y48064000D02*
X35001000Y46436000D01*
X35041000Y47848000D02*
X35041000Y46652000D01*
X35081000Y47496000D02*
X35081000Y47004000D01*
X26300000Y47250000D02*
X27500000Y47250000D01*
X26900000Y47900000D02*
X26900000Y46600000D01*
X9190000Y54110000D02*
X12310000Y54110000D01*
X9190000Y51990000D02*
X12310000Y51990000D01*
X9190000Y54110000D02*
X9190000Y54046000D01*
X9190000Y52054000D02*
X9190000Y51990000D01*
X12310000Y54110000D02*
X12310000Y54046000D01*
X12310000Y52054000D02*
X12310000Y51990000D01*
X9190000Y56560000D02*
X12310000Y56560000D01*
X9190000Y54440000D02*
X12310000Y54440000D01*
X9190000Y56560000D02*
X9190000Y56496000D01*
X9190000Y54504000D02*
X9190000Y54440000D01*
X12310000Y56560000D02*
X12310000Y56496000D01*
X12310000Y54504000D02*
X12310000Y54440000D01*
X10687802Y11388486D02*
G75*
G03X18520735Y11385931I3916851J1177445D01*
G01*
X10687802Y13743376D02*
G75*
G02X18520735Y13745931I3916851J-1177445D01*
G01*
X10687802Y13743376D02*
G75*
G03X10688571Y11385931I3916851J-1177445D01*
G01*
X14604653Y8515931D02*
X14604653Y16615931D01*
X14564653Y8515931D02*
X14564653Y16615931D01*
X14524653Y8515931D02*
X14524653Y16615931D01*
X14484653Y8516931D02*
X14484653Y16614931D01*
X14444653Y8518931D02*
X14444653Y16612931D01*
X14404653Y8519931D02*
X14404653Y16611931D01*
X14364653Y8522931D02*
X14364653Y16608931D01*
X14324653Y8524931D02*
X14324653Y16606931D01*
X14284653Y8527931D02*
X14284653Y16603931D01*
X14244653Y8530931D02*
X14244653Y16600931D01*
X14204653Y8534931D02*
X14204653Y16596931D01*
X14164653Y8538931D02*
X14164653Y16592931D01*
X14124653Y8543931D02*
X14124653Y16587931D01*
X14084653Y8548931D02*
X14084653Y16582931D01*
X14044653Y8553931D02*
X14044653Y16577931D01*
X14004653Y8559931D02*
X14004653Y16571931D01*
X13964653Y8565931D02*
X13964653Y16565931D01*
X13924653Y8571931D02*
X13924653Y16559931D01*
X13883653Y8578931D02*
X13883653Y16552931D01*
X13843653Y8586931D02*
X13843653Y16544931D01*
X13803653Y8594931D02*
X13803653Y16536931D01*
X13763653Y8602931D02*
X13763653Y16528931D01*
X13723653Y8610931D02*
X13723653Y16520931D01*
X13683653Y8619931D02*
X13683653Y16511931D01*
X13643653Y8629931D02*
X13643653Y16501931D01*
X13603653Y8639931D02*
X13603653Y16491931D01*
X13563653Y8649931D02*
X13563653Y16481931D01*
X13523653Y8660931D02*
X13523653Y16470931D01*
X13483653Y8671931D02*
X13483653Y16459931D01*
X13443653Y8682931D02*
X13443653Y16448931D01*
X13403653Y8695931D02*
X13403653Y16435931D01*
X13363653Y8707931D02*
X13363653Y16423931D01*
X13323653Y8720931D02*
X13323653Y16410931D01*
X13283653Y8733931D02*
X13283653Y16397931D01*
X13243653Y8747931D02*
X13243653Y16383931D01*
X13203653Y8762931D02*
X13203653Y16368931D01*
X13163653Y8776931D02*
X13163653Y16354931D01*
X13123653Y8792931D02*
X13123653Y16338931D01*
X13083653Y8807931D02*
X13083653Y11585931D01*
X13083653Y13545931D02*
X13083653Y16323931D01*
X13043653Y8824931D02*
X13043653Y11585931D01*
X13043653Y13545931D02*
X13043653Y16306931D01*
X13003653Y8840931D02*
X13003653Y11585931D01*
X13003653Y13545931D02*
X13003653Y16290931D01*
X12963653Y8858931D02*
X12963653Y11585931D01*
X12963653Y13545931D02*
X12963653Y16272931D01*
X12923653Y8875931D02*
X12923653Y11585931D01*
X12923653Y13545931D02*
X12923653Y16255931D01*
X12883653Y8894931D02*
X12883653Y11585931D01*
X12883653Y13545931D02*
X12883653Y16236931D01*
X12843653Y8913931D02*
X12843653Y11585931D01*
X12843653Y13545931D02*
X12843653Y16217931D01*
X12803653Y8932931D02*
X12803653Y11585931D01*
X12803653Y13545931D02*
X12803653Y16198931D01*
X12763653Y8952931D02*
X12763653Y11585931D01*
X12763653Y13545931D02*
X12763653Y16178931D01*
X12723653Y8972931D02*
X12723653Y11585931D01*
X12723653Y13545931D02*
X12723653Y16158931D01*
X12683653Y8993931D02*
X12683653Y11585931D01*
X12683653Y13545931D02*
X12683653Y16137931D01*
X12643653Y9015931D02*
X12643653Y11585931D01*
X12643653Y13545931D02*
X12643653Y16115931D01*
X12603653Y9037931D02*
X12603653Y11585931D01*
X12603653Y13545931D02*
X12603653Y16093931D01*
X12563653Y9060931D02*
X12563653Y11585931D01*
X12563653Y13545931D02*
X12563653Y16070931D01*
X12523653Y9083931D02*
X12523653Y11585931D01*
X12523653Y13545931D02*
X12523653Y16047931D01*
X12483653Y9107931D02*
X12483653Y11585931D01*
X12483653Y13545931D02*
X12483653Y16023931D01*
X12443653Y9131931D02*
X12443653Y11585931D01*
X12443653Y13545931D02*
X12443653Y15999931D01*
X12403653Y9157931D02*
X12403653Y11585931D01*
X12403653Y13545931D02*
X12403653Y15973931D01*
X12363653Y9182931D02*
X12363653Y11585931D01*
X12363653Y13545931D02*
X12363653Y15948931D01*
X12323653Y9209931D02*
X12323653Y11585931D01*
X12323653Y13545931D02*
X12323653Y15921931D01*
X12283653Y9236931D02*
X12283653Y11585931D01*
X12283653Y13545931D02*
X12283653Y15894931D01*
X12243653Y9264931D02*
X12243653Y11585931D01*
X12243653Y13545931D02*
X12243653Y15866931D01*
X12203653Y9293931D02*
X12203653Y11585931D01*
X12203653Y13545931D02*
X12203653Y15837931D01*
X12163653Y9322931D02*
X12163653Y11585931D01*
X12163653Y13545931D02*
X12163653Y15808931D01*
X12123653Y9352931D02*
X12123653Y11585931D01*
X12123653Y13545931D02*
X12123653Y15778931D01*
X12083653Y9383931D02*
X12083653Y11585931D01*
X12083653Y13545931D02*
X12083653Y15747931D01*
X12043653Y9415931D02*
X12043653Y11585931D01*
X12043653Y13545931D02*
X12043653Y15715931D01*
X12003653Y9447931D02*
X12003653Y11585931D01*
X12003653Y13545931D02*
X12003653Y15683931D01*
X11963653Y9481931D02*
X11963653Y11585931D01*
X11963653Y13545931D02*
X11963653Y15649931D01*
X11923653Y9515931D02*
X11923653Y11585931D01*
X11923653Y13545931D02*
X11923653Y15615931D01*
X11883653Y9550931D02*
X11883653Y11585931D01*
X11883653Y13545931D02*
X11883653Y15580931D01*
X11843653Y9586931D02*
X11843653Y11585931D01*
X11843653Y13545931D02*
X11843653Y15544931D01*
X11803653Y9623931D02*
X11803653Y11585931D01*
X11803653Y13545931D02*
X11803653Y15507931D01*
X11763653Y9661931D02*
X11763653Y11585931D01*
X11763653Y13545931D02*
X11763653Y15469931D01*
X11723653Y9700931D02*
X11723653Y11585931D01*
X11723653Y13545931D02*
X11723653Y15430931D01*
X11683653Y9741931D02*
X11683653Y11585931D01*
X11683653Y13545931D02*
X11683653Y15389931D01*
X11643653Y9782931D02*
X11643653Y11585931D01*
X11643653Y13545931D02*
X11643653Y15348931D01*
X11603653Y9825931D02*
X11603653Y11585931D01*
X11603653Y13545931D02*
X11603653Y15305931D01*
X11563653Y9868931D02*
X11563653Y11585931D01*
X11563653Y13545931D02*
X11563653Y15262931D01*
X11523653Y9913931D02*
X11523653Y11585931D01*
X11523653Y13545931D02*
X11523653Y15217931D01*
X11483653Y9960931D02*
X11483653Y11585931D01*
X11483653Y13545931D02*
X11483653Y15170931D01*
X11443653Y10008931D02*
X11443653Y11585931D01*
X11443653Y13545931D02*
X11443653Y15122931D01*
X11403653Y10057931D02*
X11403653Y11585931D01*
X11403653Y13545931D02*
X11403653Y15073931D01*
X11363653Y10108931D02*
X11363653Y11585931D01*
X11363653Y13545931D02*
X11363653Y15022931D01*
X11323653Y10161931D02*
X11323653Y11585931D01*
X11323653Y13545931D02*
X11323653Y14969931D01*
X11283653Y10216931D02*
X11283653Y11585931D01*
X11283653Y13545931D02*
X11283653Y14914931D01*
X11243653Y10272931D02*
X11243653Y11585931D01*
X11243653Y13545931D02*
X11243653Y14858931D01*
X11203653Y10331931D02*
X11203653Y11585931D01*
X11203653Y13545931D02*
X11203653Y14799931D01*
X11163653Y10392931D02*
X11163653Y11585931D01*
X11163653Y13545931D02*
X11163653Y14738931D01*
X11123653Y10456931D02*
X11123653Y14674931D01*
X11083653Y10522931D02*
X11083653Y14608931D01*
X11043653Y10591931D02*
X11043653Y14539931D01*
X11003653Y10663931D02*
X11003653Y14467931D01*
X10963653Y10739931D02*
X10963653Y14391931D01*
X10923653Y10820931D02*
X10923653Y14310931D01*
X10883653Y10905931D02*
X10883653Y14225931D01*
X10843653Y10995931D02*
X10843653Y14135931D01*
X10803653Y11092931D02*
X10803653Y14038931D01*
X10763653Y11196931D02*
X10763653Y13934931D01*
X10723653Y11311931D02*
X10723653Y13819931D01*
X10683653Y11438931D02*
X10683653Y13692931D01*
X10643653Y11582931D02*
X10643653Y13548931D01*
X10603653Y11751931D02*
X10603653Y13379931D01*
X10563653Y11967931D02*
X10563653Y13163931D01*
X10523653Y12319931D02*
X10523653Y12811931D01*
X19304653Y12565931D02*
X18104653Y12565931D01*
X18704653Y11915931D02*
X18704653Y13215931D01*
X17379723Y49794278D02*
G75*
G03X17380000Y54405580I-1179723J2305722D01*
G01*
X15020277Y49794278D02*
G75*
G02X15020000Y54405580I1179723J2305722D01*
G01*
X15020277Y49794278D02*
G75*
G03X17380000Y49794420I1179723J2305722D01*
G01*
X18750000Y52100000D02*
X13650000Y52100000D01*
X18750000Y52060000D02*
X13650000Y52060000D01*
X18749000Y52020000D02*
X13651000Y52020000D01*
X18748000Y51980000D02*
X13652000Y51980000D01*
X18746000Y51940000D02*
X13654000Y51940000D01*
X18743000Y51900000D02*
X13657000Y51900000D01*
X18739000Y51860000D02*
X13661000Y51860000D01*
X18735000Y51820000D02*
X17180000Y51820000D01*
X15220000Y51820000D02*
X13665000Y51820000D01*
X18731000Y51780000D02*
X17180000Y51780000D01*
X15220000Y51780000D02*
X13669000Y51780000D01*
X18725000Y51740000D02*
X17180000Y51740000D01*
X15220000Y51740000D02*
X13675000Y51740000D01*
X18719000Y51700000D02*
X17180000Y51700000D01*
X15220000Y51700000D02*
X13681000Y51700000D01*
X18713000Y51660000D02*
X17180000Y51660000D01*
X15220000Y51660000D02*
X13687000Y51660000D01*
X18706000Y51620000D02*
X17180000Y51620000D01*
X15220000Y51620000D02*
X13694000Y51620000D01*
X18698000Y51580000D02*
X17180000Y51580000D01*
X15220000Y51580000D02*
X13702000Y51580000D01*
X18689000Y51540000D02*
X17180000Y51540000D01*
X15220000Y51540000D02*
X13711000Y51540000D01*
X18680000Y51500000D02*
X17180000Y51500000D01*
X15220000Y51500000D02*
X13720000Y51500000D01*
X18670000Y51460000D02*
X17180000Y51460000D01*
X15220000Y51460000D02*
X13730000Y51460000D01*
X18660000Y51420000D02*
X17180000Y51420000D01*
X15220000Y51420000D02*
X13740000Y51420000D01*
X18648000Y51379000D02*
X17180000Y51379000D01*
X15220000Y51379000D02*
X13752000Y51379000D01*
X18636000Y51339000D02*
X17180000Y51339000D01*
X15220000Y51339000D02*
X13764000Y51339000D01*
X18624000Y51299000D02*
X17180000Y51299000D01*
X15220000Y51299000D02*
X13776000Y51299000D01*
X18610000Y51259000D02*
X17180000Y51259000D01*
X15220000Y51259000D02*
X13790000Y51259000D01*
X18596000Y51219000D02*
X17180000Y51219000D01*
X15220000Y51219000D02*
X13804000Y51219000D01*
X18582000Y51179000D02*
X17180000Y51179000D01*
X15220000Y51179000D02*
X13818000Y51179000D01*
X18566000Y51139000D02*
X17180000Y51139000D01*
X15220000Y51139000D02*
X13834000Y51139000D01*
X18550000Y51099000D02*
X17180000Y51099000D01*
X15220000Y51099000D02*
X13850000Y51099000D01*
X18533000Y51059000D02*
X17180000Y51059000D01*
X15220000Y51059000D02*
X13867000Y51059000D01*
X18515000Y51019000D02*
X17180000Y51019000D01*
X15220000Y51019000D02*
X13885000Y51019000D01*
X18496000Y50979000D02*
X17180000Y50979000D01*
X15220000Y50979000D02*
X13904000Y50979000D01*
X18476000Y50939000D02*
X17180000Y50939000D01*
X15220000Y50939000D02*
X13924000Y50939000D01*
X18456000Y50899000D02*
X17180000Y50899000D01*
X15220000Y50899000D02*
X13944000Y50899000D01*
X18434000Y50859000D02*
X17180000Y50859000D01*
X15220000Y50859000D02*
X13966000Y50859000D01*
X18412000Y50819000D02*
X17180000Y50819000D01*
X15220000Y50819000D02*
X13988000Y50819000D01*
X18389000Y50779000D02*
X17180000Y50779000D01*
X15220000Y50779000D02*
X14011000Y50779000D01*
X18365000Y50739000D02*
X17180000Y50739000D01*
X15220000Y50739000D02*
X14035000Y50739000D01*
X18340000Y50699000D02*
X17180000Y50699000D01*
X15220000Y50699000D02*
X14060000Y50699000D01*
X18313000Y50659000D02*
X17180000Y50659000D01*
X15220000Y50659000D02*
X14087000Y50659000D01*
X18286000Y50619000D02*
X17180000Y50619000D01*
X15220000Y50619000D02*
X14114000Y50619000D01*
X18258000Y50579000D02*
X17180000Y50579000D01*
X15220000Y50579000D02*
X14142000Y50579000D01*
X18228000Y50539000D02*
X17180000Y50539000D01*
X15220000Y50539000D02*
X14172000Y50539000D01*
X18197000Y50499000D02*
X17180000Y50499000D01*
X15220000Y50499000D02*
X14203000Y50499000D01*
X18165000Y50459000D02*
X17180000Y50459000D01*
X15220000Y50459000D02*
X14235000Y50459000D01*
X18132000Y50419000D02*
X17180000Y50419000D01*
X15220000Y50419000D02*
X14268000Y50419000D01*
X18097000Y50379000D02*
X17180000Y50379000D01*
X15220000Y50379000D02*
X14303000Y50379000D01*
X18061000Y50339000D02*
X17180000Y50339000D01*
X15220000Y50339000D02*
X14339000Y50339000D01*
X18023000Y50299000D02*
X17180000Y50299000D01*
X15220000Y50299000D02*
X14377000Y50299000D01*
X17983000Y50259000D02*
X17180000Y50259000D01*
X15220000Y50259000D02*
X14417000Y50259000D01*
X17942000Y50219000D02*
X17180000Y50219000D01*
X15220000Y50219000D02*
X14458000Y50219000D01*
X17899000Y50179000D02*
X17180000Y50179000D01*
X15220000Y50179000D02*
X14501000Y50179000D01*
X17854000Y50139000D02*
X17180000Y50139000D01*
X15220000Y50139000D02*
X14546000Y50139000D01*
X17806000Y50099000D02*
X17180000Y50099000D01*
X15220000Y50099000D02*
X14594000Y50099000D01*
X17756000Y50059000D02*
X17180000Y50059000D01*
X15220000Y50059000D02*
X14644000Y50059000D01*
X17704000Y50019000D02*
X17180000Y50019000D01*
X15220000Y50019000D02*
X14696000Y50019000D01*
X17648000Y49979000D02*
X17180000Y49979000D01*
X15220000Y49979000D02*
X14752000Y49979000D01*
X17590000Y49939000D02*
X17180000Y49939000D01*
X15220000Y49939000D02*
X14810000Y49939000D01*
X17527000Y49899000D02*
X17180000Y49899000D01*
X15220000Y49899000D02*
X14873000Y49899000D01*
X17461000Y49859000D02*
X14939000Y49859000D01*
X17389000Y49819000D02*
X15011000Y49819000D01*
X17312000Y49779000D02*
X15088000Y49779000D01*
X17228000Y49739000D02*
X15172000Y49739000D01*
X17134000Y49699000D02*
X15266000Y49699000D01*
X17029000Y49659000D02*
X15371000Y49659000D01*
X16907000Y49619000D02*
X15493000Y49619000D01*
X16759000Y49579000D02*
X15641000Y49579000D01*
X16554000Y49539000D02*
X15846000Y49539000D01*
X16200000Y55550000D02*
X16200000Y54350000D01*
X16850000Y54950000D02*
X15550000Y54950000D01*
X34263000Y12286000D02*
X35437000Y12286000D01*
X34263000Y10564000D02*
X35437000Y10564000D01*
X21455722Y37229723D02*
G75*
G03X16844420Y37230000I-2305722J-1179723D01*
G01*
X21455722Y34870277D02*
G75*
G02X16844420Y34870000I-2305722J1179723D01*
G01*
X21455722Y34870277D02*
G75*
G03X21455580Y37230000I-2305722J1179723D01*
G01*
X19150000Y38600000D02*
X19150000Y33500000D01*
X19190000Y38600000D02*
X19190000Y33500000D01*
X19230000Y38599000D02*
X19230000Y33501000D01*
X19270000Y38598000D02*
X19270000Y33502000D01*
X19310000Y38596000D02*
X19310000Y33504000D01*
X19350000Y38593000D02*
X19350000Y33507000D01*
X19390000Y38589000D02*
X19390000Y33511000D01*
X19430000Y38585000D02*
X19430000Y37030000D01*
X19430000Y35070000D02*
X19430000Y33515000D01*
X19470000Y38581000D02*
X19470000Y37030000D01*
X19470000Y35070000D02*
X19470000Y33519000D01*
X19510000Y38575000D02*
X19510000Y37030000D01*
X19510000Y35070000D02*
X19510000Y33525000D01*
X19550000Y38569000D02*
X19550000Y37030000D01*
X19550000Y35070000D02*
X19550000Y33531000D01*
X19590000Y38563000D02*
X19590000Y37030000D01*
X19590000Y35070000D02*
X19590000Y33537000D01*
X19630000Y38556000D02*
X19630000Y37030000D01*
X19630000Y35070000D02*
X19630000Y33544000D01*
X19670000Y38548000D02*
X19670000Y37030000D01*
X19670000Y35070000D02*
X19670000Y33552000D01*
X19710000Y38539000D02*
X19710000Y37030000D01*
X19710000Y35070000D02*
X19710000Y33561000D01*
X19750000Y38530000D02*
X19750000Y37030000D01*
X19750000Y35070000D02*
X19750000Y33570000D01*
X19790000Y38520000D02*
X19790000Y37030000D01*
X19790000Y35070000D02*
X19790000Y33580000D01*
X19830000Y38510000D02*
X19830000Y37030000D01*
X19830000Y35070000D02*
X19830000Y33590000D01*
X19871000Y38498000D02*
X19871000Y37030000D01*
X19871000Y35070000D02*
X19871000Y33602000D01*
X19911000Y38486000D02*
X19911000Y37030000D01*
X19911000Y35070000D02*
X19911000Y33614000D01*
X19951000Y38474000D02*
X19951000Y37030000D01*
X19951000Y35070000D02*
X19951000Y33626000D01*
X19991000Y38460000D02*
X19991000Y37030000D01*
X19991000Y35070000D02*
X19991000Y33640000D01*
X20031000Y38446000D02*
X20031000Y37030000D01*
X20031000Y35070000D02*
X20031000Y33654000D01*
X20071000Y38432000D02*
X20071000Y37030000D01*
X20071000Y35070000D02*
X20071000Y33668000D01*
X20111000Y38416000D02*
X20111000Y37030000D01*
X20111000Y35070000D02*
X20111000Y33684000D01*
X20151000Y38400000D02*
X20151000Y37030000D01*
X20151000Y35070000D02*
X20151000Y33700000D01*
X20191000Y38383000D02*
X20191000Y37030000D01*
X20191000Y35070000D02*
X20191000Y33717000D01*
X20231000Y38365000D02*
X20231000Y37030000D01*
X20231000Y35070000D02*
X20231000Y33735000D01*
X20271000Y38346000D02*
X20271000Y37030000D01*
X20271000Y35070000D02*
X20271000Y33754000D01*
X20311000Y38326000D02*
X20311000Y37030000D01*
X20311000Y35070000D02*
X20311000Y33774000D01*
X20351000Y38306000D02*
X20351000Y37030000D01*
X20351000Y35070000D02*
X20351000Y33794000D01*
X20391000Y38284000D02*
X20391000Y37030000D01*
X20391000Y35070000D02*
X20391000Y33816000D01*
X20431000Y38262000D02*
X20431000Y37030000D01*
X20431000Y35070000D02*
X20431000Y33838000D01*
X20471000Y38239000D02*
X20471000Y37030000D01*
X20471000Y35070000D02*
X20471000Y33861000D01*
X20511000Y38215000D02*
X20511000Y37030000D01*
X20511000Y35070000D02*
X20511000Y33885000D01*
X20551000Y38190000D02*
X20551000Y37030000D01*
X20551000Y35070000D02*
X20551000Y33910000D01*
X20591000Y38163000D02*
X20591000Y37030000D01*
X20591000Y35070000D02*
X20591000Y33937000D01*
X20631000Y38136000D02*
X20631000Y37030000D01*
X20631000Y35070000D02*
X20631000Y33964000D01*
X20671000Y38108000D02*
X20671000Y37030000D01*
X20671000Y35070000D02*
X20671000Y33992000D01*
X20711000Y38078000D02*
X20711000Y37030000D01*
X20711000Y35070000D02*
X20711000Y34022000D01*
X20751000Y38047000D02*
X20751000Y37030000D01*
X20751000Y35070000D02*
X20751000Y34053000D01*
X20791000Y38015000D02*
X20791000Y37030000D01*
X20791000Y35070000D02*
X20791000Y34085000D01*
X20831000Y37982000D02*
X20831000Y37030000D01*
X20831000Y35070000D02*
X20831000Y34118000D01*
X20871000Y37947000D02*
X20871000Y37030000D01*
X20871000Y35070000D02*
X20871000Y34153000D01*
X20911000Y37911000D02*
X20911000Y37030000D01*
X20911000Y35070000D02*
X20911000Y34189000D01*
X20951000Y37873000D02*
X20951000Y37030000D01*
X20951000Y35070000D02*
X20951000Y34227000D01*
X20991000Y37833000D02*
X20991000Y37030000D01*
X20991000Y35070000D02*
X20991000Y34267000D01*
X21031000Y37792000D02*
X21031000Y37030000D01*
X21031000Y35070000D02*
X21031000Y34308000D01*
X21071000Y37749000D02*
X21071000Y37030000D01*
X21071000Y35070000D02*
X21071000Y34351000D01*
X21111000Y37704000D02*
X21111000Y37030000D01*
X21111000Y35070000D02*
X21111000Y34396000D01*
X21151000Y37656000D02*
X21151000Y37030000D01*
X21151000Y35070000D02*
X21151000Y34444000D01*
X21191000Y37606000D02*
X21191000Y37030000D01*
X21191000Y35070000D02*
X21191000Y34494000D01*
X21231000Y37554000D02*
X21231000Y37030000D01*
X21231000Y35070000D02*
X21231000Y34546000D01*
X21271000Y37498000D02*
X21271000Y37030000D01*
X21271000Y35070000D02*
X21271000Y34602000D01*
X21311000Y37440000D02*
X21311000Y37030000D01*
X21311000Y35070000D02*
X21311000Y34660000D01*
X21351000Y37377000D02*
X21351000Y37030000D01*
X21351000Y35070000D02*
X21351000Y34723000D01*
X21391000Y37311000D02*
X21391000Y34789000D01*
X21431000Y37239000D02*
X21431000Y34861000D01*
X21471000Y37162000D02*
X21471000Y34938000D01*
X21511000Y37078000D02*
X21511000Y35022000D01*
X21551000Y36984000D02*
X21551000Y35116000D01*
X21591000Y36879000D02*
X21591000Y35221000D01*
X21631000Y36757000D02*
X21631000Y35343000D01*
X21671000Y36609000D02*
X21671000Y35491000D01*
X21711000Y36404000D02*
X21711000Y35696000D01*
X15700000Y36050000D02*
X16900000Y36050000D01*
X16300000Y36700000D02*
X16300000Y35400000D01*
X25037000Y22739000D02*
X23863000Y22739000D01*
X25037000Y24461000D02*
X23863000Y24461000D01*
X25037000Y20239000D02*
X23863000Y20239000D01*
X25037000Y21961000D02*
X23863000Y21961000D01*
X43910000Y20790000D02*
X40790000Y20790000D01*
X43910000Y22910000D02*
X40790000Y22910000D01*
X43910000Y20790000D02*
X43910000Y20854000D01*
X43910000Y22846000D02*
X43910000Y22910000D01*
X40790000Y20790000D02*
X40790000Y20854000D01*
X40790000Y22846000D02*
X40790000Y22910000D01*
X64010000Y2090000D02*
X60890000Y2090000D01*
X64010000Y4210000D02*
X60890000Y4210000D01*
X64010000Y2090000D02*
X64010000Y2154000D01*
X64010000Y4146000D02*
X64010000Y4210000D01*
X60890000Y2090000D02*
X60890000Y2154000D01*
X60890000Y4146000D02*
X60890000Y4210000D01*
X61090000Y34210000D02*
X64210000Y34210000D01*
X61090000Y32090000D02*
X64210000Y32090000D01*
X61090000Y34210000D02*
X61090000Y34146000D01*
X61090000Y32154000D02*
X61090000Y32090000D01*
X64210000Y34210000D02*
X64210000Y34146000D01*
X64210000Y32154000D02*
X64210000Y32090000D01*
X14689754Y5715931D02*
X13424653Y5715931D01*
X14857320Y4826931D02*
X14857320Y6604931D01*
X14857320Y5715931D02*
X13671986Y4826931D01*
X13671986Y4826931D02*
X13671986Y6604931D01*
X13671986Y6604931D02*
X14857320Y5715931D01*
X18919552Y5715931D02*
G75*
G03X18919552Y5715931I-2114899J0D01*
G01*
D13*
X55065000Y55550000D02*
X44905000Y55550000D01*
X44905000Y69520000D02*
X55065000Y70790000D01*
X44905000Y68250000D02*
X55065000Y69520000D01*
X44905000Y66980000D02*
X55065000Y68250000D01*
X44905000Y65710000D02*
X55065000Y66980000D01*
X44905000Y64440000D02*
X55065000Y65710000D01*
X44905000Y63170000D02*
X55065000Y64440000D01*
X44905000Y61900000D02*
X55065000Y63170000D01*
X44905000Y60630000D02*
X55065000Y61900000D01*
X44905000Y59360000D02*
X55065000Y60630000D01*
X44905000Y58090000D02*
X55065000Y59360000D01*
X44905000Y56820000D02*
X55065000Y58090000D01*
X44905000Y55550000D02*
X55065000Y56820000D01*
X43000000Y56820000D02*
X44905000Y56820000D01*
X55065000Y56820000D02*
X56970000Y56820000D01*
X55065000Y70790000D02*
X44905000Y70790000D01*
X55065000Y70790000D02*
X55065000Y55550000D01*
X44905000Y55550000D02*
X44905000Y70790000D01*
X43000000Y54280000D02*
X43000000Y56820000D01*
X56970000Y56820000D02*
X56970000Y54280000D01*
X56970000Y54280000D02*
X43000000Y54280000D01*
D12*
X69720000Y40870000D02*
X69720000Y30630000D01*
X65079000Y40870000D02*
X65079000Y30630000D01*
X69720000Y40870000D02*
X65079000Y40870000D01*
X69720000Y30630000D02*
X65079000Y30630000D01*
X68210000Y40870000D02*
X68210000Y30630000D01*
X69720000Y37600000D02*
X68210000Y37600000D01*
X69720000Y33899000D02*
X68210000Y33899000D01*
X37330000Y54220000D02*
X37330000Y56880000D01*
X24570000Y54220000D02*
X37330000Y54220000D01*
X24570000Y56880000D02*
X37330000Y56880000D01*
X24570000Y54220000D02*
X24570000Y56880000D01*
X23300000Y54220000D02*
X21970000Y54220000D01*
X21970000Y54220000D02*
X21970000Y55550000D01*
X7950000Y31370000D02*
X7950000Y34970000D01*
X7938478Y31331522D02*
G75*
G02X3500000Y33170000I-1838478J1838478D01*
G01*
X7938478Y35008478D02*
G75*
G03X3500000Y33170000I-1838478J-1838478D01*
G01*
X7950000Y25730000D02*
X7950000Y29330000D01*
X7938478Y25691522D02*
G75*
G02X3500000Y27530000I-1838478J1838478D01*
G01*
X7938478Y29368478D02*
G75*
G03X3500000Y27530000I-1838478J-1838478D01*
G01*
X9250000Y40770000D02*
X9250000Y37170000D01*
X9261522Y40808478D02*
G75*
G02X13700000Y38970000I1838478J-1838478D01*
G01*
X9261522Y37131522D02*
G75*
G03X13700000Y38970000I1838478J1838478D01*
G01*
X8650000Y29300000D02*
X8650000Y25700000D01*
X8661522Y29338478D02*
G75*
G02X13100000Y27500000I1838478J-1838478D01*
G01*
X8661522Y25661522D02*
G75*
G03X13100000Y27500000I1838478J1838478D01*
G01*
X13050000Y31370000D02*
X13050000Y34970000D01*
X13038478Y31331522D02*
G75*
G02X8600000Y33170000I-1838478J1838478D01*
G01*
X13038478Y35008478D02*
G75*
G03X8600000Y33170000I-1838478J-1838478D01*
G01*
X7950000Y44120000D02*
X7950000Y47720000D01*
X7938478Y44081522D02*
G75*
G02X3500000Y45920000I-1838478J1838478D01*
G01*
X7938478Y47758478D02*
G75*
G03X3500000Y45920000I-1838478J-1838478D01*
G01*
X19850000Y42650000D02*
X19850000Y46250000D01*
X19838478Y42611522D02*
G75*
G02X15400000Y44450000I-1838478J1838478D01*
G01*
X19838478Y46288478D02*
G75*
G03X15400000Y44450000I-1838478J-1838478D01*
G01*
X10130000Y24550000D02*
X6530000Y24550000D01*
X10168478Y24538478D02*
G75*
G02X8330000Y20100000I-1838478J-1838478D01*
G01*
X6491522Y24538478D02*
G75*
G03X8330000Y20100000I1838478J-1838478D01*
G01*
X43820000Y51610000D02*
X43820000Y43370000D01*
X40330000Y51610000D02*
X40330000Y43370000D01*
X43820000Y51610000D02*
X40330000Y51610000D01*
X43820000Y43370000D02*
X40330000Y43370000D01*
X43820000Y49090000D02*
X42750000Y49090000D01*
X40650000Y49090000D02*
X40330000Y49090000D01*
X43820000Y45889000D02*
X42240000Y45889000D01*
X41160000Y45889000D02*
X40330000Y45889000D01*
X22630000Y25700000D02*
X26230000Y25700000D01*
X22591522Y25711522D02*
G75*
G02X24430000Y30150000I1838478J1838478D01*
G01*
X26268478Y25711522D02*
G75*
G03X24430000Y30150000I-1838478J1838478D01*
G01*
X43820000Y42310000D02*
X43820000Y34070000D01*
X40330000Y42310000D02*
X40330000Y34070000D01*
X43820000Y42310000D02*
X40330000Y42310000D01*
X43820000Y34070000D02*
X40330000Y34070000D01*
X43820000Y39790000D02*
X42750000Y39790000D01*
X40650000Y39790000D02*
X40330000Y39790000D01*
X43820000Y36589000D02*
X42240000Y36589000D01*
X41160000Y36589000D02*
X40330000Y36589000D01*
X43820000Y33010000D02*
X43820000Y24770000D01*
X40330000Y33010000D02*
X40330000Y24770000D01*
X43820000Y33010000D02*
X40330000Y33010000D01*
X43820000Y24770000D02*
X40330000Y24770000D01*
X43820000Y30490000D02*
X42750000Y30490000D01*
X40650000Y30490000D02*
X40330000Y30490000D01*
X43820000Y27289000D02*
X42240000Y27289000D01*
X41160000Y27289000D02*
X40330000Y27289000D01*
X69720000Y10870000D02*
X69720000Y630000D01*
X65079000Y10870000D02*
X65079000Y630000D01*
X69720000Y10870000D02*
X65079000Y10870000D01*
X69720000Y630000D02*
X65079000Y630000D01*
X68210000Y10870000D02*
X68210000Y630000D01*
X69720000Y7600000D02*
X68210000Y7600000D01*
X69720000Y3899000D02*
X68210000Y3899000D01*
X2660000Y32500000D02*
X2660000Y28780000D01*
X940000Y32500000D02*
X940000Y28780000D01*
X5560000Y41400000D02*
X5560000Y37680000D01*
X3840000Y41400000D02*
X3840000Y37680000D01*
X5160000Y23000000D02*
X5160000Y19280000D01*
X3440000Y23000000D02*
X3440000Y19280000D01*
X990000Y43380000D02*
X990000Y47100000D01*
X2710000Y43380000D02*
X2710000Y47100000D01*
X990000Y36100000D02*
X990000Y39820000D01*
X2710000Y36100000D02*
X2710000Y39820000D01*
X7710000Y41400000D02*
X7710000Y37680000D01*
X5990000Y41400000D02*
X5990000Y37680000D01*
X13160000Y23020000D02*
X13160000Y19300000D01*
X11440000Y23020000D02*
X11440000Y19300000D01*
X20809653Y18225931D02*
X24529653Y18225931D01*
X20809653Y16505931D02*
X24529653Y16505931D01*
X20804653Y13975931D02*
X24524653Y13975931D01*
X20804653Y12255931D02*
X24524653Y12255931D01*
X20809653Y16100931D02*
X24529653Y16100931D01*
X20809653Y14380931D02*
X24529653Y14380931D01*
X12860000Y47200000D02*
X12860000Y43480000D01*
X11140000Y47200000D02*
X11140000Y43480000D01*
X8990000Y43430000D02*
X8990000Y47150000D01*
X10710000Y43430000D02*
X10710000Y47150000D01*
X32820000Y13465000D02*
X29100000Y13465000D01*
X32820000Y15185000D02*
X29100000Y15185000D01*
X32845000Y7740000D02*
X29125000Y7740000D01*
X32845000Y9460000D02*
X29125000Y9460000D01*
X15010000Y47200000D02*
X15010000Y43480000D01*
X13290000Y47200000D02*
X13290000Y43480000D01*
X19190000Y48930000D02*
X19190000Y52650000D01*
X20910000Y48930000D02*
X20910000Y52650000D01*
X18995704Y31404691D02*
G75*
G02X21305000Y31445000I1154296J40309D01*
G01*
X21304052Y31465121D02*
G75*
G02X19910000Y30316000I-1154052J-20121D01*
G01*
X16530000Y23125000D02*
X16530000Y32775000D01*
X21481000Y23125000D02*
X21481000Y32775000D01*
X16530000Y23125000D02*
X21481000Y23125000D01*
X16530000Y32775000D02*
X21481000Y32775000D01*
X19416000Y32321000D02*
X21026000Y30710000D01*
X19275000Y32181000D02*
X20885000Y30569000D01*
X16300000Y22310000D02*
X20020000Y22310000D01*
X16300000Y20590000D02*
X20020000Y20590000D01*
X14140000Y33030000D02*
X14140000Y36750000D01*
X15860000Y33030000D02*
X15860000Y36750000D01*
X14140000Y25850000D02*
X14140000Y29570000D01*
X15860000Y25850000D02*
X15860000Y29570000D01*
X19400000Y39690000D02*
X15680000Y39690000D01*
X19400000Y41410000D02*
X15680000Y41410000D01*
X57560000Y37470000D02*
X57560000Y33750000D01*
X55840000Y37470000D02*
X55840000Y33750000D01*
X45520000Y17890000D02*
X41800000Y17890000D01*
X45520000Y19610000D02*
X41800000Y19610000D01*
X41800000Y15210000D02*
X45520000Y15210000D01*
X41800000Y13490000D02*
X45520000Y13490000D01*
X55740000Y3850000D02*
X55740000Y7570000D01*
X57460000Y3850000D02*
X57460000Y7570000D01*
X59500000Y9010000D02*
X63220000Y9010000D01*
X59500000Y7290000D02*
X63220000Y7290000D01*
X59500000Y39010000D02*
X63220000Y39010000D01*
X59500000Y37290000D02*
X63220000Y37290000D01*
X46900000Y12710000D02*
X50620000Y12710000D01*
X46900000Y10990000D02*
X50620000Y10990000D01*
X50620000Y20390000D02*
X46900000Y20390000D01*
X50620000Y22110000D02*
X46900000Y22110000D01*
X53265000Y19660000D02*
X53265000Y17040000D01*
X53265000Y17040000D02*
X61485000Y17040000D01*
X61485000Y17040000D02*
X61485000Y19660000D01*
X61485000Y19660000D02*
X53265000Y19660000D01*
X49835000Y18350000D02*
X53265000Y18350000D01*
X64915000Y18350000D02*
X61485000Y18350000D01*
X53265000Y16060000D02*
X53265000Y13440000D01*
X53265000Y13440000D02*
X61485000Y13440000D01*
X61485000Y13440000D02*
X61485000Y16060000D01*
X61485000Y16060000D02*
X53265000Y16060000D01*
X49835000Y14750000D02*
X53265000Y14750000D01*
X64915000Y14750000D02*
X61485000Y14750000D01*
X49610000Y44760000D02*
X44990000Y44760000D01*
X44990000Y44760000D02*
X44990000Y32740000D01*
X44990000Y32740000D02*
X49610000Y32740000D01*
X49610000Y32740000D02*
X49610000Y44760000D01*
X47300000Y50070000D02*
X47300000Y44760000D01*
X47300000Y27430000D02*
X47300000Y32740000D01*
X50490000Y32740000D02*
X55110000Y32740000D01*
X55110000Y32740000D02*
X55110000Y44760000D01*
X55110000Y44760000D02*
X50490000Y44760000D01*
X50490000Y44760000D02*
X50490000Y32740000D01*
X52800000Y27430000D02*
X52800000Y32740000D01*
X52800000Y50070000D02*
X52800000Y44760000D01*
X63220000Y4890000D02*
X59500000Y4890000D01*
X63220000Y6610000D02*
X59500000Y6610000D01*
X59500000Y36610000D02*
X63220000Y36610000D01*
X59500000Y34890000D02*
X63220000Y34890000D01*
X20804653Y11875931D02*
X24524653Y11875931D01*
X20804653Y10155931D02*
X24524653Y10155931D01*
X20804653Y7675931D02*
X24524653Y7675931D01*
X20804653Y5955931D02*
X24524653Y5955931D01*
X20779653Y9775931D02*
X24499653Y9775931D01*
X20779653Y8055931D02*
X24499653Y8055931D01*
D13*
X33133334Y30782857D02*
X33085715Y30735238D01*
X32942858Y30687619D01*
X32847620Y30687619D01*
X32704762Y30735238D01*
X32609524Y30830476D01*
X32561905Y30925714D01*
X32514286Y31116190D01*
X32514286Y31259048D01*
X32561905Y31449524D01*
X32609524Y31544762D01*
X32704762Y31640000D01*
X32847620Y31687619D01*
X32942858Y31687619D01*
X33085715Y31640000D01*
X33133334Y31592381D01*
X33990477Y31354286D02*
X33990477Y30687619D01*
X33752381Y31735238D02*
X33514286Y31020952D01*
X34133334Y31020952D01*
X26983334Y48182857D02*
X26935715Y48135238D01*
X26792858Y48087619D01*
X26697620Y48087619D01*
X26554762Y48135238D01*
X26459524Y48230476D01*
X26411905Y48325714D01*
X26364286Y48516190D01*
X26364286Y48659048D01*
X26411905Y48849524D01*
X26459524Y48944762D01*
X26554762Y49040000D01*
X26697620Y49087619D01*
X26792858Y49087619D01*
X26935715Y49040000D01*
X26983334Y48992381D01*
X27935715Y48087619D02*
X27364286Y48087619D01*
X27650000Y48087619D02*
X27650000Y49087619D01*
X27554762Y48944762D01*
X27459524Y48849524D01*
X27364286Y48801905D01*
X25967143Y49733334D02*
X26014762Y49685715D01*
X26062381Y49542858D01*
X26062381Y49447620D01*
X26014762Y49304762D01*
X25919524Y49209524D01*
X25824286Y49161905D01*
X25633810Y49114286D01*
X25490952Y49114286D01*
X25300476Y49161905D01*
X25205238Y49209524D01*
X25110000Y49304762D01*
X25062381Y49447620D01*
X25062381Y49542858D01*
X25110000Y49685715D01*
X25157619Y49733334D01*
X25157619Y50114286D02*
X25110000Y50161905D01*
X25062381Y50257143D01*
X25062381Y50495239D01*
X25110000Y50590477D01*
X25157619Y50638096D01*
X25252857Y50685715D01*
X25348095Y50685715D01*
X25490952Y50638096D01*
X26062381Y50066667D01*
X26062381Y50685715D01*
X30833334Y52202857D02*
X30785715Y52155238D01*
X30642858Y52107619D01*
X30547620Y52107619D01*
X30404762Y52155238D01*
X30309524Y52250476D01*
X30261905Y52345714D01*
X30214286Y52536190D01*
X30214286Y52679048D01*
X30261905Y52869524D01*
X30309524Y52964762D01*
X30404762Y53060000D01*
X30547620Y53107619D01*
X30642858Y53107619D01*
X30785715Y53060000D01*
X30833334Y53012381D01*
X31166667Y53107619D02*
X31785715Y53107619D01*
X31452381Y52726667D01*
X31595239Y52726667D01*
X31690477Y52679048D01*
X31738096Y52631429D01*
X31785715Y52536190D01*
X31785715Y52298095D01*
X31738096Y52202857D01*
X31690477Y52155238D01*
X31595239Y52107619D01*
X31309524Y52107619D01*
X31214286Y52155238D01*
X31166667Y52202857D01*
X10583334Y55002857D02*
X10535715Y54955238D01*
X10392858Y54907619D01*
X10297620Y54907619D01*
X10154762Y54955238D01*
X10059524Y55050476D01*
X10011905Y55145714D01*
X9964286Y55336190D01*
X9964286Y55479048D01*
X10011905Y55669524D01*
X10059524Y55764762D01*
X10154762Y55860000D01*
X10297620Y55907619D01*
X10392858Y55907619D01*
X10535715Y55860000D01*
X10583334Y55812381D01*
X11488096Y55907619D02*
X11011905Y55907619D01*
X10964286Y55431429D01*
X11011905Y55479048D01*
X11107143Y55526667D01*
X11345239Y55526667D01*
X11440477Y55479048D01*
X11488096Y55431429D01*
X11535715Y55336190D01*
X11535715Y55098095D01*
X11488096Y55002857D01*
X11440477Y54955238D01*
X11345239Y54907619D01*
X11107143Y54907619D01*
X11011905Y54955238D01*
X10964286Y55002857D01*
X10583334Y57452857D02*
X10535715Y57405238D01*
X10392858Y57357619D01*
X10297620Y57357619D01*
X10154762Y57405238D01*
X10059524Y57500476D01*
X10011905Y57595714D01*
X9964286Y57786190D01*
X9964286Y57929048D01*
X10011905Y58119524D01*
X10059524Y58214762D01*
X10154762Y58310000D01*
X10297620Y58357619D01*
X10392858Y58357619D01*
X10535715Y58310000D01*
X10583334Y58262381D01*
X11440477Y58357619D02*
X11250000Y58357619D01*
X11154762Y58310000D01*
X11107143Y58262381D01*
X11011905Y58119524D01*
X10964286Y57929048D01*
X10964286Y57548095D01*
X11011905Y57452857D01*
X11059524Y57405238D01*
X11154762Y57357619D01*
X11345239Y57357619D01*
X11440477Y57405238D01*
X11488096Y57452857D01*
X11535715Y57548095D01*
X11535715Y57786190D01*
X11488096Y57881429D01*
X11440477Y57929048D01*
X11345239Y57976667D01*
X11154762Y57976667D01*
X11059524Y57929048D01*
X11011905Y57881429D01*
X10964286Y57786190D01*
X14437987Y6898788D02*
X14390368Y6851169D01*
X14247511Y6803550D01*
X14152273Y6803550D01*
X14009415Y6851169D01*
X13914177Y6946407D01*
X13866558Y7041645D01*
X13818939Y7232121D01*
X13818939Y7374979D01*
X13866558Y7565455D01*
X13914177Y7660693D01*
X14009415Y7755931D01*
X14152273Y7803550D01*
X14247511Y7803550D01*
X14390368Y7755931D01*
X14437987Y7708312D01*
X14771320Y7803550D02*
X15437987Y7803550D01*
X15009415Y6803550D01*
X20367143Y51933334D02*
X20414762Y51885715D01*
X20462381Y51742858D01*
X20462381Y51647620D01*
X20414762Y51504762D01*
X20319524Y51409524D01*
X20224286Y51361905D01*
X20033810Y51314286D01*
X19890952Y51314286D01*
X19700476Y51361905D01*
X19605238Y51409524D01*
X19510000Y51504762D01*
X19462381Y51647620D01*
X19462381Y51742858D01*
X19510000Y51885715D01*
X19557619Y51933334D01*
X19890952Y52504762D02*
X19843333Y52409524D01*
X19795714Y52361905D01*
X19700476Y52314286D01*
X19652857Y52314286D01*
X19557619Y52361905D01*
X19510000Y52409524D01*
X19462381Y52504762D01*
X19462381Y52695239D01*
X19510000Y52790477D01*
X19557619Y52838096D01*
X19652857Y52885715D01*
X19700476Y52885715D01*
X19795714Y52838096D01*
X19843333Y52790477D01*
X19890952Y52695239D01*
X19890952Y52504762D01*
X19938571Y52409524D01*
X19986190Y52361905D01*
X20081429Y52314286D01*
X20271905Y52314286D01*
X20367143Y52361905D01*
X20414762Y52409524D01*
X20462381Y52504762D01*
X20462381Y52695239D01*
X20414762Y52790477D01*
X20367143Y52838096D01*
X20271905Y52885715D01*
X20081429Y52885715D01*
X19986190Y52838096D01*
X19938571Y52790477D01*
X19890952Y52695239D01*
X34683334Y13177857D02*
X34635715Y13130238D01*
X34492858Y13082619D01*
X34397620Y13082619D01*
X34254762Y13130238D01*
X34159524Y13225476D01*
X34111905Y13320714D01*
X34064286Y13511190D01*
X34064286Y13654048D01*
X34111905Y13844524D01*
X34159524Y13939762D01*
X34254762Y14035000D01*
X34397620Y14082619D01*
X34492858Y14082619D01*
X34635715Y14035000D01*
X34683334Y13987381D01*
X35159524Y13082619D02*
X35350000Y13082619D01*
X35445239Y13130238D01*
X35492858Y13177857D01*
X35588096Y13320714D01*
X35635715Y13511190D01*
X35635715Y13892143D01*
X35588096Y13987381D01*
X35540477Y14035000D01*
X35445239Y14082619D01*
X35254762Y14082619D01*
X35159524Y14035000D01*
X35111905Y13987381D01*
X35064286Y13892143D01*
X35064286Y13654048D01*
X35111905Y13558810D01*
X35159524Y13511190D01*
X35254762Y13463571D01*
X35445239Y13463571D01*
X35540477Y13511190D01*
X35588096Y13558810D01*
X35635715Y13654048D01*
X18507143Y39502857D02*
X18459524Y39455238D01*
X18316667Y39407619D01*
X18221429Y39407619D01*
X18078571Y39455238D01*
X17983333Y39550476D01*
X17935714Y39645714D01*
X17888095Y39836190D01*
X17888095Y39979048D01*
X17935714Y40169524D01*
X17983333Y40264762D01*
X18078571Y40360000D01*
X18221429Y40407619D01*
X18316667Y40407619D01*
X18459524Y40360000D01*
X18507143Y40312381D01*
X19459524Y39407619D02*
X18888095Y39407619D01*
X19173809Y39407619D02*
X19173809Y40407619D01*
X19078571Y40264762D01*
X18983333Y40169524D01*
X18888095Y40121905D01*
X20078571Y40407619D02*
X20173810Y40407619D01*
X20269048Y40360000D01*
X20316667Y40312381D01*
X20364286Y40217143D01*
X20411905Y40026667D01*
X20411905Y39788571D01*
X20364286Y39598095D01*
X20316667Y39502857D01*
X20269048Y39455238D01*
X20173810Y39407619D01*
X20078571Y39407619D01*
X19983333Y39455238D01*
X19935714Y39502857D01*
X19888095Y39598095D01*
X19840476Y39788571D01*
X19840476Y40026667D01*
X19888095Y40217143D01*
X19935714Y40312381D01*
X19983333Y40360000D01*
X20078571Y40407619D01*
X23857143Y22542857D02*
X23809524Y22495238D01*
X23666667Y22447619D01*
X23571429Y22447619D01*
X23428571Y22495238D01*
X23333333Y22590476D01*
X23285714Y22685714D01*
X23238095Y22876190D01*
X23238095Y23019048D01*
X23285714Y23209524D01*
X23333333Y23304762D01*
X23428571Y23400000D01*
X23571429Y23447619D01*
X23666667Y23447619D01*
X23809524Y23400000D01*
X23857143Y23352381D01*
X24809524Y22447619D02*
X24238095Y22447619D01*
X24523809Y22447619D02*
X24523809Y23447619D01*
X24428571Y23304762D01*
X24333333Y23209524D01*
X24238095Y23161905D01*
X25761905Y22447619D02*
X25190476Y22447619D01*
X25476190Y22447619D02*
X25476190Y23447619D01*
X25380952Y23304762D01*
X25285714Y23209524D01*
X25190476Y23161905D01*
X23807143Y19842857D02*
X23759524Y19795238D01*
X23616667Y19747619D01*
X23521429Y19747619D01*
X23378571Y19795238D01*
X23283333Y19890476D01*
X23235714Y19985714D01*
X23188095Y20176190D01*
X23188095Y20319048D01*
X23235714Y20509524D01*
X23283333Y20604762D01*
X23378571Y20700000D01*
X23521429Y20747619D01*
X23616667Y20747619D01*
X23759524Y20700000D01*
X23807143Y20652381D01*
X24759524Y19747619D02*
X24188095Y19747619D01*
X24473809Y19747619D02*
X24473809Y20747619D01*
X24378571Y20604762D01*
X24283333Y20509524D01*
X24188095Y20461905D01*
X25140476Y20652381D02*
X25188095Y20700000D01*
X25283333Y20747619D01*
X25521429Y20747619D01*
X25616667Y20700000D01*
X25664286Y20652381D01*
X25711905Y20557143D01*
X25711905Y20461905D01*
X25664286Y20319048D01*
X25092857Y19747619D01*
X25711905Y19747619D01*
X41707143Y19182857D02*
X41659524Y19135238D01*
X41516667Y19087619D01*
X41421429Y19087619D01*
X41278571Y19135238D01*
X41183333Y19230476D01*
X41135714Y19325714D01*
X41088095Y19516190D01*
X41088095Y19659048D01*
X41135714Y19849524D01*
X41183333Y19944762D01*
X41278571Y20040000D01*
X41421429Y20087619D01*
X41516667Y20087619D01*
X41659524Y20040000D01*
X41707143Y19992381D01*
X42659524Y19087619D02*
X42088095Y19087619D01*
X42373809Y19087619D02*
X42373809Y20087619D01*
X42278571Y19944762D01*
X42183333Y19849524D01*
X42088095Y19801905D01*
X42992857Y20087619D02*
X43611905Y20087619D01*
X43278571Y19706667D01*
X43421429Y19706667D01*
X43516667Y19659048D01*
X43564286Y19611429D01*
X43611905Y19516190D01*
X43611905Y19278095D01*
X43564286Y19182857D01*
X43516667Y19135238D01*
X43421429Y19087619D01*
X43135714Y19087619D01*
X43040476Y19135238D01*
X42992857Y19182857D01*
X61807143Y482857D02*
X61759524Y435238D01*
X61616667Y387619D01*
X61521429Y387619D01*
X61378571Y435238D01*
X61283333Y530476D01*
X61235714Y625714D01*
X61188095Y816190D01*
X61188095Y959048D01*
X61235714Y1149524D01*
X61283333Y1244762D01*
X61378571Y1340000D01*
X61521429Y1387619D01*
X61616667Y1387619D01*
X61759524Y1340000D01*
X61807143Y1292381D01*
X62759524Y387619D02*
X62188095Y387619D01*
X62473809Y387619D02*
X62473809Y1387619D01*
X62378571Y1244762D01*
X62283333Y1149524D01*
X62188095Y1101905D01*
X63616667Y1054286D02*
X63616667Y387619D01*
X63378571Y1435238D02*
X63140476Y720952D01*
X63759524Y720952D01*
X62007143Y35102857D02*
X61959524Y35055238D01*
X61816667Y35007619D01*
X61721429Y35007619D01*
X61578571Y35055238D01*
X61483333Y35150476D01*
X61435714Y35245714D01*
X61388095Y35436190D01*
X61388095Y35579048D01*
X61435714Y35769524D01*
X61483333Y35864762D01*
X61578571Y35960000D01*
X61721429Y36007619D01*
X61816667Y36007619D01*
X61959524Y35960000D01*
X62007143Y35912381D01*
X62959524Y35007619D02*
X62388095Y35007619D01*
X62673809Y35007619D02*
X62673809Y36007619D01*
X62578571Y35864762D01*
X62483333Y35769524D01*
X62388095Y35721905D01*
X63864286Y36007619D02*
X63388095Y36007619D01*
X63340476Y35531429D01*
X63388095Y35579048D01*
X63483333Y35626667D01*
X63721429Y35626667D01*
X63816667Y35579048D01*
X63864286Y35531429D01*
X63911905Y35436190D01*
X63911905Y35198095D01*
X63864286Y35102857D01*
X63816667Y35055238D01*
X63721429Y35007619D01*
X63483333Y35007619D01*
X63388095Y35055238D01*
X63340476Y35102857D01*
X13526558Y2148651D02*
X13526558Y3148651D01*
X13764653Y3148651D01*
X13907511Y3101032D01*
X14002749Y3005794D01*
X14050368Y2910556D01*
X14097987Y2720080D01*
X14097987Y2577222D01*
X14050368Y2386746D01*
X14002749Y2291508D01*
X13907511Y2196270D01*
X13764653Y2148651D01*
X13526558Y2148651D01*
X15050368Y2148651D02*
X14478939Y2148651D01*
X14764653Y2148651D02*
X14764653Y3148651D01*
X14669415Y3005794D01*
X14574177Y2910556D01*
X14478939Y2862937D01*
X49983334Y56747619D02*
X49507143Y56747619D01*
X49507143Y57747619D01*
X50840477Y56747619D02*
X50269048Y56747619D01*
X50554762Y56747619D02*
X50554762Y57747619D01*
X50459524Y57604762D01*
X50364286Y57509524D01*
X50269048Y57461905D01*
X71172381Y34940476D02*
X70172381Y34940476D01*
X70886667Y35273810D01*
X70172381Y35607143D01*
X71172381Y35607143D01*
X71172381Y36607143D02*
X71172381Y36035714D01*
X71172381Y36321428D02*
X70172381Y36321428D01*
X70315238Y36226190D01*
X70410476Y36130952D01*
X70458095Y36035714D01*
X21422381Y54811905D02*
X20422381Y54811905D01*
X20422381Y55192858D01*
X20470000Y55288096D01*
X20517619Y55335715D01*
X20612857Y55383334D01*
X20755714Y55383334D01*
X20850952Y55335715D01*
X20898571Y55288096D01*
X20946190Y55192858D01*
X20946190Y54811905D01*
X21422381Y56335715D02*
X21422381Y55764286D01*
X21422381Y56050000D02*
X20422381Y56050000D01*
X20565238Y55954762D01*
X20660476Y55859524D01*
X20708095Y55764286D01*
X3461905Y47747619D02*
X3461905Y48747619D01*
X3842858Y48747619D01*
X3938096Y48700000D01*
X3985715Y48652381D01*
X4033334Y48557143D01*
X4033334Y48414286D01*
X3985715Y48319048D01*
X3938096Y48271429D01*
X3842858Y48223810D01*
X3461905Y48223810D01*
X4414286Y48652381D02*
X4461905Y48700000D01*
X4557143Y48747619D01*
X4795239Y48747619D01*
X4890477Y48700000D01*
X4938096Y48652381D01*
X4985715Y48557143D01*
X4985715Y48461905D01*
X4938096Y48319048D01*
X4366667Y47747619D01*
X4985715Y47747619D01*
X62811905Y45347619D02*
X62811905Y46347619D01*
X63192858Y46347619D01*
X63288096Y46300000D01*
X63335715Y46252381D01*
X63383334Y46157143D01*
X63383334Y46014286D01*
X63335715Y45919048D01*
X63288096Y45871429D01*
X63192858Y45823810D01*
X62811905Y45823810D01*
X63716667Y46347619D02*
X64335715Y46347619D01*
X64002381Y45966667D01*
X64145239Y45966667D01*
X64240477Y45919048D01*
X64288096Y45871429D01*
X64335715Y45776190D01*
X64335715Y45538095D01*
X64288096Y45442857D01*
X64240477Y45395238D01*
X64145239Y45347619D01*
X63859524Y45347619D01*
X63764286Y45395238D01*
X63716667Y45442857D01*
X5611905Y4597619D02*
X5611905Y5597619D01*
X5992858Y5597619D01*
X6088096Y5550000D01*
X6135715Y5502381D01*
X6183334Y5407143D01*
X6183334Y5264286D01*
X6135715Y5169048D01*
X6088096Y5121429D01*
X5992858Y5073810D01*
X5611905Y5073810D01*
X7040477Y5264286D02*
X7040477Y4597619D01*
X6802381Y5645238D02*
X6564286Y4930952D01*
X7183334Y4930952D01*
X50611905Y1347619D02*
X50611905Y2347619D01*
X50992858Y2347619D01*
X51088096Y2300000D01*
X51135715Y2252381D01*
X51183334Y2157143D01*
X51183334Y2014286D01*
X51135715Y1919048D01*
X51088096Y1871429D01*
X50992858Y1823810D01*
X50611905Y1823810D01*
X52088096Y2347619D02*
X51611905Y2347619D01*
X51564286Y1871429D01*
X51611905Y1919048D01*
X51707143Y1966667D01*
X51945239Y1966667D01*
X52040477Y1919048D01*
X52088096Y1871429D01*
X52135715Y1776190D01*
X52135715Y1538095D01*
X52088096Y1442857D01*
X52040477Y1395238D01*
X51945239Y1347619D01*
X51707143Y1347619D01*
X51611905Y1395238D01*
X51564286Y1442857D01*
X4747619Y32404762D02*
X4700000Y32309524D01*
X4604762Y32214286D01*
X4461905Y32071429D01*
X4414286Y31976190D01*
X4414286Y31880952D01*
X4652381Y31928571D02*
X4604762Y31833333D01*
X4509524Y31738095D01*
X4319048Y31690476D01*
X3985714Y31690476D01*
X3795238Y31738095D01*
X3700000Y31833333D01*
X3652381Y31928571D01*
X3652381Y32119048D01*
X3700000Y32214286D01*
X3795238Y32309524D01*
X3985714Y32357143D01*
X4319048Y32357143D01*
X4509524Y32309524D01*
X4604762Y32214286D01*
X4652381Y32119048D01*
X4652381Y31928571D01*
X4652381Y33309524D02*
X4652381Y32738095D01*
X4652381Y33023809D02*
X3652381Y33023809D01*
X3795238Y32928571D01*
X3890476Y32833333D01*
X3938095Y32738095D01*
X4447619Y27354762D02*
X4400000Y27259524D01*
X4304762Y27164286D01*
X4161905Y27021429D01*
X4114286Y26926190D01*
X4114286Y26830952D01*
X4352381Y26878571D02*
X4304762Y26783333D01*
X4209524Y26688095D01*
X4019048Y26640476D01*
X3685714Y26640476D01*
X3495238Y26688095D01*
X3400000Y26783333D01*
X3352381Y26878571D01*
X3352381Y27069048D01*
X3400000Y27164286D01*
X3495238Y27259524D01*
X3685714Y27307143D01*
X4019048Y27307143D01*
X4209524Y27259524D01*
X4304762Y27164286D01*
X4352381Y27069048D01*
X4352381Y26878571D01*
X3447619Y27688095D02*
X3400000Y27735714D01*
X3352381Y27830952D01*
X3352381Y28069048D01*
X3400000Y28164286D01*
X3447619Y28211905D01*
X3542857Y28259524D01*
X3638095Y28259524D01*
X3780952Y28211905D01*
X4352381Y27640476D01*
X4352381Y28259524D01*
X15207619Y38874762D02*
X15160000Y38779524D01*
X15064762Y38684286D01*
X14921905Y38541429D01*
X14874286Y38446190D01*
X14874286Y38350952D01*
X15112381Y38398571D02*
X15064762Y38303333D01*
X14969524Y38208095D01*
X14779048Y38160476D01*
X14445714Y38160476D01*
X14255238Y38208095D01*
X14160000Y38303333D01*
X14112381Y38398571D01*
X14112381Y38589048D01*
X14160000Y38684286D01*
X14255238Y38779524D01*
X14445714Y38827143D01*
X14779048Y38827143D01*
X14969524Y38779524D01*
X15064762Y38684286D01*
X15112381Y38589048D01*
X15112381Y38398571D01*
X14112381Y39160476D02*
X14112381Y39779524D01*
X14493333Y39446190D01*
X14493333Y39589048D01*
X14540952Y39684286D01*
X14588571Y39731905D01*
X14683810Y39779524D01*
X14921905Y39779524D01*
X15017143Y39731905D01*
X15064762Y39684286D01*
X15112381Y39589048D01*
X15112381Y39303333D01*
X15064762Y39208095D01*
X15017143Y39160476D01*
X14607619Y27404762D02*
X14560000Y27309524D01*
X14464762Y27214286D01*
X14321905Y27071429D01*
X14274286Y26976190D01*
X14274286Y26880952D01*
X14512381Y26928571D02*
X14464762Y26833333D01*
X14369524Y26738095D01*
X14179048Y26690476D01*
X13845714Y26690476D01*
X13655238Y26738095D01*
X13560000Y26833333D01*
X13512381Y26928571D01*
X13512381Y27119048D01*
X13560000Y27214286D01*
X13655238Y27309524D01*
X13845714Y27357143D01*
X14179048Y27357143D01*
X14369524Y27309524D01*
X14464762Y27214286D01*
X14512381Y27119048D01*
X14512381Y26928571D01*
X13845714Y28214286D02*
X14512381Y28214286D01*
X13464762Y27976190D02*
X14179048Y27738095D01*
X14179048Y28357143D01*
X8187619Y33074762D02*
X8140000Y32979524D01*
X8044762Y32884286D01*
X7901905Y32741429D01*
X7854286Y32646190D01*
X7854286Y32550952D01*
X8092381Y32598571D02*
X8044762Y32503333D01*
X7949524Y32408095D01*
X7759048Y32360476D01*
X7425714Y32360476D01*
X7235238Y32408095D01*
X7140000Y32503333D01*
X7092381Y32598571D01*
X7092381Y32789048D01*
X7140000Y32884286D01*
X7235238Y32979524D01*
X7425714Y33027143D01*
X7759048Y33027143D01*
X7949524Y32979524D01*
X8044762Y32884286D01*
X8092381Y32789048D01*
X8092381Y32598571D01*
X7092381Y33931905D02*
X7092381Y33455714D01*
X7568571Y33408095D01*
X7520952Y33455714D01*
X7473333Y33550952D01*
X7473333Y33789048D01*
X7520952Y33884286D01*
X7568571Y33931905D01*
X7663810Y33979524D01*
X7901905Y33979524D01*
X7997143Y33931905D01*
X8044762Y33884286D01*
X8092381Y33789048D01*
X8092381Y33550952D01*
X8044762Y33455714D01*
X7997143Y33408095D01*
X3087619Y45824762D02*
X3040000Y45729524D01*
X2944762Y45634286D01*
X2801905Y45491429D01*
X2754286Y45396190D01*
X2754286Y45300952D01*
X2992381Y45348571D02*
X2944762Y45253333D01*
X2849524Y45158095D01*
X2659048Y45110476D01*
X2325714Y45110476D01*
X2135238Y45158095D01*
X2040000Y45253333D01*
X1992381Y45348571D01*
X1992381Y45539048D01*
X2040000Y45634286D01*
X2135238Y45729524D01*
X2325714Y45777143D01*
X2659048Y45777143D01*
X2849524Y45729524D01*
X2944762Y45634286D01*
X2992381Y45539048D01*
X2992381Y45348571D01*
X1992381Y46634286D02*
X1992381Y46443809D01*
X2040000Y46348571D01*
X2087619Y46300952D01*
X2230476Y46205714D01*
X2420952Y46158095D01*
X2801905Y46158095D01*
X2897143Y46205714D01*
X2944762Y46253333D01*
X2992381Y46348571D01*
X2992381Y46539048D01*
X2944762Y46634286D01*
X2897143Y46681905D01*
X2801905Y46729524D01*
X2563810Y46729524D01*
X2468571Y46681905D01*
X2420952Y46634286D01*
X2373333Y46539048D01*
X2373333Y46348571D01*
X2420952Y46253333D01*
X2468571Y46205714D01*
X2563810Y46158095D01*
X14987619Y44354762D02*
X14940000Y44259524D01*
X14844762Y44164286D01*
X14701905Y44021429D01*
X14654286Y43926190D01*
X14654286Y43830952D01*
X14892381Y43878571D02*
X14844762Y43783333D01*
X14749524Y43688095D01*
X14559048Y43640476D01*
X14225714Y43640476D01*
X14035238Y43688095D01*
X13940000Y43783333D01*
X13892381Y43878571D01*
X13892381Y44069048D01*
X13940000Y44164286D01*
X14035238Y44259524D01*
X14225714Y44307143D01*
X14559048Y44307143D01*
X14749524Y44259524D01*
X14844762Y44164286D01*
X14892381Y44069048D01*
X14892381Y43878571D01*
X13892381Y44640476D02*
X13892381Y45307143D01*
X14892381Y44878571D01*
X8234762Y18592381D02*
X8139524Y18640000D01*
X8044286Y18735238D01*
X7901429Y18878095D01*
X7806190Y18925714D01*
X7710952Y18925714D01*
X7758571Y18687619D02*
X7663333Y18735238D01*
X7568095Y18830476D01*
X7520476Y19020952D01*
X7520476Y19354286D01*
X7568095Y19544762D01*
X7663333Y19640000D01*
X7758571Y19687619D01*
X7949048Y19687619D01*
X8044286Y19640000D01*
X8139524Y19544762D01*
X8187143Y19354286D01*
X8187143Y19020952D01*
X8139524Y18830476D01*
X8044286Y18735238D01*
X7949048Y18687619D01*
X7758571Y18687619D01*
X8758571Y19259048D02*
X8663333Y19306667D01*
X8615714Y19354286D01*
X8568095Y19449524D01*
X8568095Y19497143D01*
X8615714Y19592381D01*
X8663333Y19640000D01*
X8758571Y19687619D01*
X8949048Y19687619D01*
X9044286Y19640000D01*
X9091905Y19592381D01*
X9139524Y19497143D01*
X9139524Y19449524D01*
X9091905Y19354286D01*
X9044286Y19306667D01*
X8949048Y19259048D01*
X8758571Y19259048D01*
X8663333Y19211429D01*
X8615714Y19163810D01*
X8568095Y19068571D01*
X8568095Y18878095D01*
X8615714Y18782857D01*
X8663333Y18735238D01*
X8758571Y18687619D01*
X8949048Y18687619D01*
X9044286Y18735238D01*
X9091905Y18782857D01*
X9139524Y18878095D01*
X9139524Y19068571D01*
X9091905Y19163810D01*
X9044286Y19211429D01*
X8949048Y19259048D01*
X44047619Y47394762D02*
X44000000Y47299524D01*
X43904762Y47204286D01*
X43761905Y47061429D01*
X43714286Y46966190D01*
X43714286Y46870952D01*
X43952381Y46918571D02*
X43904762Y46823333D01*
X43809524Y46728095D01*
X43619048Y46680476D01*
X43285714Y46680476D01*
X43095238Y46728095D01*
X43000000Y46823333D01*
X42952381Y46918571D01*
X42952381Y47109048D01*
X43000000Y47204286D01*
X43095238Y47299524D01*
X43285714Y47347143D01*
X43619048Y47347143D01*
X43809524Y47299524D01*
X43904762Y47204286D01*
X43952381Y47109048D01*
X43952381Y46918571D01*
X43952381Y47823333D02*
X43952381Y48013809D01*
X43904762Y48109048D01*
X43857143Y48156667D01*
X43714286Y48251905D01*
X43523810Y48299524D01*
X43142857Y48299524D01*
X43047619Y48251905D01*
X43000000Y48204286D01*
X42952381Y48109048D01*
X42952381Y47918571D01*
X43000000Y47823333D01*
X43047619Y47775714D01*
X43142857Y47728095D01*
X43380952Y47728095D01*
X43476190Y47775714D01*
X43523810Y47823333D01*
X43571429Y47918571D01*
X43571429Y48109048D01*
X43523810Y48204286D01*
X43476190Y48251905D01*
X43380952Y48299524D01*
X23858572Y30562381D02*
X23763334Y30610000D01*
X23668096Y30705238D01*
X23525239Y30848095D01*
X23430000Y30895714D01*
X23334762Y30895714D01*
X23382381Y30657619D02*
X23287143Y30705238D01*
X23191905Y30800476D01*
X23144286Y30990952D01*
X23144286Y31324286D01*
X23191905Y31514762D01*
X23287143Y31610000D01*
X23382381Y31657619D01*
X23572858Y31657619D01*
X23668096Y31610000D01*
X23763334Y31514762D01*
X23810953Y31324286D01*
X23810953Y30990952D01*
X23763334Y30800476D01*
X23668096Y30705238D01*
X23572858Y30657619D01*
X23382381Y30657619D01*
X24763334Y30657619D02*
X24191905Y30657619D01*
X24477619Y30657619D02*
X24477619Y31657619D01*
X24382381Y31514762D01*
X24287143Y31419524D01*
X24191905Y31371905D01*
X25382381Y31657619D02*
X25477620Y31657619D01*
X25572858Y31610000D01*
X25620477Y31562381D01*
X25668096Y31467143D01*
X25715715Y31276667D01*
X25715715Y31038571D01*
X25668096Y30848095D01*
X25620477Y30752857D01*
X25572858Y30705238D01*
X25477620Y30657619D01*
X25382381Y30657619D01*
X25287143Y30705238D01*
X25239524Y30752857D01*
X25191905Y30848095D01*
X25144286Y31038571D01*
X25144286Y31276667D01*
X25191905Y31467143D01*
X25239524Y31562381D01*
X25287143Y31610000D01*
X25382381Y31657619D01*
X43947619Y37678572D02*
X43900000Y37583334D01*
X43804762Y37488096D01*
X43661905Y37345239D01*
X43614286Y37250000D01*
X43614286Y37154762D01*
X43852381Y37202381D02*
X43804762Y37107143D01*
X43709524Y37011905D01*
X43519048Y36964286D01*
X43185714Y36964286D01*
X42995238Y37011905D01*
X42900000Y37107143D01*
X42852381Y37202381D01*
X42852381Y37392858D01*
X42900000Y37488096D01*
X42995238Y37583334D01*
X43185714Y37630953D01*
X43519048Y37630953D01*
X43709524Y37583334D01*
X43804762Y37488096D01*
X43852381Y37392858D01*
X43852381Y37202381D01*
X43852381Y38583334D02*
X43852381Y38011905D01*
X43852381Y38297619D02*
X42852381Y38297619D01*
X42995238Y38202381D01*
X43090476Y38107143D01*
X43138095Y38011905D01*
X43852381Y39535715D02*
X43852381Y38964286D01*
X43852381Y39250000D02*
X42852381Y39250000D01*
X42995238Y39154762D01*
X43090476Y39059524D01*
X43138095Y38964286D01*
X43747619Y28358572D02*
X43700000Y28263334D01*
X43604762Y28168096D01*
X43461905Y28025239D01*
X43414286Y27930000D01*
X43414286Y27834762D01*
X43652381Y27882381D02*
X43604762Y27787143D01*
X43509524Y27691905D01*
X43319048Y27644286D01*
X42985714Y27644286D01*
X42795238Y27691905D01*
X42700000Y27787143D01*
X42652381Y27882381D01*
X42652381Y28072858D01*
X42700000Y28168096D01*
X42795238Y28263334D01*
X42985714Y28310953D01*
X43319048Y28310953D01*
X43509524Y28263334D01*
X43604762Y28168096D01*
X43652381Y28072858D01*
X43652381Y27882381D01*
X43652381Y29263334D02*
X43652381Y28691905D01*
X43652381Y28977619D02*
X42652381Y28977619D01*
X42795238Y28882381D01*
X42890476Y28787143D01*
X42938095Y28691905D01*
X42747619Y29644286D02*
X42700000Y29691905D01*
X42652381Y29787143D01*
X42652381Y30025239D01*
X42700000Y30120477D01*
X42747619Y30168096D01*
X42842857Y30215715D01*
X42938095Y30215715D01*
X43080952Y30168096D01*
X43652381Y29596667D01*
X43652381Y30215715D01*
X71267619Y5178572D02*
X71220000Y5083334D01*
X71124762Y4988096D01*
X70981905Y4845239D01*
X70934286Y4750000D01*
X70934286Y4654762D01*
X71172381Y4702381D02*
X71124762Y4607143D01*
X71029524Y4511905D01*
X70839048Y4464286D01*
X70505714Y4464286D01*
X70315238Y4511905D01*
X70220000Y4607143D01*
X70172381Y4702381D01*
X70172381Y4892858D01*
X70220000Y4988096D01*
X70315238Y5083334D01*
X70505714Y5130953D01*
X70839048Y5130953D01*
X71029524Y5083334D01*
X71124762Y4988096D01*
X71172381Y4892858D01*
X71172381Y4702381D01*
X71172381Y6083334D02*
X71172381Y5511905D01*
X71172381Y5797619D02*
X70172381Y5797619D01*
X70315238Y5702381D01*
X70410476Y5607143D01*
X70458095Y5511905D01*
X70172381Y6416667D02*
X70172381Y7035715D01*
X70553333Y6702381D01*
X70553333Y6845239D01*
X70600952Y6940477D01*
X70648571Y6988096D01*
X70743810Y7035715D01*
X70981905Y7035715D01*
X71077143Y6988096D01*
X71124762Y6940477D01*
X71172381Y6845239D01*
X71172381Y6559524D01*
X71124762Y6464286D01*
X71077143Y6416667D01*
X3152381Y30583334D02*
X2676190Y30250000D01*
X3152381Y30011905D02*
X2152381Y30011905D01*
X2152381Y30392858D01*
X2200000Y30488096D01*
X2247619Y30535715D01*
X2342857Y30583334D01*
X2485714Y30583334D01*
X2580952Y30535715D01*
X2628571Y30488096D01*
X2676190Y30392858D01*
X2676190Y30011905D01*
X3152381Y31535715D02*
X3152381Y30964286D01*
X3152381Y31250000D02*
X2152381Y31250000D01*
X2295238Y31154762D01*
X2390476Y31059524D01*
X2438095Y30964286D01*
X7012381Y39373334D02*
X6536190Y39040000D01*
X7012381Y38801905D02*
X6012381Y38801905D01*
X6012381Y39182858D01*
X6060000Y39278096D01*
X6107619Y39325715D01*
X6202857Y39373334D01*
X6345714Y39373334D01*
X6440952Y39325715D01*
X6488571Y39278096D01*
X6536190Y39182858D01*
X6536190Y38801905D01*
X6107619Y39754286D02*
X6060000Y39801905D01*
X6012381Y39897143D01*
X6012381Y40135239D01*
X6060000Y40230477D01*
X6107619Y40278096D01*
X6202857Y40325715D01*
X6298095Y40325715D01*
X6440952Y40278096D01*
X7012381Y39706667D01*
X7012381Y40325715D01*
X6612381Y20973334D02*
X6136190Y20640000D01*
X6612381Y20401905D02*
X5612381Y20401905D01*
X5612381Y20782858D01*
X5660000Y20878096D01*
X5707619Y20925715D01*
X5802857Y20973334D01*
X5945714Y20973334D01*
X6040952Y20925715D01*
X6088571Y20878096D01*
X6136190Y20782858D01*
X6136190Y20401905D01*
X5612381Y21306667D02*
X5612381Y21925715D01*
X5993333Y21592381D01*
X5993333Y21735239D01*
X6040952Y21830477D01*
X6088571Y21878096D01*
X6183810Y21925715D01*
X6421905Y21925715D01*
X6517143Y21878096D01*
X6564762Y21830477D01*
X6612381Y21735239D01*
X6612381Y21449524D01*
X6564762Y21354286D01*
X6517143Y21306667D01*
X1652381Y44833334D02*
X1176190Y44500000D01*
X1652381Y44261905D02*
X652381Y44261905D01*
X652381Y44642858D01*
X700000Y44738096D01*
X747619Y44785715D01*
X842857Y44833334D01*
X985714Y44833334D01*
X1080952Y44785715D01*
X1128571Y44738096D01*
X1176190Y44642858D01*
X1176190Y44261905D01*
X985714Y45690477D02*
X1652381Y45690477D01*
X604762Y45452381D02*
X1319048Y45214286D01*
X1319048Y45833334D01*
X1552381Y37933334D02*
X1076190Y37600000D01*
X1552381Y37361905D02*
X552381Y37361905D01*
X552381Y37742858D01*
X600000Y37838096D01*
X647619Y37885715D01*
X742857Y37933334D01*
X885714Y37933334D01*
X980952Y37885715D01*
X1028571Y37838096D01*
X1076190Y37742858D01*
X1076190Y37361905D01*
X552381Y38838096D02*
X552381Y38361905D01*
X1028571Y38314286D01*
X980952Y38361905D01*
X933333Y38457143D01*
X933333Y38695239D01*
X980952Y38790477D01*
X1028571Y38838096D01*
X1123810Y38885715D01*
X1361905Y38885715D01*
X1457143Y38838096D01*
X1504762Y38790477D01*
X1552381Y38695239D01*
X1552381Y38457143D01*
X1504762Y38361905D01*
X1457143Y38314286D01*
X9162381Y39373334D02*
X8686190Y39040000D01*
X9162381Y38801905D02*
X8162381Y38801905D01*
X8162381Y39182858D01*
X8210000Y39278096D01*
X8257619Y39325715D01*
X8352857Y39373334D01*
X8495714Y39373334D01*
X8590952Y39325715D01*
X8638571Y39278096D01*
X8686190Y39182858D01*
X8686190Y38801905D01*
X8162381Y40230477D02*
X8162381Y40040000D01*
X8210000Y39944762D01*
X8257619Y39897143D01*
X8400476Y39801905D01*
X8590952Y39754286D01*
X8971905Y39754286D01*
X9067143Y39801905D01*
X9114762Y39849524D01*
X9162381Y39944762D01*
X9162381Y40135239D01*
X9114762Y40230477D01*
X9067143Y40278096D01*
X8971905Y40325715D01*
X8733810Y40325715D01*
X8638571Y40278096D01*
X8590952Y40230477D01*
X8543333Y40135239D01*
X8543333Y39944762D01*
X8590952Y39849524D01*
X8638571Y39801905D01*
X8733810Y39754286D01*
X14612381Y20993334D02*
X14136190Y20660000D01*
X14612381Y20421905D02*
X13612381Y20421905D01*
X13612381Y20802858D01*
X13660000Y20898096D01*
X13707619Y20945715D01*
X13802857Y20993334D01*
X13945714Y20993334D01*
X14040952Y20945715D01*
X14088571Y20898096D01*
X14136190Y20802858D01*
X14136190Y20421905D01*
X13612381Y21326667D02*
X13612381Y21993334D01*
X14612381Y21564762D01*
X22502987Y18773550D02*
X22169653Y19249741D01*
X21931558Y18773550D02*
X21931558Y19773550D01*
X22312511Y19773550D01*
X22407749Y19725931D01*
X22455368Y19678312D01*
X22502987Y19583074D01*
X22502987Y19440217D01*
X22455368Y19344979D01*
X22407749Y19297360D01*
X22312511Y19249741D01*
X21931558Y19249741D01*
X23074415Y19344979D02*
X22979177Y19392598D01*
X22931558Y19440217D01*
X22883939Y19535455D01*
X22883939Y19583074D01*
X22931558Y19678312D01*
X22979177Y19725931D01*
X23074415Y19773550D01*
X23264892Y19773550D01*
X23360130Y19725931D01*
X23407749Y19678312D01*
X23455368Y19583074D01*
X23455368Y19535455D01*
X23407749Y19440217D01*
X23360130Y19392598D01*
X23264892Y19344979D01*
X23074415Y19344979D01*
X22979177Y19297360D01*
X22931558Y19249741D01*
X22883939Y19154502D01*
X22883939Y18964026D01*
X22931558Y18868788D01*
X22979177Y18821169D01*
X23074415Y18773550D01*
X23264892Y18773550D01*
X23360130Y18821169D01*
X23407749Y18868788D01*
X23455368Y18964026D01*
X23455368Y19154502D01*
X23407749Y19249741D01*
X23360130Y19297360D01*
X23264892Y19344979D01*
X22497987Y14523550D02*
X22164653Y14999741D01*
X21926558Y14523550D02*
X21926558Y15523550D01*
X22307511Y15523550D01*
X22402749Y15475931D01*
X22450368Y15428312D01*
X22497987Y15333074D01*
X22497987Y15190217D01*
X22450368Y15094979D01*
X22402749Y15047360D01*
X22307511Y14999741D01*
X21926558Y14999741D01*
X22974177Y14523550D02*
X23164653Y14523550D01*
X23259892Y14571169D01*
X23307511Y14618788D01*
X23402749Y14761645D01*
X23450368Y14952121D01*
X23450368Y15333074D01*
X23402749Y15428312D01*
X23355130Y15475931D01*
X23259892Y15523550D01*
X23069415Y15523550D01*
X22974177Y15475931D01*
X22926558Y15428312D01*
X22878939Y15333074D01*
X22878939Y15094979D01*
X22926558Y14999741D01*
X22974177Y14952121D01*
X23069415Y14904502D01*
X23259892Y14904502D01*
X23355130Y14952121D01*
X23402749Y14999741D01*
X23450368Y15094979D01*
X22026796Y16648550D02*
X21693462Y17124741D01*
X21455367Y16648550D02*
X21455367Y17648550D01*
X21836320Y17648550D01*
X21931558Y17600931D01*
X21979177Y17553312D01*
X22026796Y17458074D01*
X22026796Y17315217D01*
X21979177Y17219979D01*
X21931558Y17172360D01*
X21836320Y17124741D01*
X21455367Y17124741D01*
X22979177Y16648550D02*
X22407748Y16648550D01*
X22693462Y16648550D02*
X22693462Y17648550D01*
X22598224Y17505693D01*
X22502986Y17410455D01*
X22407748Y17362836D01*
X23598224Y17648550D02*
X23693463Y17648550D01*
X23788701Y17600931D01*
X23836320Y17553312D01*
X23883939Y17458074D01*
X23931558Y17267598D01*
X23931558Y17029502D01*
X23883939Y16839026D01*
X23836320Y16743788D01*
X23788701Y16696169D01*
X23693463Y16648550D01*
X23598224Y16648550D01*
X23502986Y16696169D01*
X23455367Y16743788D01*
X23407748Y16839026D01*
X23360129Y17029502D01*
X23360129Y17267598D01*
X23407748Y17458074D01*
X23455367Y17553312D01*
X23502986Y17600931D01*
X23598224Y17648550D01*
X14312381Y44697143D02*
X13836190Y44363809D01*
X14312381Y44125714D02*
X13312381Y44125714D01*
X13312381Y44506667D01*
X13360000Y44601905D01*
X13407619Y44649524D01*
X13502857Y44697143D01*
X13645714Y44697143D01*
X13740952Y44649524D01*
X13788571Y44601905D01*
X13836190Y44506667D01*
X13836190Y44125714D01*
X14312381Y45649524D02*
X14312381Y45078095D01*
X14312381Y45363809D02*
X13312381Y45363809D01*
X13455238Y45268571D01*
X13550476Y45173333D01*
X13598095Y45078095D01*
X14312381Y46601905D02*
X14312381Y46030476D01*
X14312381Y46316190D02*
X13312381Y46316190D01*
X13455238Y46220952D01*
X13550476Y46125714D01*
X13598095Y46030476D01*
X8442381Y44647143D02*
X7966190Y44313809D01*
X8442381Y44075714D02*
X7442381Y44075714D01*
X7442381Y44456667D01*
X7490000Y44551905D01*
X7537619Y44599524D01*
X7632857Y44647143D01*
X7775714Y44647143D01*
X7870952Y44599524D01*
X7918571Y44551905D01*
X7966190Y44456667D01*
X7966190Y44075714D01*
X8442381Y45599524D02*
X8442381Y45028095D01*
X8442381Y45313809D02*
X7442381Y45313809D01*
X7585238Y45218571D01*
X7680476Y45123333D01*
X7728095Y45028095D01*
X7537619Y45980476D02*
X7490000Y46028095D01*
X7442381Y46123333D01*
X7442381Y46361429D01*
X7490000Y46456667D01*
X7537619Y46504286D01*
X7632857Y46551905D01*
X7728095Y46551905D01*
X7870952Y46504286D01*
X8442381Y45932857D01*
X8442381Y46551905D01*
X30317143Y12012619D02*
X29983809Y12488810D01*
X29745714Y12012619D02*
X29745714Y13012619D01*
X30126667Y13012619D01*
X30221905Y12965000D01*
X30269524Y12917381D01*
X30317143Y12822143D01*
X30317143Y12679286D01*
X30269524Y12584048D01*
X30221905Y12536429D01*
X30126667Y12488810D01*
X29745714Y12488810D01*
X31269524Y12012619D02*
X30698095Y12012619D01*
X30983809Y12012619D02*
X30983809Y13012619D01*
X30888571Y12869762D01*
X30793333Y12774524D01*
X30698095Y12726905D01*
X31602857Y13012619D02*
X32221905Y13012619D01*
X31888571Y12631667D01*
X32031429Y12631667D01*
X32126667Y12584048D01*
X32174286Y12536429D01*
X32221905Y12441190D01*
X32221905Y12203095D01*
X32174286Y12107857D01*
X32126667Y12060238D01*
X32031429Y12012619D01*
X31745714Y12012619D01*
X31650476Y12060238D01*
X31602857Y12107857D01*
X30342143Y6287619D02*
X30008809Y6763810D01*
X29770714Y6287619D02*
X29770714Y7287619D01*
X30151667Y7287619D01*
X30246905Y7240000D01*
X30294524Y7192381D01*
X30342143Y7097143D01*
X30342143Y6954286D01*
X30294524Y6859048D01*
X30246905Y6811429D01*
X30151667Y6763810D01*
X29770714Y6763810D01*
X31294524Y6287619D02*
X30723095Y6287619D01*
X31008809Y6287619D02*
X31008809Y7287619D01*
X30913571Y7144762D01*
X30818333Y7049524D01*
X30723095Y7001905D01*
X32151667Y6954286D02*
X32151667Y6287619D01*
X31913571Y7335238D02*
X31675476Y6620952D01*
X32294524Y6620952D01*
X16462381Y44697143D02*
X15986190Y44363809D01*
X16462381Y44125714D02*
X15462381Y44125714D01*
X15462381Y44506667D01*
X15510000Y44601905D01*
X15557619Y44649524D01*
X15652857Y44697143D01*
X15795714Y44697143D01*
X15890952Y44649524D01*
X15938571Y44601905D01*
X15986190Y44506667D01*
X15986190Y44125714D01*
X16462381Y45649524D02*
X16462381Y45078095D01*
X16462381Y45363809D02*
X15462381Y45363809D01*
X15605238Y45268571D01*
X15700476Y45173333D01*
X15748095Y45078095D01*
X15462381Y46554286D02*
X15462381Y46078095D01*
X15938571Y46030476D01*
X15890952Y46078095D01*
X15843333Y46173333D01*
X15843333Y46411429D01*
X15890952Y46506667D01*
X15938571Y46554286D01*
X16033810Y46601905D01*
X16271905Y46601905D01*
X16367143Y46554286D01*
X16414762Y46506667D01*
X16462381Y46411429D01*
X16462381Y46173333D01*
X16414762Y46078095D01*
X16367143Y46030476D01*
X18642381Y50147143D02*
X18166190Y49813809D01*
X18642381Y49575714D02*
X17642381Y49575714D01*
X17642381Y49956667D01*
X17690000Y50051905D01*
X17737619Y50099524D01*
X17832857Y50147143D01*
X17975714Y50147143D01*
X18070952Y50099524D01*
X18118571Y50051905D01*
X18166190Y49956667D01*
X18166190Y49575714D01*
X18642381Y51099524D02*
X18642381Y50528095D01*
X18642381Y50813809D02*
X17642381Y50813809D01*
X17785238Y50718571D01*
X17880476Y50623333D01*
X17928095Y50528095D01*
X17642381Y51956667D02*
X17642381Y51766190D01*
X17690000Y51670952D01*
X17737619Y51623333D01*
X17880476Y51528095D01*
X18070952Y51480476D01*
X18451905Y51480476D01*
X18547143Y51528095D01*
X18594762Y51575714D01*
X18642381Y51670952D01*
X18642381Y51861429D01*
X18594762Y51956667D01*
X18547143Y52004286D01*
X18451905Y52051905D01*
X18213810Y52051905D01*
X18118571Y52004286D01*
X18070952Y51956667D01*
X18023333Y51861429D01*
X18023333Y51670952D01*
X18070952Y51575714D01*
X18118571Y51528095D01*
X18213810Y51480476D01*
X15792381Y27307143D02*
X15316190Y26973809D01*
X15792381Y26735714D02*
X14792381Y26735714D01*
X14792381Y27116667D01*
X14840000Y27211905D01*
X14887619Y27259524D01*
X14982857Y27307143D01*
X15125714Y27307143D01*
X15220952Y27259524D01*
X15268571Y27211905D01*
X15316190Y27116667D01*
X15316190Y26735714D01*
X15792381Y28259524D02*
X15792381Y27688095D01*
X15792381Y27973809D02*
X14792381Y27973809D01*
X14935238Y27878571D01*
X15030476Y27783333D01*
X15078095Y27688095D01*
X14792381Y28592857D02*
X14792381Y29259524D01*
X15792381Y28830952D01*
X17517143Y22857619D02*
X17183809Y23333810D01*
X16945714Y22857619D02*
X16945714Y23857619D01*
X17326667Y23857619D01*
X17421905Y23810000D01*
X17469524Y23762381D01*
X17517143Y23667143D01*
X17517143Y23524286D01*
X17469524Y23429048D01*
X17421905Y23381429D01*
X17326667Y23333810D01*
X16945714Y23333810D01*
X18469524Y22857619D02*
X17898095Y22857619D01*
X18183809Y22857619D02*
X18183809Y23857619D01*
X18088571Y23714762D01*
X17993333Y23619524D01*
X17898095Y23571905D01*
X19040952Y23429048D02*
X18945714Y23476667D01*
X18898095Y23524286D01*
X18850476Y23619524D01*
X18850476Y23667143D01*
X18898095Y23762381D01*
X18945714Y23810000D01*
X19040952Y23857619D01*
X19231429Y23857619D01*
X19326667Y23810000D01*
X19374286Y23762381D01*
X19421905Y23667143D01*
X19421905Y23619524D01*
X19374286Y23524286D01*
X19326667Y23476667D01*
X19231429Y23429048D01*
X19040952Y23429048D01*
X18945714Y23381429D01*
X18898095Y23333810D01*
X18850476Y23238571D01*
X18850476Y23048095D01*
X18898095Y22952857D01*
X18945714Y22905238D01*
X19040952Y22857619D01*
X19231429Y22857619D01*
X19326667Y22905238D01*
X19374286Y22952857D01*
X19421905Y23048095D01*
X19421905Y23238571D01*
X19374286Y23333810D01*
X19326667Y23381429D01*
X19231429Y23429048D01*
X13592381Y34247143D02*
X13116190Y33913809D01*
X13592381Y33675714D02*
X12592381Y33675714D01*
X12592381Y34056667D01*
X12640000Y34151905D01*
X12687619Y34199524D01*
X12782857Y34247143D01*
X12925714Y34247143D01*
X13020952Y34199524D01*
X13068571Y34151905D01*
X13116190Y34056667D01*
X13116190Y33675714D01*
X13592381Y35199524D02*
X13592381Y34628095D01*
X13592381Y34913809D02*
X12592381Y34913809D01*
X12735238Y34818571D01*
X12830476Y34723333D01*
X12878095Y34628095D01*
X13592381Y35675714D02*
X13592381Y35866190D01*
X13544762Y35961429D01*
X13497143Y36009048D01*
X13354286Y36104286D01*
X13163810Y36151905D01*
X12782857Y36151905D01*
X12687619Y36104286D01*
X12640000Y36056667D01*
X12592381Y35961429D01*
X12592381Y35770952D01*
X12640000Y35675714D01*
X12687619Y35628095D01*
X12782857Y35580476D01*
X13020952Y35580476D01*
X13116190Y35628095D01*
X13163810Y35675714D01*
X13211429Y35770952D01*
X13211429Y35961429D01*
X13163810Y36056667D01*
X13116190Y36104286D01*
X13020952Y36151905D01*
X13592381Y27067143D02*
X13116190Y26733809D01*
X13592381Y26495714D02*
X12592381Y26495714D01*
X12592381Y26876667D01*
X12640000Y26971905D01*
X12687619Y27019524D01*
X12782857Y27067143D01*
X12925714Y27067143D01*
X13020952Y27019524D01*
X13068571Y26971905D01*
X13116190Y26876667D01*
X13116190Y26495714D01*
X12687619Y27448095D02*
X12640000Y27495714D01*
X12592381Y27590952D01*
X12592381Y27829048D01*
X12640000Y27924286D01*
X12687619Y27971905D01*
X12782857Y28019524D01*
X12878095Y28019524D01*
X13020952Y27971905D01*
X13592381Y27400476D01*
X13592381Y28019524D01*
X12592381Y28638571D02*
X12592381Y28733810D01*
X12640000Y28829048D01*
X12687619Y28876667D01*
X12782857Y28924286D01*
X12973333Y28971905D01*
X13211429Y28971905D01*
X13401905Y28924286D01*
X13497143Y28876667D01*
X13544762Y28829048D01*
X13592381Y28733810D01*
X13592381Y28638571D01*
X13544762Y28543333D01*
X13497143Y28495714D01*
X13401905Y28448095D01*
X13211429Y28400476D01*
X12973333Y28400476D01*
X12782857Y28448095D01*
X12687619Y28495714D01*
X12640000Y28543333D01*
X12592381Y28638571D01*
X16897143Y38237619D02*
X16563809Y38713810D01*
X16325714Y38237619D02*
X16325714Y39237619D01*
X16706667Y39237619D01*
X16801905Y39190000D01*
X16849524Y39142381D01*
X16897143Y39047143D01*
X16897143Y38904286D01*
X16849524Y38809048D01*
X16801905Y38761429D01*
X16706667Y38713810D01*
X16325714Y38713810D01*
X17278095Y39142381D02*
X17325714Y39190000D01*
X17420952Y39237619D01*
X17659048Y39237619D01*
X17754286Y39190000D01*
X17801905Y39142381D01*
X17849524Y39047143D01*
X17849524Y38951905D01*
X17801905Y38809048D01*
X17230476Y38237619D01*
X17849524Y38237619D01*
X18801905Y38237619D02*
X18230476Y38237619D01*
X18516190Y38237619D02*
X18516190Y39237619D01*
X18420952Y39094762D01*
X18325714Y38999524D01*
X18230476Y38951905D01*
X59012381Y34967143D02*
X58536190Y34633809D01*
X59012381Y34395714D02*
X58012381Y34395714D01*
X58012381Y34776667D01*
X58060000Y34871905D01*
X58107619Y34919524D01*
X58202857Y34967143D01*
X58345714Y34967143D01*
X58440952Y34919524D01*
X58488571Y34871905D01*
X58536190Y34776667D01*
X58536190Y34395714D01*
X58107619Y35348095D02*
X58060000Y35395714D01*
X58012381Y35490952D01*
X58012381Y35729048D01*
X58060000Y35824286D01*
X58107619Y35871905D01*
X58202857Y35919524D01*
X58298095Y35919524D01*
X58440952Y35871905D01*
X59012381Y35300476D01*
X59012381Y35919524D01*
X58107619Y36300476D02*
X58060000Y36348095D01*
X58012381Y36443333D01*
X58012381Y36681429D01*
X58060000Y36776667D01*
X58107619Y36824286D01*
X58202857Y36871905D01*
X58298095Y36871905D01*
X58440952Y36824286D01*
X59012381Y36252857D01*
X59012381Y36871905D01*
X43017143Y16437619D02*
X42683809Y16913810D01*
X42445714Y16437619D02*
X42445714Y17437619D01*
X42826667Y17437619D01*
X42921905Y17390000D01*
X42969524Y17342381D01*
X43017143Y17247143D01*
X43017143Y17104286D01*
X42969524Y17009048D01*
X42921905Y16961429D01*
X42826667Y16913810D01*
X42445714Y16913810D01*
X43398095Y17342381D02*
X43445714Y17390000D01*
X43540952Y17437619D01*
X43779048Y17437619D01*
X43874286Y17390000D01*
X43921905Y17342381D01*
X43969524Y17247143D01*
X43969524Y17151905D01*
X43921905Y17009048D01*
X43350476Y16437619D01*
X43969524Y16437619D01*
X44302857Y17437619D02*
X44921905Y17437619D01*
X44588571Y17056667D01*
X44731429Y17056667D01*
X44826667Y17009048D01*
X44874286Y16961429D01*
X44921905Y16866190D01*
X44921905Y16628095D01*
X44874286Y16532857D01*
X44826667Y16485238D01*
X44731429Y16437619D01*
X44445714Y16437619D01*
X44350476Y16485238D01*
X44302857Y16532857D01*
X43017143Y15757619D02*
X42683809Y16233810D01*
X42445714Y15757619D02*
X42445714Y16757619D01*
X42826667Y16757619D01*
X42921905Y16710000D01*
X42969524Y16662381D01*
X43017143Y16567143D01*
X43017143Y16424286D01*
X42969524Y16329048D01*
X42921905Y16281429D01*
X42826667Y16233810D01*
X42445714Y16233810D01*
X43398095Y16662381D02*
X43445714Y16710000D01*
X43540952Y16757619D01*
X43779048Y16757619D01*
X43874286Y16710000D01*
X43921905Y16662381D01*
X43969524Y16567143D01*
X43969524Y16471905D01*
X43921905Y16329048D01*
X43350476Y15757619D01*
X43969524Y15757619D01*
X44826667Y16424286D02*
X44826667Y15757619D01*
X44588571Y16805238D02*
X44350476Y16090952D01*
X44969524Y16090952D01*
X55952381Y5157143D02*
X55476190Y4823809D01*
X55952381Y4585714D02*
X54952381Y4585714D01*
X54952381Y4966667D01*
X55000000Y5061905D01*
X55047619Y5109524D01*
X55142857Y5157143D01*
X55285714Y5157143D01*
X55380952Y5109524D01*
X55428571Y5061905D01*
X55476190Y4966667D01*
X55476190Y4585714D01*
X55047619Y5538095D02*
X55000000Y5585714D01*
X54952381Y5680952D01*
X54952381Y5919048D01*
X55000000Y6014286D01*
X55047619Y6061905D01*
X55142857Y6109524D01*
X55238095Y6109524D01*
X55380952Y6061905D01*
X55952381Y5490476D01*
X55952381Y6109524D01*
X54952381Y7014286D02*
X54952381Y6538095D01*
X55428571Y6490476D01*
X55380952Y6538095D01*
X55333333Y6633333D01*
X55333333Y6871429D01*
X55380952Y6966667D01*
X55428571Y7014286D01*
X55523810Y7061905D01*
X55761905Y7061905D01*
X55857143Y7014286D01*
X55904762Y6966667D01*
X55952381Y6871429D01*
X55952381Y6633333D01*
X55904762Y6538095D01*
X55857143Y6490476D01*
X60717143Y9557619D02*
X60383809Y10033810D01*
X60145714Y9557619D02*
X60145714Y10557619D01*
X60526667Y10557619D01*
X60621905Y10510000D01*
X60669524Y10462381D01*
X60717143Y10367143D01*
X60717143Y10224286D01*
X60669524Y10129048D01*
X60621905Y10081429D01*
X60526667Y10033810D01*
X60145714Y10033810D01*
X61098095Y10462381D02*
X61145714Y10510000D01*
X61240952Y10557619D01*
X61479048Y10557619D01*
X61574286Y10510000D01*
X61621905Y10462381D01*
X61669524Y10367143D01*
X61669524Y10271905D01*
X61621905Y10129048D01*
X61050476Y9557619D01*
X61669524Y9557619D01*
X62526667Y10557619D02*
X62336190Y10557619D01*
X62240952Y10510000D01*
X62193333Y10462381D01*
X62098095Y10319524D01*
X62050476Y10129048D01*
X62050476Y9748095D01*
X62098095Y9652857D01*
X62145714Y9605238D01*
X62240952Y9557619D01*
X62431429Y9557619D01*
X62526667Y9605238D01*
X62574286Y9652857D01*
X62621905Y9748095D01*
X62621905Y9986190D01*
X62574286Y10081429D01*
X62526667Y10129048D01*
X62431429Y10176667D01*
X62240952Y10176667D01*
X62145714Y10129048D01*
X62098095Y10081429D01*
X62050476Y9986190D01*
X60717143Y39557619D02*
X60383809Y40033810D01*
X60145714Y39557619D02*
X60145714Y40557619D01*
X60526667Y40557619D01*
X60621905Y40510000D01*
X60669524Y40462381D01*
X60717143Y40367143D01*
X60717143Y40224286D01*
X60669524Y40129048D01*
X60621905Y40081429D01*
X60526667Y40033810D01*
X60145714Y40033810D01*
X61098095Y40462381D02*
X61145714Y40510000D01*
X61240952Y40557619D01*
X61479048Y40557619D01*
X61574286Y40510000D01*
X61621905Y40462381D01*
X61669524Y40367143D01*
X61669524Y40271905D01*
X61621905Y40129048D01*
X61050476Y39557619D01*
X61669524Y39557619D01*
X62002857Y40557619D02*
X62669524Y40557619D01*
X62240952Y39557619D01*
X48117143Y13257619D02*
X47783809Y13733810D01*
X47545714Y13257619D02*
X47545714Y14257619D01*
X47926667Y14257619D01*
X48021905Y14210000D01*
X48069524Y14162381D01*
X48117143Y14067143D01*
X48117143Y13924286D01*
X48069524Y13829048D01*
X48021905Y13781429D01*
X47926667Y13733810D01*
X47545714Y13733810D01*
X48498095Y14162381D02*
X48545714Y14210000D01*
X48640952Y14257619D01*
X48879048Y14257619D01*
X48974286Y14210000D01*
X49021905Y14162381D01*
X49069524Y14067143D01*
X49069524Y13971905D01*
X49021905Y13829048D01*
X48450476Y13257619D01*
X49069524Y13257619D01*
X49640952Y13829048D02*
X49545714Y13876667D01*
X49498095Y13924286D01*
X49450476Y14019524D01*
X49450476Y14067143D01*
X49498095Y14162381D01*
X49545714Y14210000D01*
X49640952Y14257619D01*
X49831429Y14257619D01*
X49926667Y14210000D01*
X49974286Y14162381D01*
X50021905Y14067143D01*
X50021905Y14019524D01*
X49974286Y13924286D01*
X49926667Y13876667D01*
X49831429Y13829048D01*
X49640952Y13829048D01*
X49545714Y13781429D01*
X49498095Y13733810D01*
X49450476Y13638571D01*
X49450476Y13448095D01*
X49498095Y13352857D01*
X49545714Y13305238D01*
X49640952Y13257619D01*
X49831429Y13257619D01*
X49926667Y13305238D01*
X49974286Y13352857D01*
X50021905Y13448095D01*
X50021905Y13638571D01*
X49974286Y13733810D01*
X49926667Y13781429D01*
X49831429Y13829048D01*
X48117143Y18937619D02*
X47783809Y19413810D01*
X47545714Y18937619D02*
X47545714Y19937619D01*
X47926667Y19937619D01*
X48021905Y19890000D01*
X48069524Y19842381D01*
X48117143Y19747143D01*
X48117143Y19604286D01*
X48069524Y19509048D01*
X48021905Y19461429D01*
X47926667Y19413810D01*
X47545714Y19413810D01*
X48498095Y19842381D02*
X48545714Y19890000D01*
X48640952Y19937619D01*
X48879048Y19937619D01*
X48974286Y19890000D01*
X49021905Y19842381D01*
X49069524Y19747143D01*
X49069524Y19651905D01*
X49021905Y19509048D01*
X48450476Y18937619D01*
X49069524Y18937619D01*
X49545714Y18937619D02*
X49736190Y18937619D01*
X49831429Y18985238D01*
X49879048Y19032857D01*
X49974286Y19175714D01*
X50021905Y19366190D01*
X50021905Y19747143D01*
X49974286Y19842381D01*
X49926667Y19890000D01*
X49831429Y19937619D01*
X49640952Y19937619D01*
X49545714Y19890000D01*
X49498095Y19842381D01*
X49450476Y19747143D01*
X49450476Y19509048D01*
X49498095Y19413810D01*
X49545714Y19366190D01*
X49640952Y19318571D01*
X49831429Y19318571D01*
X49926667Y19366190D01*
X49974286Y19413810D01*
X50021905Y19509048D01*
X55832143Y20207619D02*
X55498809Y20683810D01*
X55260714Y20207619D02*
X55260714Y21207619D01*
X55641667Y21207619D01*
X55736905Y21160000D01*
X55784524Y21112381D01*
X55832143Y21017143D01*
X55832143Y20874286D01*
X55784524Y20779048D01*
X55736905Y20731429D01*
X55641667Y20683810D01*
X55260714Y20683810D01*
X56165476Y21207619D02*
X56784524Y21207619D01*
X56451190Y20826667D01*
X56594048Y20826667D01*
X56689286Y20779048D01*
X56736905Y20731429D01*
X56784524Y20636190D01*
X56784524Y20398095D01*
X56736905Y20302857D01*
X56689286Y20255238D01*
X56594048Y20207619D01*
X56308333Y20207619D01*
X56213095Y20255238D01*
X56165476Y20302857D01*
X57403571Y21207619D02*
X57498810Y21207619D01*
X57594048Y21160000D01*
X57641667Y21112381D01*
X57689286Y21017143D01*
X57736905Y20826667D01*
X57736905Y20588571D01*
X57689286Y20398095D01*
X57641667Y20302857D01*
X57594048Y20255238D01*
X57498810Y20207619D01*
X57403571Y20207619D01*
X57308333Y20255238D01*
X57260714Y20302857D01*
X57213095Y20398095D01*
X57165476Y20588571D01*
X57165476Y20826667D01*
X57213095Y21017143D01*
X57260714Y21112381D01*
X57308333Y21160000D01*
X57403571Y21207619D01*
X55832143Y16607619D02*
X55498809Y17083810D01*
X55260714Y16607619D02*
X55260714Y17607619D01*
X55641667Y17607619D01*
X55736905Y17560000D01*
X55784524Y17512381D01*
X55832143Y17417143D01*
X55832143Y17274286D01*
X55784524Y17179048D01*
X55736905Y17131429D01*
X55641667Y17083810D01*
X55260714Y17083810D01*
X56165476Y17607619D02*
X56784524Y17607619D01*
X56451190Y17226667D01*
X56594048Y17226667D01*
X56689286Y17179048D01*
X56736905Y17131429D01*
X56784524Y17036190D01*
X56784524Y16798095D01*
X56736905Y16702857D01*
X56689286Y16655238D01*
X56594048Y16607619D01*
X56308333Y16607619D01*
X56213095Y16655238D01*
X56165476Y16702857D01*
X57736905Y16607619D02*
X57165476Y16607619D01*
X57451190Y16607619D02*
X57451190Y17607619D01*
X57355952Y17464762D01*
X57260714Y17369524D01*
X57165476Y17321905D01*
X48952381Y37807143D02*
X48476190Y37473809D01*
X48952381Y37235714D02*
X47952381Y37235714D01*
X47952381Y37616667D01*
X48000000Y37711905D01*
X48047619Y37759524D01*
X48142857Y37807143D01*
X48285714Y37807143D01*
X48380952Y37759524D01*
X48428571Y37711905D01*
X48476190Y37616667D01*
X48476190Y37235714D01*
X47952381Y38140476D02*
X47952381Y38759524D01*
X48333333Y38426190D01*
X48333333Y38569048D01*
X48380952Y38664286D01*
X48428571Y38711905D01*
X48523810Y38759524D01*
X48761905Y38759524D01*
X48857143Y38711905D01*
X48904762Y38664286D01*
X48952381Y38569048D01*
X48952381Y38283333D01*
X48904762Y38188095D01*
X48857143Y38140476D01*
X48047619Y39140476D02*
X48000000Y39188095D01*
X47952381Y39283333D01*
X47952381Y39521429D01*
X48000000Y39616667D01*
X48047619Y39664286D01*
X48142857Y39711905D01*
X48238095Y39711905D01*
X48380952Y39664286D01*
X48952381Y39092857D01*
X48952381Y39711905D01*
X53052381Y38207143D02*
X52576190Y37873809D01*
X53052381Y37635714D02*
X52052381Y37635714D01*
X52052381Y38016667D01*
X52100000Y38111905D01*
X52147619Y38159524D01*
X52242857Y38207143D01*
X52385714Y38207143D01*
X52480952Y38159524D01*
X52528571Y38111905D01*
X52576190Y38016667D01*
X52576190Y37635714D01*
X52052381Y38540476D02*
X52052381Y39159524D01*
X52433333Y38826190D01*
X52433333Y38969048D01*
X52480952Y39064286D01*
X52528571Y39111905D01*
X52623810Y39159524D01*
X52861905Y39159524D01*
X52957143Y39111905D01*
X53004762Y39064286D01*
X53052381Y38969048D01*
X53052381Y38683333D01*
X53004762Y38588095D01*
X52957143Y38540476D01*
X52052381Y39492857D02*
X52052381Y40111905D01*
X52433333Y39778571D01*
X52433333Y39921429D01*
X52480952Y40016667D01*
X52528571Y40064286D01*
X52623810Y40111905D01*
X52861905Y40111905D01*
X52957143Y40064286D01*
X53004762Y40016667D01*
X53052381Y39921429D01*
X53052381Y39635714D01*
X53004762Y39540476D01*
X52957143Y39492857D01*
X60717143Y3437619D02*
X60383809Y3913810D01*
X60145714Y3437619D02*
X60145714Y4437619D01*
X60526667Y4437619D01*
X60621905Y4390000D01*
X60669524Y4342381D01*
X60717143Y4247143D01*
X60717143Y4104286D01*
X60669524Y4009048D01*
X60621905Y3961429D01*
X60526667Y3913810D01*
X60145714Y3913810D01*
X61050476Y4437619D02*
X61669524Y4437619D01*
X61336190Y4056667D01*
X61479048Y4056667D01*
X61574286Y4009048D01*
X61621905Y3961429D01*
X61669524Y3866190D01*
X61669524Y3628095D01*
X61621905Y3532857D01*
X61574286Y3485238D01*
X61479048Y3437619D01*
X61193333Y3437619D01*
X61098095Y3485238D01*
X61050476Y3532857D01*
X62526667Y4104286D02*
X62526667Y3437619D01*
X62288571Y4485238D02*
X62050476Y3770952D01*
X62669524Y3770952D01*
X60717143Y37157619D02*
X60383809Y37633810D01*
X60145714Y37157619D02*
X60145714Y38157619D01*
X60526667Y38157619D01*
X60621905Y38110000D01*
X60669524Y38062381D01*
X60717143Y37967143D01*
X60717143Y37824286D01*
X60669524Y37729048D01*
X60621905Y37681429D01*
X60526667Y37633810D01*
X60145714Y37633810D01*
X61050476Y38157619D02*
X61669524Y38157619D01*
X61336190Y37776667D01*
X61479048Y37776667D01*
X61574286Y37729048D01*
X61621905Y37681429D01*
X61669524Y37586190D01*
X61669524Y37348095D01*
X61621905Y37252857D01*
X61574286Y37205238D01*
X61479048Y37157619D01*
X61193333Y37157619D01*
X61098095Y37205238D01*
X61050476Y37252857D01*
X62574286Y38157619D02*
X62098095Y38157619D01*
X62050476Y37681429D01*
X62098095Y37729048D01*
X62193333Y37776667D01*
X62431429Y37776667D01*
X62526667Y37729048D01*
X62574286Y37681429D01*
X62621905Y37586190D01*
X62621905Y37348095D01*
X62574286Y37252857D01*
X62526667Y37205238D01*
X62431429Y37157619D01*
X62193333Y37157619D01*
X62098095Y37205238D01*
X62050476Y37252857D01*
X22021796Y12423550D02*
X21688462Y12899741D01*
X21450367Y12423550D02*
X21450367Y13423550D01*
X21831320Y13423550D01*
X21926558Y13375931D01*
X21974177Y13328312D01*
X22021796Y13233074D01*
X22021796Y13090217D01*
X21974177Y12994979D01*
X21926558Y12947360D01*
X21831320Y12899741D01*
X21450367Y12899741D01*
X22355129Y13423550D02*
X22974177Y13423550D01*
X22640843Y13042598D01*
X22783701Y13042598D01*
X22878939Y12994979D01*
X22926558Y12947360D01*
X22974177Y12852121D01*
X22974177Y12614026D01*
X22926558Y12518788D01*
X22878939Y12471169D01*
X22783701Y12423550D01*
X22497986Y12423550D01*
X22402748Y12471169D01*
X22355129Y12518788D01*
X23831320Y13423550D02*
X23640843Y13423550D01*
X23545605Y13375931D01*
X23497986Y13328312D01*
X23402748Y13185455D01*
X23355129Y12994979D01*
X23355129Y12614026D01*
X23402748Y12518788D01*
X23450367Y12471169D01*
X23545605Y12423550D01*
X23736082Y12423550D01*
X23831320Y12471169D01*
X23878939Y12518788D01*
X23926558Y12614026D01*
X23926558Y12852121D01*
X23878939Y12947360D01*
X23831320Y12994979D01*
X23736082Y13042598D01*
X23545605Y13042598D01*
X23450367Y12994979D01*
X23402748Y12947360D01*
X23355129Y12852121D01*
X22021796Y8223550D02*
X21688462Y8699741D01*
X21450367Y8223550D02*
X21450367Y9223550D01*
X21831320Y9223550D01*
X21926558Y9175931D01*
X21974177Y9128312D01*
X22021796Y9033074D01*
X22021796Y8890217D01*
X21974177Y8794979D01*
X21926558Y8747360D01*
X21831320Y8699741D01*
X21450367Y8699741D01*
X22355129Y9223550D02*
X22974177Y9223550D01*
X22640843Y8842598D01*
X22783701Y8842598D01*
X22878939Y8794979D01*
X22926558Y8747360D01*
X22974177Y8652121D01*
X22974177Y8414026D01*
X22926558Y8318788D01*
X22878939Y8271169D01*
X22783701Y8223550D01*
X22497986Y8223550D01*
X22402748Y8271169D01*
X22355129Y8318788D01*
X23307510Y9223550D02*
X23974177Y9223550D01*
X23545605Y8223550D01*
X21996796Y10323550D02*
X21663462Y10799741D01*
X21425367Y10323550D02*
X21425367Y11323550D01*
X21806320Y11323550D01*
X21901558Y11275931D01*
X21949177Y11228312D01*
X21996796Y11133074D01*
X21996796Y10990217D01*
X21949177Y10894979D01*
X21901558Y10847360D01*
X21806320Y10799741D01*
X21425367Y10799741D01*
X22330129Y11323550D02*
X22949177Y11323550D01*
X22615843Y10942598D01*
X22758701Y10942598D01*
X22853939Y10894979D01*
X22901558Y10847360D01*
X22949177Y10752121D01*
X22949177Y10514026D01*
X22901558Y10418788D01*
X22853939Y10371169D01*
X22758701Y10323550D01*
X22472986Y10323550D01*
X22377748Y10371169D01*
X22330129Y10418788D01*
X23520605Y10894979D02*
X23425367Y10942598D01*
X23377748Y10990217D01*
X23330129Y11085455D01*
X23330129Y11133074D01*
X23377748Y11228312D01*
X23425367Y11275931D01*
X23520605Y11323550D01*
X23711082Y11323550D01*
X23806320Y11275931D01*
X23853939Y11228312D01*
X23901558Y11133074D01*
X23901558Y11085455D01*
X23853939Y10990217D01*
X23806320Y10942598D01*
X23711082Y10894979D01*
X23520605Y10894979D01*
X23425367Y10847360D01*
X23377748Y10799741D01*
X23330129Y10704502D01*
X23330129Y10514026D01*
X23377748Y10418788D01*
X23425367Y10371169D01*
X23520605Y10323550D01*
X23711082Y10323550D01*
X23806320Y10371169D01*
X23853939Y10418788D01*
X23901558Y10514026D01*
X23901558Y10704502D01*
X23853939Y10799741D01*
X23806320Y10847360D01*
X23711082Y10894979D01*
M02*
