M48
;DRILL file {KiCad 4.0.4-stable} date 09/28/17 23:32:26
;FORMAT={-:-/ absolute / metric / decimal}
FMAT,2
METRIC,TZ
T1C0.400
T2C0.600
T3C0.700
T4C0.762
T5C0.800
T6C1.000
T7C1.200
T8C1.400
T9C3.000
%
G90
G05
M71
T1
X1.15Y55.7
X1.25Y49.95
X1.8Y20.3
X1.9Y1.9
X1.95Y23.95
X2.2Y45.1
X4.15Y49.25
X4.55Y43.7
X4.9Y12.9
X4.95Y15.15
X5.8Y43.2
X7.3Y43.55
X7.55Y56.15
X7.95Y54.2
X8.25Y13.15
X9.Y15.35
X10.7Y51.6
X12.35Y45.7
X15.95Y45.8
X16.05Y42.85
X16.3Y48.25
X17.4Y31.9
X17.55Y38.55
X17.6Y40.45
X17.9Y48.35
X20.Y50.55
X20.25Y38.4
X20.9Y43.7
X21.5Y49.9
X22.1Y46.55
X22.2Y42.45
X23.05Y35.05
X23.05Y31.25
X23.6Y44.9
X23.8Y40.9
X25.05Y42.1
X25.05Y39.75
X25.15Y31.25
X25.8Y43.25
X25.85Y48.1
X35.45Y50.75
X35.5Y41.65
X35.6Y17.4
X35.7Y20.2
X35.9Y25.75
X35.9Y23.3
X36.4Y7.8
X36.4Y5.6
X37.7Y43.25
X38.35Y38.5
X38.4Y14.7
X38.7Y4.55
X38.9Y44.8
X38.95Y6.7
X41.15Y11.55
X41.65Y23.65
X41.7Y4.75
X41.75Y6.7
X41.85Y56.65
X44.4Y4.85
X44.45Y7.
X46.7Y29.55
X47.6Y46.
X49.1Y36.
X51.95Y54.85
X53.55Y46.75
X55.4Y11.75
X55.4Y11.75
X55.55Y45.3
X56.55Y28.5
X56.85Y24.85
X57.45Y40.75
X57.55Y48.
X57.55Y44.75
X57.6Y51.4
X58.2Y53.75
X59.Y22.1
X59.05Y26.
X59.1Y43.3
X59.25Y45.45
X60.1Y55.3
X60.1Y46.65
X61.05Y7.05
X61.2Y43.25
X61.2Y40.8
X61.25Y45.55
X61.8Y27.9
X61.9Y10.7
X63.2Y16.7
X63.2Y12.1
X63.3Y45.6
X63.3Y43.35
X63.6Y25.9
X63.65Y22.35
X64.35Y40.65
X65.35Y43.25
X65.4Y45.65
X65.55Y21.35
X65.65Y12.
X65.8Y27.9
X65.8Y24.55
X67.3Y43.15
X67.35Y45.7
X67.8Y40.7
X68.4Y16.7
X68.7Y51.15
X68.7Y48.8
X68.75Y45.85
X68.75Y43.2
T2
X6.1Y47.19
X6.1Y45.92
X6.1Y44.65
X6.1Y34.44
X6.1Y33.17
X6.1Y31.9
X6.1Y28.8
X6.1Y27.53
X6.1Y26.26
X7.06Y22.7
X8.33Y22.7
X9.6Y22.7
X10.5Y28.77
X10.5Y27.5
X10.5Y26.23
X11.1Y40.24
X11.1Y38.97
X11.1Y37.7
X11.2Y34.44
X11.2Y33.17
X11.2Y31.9
X18.Y45.72
X18.Y44.45
X18.Y43.18
X23.16Y27.55
X24.43Y27.55
X25.7Y27.55
T3
X1.8Y33.18
X1.8Y28.1
X1.85Y47.78
X1.85Y42.7
X1.85Y40.5
X1.85Y35.42
X4.3Y23.68
X4.3Y18.6
X4.7Y42.08
X4.7Y37.
X6.85Y42.08
X6.85Y37.
X9.85Y47.83
X9.85Y42.75
X12.Y47.88
X12.Y42.8
X12.3Y23.7
X12.3Y18.62
X14.15Y47.88
X14.15Y42.8
X15.Y40.55
X15.Y37.43
X15.Y32.35
X15.Y30.25
X15.Y25.17
X15.62Y21.45
X20.05Y53.33
X20.05Y48.25
X20.08Y40.55
X20.1Y8.916
X20.125Y13.116
X20.125Y11.016
X20.125Y6.816
X20.13Y17.366
X20.13Y15.241
X20.7Y21.45
X25.18Y8.916
X25.205Y13.116
X25.205Y11.016
X25.205Y6.816
X25.21Y17.366
X25.21Y15.241
X28.42Y14.325
X28.445Y8.6
X33.5Y14.325
X33.525Y8.6
X41.12Y18.75
X41.12Y14.35
X46.2Y18.75
X46.2Y14.35
X46.22Y21.25
X46.22Y11.85
X51.3Y21.25
X51.3Y11.85
X56.6Y8.25
X56.6Y3.17
X56.7Y38.15
X56.7Y33.07
X58.82Y38.15
X58.82Y35.75
X58.82Y8.15
X58.82Y5.75
X63.9Y38.15
X63.9Y35.75
X63.9Y8.15
X63.9Y5.75
T4
X44.27Y55.55
X55.7Y55.55
T5
X9.5Y55.5
X9.5Y53.05
X12.Y55.5
X12.Y53.05
X12.105Y12.566
X16.2Y53.35
X16.2Y50.85
X17.105Y12.566
X17.9Y36.05
X19.Y30.49
X19.Y27.95
X19.Y25.41
X20.4Y36.05
X23.2Y23.6
X23.2Y21.1
X23.3Y51.15
X23.3Y48.65
X25.7Y23.6
X25.7Y21.1
X25.9Y50.85
X28.4Y50.85
X28.5Y47.25
X30.8Y36.45
X33.5Y47.25
X33.6Y11.425
X35.8Y36.45
X36.1Y11.425
X41.1Y21.85
X43.6Y21.85
X48.855Y18.35
X48.855Y14.75
X49.9Y38.25
X61.2Y3.15
X61.4Y33.15
X63.7Y3.15
X63.9Y33.15
X66.Y18.35
X66.Y14.75
T6
X23.3Y55.55
X25.84Y55.55
X28.38Y55.55
X30.92Y55.55
X33.46Y55.55
X36.Y55.55
X41.7Y50.03
X41.7Y47.49
X41.7Y44.95
X41.7Y40.73
X41.7Y38.19
X41.7Y35.65
X41.7Y31.43
X41.7Y28.89
X41.7Y26.35
X67.1Y38.29
X67.1Y35.75
X67.1Y33.21
X67.1Y8.29
X67.1Y5.75
X67.1Y3.21
T7
X47.3Y51.45
X47.3Y26.05
X52.8Y51.45
X52.8Y26.05
T8
X11.725Y5.716
X16.805Y5.716
X25.5Y34.8
X27.55Y31.2
X49.85Y54.35
T9
X4.2Y53.1
X6.25Y7.5
X51.35Y6.7
X63.55Y50.7
T0
M30
