G04 #@! TF.FileFunction,Soldermask,Bot*
%FSLAX46Y46*%
G04 Gerber Fmt 4.6, Leading zero omitted, Abs format (unit mm)*
G04 Created by KiCad (PCBNEW 4.0.4-stable) date 09/28/17 23:31:09*
%MOMM*%
%LPD*%
G01*
G04 APERTURE LIST*
%ADD10C,0.100000*%
%ADD11R,2.000000X2.000000*%
%ADD12C,2.000000*%
%ADD13R,3.200000X3.200000*%
%ADD14O,3.200000X3.200000*%
%ADD15C,1.924000*%
%ADD16R,2.200000X2.200000*%
%ADD17O,2.200000X2.200000*%
%ADD18R,2.100000X2.100000*%
%ADD19O,2.100000X2.100000*%
%ADD20C,6.400000*%
%ADD21O,1.900000X1.300000*%
%ADD22R,1.900000X1.300000*%
%ADD23O,1.300000X1.900000*%
%ADD24R,1.300000X1.900000*%
%ADD25C,1.800000*%
%ADD26O,1.800000X1.800000*%
%ADD27C,1.840000*%
%ADD28O,2.000000X2.000000*%
%ADD29C,2.800000*%
%ADD30O,2.800000X2.800000*%
G04 APERTURE END LIST*
D10*
D11*
X35800000Y36450000D03*
D12*
X30800000Y36450000D03*
X28400000Y50850000D03*
X25900000Y50850000D03*
X23300000Y51150000D03*
X23300000Y48650000D03*
D11*
X28500000Y47250000D03*
D12*
X33500000Y47250000D03*
X9500000Y53050000D03*
X12000000Y53050000D03*
X9500000Y55500000D03*
X12000000Y55500000D03*
D11*
X17104653Y12565931D03*
D12*
X12104653Y12565931D03*
D11*
X16200000Y53350000D03*
D12*
X16200000Y50850000D03*
X33600000Y11425000D03*
X36100000Y11425000D03*
D11*
X17900000Y36050000D03*
D12*
X20400000Y36050000D03*
X25700000Y23600000D03*
X23200000Y23600000D03*
X25700000Y21100000D03*
X23200000Y21100000D03*
X43600000Y21850000D03*
X41100000Y21850000D03*
X63700000Y3150000D03*
X61200000Y3150000D03*
X61400000Y33150000D03*
X63900000Y33150000D03*
D13*
X16804653Y5715931D03*
D14*
X11724653Y5715931D03*
D15*
X44270000Y55550000D03*
X55700000Y55550000D03*
D16*
X67100000Y38290000D03*
D17*
X67100000Y35750000D03*
X67100000Y33210000D03*
D18*
X23300000Y55550000D03*
D19*
X25840000Y55550000D03*
X28380000Y55550000D03*
X30920000Y55550000D03*
X33460000Y55550000D03*
X36000000Y55550000D03*
D20*
X4200000Y53100000D03*
X63550000Y50700000D03*
X6250000Y7500000D03*
X51350000Y6700000D03*
D21*
X6100000Y33170000D03*
X6100000Y34440000D03*
D22*
X6100000Y31900000D03*
D21*
X6100000Y27530000D03*
X6100000Y28800000D03*
D22*
X6100000Y26260000D03*
D21*
X11100000Y38970000D03*
X11100000Y37700000D03*
D22*
X11100000Y40240000D03*
D21*
X10500000Y27500000D03*
X10500000Y26230000D03*
D22*
X10500000Y28770000D03*
D21*
X11200000Y33170000D03*
X11200000Y34440000D03*
D22*
X11200000Y31900000D03*
D21*
X6100000Y45920000D03*
X6100000Y47190000D03*
D22*
X6100000Y44650000D03*
D21*
X18000000Y44450000D03*
X18000000Y45720000D03*
D22*
X18000000Y43180000D03*
D23*
X8330000Y22700000D03*
X7060000Y22700000D03*
D24*
X9600000Y22700000D03*
D16*
X41700000Y50030000D03*
D17*
X41700000Y47490000D03*
X41700000Y44950000D03*
D23*
X24430000Y27550000D03*
X25700000Y27550000D03*
D24*
X23160000Y27550000D03*
D16*
X41700000Y40730000D03*
D17*
X41700000Y38190000D03*
X41700000Y35650000D03*
D16*
X41700000Y31430000D03*
D17*
X41700000Y28890000D03*
X41700000Y26350000D03*
D16*
X67100000Y8290000D03*
D17*
X67100000Y5750000D03*
X67100000Y3210000D03*
D25*
X1800000Y33180000D03*
D26*
X1800000Y28100000D03*
D25*
X4700000Y42080000D03*
D26*
X4700000Y37000000D03*
D25*
X4300000Y23680000D03*
D26*
X4300000Y18600000D03*
D25*
X1850000Y42700000D03*
D26*
X1850000Y47780000D03*
D25*
X1850000Y35420000D03*
D26*
X1850000Y40500000D03*
D25*
X6850000Y42080000D03*
D26*
X6850000Y37000000D03*
D25*
X12300000Y23700000D03*
D26*
X12300000Y18620000D03*
D25*
X20129653Y17365931D03*
D26*
X25209653Y17365931D03*
D25*
X20124653Y13115931D03*
D26*
X25204653Y13115931D03*
D25*
X20129653Y15240931D03*
D26*
X25209653Y15240931D03*
D25*
X12000000Y47880000D03*
D26*
X12000000Y42800000D03*
D25*
X9850000Y42750000D03*
D26*
X9850000Y47830000D03*
D25*
X33500000Y14325000D03*
D26*
X28420000Y14325000D03*
D25*
X33525000Y8600000D03*
D26*
X28445000Y8600000D03*
D25*
X14150000Y47880000D03*
D26*
X14150000Y42800000D03*
D25*
X20050000Y48250000D03*
D26*
X20050000Y53330000D03*
D27*
X19000000Y30490000D03*
X19000000Y27950000D03*
X19000000Y25410000D03*
D25*
X15620000Y21450000D03*
D26*
X20700000Y21450000D03*
D25*
X15000000Y32350000D03*
D26*
X15000000Y37430000D03*
D25*
X15000000Y25170000D03*
D26*
X15000000Y30250000D03*
D25*
X20080000Y40550000D03*
D26*
X15000000Y40550000D03*
D25*
X56700000Y38150000D03*
D26*
X56700000Y33070000D03*
D25*
X46200000Y18750000D03*
D26*
X41120000Y18750000D03*
D25*
X41120000Y14350000D03*
D26*
X46200000Y14350000D03*
D25*
X56600000Y3170000D03*
D26*
X56600000Y8250000D03*
D25*
X58820000Y8150000D03*
D26*
X63900000Y8150000D03*
D25*
X58820000Y38150000D03*
D26*
X63900000Y38150000D03*
D25*
X46220000Y11850000D03*
D26*
X51300000Y11850000D03*
D25*
X51300000Y21250000D03*
D26*
X46220000Y21250000D03*
D12*
X48855000Y18350000D03*
D28*
X66000000Y18350000D03*
D12*
X48855000Y14750000D03*
D28*
X66000000Y14750000D03*
D29*
X47300000Y51450000D03*
D30*
X47300000Y26050000D03*
D29*
X52800000Y26050000D03*
D30*
X52800000Y51450000D03*
D25*
X63900000Y5750000D03*
D26*
X58820000Y5750000D03*
D25*
X58820000Y35750000D03*
D26*
X63900000Y35750000D03*
D25*
X20124653Y11015931D03*
D26*
X25204653Y11015931D03*
D25*
X20124653Y6815931D03*
D26*
X25204653Y6815931D03*
D25*
X20099653Y8915931D03*
D26*
X25179653Y8915931D03*
M02*
