%FSLAX45Y45*%
G04 Gerber Fmt 4.5, Leading zero omitted, Abs format (unit mm)*
G04 Created by KiCad (PCBNEW 4.0.4-stable) date 09/28/17 23:32:27*
%MOMM*%
%LPD*%
G01*
G04 APERTURE LIST*
%ADD10C,0.127000*%
%ADD11C,0.150000*%
%ADD12C,0.200000*%
%ADD13C,0.300000*%
G04 APERTURE END LIST*
D10*
D11*
X9956Y5760000D02*
X6540000Y5760000D01*
X7040000Y5260000D02*
X6540000Y5760000D01*
X10000Y10000D02*
X10000Y5760000D01*
X7040000Y10000D02*
X10000Y10000D01*
X7040000Y5260000D02*
X7040000Y10000D01*
D12*
X95000Y5590000D02*
X135000Y5550000D01*
X135000Y5590000D02*
X95000Y5550000D01*
X105000Y5015000D02*
X145000Y4975000D01*
X145000Y5015000D02*
X105000Y4975000D01*
X160000Y2050000D02*
X200000Y2010000D01*
X200000Y2050000D02*
X160000Y2010000D01*
X170000Y210000D02*
X210000Y170000D01*
X210000Y210000D02*
X170000Y170000D01*
X175000Y2415000D02*
X215000Y2375000D01*
X215000Y2415000D02*
X175000Y2375000D01*
X200000Y4530000D02*
X240000Y4490000D01*
X240000Y4530000D02*
X200000Y4490000D01*
X395000Y4945000D02*
X435000Y4905000D01*
X435000Y4945000D02*
X395000Y4905000D01*
X435000Y4390000D02*
X475000Y4350000D01*
X475000Y4390000D02*
X435000Y4350000D01*
X470000Y1310000D02*
X510000Y1270000D01*
X510000Y1310000D02*
X470000Y1270000D01*
X475000Y1535000D02*
X515000Y1495000D01*
X515000Y1535000D02*
X475000Y1495000D01*
X560000Y4340000D02*
X600000Y4300000D01*
X600000Y4340000D02*
X560000Y4300000D01*
X710000Y4375000D02*
X750000Y4335000D01*
X750000Y4375000D02*
X710000Y4335000D01*
X735000Y5635000D02*
X775000Y5595000D01*
X775000Y5635000D02*
X735000Y5595000D01*
X775000Y5440000D02*
X815000Y5400000D01*
X815000Y5440000D02*
X775000Y5400000D01*
X805000Y1335000D02*
X845000Y1295000D01*
X845000Y1335000D02*
X805000Y1295000D01*
X880000Y1555000D02*
X920000Y1515000D01*
X920000Y1555000D02*
X880000Y1515000D01*
X1050000Y5180000D02*
X1090000Y5140000D01*
X1090000Y5180000D02*
X1050000Y5140000D01*
X1215000Y4590000D02*
X1255000Y4550000D01*
X1255000Y4590000D02*
X1215000Y4550000D01*
X1575000Y4600000D02*
X1615000Y4560000D01*
X1615000Y4600000D02*
X1575000Y4560000D01*
X1585000Y4305000D02*
X1625000Y4265000D01*
X1625000Y4305000D02*
X1585000Y4265000D01*
X1610000Y4845000D02*
X1650000Y4805000D01*
X1650000Y4845000D02*
X1610000Y4805000D01*
X1720000Y3210000D02*
X1760000Y3170000D01*
X1760000Y3210000D02*
X1720000Y3170000D01*
X1735000Y3875000D02*
X1775000Y3835000D01*
X1775000Y3875000D02*
X1735000Y3835000D01*
X1740000Y4065000D02*
X1780000Y4025000D01*
X1780000Y4065000D02*
X1740000Y4025000D01*
X1770000Y4855000D02*
X1810000Y4815000D01*
X1810000Y4855000D02*
X1770000Y4815000D01*
X1980000Y5075000D02*
X2020000Y5035000D01*
X2020000Y5075000D02*
X1980000Y5035000D01*
X2005000Y3860000D02*
X2045000Y3820000D01*
X2045000Y3860000D02*
X2005000Y3820000D01*
X2070000Y4390000D02*
X2110000Y4350000D01*
X2110000Y4390000D02*
X2070000Y4350000D01*
X2130000Y5010000D02*
X2170000Y4970000D01*
X2170000Y5010000D02*
X2130000Y4970000D01*
X2190000Y4675000D02*
X2230000Y4635000D01*
X2230000Y4675000D02*
X2190000Y4635000D01*
X2200000Y4265000D02*
X2240000Y4225000D01*
X2240000Y4265000D02*
X2200000Y4225000D01*
X2285000Y3525000D02*
X2325000Y3485000D01*
X2325000Y3525000D02*
X2285000Y3485000D01*
X2285000Y3145000D02*
X2325000Y3105000D01*
X2325000Y3145000D02*
X2285000Y3105000D01*
X2340000Y4510000D02*
X2380000Y4470000D01*
X2380000Y4510000D02*
X2340000Y4470000D01*
X2360000Y4110000D02*
X2400000Y4070000D01*
X2400000Y4110000D02*
X2360000Y4070000D01*
X2485000Y4230000D02*
X2525000Y4190000D01*
X2525000Y4230000D02*
X2485000Y4190000D01*
X2485000Y3995000D02*
X2525000Y3955000D01*
X2525000Y3995000D02*
X2485000Y3955000D01*
X2495000Y3145000D02*
X2535000Y3105000D01*
X2535000Y3145000D02*
X2495000Y3105000D01*
X2560000Y4345000D02*
X2600000Y4305000D01*
X2600000Y4345000D02*
X2560000Y4305000D01*
X2565000Y4830000D02*
X2605000Y4790000D01*
X2605000Y4830000D02*
X2565000Y4790000D01*
X3525000Y5095000D02*
X3565000Y5055000D01*
X3565000Y5095000D02*
X3525000Y5055000D01*
X3530000Y4185000D02*
X3570000Y4145000D01*
X3570000Y4185000D02*
X3530000Y4145000D01*
X3540000Y1760000D02*
X3580000Y1720000D01*
X3580000Y1760000D02*
X3540000Y1720000D01*
X3550000Y2040000D02*
X3590000Y2000000D01*
X3590000Y2040000D02*
X3550000Y2000000D01*
X3570000Y2595000D02*
X3610000Y2555000D01*
X3610000Y2595000D02*
X3570000Y2555000D01*
X3570000Y2350000D02*
X3610000Y2310000D01*
X3610000Y2350000D02*
X3570000Y2310000D01*
X3620000Y800000D02*
X3660000Y760000D01*
X3660000Y800000D02*
X3620000Y760000D01*
X3620000Y580000D02*
X3660000Y540000D01*
X3660000Y580000D02*
X3620000Y540000D01*
X3750000Y4345000D02*
X3790000Y4305000D01*
X3790000Y4345000D02*
X3750000Y4305000D01*
X3815000Y3870000D02*
X3855000Y3830000D01*
X3855000Y3870000D02*
X3815000Y3830000D01*
X3820000Y1490000D02*
X3860000Y1450000D01*
X3860000Y1490000D02*
X3820000Y1450000D01*
X3850000Y475000D02*
X3890000Y435000D01*
X3890000Y475000D02*
X3850000Y435000D01*
X3870000Y4500000D02*
X3910000Y4460000D01*
X3910000Y4500000D02*
X3870000Y4460000D01*
X3875000Y690000D02*
X3915000Y650000D01*
X3915000Y690000D02*
X3875000Y650000D01*
X4095000Y1175000D02*
X4135000Y1135000D01*
X4135000Y1175000D02*
X4095000Y1135000D01*
X4145000Y2385000D02*
X4185000Y2345000D01*
X4185000Y2385000D02*
X4145000Y2345000D01*
X4150000Y495000D02*
X4190000Y455000D01*
X4190000Y495000D02*
X4150000Y455000D01*
X4155000Y690000D02*
X4195000Y650000D01*
X4195000Y690000D02*
X4155000Y650000D01*
X4165000Y5685000D02*
X4205000Y5645000D01*
X4205000Y5685000D02*
X4165000Y5645000D01*
X4420000Y505000D02*
X4460000Y465000D01*
X4460000Y505000D02*
X4420000Y465000D01*
X4425000Y720000D02*
X4465000Y680000D01*
X4465000Y720000D02*
X4425000Y680000D01*
X4650000Y2975000D02*
X4690000Y2935000D01*
X4690000Y2975000D02*
X4650000Y2935000D01*
X4740000Y4620000D02*
X4780000Y4580000D01*
X4780000Y4620000D02*
X4740000Y4580000D01*
X4890000Y3620000D02*
X4930000Y3580000D01*
X4930000Y3620000D02*
X4890000Y3580000D01*
X5175000Y5505000D02*
X5215000Y5465000D01*
X5215000Y5505000D02*
X5175000Y5465000D01*
X5335000Y4695000D02*
X5375000Y4655000D01*
X5375000Y4695000D02*
X5335000Y4655000D01*
X5520000Y1195000D02*
X5560000Y1155000D01*
X5560000Y1195000D02*
X5520000Y1155000D01*
X5520000Y1195000D02*
X5560000Y1155000D01*
X5560000Y1195000D02*
X5520000Y1155000D01*
X5535000Y4550000D02*
X5575000Y4510000D01*
X5575000Y4550000D02*
X5535000Y4510000D01*
X5635000Y2870000D02*
X5675000Y2830000D01*
X5675000Y2870000D02*
X5635000Y2830000D01*
X5665000Y2505000D02*
X5705000Y2465000D01*
X5705000Y2505000D02*
X5665000Y2465000D01*
X5725000Y4095000D02*
X5765000Y4055000D01*
X5765000Y4095000D02*
X5725000Y4055000D01*
X5735000Y4820000D02*
X5775000Y4780000D01*
X5775000Y4820000D02*
X5735000Y4780000D01*
X5735000Y4495000D02*
X5775000Y4455000D01*
X5775000Y4495000D02*
X5735000Y4455000D01*
X5740000Y5160000D02*
X5780000Y5120000D01*
X5780000Y5160000D02*
X5740000Y5120000D01*
X5800000Y5395000D02*
X5840000Y5355000D01*
X5840000Y5395000D02*
X5800000Y5355000D01*
X5880000Y2230000D02*
X5920000Y2190000D01*
X5920000Y2230000D02*
X5880000Y2190000D01*
X5885000Y2620000D02*
X5925000Y2580000D01*
X5925000Y2620000D02*
X5885000Y2580000D01*
X5890000Y4350000D02*
X5930000Y4310000D01*
X5930000Y4350000D02*
X5890000Y4310000D01*
X5905000Y4565000D02*
X5945000Y4525000D01*
X5945000Y4565000D02*
X5905000Y4525000D01*
X5990000Y5550000D02*
X6030000Y5510000D01*
X6030000Y5550000D02*
X5990000Y5510000D01*
X5990000Y4685000D02*
X6030000Y4645000D01*
X6030000Y4685000D02*
X5990000Y4645000D01*
X6085000Y725000D02*
X6125000Y685000D01*
X6125000Y725000D02*
X6085000Y685000D01*
X6100000Y4345000D02*
X6140000Y4305000D01*
X6140000Y4345000D02*
X6100000Y4305000D01*
X6100000Y4100000D02*
X6140000Y4060000D01*
X6140000Y4100000D02*
X6100000Y4060000D01*
X6105000Y4575000D02*
X6145000Y4535000D01*
X6145000Y4575000D02*
X6105000Y4535000D01*
X6160000Y2810000D02*
X6200000Y2770000D01*
X6200000Y2810000D02*
X6160000Y2770000D01*
X6170000Y1090000D02*
X6210000Y1050000D01*
X6210000Y1090000D02*
X6170000Y1050000D01*
X6300000Y1690000D02*
X6340000Y1650000D01*
X6340000Y1690000D02*
X6300000Y1650000D01*
X6300000Y1230000D02*
X6340000Y1190000D01*
X6340000Y1230000D02*
X6300000Y1190000D01*
X6310000Y4580000D02*
X6350000Y4540000D01*
X6350000Y4580000D02*
X6310000Y4540000D01*
X6310000Y4355000D02*
X6350000Y4315000D01*
X6350000Y4355000D02*
X6310000Y4315000D01*
X6340000Y2610000D02*
X6380000Y2570000D01*
X6380000Y2610000D02*
X6340000Y2570000D01*
X6345000Y2255000D02*
X6385000Y2215000D01*
X6385000Y2255000D02*
X6345000Y2215000D01*
X6415000Y4085000D02*
X6455000Y4045000D01*
X6455000Y4085000D02*
X6415000Y4045000D01*
X6515000Y4345000D02*
X6555000Y4305000D01*
X6555000Y4345000D02*
X6515000Y4305000D01*
X6520000Y4585000D02*
X6560000Y4545000D01*
X6560000Y4585000D02*
X6520000Y4545000D01*
X6535000Y2155000D02*
X6575000Y2115000D01*
X6575000Y2155000D02*
X6535000Y2115000D01*
X6545000Y1220000D02*
X6585000Y1180000D01*
X6585000Y1220000D02*
X6545000Y1180000D01*
X6560000Y2810000D02*
X6600000Y2770000D01*
X6600000Y2810000D02*
X6560000Y2770000D01*
X6560000Y2475000D02*
X6600000Y2435000D01*
X6600000Y2475000D02*
X6560000Y2435000D01*
X6710000Y4335000D02*
X6750000Y4295000D01*
X6750000Y4335000D02*
X6710000Y4295000D01*
X6715000Y4590000D02*
X6755000Y4550000D01*
X6755000Y4590000D02*
X6715000Y4550000D01*
X6760000Y4090000D02*
X6800000Y4050000D01*
X6800000Y4090000D02*
X6760000Y4050000D01*
X6820000Y1690000D02*
X6860000Y1650000D01*
X6860000Y1690000D02*
X6820000Y1650000D01*
X6850000Y5135000D02*
X6890000Y5095000D01*
X6890000Y5135000D02*
X6850000Y5095000D01*
X6850000Y4900000D02*
X6890000Y4860000D01*
X6890000Y4900000D02*
X6850000Y4860000D01*
X6855000Y4605000D02*
X6895000Y4565000D01*
X6895000Y4605000D02*
X6855000Y4565000D01*
X6855000Y4340000D02*
X6895000Y4300000D01*
X6895000Y4340000D02*
X6855000Y4300000D01*
X640000Y4719000D02*
G75*
G03X640000Y4719000I-30000J0D01*
G01*
X640000Y4592000D02*
G75*
G03X640000Y4592000I-30000J0D01*
G01*
X640000Y4465000D02*
G75*
G03X640000Y4465000I-30000J0D01*
G01*
X640000Y3444000D02*
G75*
G03X640000Y3444000I-30000J0D01*
G01*
X640000Y3317000D02*
G75*
G03X640000Y3317000I-30000J0D01*
G01*
X640000Y3190000D02*
G75*
G03X640000Y3190000I-30000J0D01*
G01*
X640000Y2880000D02*
G75*
G03X640000Y2880000I-30000J0D01*
G01*
X640000Y2753000D02*
G75*
G03X640000Y2753000I-30000J0D01*
G01*
X640000Y2626000D02*
G75*
G03X640000Y2626000I-30000J0D01*
G01*
X736000Y2270000D02*
G75*
G03X736000Y2270000I-30000J0D01*
G01*
X863000Y2270000D02*
G75*
G03X863000Y2270000I-30000J0D01*
G01*
X990000Y2270000D02*
G75*
G03X990000Y2270000I-30000J0D01*
G01*
X1080000Y2877000D02*
G75*
G03X1080000Y2877000I-30000J0D01*
G01*
X1080000Y2750000D02*
G75*
G03X1080000Y2750000I-30000J0D01*
G01*
X1080000Y2623000D02*
G75*
G03X1080000Y2623000I-30000J0D01*
G01*
X1140000Y4024000D02*
G75*
G03X1140000Y4024000I-30000J0D01*
G01*
X1140000Y3897000D02*
G75*
G03X1140000Y3897000I-30000J0D01*
G01*
X1140000Y3770000D02*
G75*
G03X1140000Y3770000I-30000J0D01*
G01*
X1150000Y3444000D02*
G75*
G03X1150000Y3444000I-30000J0D01*
G01*
X1150000Y3317000D02*
G75*
G03X1150000Y3317000I-30000J0D01*
G01*
X1150000Y3190000D02*
G75*
G03X1150000Y3190000I-30000J0D01*
G01*
X1830000Y4572000D02*
G75*
G03X1830000Y4572000I-30000J0D01*
G01*
X1830000Y4445000D02*
G75*
G03X1830000Y4445000I-30000J0D01*
G01*
X1830000Y4318000D02*
G75*
G03X1830000Y4318000I-30000J0D01*
G01*
X2346000Y2755000D02*
G75*
G03X2346000Y2755000I-30000J0D01*
G01*
X2473000Y2755000D02*
G75*
G03X2473000Y2755000I-30000J0D01*
G01*
X2600000Y2755000D02*
G75*
G03X2600000Y2755000I-30000J0D01*
G01*
X180000Y3353000D02*
X180000Y3283000D01*
X145000Y3318000D02*
X215000Y3318000D01*
X180000Y2845000D02*
X180000Y2775000D01*
X145000Y2810000D02*
X215000Y2810000D01*
X185000Y4813000D02*
X185000Y4743000D01*
X150000Y4778000D02*
X220000Y4778000D01*
X185000Y4305000D02*
X185000Y4235000D01*
X150000Y4270000D02*
X220000Y4270000D01*
X185000Y4085000D02*
X185000Y4015000D01*
X150000Y4050000D02*
X220000Y4050000D01*
X185000Y3577000D02*
X185000Y3507000D01*
X150000Y3542000D02*
X220000Y3542000D01*
X430000Y2403000D02*
X430000Y2333000D01*
X395000Y2368000D02*
X465000Y2368000D01*
X430000Y1895000D02*
X430000Y1825000D01*
X395000Y1860000D02*
X465000Y1860000D01*
X470000Y4243000D02*
X470000Y4173000D01*
X435000Y4208000D02*
X505000Y4208000D01*
X470000Y3735000D02*
X470000Y3665000D01*
X435000Y3700000D02*
X505000Y3700000D01*
X685000Y4243000D02*
X685000Y4173000D01*
X650000Y4208000D02*
X720000Y4208000D01*
X685000Y3735000D02*
X685000Y3665000D01*
X650000Y3700000D02*
X720000Y3700000D01*
X985000Y4818000D02*
X985000Y4748000D01*
X950000Y4783000D02*
X1020000Y4783000D01*
X985000Y4310000D02*
X985000Y4240000D01*
X950000Y4275000D02*
X1020000Y4275000D01*
X1200000Y4823000D02*
X1200000Y4753000D01*
X1165000Y4788000D02*
X1235000Y4788000D01*
X1200000Y4315000D02*
X1200000Y4245000D01*
X1165000Y4280000D02*
X1235000Y4280000D01*
X1230000Y2405000D02*
X1230000Y2335000D01*
X1195000Y2370000D02*
X1265000Y2370000D01*
X1230000Y1897000D02*
X1230000Y1827000D01*
X1195000Y1862000D02*
X1265000Y1862000D01*
X1415000Y4823000D02*
X1415000Y4753000D01*
X1380000Y4788000D02*
X1450000Y4788000D01*
X1415000Y4315000D02*
X1415000Y4245000D01*
X1380000Y4280000D02*
X1450000Y4280000D01*
X1500000Y4090000D02*
X1500000Y4020000D01*
X1465000Y4055000D02*
X1535000Y4055000D01*
X1500000Y3778000D02*
X1500000Y3708000D01*
X1465000Y3743000D02*
X1535000Y3743000D01*
X1500000Y3270000D02*
X1500000Y3200000D01*
X1465000Y3235000D02*
X1535000Y3235000D01*
X1500000Y3060000D02*
X1500000Y2990000D01*
X1465000Y3025000D02*
X1535000Y3025000D01*
X1500000Y2552000D02*
X1500000Y2482000D01*
X1465000Y2517000D02*
X1535000Y2517000D01*
X1562000Y2180000D02*
X1562000Y2110000D01*
X1527000Y2145000D02*
X1597000Y2145000D01*
X2005000Y5368000D02*
X2005000Y5298000D01*
X1970000Y5333000D02*
X2040000Y5333000D01*
X2005000Y4860000D02*
X2005000Y4790000D01*
X1970000Y4825000D02*
X2040000Y4825000D01*
X2008000Y4090000D02*
X2008000Y4020000D01*
X1973000Y4055000D02*
X2043000Y4055000D01*
X2009965Y926593D02*
X2009965Y856593D01*
X1974965Y891593D02*
X2044965Y891593D01*
X2012465Y1346593D02*
X2012465Y1276593D01*
X1977465Y1311593D02*
X2047465Y1311593D01*
X2012465Y1136593D02*
X2012465Y1066593D01*
X1977465Y1101593D02*
X2047465Y1101593D01*
X2012465Y716593D02*
X2012465Y646593D01*
X1977465Y681593D02*
X2047465Y681593D01*
X2012965Y1771593D02*
X2012965Y1701593D01*
X1977965Y1736593D02*
X2047965Y1736593D01*
X2012965Y1559093D02*
X2012965Y1489093D01*
X1977965Y1524093D02*
X2047965Y1524093D01*
X2070000Y2180000D02*
X2070000Y2110000D01*
X2035000Y2145000D02*
X2105000Y2145000D01*
X2517965Y926593D02*
X2517965Y856593D01*
X2482965Y891593D02*
X2552965Y891593D01*
X2520465Y1346593D02*
X2520465Y1276593D01*
X2485465Y1311593D02*
X2555465Y1311593D01*
X2520465Y1136593D02*
X2520465Y1066593D01*
X2485465Y1101593D02*
X2555465Y1101593D01*
X2520465Y716593D02*
X2520465Y646593D01*
X2485465Y681593D02*
X2555465Y681593D01*
X2520965Y1771593D02*
X2520965Y1701593D01*
X2485965Y1736593D02*
X2555965Y1736593D01*
X2520965Y1559093D02*
X2520965Y1489093D01*
X2485965Y1524093D02*
X2555965Y1524093D01*
X2842000Y1467500D02*
X2842000Y1397500D01*
X2807000Y1432500D02*
X2877000Y1432500D01*
X2844500Y895000D02*
X2844500Y825000D01*
X2809500Y860000D02*
X2879500Y860000D01*
X3350000Y1467500D02*
X3350000Y1397500D01*
X3315000Y1432500D02*
X3385000Y1432500D01*
X3352500Y895000D02*
X3352500Y825000D01*
X3317500Y860000D02*
X3387500Y860000D01*
X4112000Y1910000D02*
X4112000Y1840000D01*
X4077000Y1875000D02*
X4147000Y1875000D01*
X4112000Y1470000D02*
X4112000Y1400000D01*
X4077000Y1435000D02*
X4147000Y1435000D01*
X4620000Y1910000D02*
X4620000Y1840000D01*
X4585000Y1875000D02*
X4655000Y1875000D01*
X4620000Y1470000D02*
X4620000Y1400000D01*
X4585000Y1435000D02*
X4655000Y1435000D01*
X4622000Y2160000D02*
X4622000Y2090000D01*
X4587000Y2125000D02*
X4657000Y2125000D01*
X4622000Y1220000D02*
X4622000Y1150000D01*
X4587000Y1185000D02*
X4657000Y1185000D01*
X5130000Y2160000D02*
X5130000Y2090000D01*
X5095000Y2125000D02*
X5165000Y2125000D01*
X5130000Y1220000D02*
X5130000Y1150000D01*
X5095000Y1185000D02*
X5165000Y1185000D01*
X5660000Y860000D02*
X5660000Y790000D01*
X5625000Y825000D02*
X5695000Y825000D01*
X5660000Y352000D02*
X5660000Y282000D01*
X5625000Y317000D02*
X5695000Y317000D01*
X5670000Y3850000D02*
X5670000Y3780000D01*
X5635000Y3815000D02*
X5705000Y3815000D01*
X5670000Y3342000D02*
X5670000Y3272000D01*
X5635000Y3307000D02*
X5705000Y3307000D01*
X5882000Y3850000D02*
X5882000Y3780000D01*
X5847000Y3815000D02*
X5917000Y3815000D01*
X5882000Y3610000D02*
X5882000Y3540000D01*
X5847000Y3575000D02*
X5917000Y3575000D01*
X5882000Y850000D02*
X5882000Y780000D01*
X5847000Y815000D02*
X5917000Y815000D01*
X5882000Y610000D02*
X5882000Y540000D01*
X5847000Y575000D02*
X5917000Y575000D01*
X6390000Y3850000D02*
X6390000Y3780000D01*
X6355000Y3815000D02*
X6425000Y3815000D01*
X6390000Y3610000D02*
X6390000Y3540000D01*
X6355000Y3575000D02*
X6425000Y3575000D01*
X6390000Y850000D02*
X6390000Y780000D01*
X6355000Y815000D02*
X6425000Y815000D01*
X6390000Y610000D02*
X6390000Y540000D01*
X6355000Y575000D02*
X6425000Y575000D01*
X4453941Y5528059D02*
X4453941Y5581941D01*
X4400059Y5581941D01*
X4400059Y5528059D01*
X4453941Y5528059D01*
X5596941Y5528059D02*
X5596941Y5581941D01*
X5543059Y5581941D01*
X5543059Y5528059D01*
X5596941Y5528059D01*
X950000Y5510000D02*
X990000Y5550000D01*
X950000Y5590000D01*
X910000Y5550000D01*
X950000Y5510000D01*
X950000Y5265000D02*
X990000Y5305000D01*
X950000Y5345000D01*
X910000Y5305000D01*
X950000Y5265000D01*
X1200000Y5510000D02*
X1240000Y5550000D01*
X1200000Y5590000D01*
X1160000Y5550000D01*
X1200000Y5510000D01*
X1200000Y5265000D02*
X1240000Y5305000D01*
X1200000Y5345000D01*
X1160000Y5305000D01*
X1200000Y5265000D01*
X1210465Y1216593D02*
X1250465Y1256593D01*
X1210465Y1296593D01*
X1170465Y1256593D01*
X1210465Y1216593D01*
X1620000Y5295000D02*
X1660000Y5335000D01*
X1620000Y5375000D01*
X1580000Y5335000D01*
X1620000Y5295000D01*
X1620000Y5045000D02*
X1660000Y5085000D01*
X1620000Y5125000D01*
X1580000Y5085000D01*
X1620000Y5045000D01*
X1710465Y1216593D02*
X1750465Y1256593D01*
X1710465Y1296593D01*
X1670465Y1256593D01*
X1710465Y1216593D01*
X1790000Y3565000D02*
X1830000Y3605000D01*
X1790000Y3645000D01*
X1750000Y3605000D01*
X1790000Y3565000D01*
X1900000Y3009000D02*
X1940000Y3049000D01*
X1900000Y3089000D01*
X1860000Y3049000D01*
X1900000Y3009000D01*
X1900000Y2755000D02*
X1940000Y2795000D01*
X1900000Y2835000D01*
X1860000Y2795000D01*
X1900000Y2755000D01*
X1900000Y2501000D02*
X1940000Y2541000D01*
X1900000Y2581000D01*
X1860000Y2541000D01*
X1900000Y2501000D01*
X2040000Y3565000D02*
X2080000Y3605000D01*
X2040000Y3645000D01*
X2000000Y3605000D01*
X2040000Y3565000D01*
X2320000Y2320000D02*
X2360000Y2360000D01*
X2320000Y2400000D01*
X2280000Y2360000D01*
X2320000Y2320000D01*
X2320000Y2070000D02*
X2360000Y2110000D01*
X2320000Y2150000D01*
X2280000Y2110000D01*
X2320000Y2070000D01*
X2330000Y5075000D02*
X2370000Y5115000D01*
X2330000Y5155000D01*
X2290000Y5115000D01*
X2330000Y5075000D01*
X2330000Y4825000D02*
X2370000Y4865000D01*
X2330000Y4905000D01*
X2290000Y4865000D01*
X2330000Y4825000D01*
X2570000Y2320000D02*
X2610000Y2360000D01*
X2570000Y2400000D01*
X2530000Y2360000D01*
X2570000Y2320000D01*
X2570000Y2070000D02*
X2610000Y2110000D01*
X2570000Y2150000D01*
X2530000Y2110000D01*
X2570000Y2070000D01*
X2590000Y5045000D02*
X2630000Y5085000D01*
X2590000Y5125000D01*
X2550000Y5085000D01*
X2590000Y5045000D01*
X2840000Y5045000D02*
X2880000Y5085000D01*
X2840000Y5125000D01*
X2800000Y5085000D01*
X2840000Y5045000D01*
X2850000Y4685000D02*
X2890000Y4725000D01*
X2850000Y4765000D01*
X2810000Y4725000D01*
X2850000Y4685000D01*
X3080000Y3605000D02*
X3120000Y3645000D01*
X3080000Y3685000D01*
X3040000Y3645000D01*
X3080000Y3605000D01*
X3350000Y4685000D02*
X3390000Y4725000D01*
X3350000Y4765000D01*
X3310000Y4725000D01*
X3350000Y4685000D01*
X3360000Y1102500D02*
X3400000Y1142500D01*
X3360000Y1182500D01*
X3320000Y1142500D01*
X3360000Y1102500D01*
X3580000Y3605000D02*
X3620000Y3645000D01*
X3580000Y3685000D01*
X3540000Y3645000D01*
X3580000Y3605000D01*
X3610000Y1102500D02*
X3650000Y1142500D01*
X3610000Y1182500D01*
X3570000Y1142500D01*
X3610000Y1102500D01*
X4110000Y2145000D02*
X4150000Y2185000D01*
X4110000Y2225000D01*
X4070000Y2185000D01*
X4110000Y2145000D01*
X4360000Y2145000D02*
X4400000Y2185000D01*
X4360000Y2225000D01*
X4320000Y2185000D01*
X4360000Y2145000D01*
X4885500Y1795000D02*
X4925500Y1835000D01*
X4885500Y1875000D01*
X4845500Y1835000D01*
X4885500Y1795000D01*
X4885500Y1435000D02*
X4925500Y1475000D01*
X4885500Y1515000D01*
X4845500Y1475000D01*
X4885500Y1435000D01*
X4990000Y3785000D02*
X5030000Y3825000D01*
X4990000Y3865000D01*
X4950000Y3825000D01*
X4990000Y3785000D01*
X6120000Y275000D02*
X6160000Y315000D01*
X6120000Y355000D01*
X6080000Y315000D01*
X6120000Y275000D01*
X6140000Y3275000D02*
X6180000Y3315000D01*
X6140000Y3355000D01*
X6100000Y3315000D01*
X6140000Y3275000D01*
X6370000Y275000D02*
X6410000Y315000D01*
X6370000Y355000D01*
X6330000Y315000D01*
X6370000Y275000D01*
X6390000Y3275000D02*
X6430000Y3315000D01*
X6390000Y3355000D01*
X6350000Y3315000D01*
X6390000Y3275000D01*
X6600000Y1795000D02*
X6640000Y1835000D01*
X6600000Y1875000D01*
X6560000Y1835000D01*
X6600000Y1795000D01*
X6600000Y1435000D02*
X6640000Y1475000D01*
X6600000Y1515000D01*
X6560000Y1475000D01*
X6600000Y1435000D01*
X2280000Y5605000D02*
X2380000Y5505000D01*
X2380000Y5605000D02*
X2280000Y5505000D01*
X2380000Y5555000D02*
G75*
G03X2380000Y5555000I-50000J0D01*
G01*
X2534000Y5605000D02*
X2634000Y5505000D01*
X2634000Y5605000D02*
X2534000Y5505000D01*
X2634000Y5555000D02*
G75*
G03X2634000Y5555000I-50000J0D01*
G01*
X2788000Y5605000D02*
X2888000Y5505000D01*
X2888000Y5605000D02*
X2788000Y5505000D01*
X2888000Y5555000D02*
G75*
G03X2888000Y5555000I-50000J0D01*
G01*
X3042000Y5605000D02*
X3142000Y5505000D01*
X3142000Y5605000D02*
X3042000Y5505000D01*
X3142000Y5555000D02*
G75*
G03X3142000Y5555000I-50000J0D01*
G01*
X3296000Y5605000D02*
X3396000Y5505000D01*
X3396000Y5605000D02*
X3296000Y5505000D01*
X3396000Y5555000D02*
G75*
G03X3396000Y5555000I-50000J0D01*
G01*
X3550000Y5605000D02*
X3650000Y5505000D01*
X3650000Y5605000D02*
X3550000Y5505000D01*
X3650000Y5555000D02*
G75*
G03X3650000Y5555000I-50000J0D01*
G01*
X4120000Y5053000D02*
X4220000Y4953000D01*
X4220000Y5053000D02*
X4120000Y4953000D01*
X4220000Y5003000D02*
G75*
G03X4220000Y5003000I-50000J0D01*
G01*
X4120000Y4799000D02*
X4220000Y4699000D01*
X4220000Y4799000D02*
X4120000Y4699000D01*
X4220000Y4749000D02*
G75*
G03X4220000Y4749000I-50000J0D01*
G01*
X4120000Y4545000D02*
X4220000Y4445000D01*
X4220000Y4545000D02*
X4120000Y4445000D01*
X4220000Y4495000D02*
G75*
G03X4220000Y4495000I-50000J0D01*
G01*
X4120000Y4123000D02*
X4220000Y4023000D01*
X4220000Y4123000D02*
X4120000Y4023000D01*
X4220000Y4073000D02*
G75*
G03X4220000Y4073000I-50000J0D01*
G01*
X4120000Y3869000D02*
X4220000Y3769000D01*
X4220000Y3869000D02*
X4120000Y3769000D01*
X4220000Y3819000D02*
G75*
G03X4220000Y3819000I-50000J0D01*
G01*
X4120000Y3615000D02*
X4220000Y3515000D01*
X4220000Y3615000D02*
X4120000Y3515000D01*
X4220000Y3565000D02*
G75*
G03X4220000Y3565000I-50000J0D01*
G01*
X4120000Y3193000D02*
X4220000Y3093000D01*
X4220000Y3193000D02*
X4120000Y3093000D01*
X4220000Y3143000D02*
G75*
G03X4220000Y3143000I-50000J0D01*
G01*
X4120000Y2939000D02*
X4220000Y2839000D01*
X4220000Y2939000D02*
X4120000Y2839000D01*
X4220000Y2889000D02*
G75*
G03X4220000Y2889000I-50000J0D01*
G01*
X4120000Y2685000D02*
X4220000Y2585000D01*
X4220000Y2685000D02*
X4120000Y2585000D01*
X4220000Y2635000D02*
G75*
G03X4220000Y2635000I-50000J0D01*
G01*
X6660000Y3879000D02*
X6760000Y3779000D01*
X6760000Y3879000D02*
X6660000Y3779000D01*
X6760000Y3829000D02*
G75*
G03X6760000Y3829000I-50000J0D01*
G01*
X6660000Y3625000D02*
X6760000Y3525000D01*
X6760000Y3625000D02*
X6660000Y3525000D01*
X6760000Y3575000D02*
G75*
G03X6760000Y3575000I-50000J0D01*
G01*
X6660000Y3371000D02*
X6760000Y3271000D01*
X6760000Y3371000D02*
X6660000Y3271000D01*
X6760000Y3321000D02*
G75*
G03X6760000Y3321000I-50000J0D01*
G01*
X6660000Y879000D02*
X6760000Y779000D01*
X6760000Y879000D02*
X6660000Y779000D01*
X6760000Y829000D02*
G75*
G03X6760000Y829000I-50000J0D01*
G01*
X6660000Y625000D02*
X6760000Y525000D01*
X6760000Y625000D02*
X6660000Y525000D01*
X6760000Y575000D02*
G75*
G03X6760000Y575000I-50000J0D01*
G01*
X6660000Y371000D02*
X6760000Y271000D01*
X6760000Y371000D02*
X6660000Y271000D01*
X6760000Y321000D02*
G75*
G03X6760000Y321000I-50000J0D01*
G01*
X4670000Y5205000D02*
X4790000Y5085000D01*
X4790000Y5205000D02*
X4670000Y5085000D01*
X4730000Y5205000D02*
X4730000Y5085000D01*
X4670000Y5145000D02*
X4790000Y5145000D01*
X4670000Y2665000D02*
X4790000Y2545000D01*
X4790000Y2665000D02*
X4670000Y2545000D01*
X4730000Y2665000D02*
X4730000Y2545000D01*
X4670000Y2605000D02*
X4790000Y2605000D01*
X5220000Y5205000D02*
X5340000Y5085000D01*
X5340000Y5205000D02*
X5220000Y5085000D01*
X5280000Y5205000D02*
X5280000Y5085000D01*
X5220000Y5145000D02*
X5340000Y5145000D01*
X5220000Y2665000D02*
X5340000Y2545000D01*
X5340000Y2665000D02*
X5220000Y2545000D01*
X5280000Y2665000D02*
X5280000Y2545000D01*
X5220000Y2605000D02*
X5340000Y2605000D01*
X1102465Y641593D02*
X1242465Y501593D01*
X1242465Y641593D02*
X1102465Y501593D01*
X1221963Y522095D02*
X1221963Y621091D01*
X1122967Y621091D01*
X1122967Y522095D01*
X1221963Y522095D01*
X1610465Y641593D02*
X1750465Y501593D01*
X1750465Y641593D02*
X1610465Y501593D01*
X1729963Y522095D02*
X1729963Y621091D01*
X1630967Y621091D01*
X1630967Y522095D01*
X1729963Y522095D01*
X2480000Y3550000D02*
X2620000Y3410000D01*
X2620000Y3550000D02*
X2480000Y3410000D01*
X2599498Y3430502D02*
X2599498Y3529498D01*
X2500502Y3529498D01*
X2500502Y3430502D01*
X2599498Y3430502D01*
X2685000Y3190000D02*
X2825000Y3050000D01*
X2825000Y3190000D02*
X2685000Y3050000D01*
X2804498Y3070502D02*
X2804498Y3169498D01*
X2705502Y3169498D01*
X2705502Y3070502D01*
X2804498Y3070502D01*
X4915000Y5505000D02*
X5055000Y5365000D01*
X5055000Y5505000D02*
X4915000Y5365000D01*
X5034498Y5385502D02*
X5034498Y5484498D01*
X4935502Y5484498D01*
X4935502Y5385502D01*
X5034498Y5385502D01*
X270000Y5460000D02*
X570000Y5160000D01*
X570000Y5460000D02*
X270000Y5160000D01*
X420000Y5160000D02*
X570000Y5310000D01*
X420000Y5460000D01*
X270000Y5310000D01*
X420000Y5160000D01*
X475000Y900000D02*
X775000Y600000D01*
X775000Y900000D02*
X475000Y600000D01*
X625000Y600000D02*
X775000Y750000D01*
X625000Y900000D01*
X475000Y750000D01*
X625000Y600000D01*
X4985000Y820000D02*
X5285000Y520000D01*
X5285000Y820000D02*
X4985000Y520000D01*
X5135000Y520000D02*
X5285000Y670000D01*
X5135000Y820000D01*
X4985000Y670000D01*
X5135000Y520000D01*
X6205000Y5220000D02*
X6505000Y4920000D01*
X6505000Y5220000D02*
X6205000Y4920000D01*
X6355000Y4920000D02*
X6505000Y5070000D01*
X6355000Y5220000D01*
X6205000Y5070000D01*
X6355000Y4920000D01*
D13*
X273884Y-463214D02*
X273884Y-163214D01*
X345313Y-163214D01*
X388170Y-177500D01*
X416741Y-206071D01*
X431027Y-234643D01*
X445313Y-291786D01*
X445313Y-334643D01*
X431027Y-391786D01*
X416741Y-420357D01*
X388170Y-448929D01*
X345313Y-463214D01*
X273884Y-463214D01*
X573884Y-463214D02*
X573884Y-263214D01*
X573884Y-320357D02*
X588170Y-291786D01*
X602456Y-277500D01*
X631027Y-263214D01*
X659598Y-263214D01*
X759598Y-463214D02*
X759598Y-263214D01*
X759598Y-163214D02*
X745313Y-177500D01*
X759598Y-191786D01*
X773884Y-177500D01*
X759598Y-163214D01*
X759598Y-191786D01*
X945313Y-463214D02*
X916741Y-448929D01*
X902455Y-420357D01*
X902455Y-163214D01*
X1102456Y-463214D02*
X1073884Y-448929D01*
X1059598Y-420357D01*
X1059598Y-163214D01*
X1445313Y-463214D02*
X1445313Y-163214D01*
X1545313Y-377500D01*
X1645313Y-163214D01*
X1645313Y-463214D01*
X1916741Y-463214D02*
X1916741Y-306072D01*
X1902455Y-277500D01*
X1873884Y-263214D01*
X1816741Y-263214D01*
X1788170Y-277500D01*
X1916741Y-448929D02*
X1888170Y-463214D01*
X1816741Y-463214D01*
X1788170Y-448929D01*
X1773884Y-420357D01*
X1773884Y-391786D01*
X1788170Y-363214D01*
X1816741Y-348929D01*
X1888170Y-348929D01*
X1916741Y-334643D01*
X2059598Y-263214D02*
X2059598Y-563214D01*
X2059598Y-277500D02*
X2088170Y-263214D01*
X2145313Y-263214D01*
X2173884Y-277500D01*
X2188170Y-291786D01*
X2202456Y-320357D01*
X2202456Y-406071D01*
X2188170Y-434643D01*
X2173884Y-448929D01*
X2145313Y-463214D01*
X2088170Y-463214D01*
X2059598Y-448929D01*
X2331027Y-434643D02*
X2345313Y-448929D01*
X2331027Y-463214D01*
X2316741Y-448929D01*
X2331027Y-434643D01*
X2331027Y-463214D01*
X2331027Y-277500D02*
X2345313Y-291786D01*
X2331027Y-306072D01*
X2316741Y-291786D01*
X2331027Y-277500D01*
X2331027Y-306072D01*
X-37545Y-937500D02*
X2456Y-977500D01*
X2456Y-937500D02*
X-37545Y-977500D01*
X331027Y-793214D02*
X359598Y-793214D01*
X388170Y-807500D01*
X402455Y-821786D01*
X416741Y-850357D01*
X431027Y-907500D01*
X431027Y-978929D01*
X416741Y-1036071D01*
X402455Y-1064643D01*
X388170Y-1078929D01*
X359598Y-1093214D01*
X331027Y-1093214D01*
X302456Y-1078929D01*
X288170Y-1064643D01*
X273884Y-1036071D01*
X259598Y-978929D01*
X259598Y-907500D01*
X273884Y-850357D01*
X288170Y-821786D01*
X302456Y-807500D01*
X331027Y-793214D01*
X559598Y-1064643D02*
X573884Y-1078929D01*
X559598Y-1093214D01*
X545313Y-1078929D01*
X559598Y-1064643D01*
X559598Y-1093214D01*
X831027Y-893214D02*
X831027Y-1093214D01*
X759598Y-778929D02*
X688170Y-993214D01*
X873884Y-993214D01*
X1045313Y-793214D02*
X1073884Y-793214D01*
X1102456Y-807500D01*
X1116741Y-821786D01*
X1131027Y-850357D01*
X1145313Y-907500D01*
X1145313Y-978929D01*
X1131027Y-1036071D01*
X1116741Y-1064643D01*
X1102456Y-1078929D01*
X1073884Y-1093214D01*
X1045313Y-1093214D01*
X1016741Y-1078929D01*
X1002455Y-1064643D01*
X988170Y-1036071D01*
X973884Y-978929D01*
X973884Y-907500D01*
X988170Y-850357D01*
X1002455Y-821786D01*
X1016741Y-807500D01*
X1045313Y-793214D01*
X1273884Y-1093214D02*
X1273884Y-893214D01*
X1273884Y-921786D02*
X1288170Y-907500D01*
X1316741Y-893214D01*
X1359598Y-893214D01*
X1388170Y-907500D01*
X1402455Y-936071D01*
X1402455Y-1093214D01*
X1402455Y-936071D02*
X1416741Y-907500D01*
X1445313Y-893214D01*
X1488170Y-893214D01*
X1516741Y-907500D01*
X1531027Y-936071D01*
X1531027Y-1093214D01*
X1673884Y-1093214D02*
X1673884Y-893214D01*
X1673884Y-921786D02*
X1688170Y-907500D01*
X1716741Y-893214D01*
X1759598Y-893214D01*
X1788170Y-907500D01*
X1802455Y-936071D01*
X1802455Y-1093214D01*
X1802455Y-936071D02*
X1816741Y-907500D01*
X1845313Y-893214D01*
X1888170Y-893214D01*
X1916741Y-907500D01*
X1931027Y-936071D01*
X1931027Y-1093214D01*
X2516741Y-778929D02*
X2259598Y-1164643D01*
X2902455Y-793214D02*
X2931027Y-793214D01*
X2959598Y-807500D01*
X2973884Y-821786D01*
X2988170Y-850357D01*
X3002455Y-907500D01*
X3002455Y-978929D01*
X2988170Y-1036071D01*
X2973884Y-1064643D01*
X2959598Y-1078929D01*
X2931027Y-1093214D01*
X2902455Y-1093214D01*
X2873884Y-1078929D01*
X2859598Y-1064643D01*
X2845313Y-1036071D01*
X2831027Y-978929D01*
X2831027Y-907500D01*
X2845313Y-850357D01*
X2859598Y-821786D01*
X2873884Y-807500D01*
X2902455Y-793214D01*
X3131027Y-1064643D02*
X3145313Y-1078929D01*
X3131027Y-1093214D01*
X3116741Y-1078929D01*
X3131027Y-1064643D01*
X3131027Y-1093214D01*
X3331027Y-793214D02*
X3359598Y-793214D01*
X3388170Y-807500D01*
X3402455Y-821786D01*
X3416741Y-850357D01*
X3431027Y-907500D01*
X3431027Y-978929D01*
X3416741Y-1036071D01*
X3402455Y-1064643D01*
X3388170Y-1078929D01*
X3359598Y-1093214D01*
X3331027Y-1093214D01*
X3302455Y-1078929D01*
X3288170Y-1064643D01*
X3273884Y-1036071D01*
X3259598Y-978929D01*
X3259598Y-907500D01*
X3273884Y-850357D01*
X3288170Y-821786D01*
X3302455Y-807500D01*
X3331027Y-793214D01*
X3716741Y-1093214D02*
X3545313Y-1093214D01*
X3631027Y-1093214D02*
X3631027Y-793214D01*
X3602455Y-836071D01*
X3573884Y-864643D01*
X3545313Y-878929D01*
X3973884Y-793214D02*
X3916741Y-793214D01*
X3888170Y-807500D01*
X3873884Y-821786D01*
X3845313Y-864643D01*
X3831027Y-921786D01*
X3831027Y-1036071D01*
X3845313Y-1064643D01*
X3859598Y-1078929D01*
X3888170Y-1093214D01*
X3945313Y-1093214D01*
X3973884Y-1078929D01*
X3988170Y-1064643D01*
X4002455Y-1036071D01*
X4002455Y-964643D01*
X3988170Y-936071D01*
X3973884Y-921786D01*
X3945313Y-907500D01*
X3888170Y-907500D01*
X3859598Y-921786D01*
X3845313Y-936071D01*
X3831027Y-964643D01*
X4116741Y-793214D02*
X4116741Y-850357D01*
X4231027Y-793214D02*
X4231027Y-850357D01*
X4673884Y-1207500D02*
X4659598Y-1193214D01*
X4631027Y-1150357D01*
X4616741Y-1121786D01*
X4602455Y-1078929D01*
X4588170Y-1007500D01*
X4588170Y-950357D01*
X4602455Y-878929D01*
X4616741Y-836071D01*
X4631027Y-807500D01*
X4659598Y-764643D01*
X4673884Y-750357D01*
X4945313Y-1093214D02*
X4773884Y-1093214D01*
X4859598Y-1093214D02*
X4859598Y-793214D01*
X4831027Y-836071D01*
X4802455Y-864643D01*
X4773884Y-878929D01*
X5131027Y-793214D02*
X5159598Y-793214D01*
X5188170Y-807500D01*
X5202455Y-821786D01*
X5216741Y-850357D01*
X5231027Y-907500D01*
X5231027Y-978929D01*
X5216741Y-1036071D01*
X5202455Y-1064643D01*
X5188170Y-1078929D01*
X5159598Y-1093214D01*
X5131027Y-1093214D01*
X5102455Y-1078929D01*
X5088170Y-1064643D01*
X5073884Y-1036071D01*
X5059598Y-978929D01*
X5059598Y-907500D01*
X5073884Y-850357D01*
X5088170Y-821786D01*
X5102455Y-807500D01*
X5131027Y-793214D01*
X5373884Y-1093214D02*
X5431027Y-1093214D01*
X5459598Y-1078929D01*
X5473884Y-1064643D01*
X5502455Y-1021786D01*
X5516741Y-964643D01*
X5516741Y-850357D01*
X5502455Y-821786D01*
X5488170Y-807500D01*
X5459598Y-793214D01*
X5402455Y-793214D01*
X5373884Y-807500D01*
X5359598Y-821786D01*
X5345313Y-850357D01*
X5345313Y-921786D01*
X5359598Y-950357D01*
X5373884Y-964643D01*
X5402455Y-978929D01*
X5459598Y-978929D01*
X5488170Y-964643D01*
X5502455Y-950357D01*
X5516741Y-921786D01*
X5873884Y-1093214D02*
X5873884Y-793214D01*
X6002455Y-1093214D02*
X6002455Y-936071D01*
X5988170Y-907500D01*
X5959598Y-893214D01*
X5916741Y-893214D01*
X5888170Y-907500D01*
X5873884Y-921786D01*
X6188170Y-1093214D02*
X6159598Y-1078929D01*
X6145313Y-1064643D01*
X6131027Y-1036071D01*
X6131027Y-950357D01*
X6145313Y-921786D01*
X6159598Y-907500D01*
X6188170Y-893214D01*
X6231027Y-893214D01*
X6259598Y-907500D01*
X6273884Y-921786D01*
X6288170Y-950357D01*
X6288170Y-1036071D01*
X6273884Y-1064643D01*
X6259598Y-1078929D01*
X6231027Y-1093214D01*
X6188170Y-1093214D01*
X6459598Y-1093214D02*
X6431027Y-1078929D01*
X6416741Y-1050357D01*
X6416741Y-793214D01*
X6688170Y-1078929D02*
X6659598Y-1093214D01*
X6602455Y-1093214D01*
X6573884Y-1078929D01*
X6559598Y-1050357D01*
X6559598Y-936071D01*
X6573884Y-907500D01*
X6602455Y-893214D01*
X6659598Y-893214D01*
X6688170Y-907500D01*
X6702455Y-936071D01*
X6702455Y-964643D01*
X6559598Y-993214D01*
X6816741Y-1078929D02*
X6845313Y-1093214D01*
X6902455Y-1093214D01*
X6931027Y-1078929D01*
X6945313Y-1050357D01*
X6945313Y-1036071D01*
X6931027Y-1007500D01*
X6902455Y-993214D01*
X6859598Y-993214D01*
X6831027Y-978929D01*
X6816741Y-950357D01*
X6816741Y-936071D01*
X6831027Y-907500D01*
X6859598Y-893214D01*
X6902455Y-893214D01*
X6931027Y-907500D01*
X7045313Y-1207500D02*
X7059598Y-1193214D01*
X7088170Y-1150357D01*
X7102455Y-1121786D01*
X7116741Y-1078929D01*
X7131027Y-1007500D01*
X7131027Y-950357D01*
X7116741Y-878929D01*
X7102455Y-836071D01*
X7088170Y-807500D01*
X7059598Y-764643D01*
X7045313Y-750357D01*
X2456Y-1353500D02*
G75*
G03X2456Y-1353500I-30000J0D01*
G01*
X331027Y-1189214D02*
X359598Y-1189214D01*
X388170Y-1203500D01*
X402455Y-1217786D01*
X416741Y-1246357D01*
X431027Y-1303500D01*
X431027Y-1374929D01*
X416741Y-1432071D01*
X402455Y-1460643D01*
X388170Y-1474929D01*
X359598Y-1489214D01*
X331027Y-1489214D01*
X302456Y-1474929D01*
X288170Y-1460643D01*
X273884Y-1432071D01*
X259598Y-1374929D01*
X259598Y-1303500D01*
X273884Y-1246357D01*
X288170Y-1217786D01*
X302456Y-1203500D01*
X331027Y-1189214D01*
X559598Y-1460643D02*
X573884Y-1474929D01*
X559598Y-1489214D01*
X545313Y-1474929D01*
X559598Y-1460643D01*
X559598Y-1489214D01*
X831027Y-1189214D02*
X773884Y-1189214D01*
X745313Y-1203500D01*
X731027Y-1217786D01*
X702455Y-1260643D01*
X688170Y-1317786D01*
X688170Y-1432071D01*
X702455Y-1460643D01*
X716741Y-1474929D01*
X745313Y-1489214D01*
X802455Y-1489214D01*
X831027Y-1474929D01*
X845313Y-1460643D01*
X859598Y-1432071D01*
X859598Y-1360643D01*
X845313Y-1332072D01*
X831027Y-1317786D01*
X802455Y-1303500D01*
X745313Y-1303500D01*
X716741Y-1317786D01*
X702455Y-1332072D01*
X688170Y-1360643D01*
X1045313Y-1189214D02*
X1073884Y-1189214D01*
X1102456Y-1203500D01*
X1116741Y-1217786D01*
X1131027Y-1246357D01*
X1145313Y-1303500D01*
X1145313Y-1374929D01*
X1131027Y-1432071D01*
X1116741Y-1460643D01*
X1102456Y-1474929D01*
X1073884Y-1489214D01*
X1045313Y-1489214D01*
X1016741Y-1474929D01*
X1002455Y-1460643D01*
X988170Y-1432071D01*
X973884Y-1374929D01*
X973884Y-1303500D01*
X988170Y-1246357D01*
X1002455Y-1217786D01*
X1016741Y-1203500D01*
X1045313Y-1189214D01*
X1273884Y-1489214D02*
X1273884Y-1289214D01*
X1273884Y-1317786D02*
X1288170Y-1303500D01*
X1316741Y-1289214D01*
X1359598Y-1289214D01*
X1388170Y-1303500D01*
X1402455Y-1332072D01*
X1402455Y-1489214D01*
X1402455Y-1332072D02*
X1416741Y-1303500D01*
X1445313Y-1289214D01*
X1488170Y-1289214D01*
X1516741Y-1303500D01*
X1531027Y-1332072D01*
X1531027Y-1489214D01*
X1673884Y-1489214D02*
X1673884Y-1289214D01*
X1673884Y-1317786D02*
X1688170Y-1303500D01*
X1716741Y-1289214D01*
X1759598Y-1289214D01*
X1788170Y-1303500D01*
X1802455Y-1332072D01*
X1802455Y-1489214D01*
X1802455Y-1332072D02*
X1816741Y-1303500D01*
X1845313Y-1289214D01*
X1888170Y-1289214D01*
X1916741Y-1303500D01*
X1931027Y-1332072D01*
X1931027Y-1489214D01*
X2516741Y-1174929D02*
X2259598Y-1560643D01*
X2902455Y-1189214D02*
X2931027Y-1189214D01*
X2959598Y-1203500D01*
X2973884Y-1217786D01*
X2988170Y-1246357D01*
X3002455Y-1303500D01*
X3002455Y-1374929D01*
X2988170Y-1432071D01*
X2973884Y-1460643D01*
X2959598Y-1474929D01*
X2931027Y-1489214D01*
X2902455Y-1489214D01*
X2873884Y-1474929D01*
X2859598Y-1460643D01*
X2845313Y-1432071D01*
X2831027Y-1374929D01*
X2831027Y-1303500D01*
X2845313Y-1246357D01*
X2859598Y-1217786D01*
X2873884Y-1203500D01*
X2902455Y-1189214D01*
X3131027Y-1460643D02*
X3145313Y-1474929D01*
X3131027Y-1489214D01*
X3116741Y-1474929D01*
X3131027Y-1460643D01*
X3131027Y-1489214D01*
X3331027Y-1189214D02*
X3359598Y-1189214D01*
X3388170Y-1203500D01*
X3402455Y-1217786D01*
X3416741Y-1246357D01*
X3431027Y-1303500D01*
X3431027Y-1374929D01*
X3416741Y-1432071D01*
X3402455Y-1460643D01*
X3388170Y-1474929D01*
X3359598Y-1489214D01*
X3331027Y-1489214D01*
X3302455Y-1474929D01*
X3288170Y-1460643D01*
X3273884Y-1432071D01*
X3259598Y-1374929D01*
X3259598Y-1303500D01*
X3273884Y-1246357D01*
X3288170Y-1217786D01*
X3302455Y-1203500D01*
X3331027Y-1189214D01*
X3545313Y-1217786D02*
X3559598Y-1203500D01*
X3588170Y-1189214D01*
X3659598Y-1189214D01*
X3688170Y-1203500D01*
X3702455Y-1217786D01*
X3716741Y-1246357D01*
X3716741Y-1274929D01*
X3702455Y-1317786D01*
X3531027Y-1489214D01*
X3716741Y-1489214D01*
X3973884Y-1289214D02*
X3973884Y-1489214D01*
X3902455Y-1174929D02*
X3831027Y-1389214D01*
X4016741Y-1389214D01*
X4116741Y-1189214D02*
X4116741Y-1246357D01*
X4231027Y-1189214D02*
X4231027Y-1246357D01*
X4673884Y-1603500D02*
X4659598Y-1589214D01*
X4631027Y-1546357D01*
X4616741Y-1517786D01*
X4602455Y-1474929D01*
X4588170Y-1403500D01*
X4588170Y-1346357D01*
X4602455Y-1274929D01*
X4616741Y-1232072D01*
X4631027Y-1203500D01*
X4659598Y-1160643D01*
X4673884Y-1146357D01*
X4773884Y-1217786D02*
X4788170Y-1203500D01*
X4816741Y-1189214D01*
X4888170Y-1189214D01*
X4916741Y-1203500D01*
X4931027Y-1217786D01*
X4945313Y-1246357D01*
X4945313Y-1274929D01*
X4931027Y-1317786D01*
X4759598Y-1489214D01*
X4945313Y-1489214D01*
X5045313Y-1189214D02*
X5245313Y-1189214D01*
X5116741Y-1489214D01*
X5588170Y-1489214D02*
X5588170Y-1189214D01*
X5716741Y-1489214D02*
X5716741Y-1332072D01*
X5702455Y-1303500D01*
X5673884Y-1289214D01*
X5631027Y-1289214D01*
X5602455Y-1303500D01*
X5588170Y-1317786D01*
X5902455Y-1489214D02*
X5873884Y-1474929D01*
X5859598Y-1460643D01*
X5845313Y-1432071D01*
X5845313Y-1346357D01*
X5859598Y-1317786D01*
X5873884Y-1303500D01*
X5902455Y-1289214D01*
X5945313Y-1289214D01*
X5973884Y-1303500D01*
X5988170Y-1317786D01*
X6002455Y-1346357D01*
X6002455Y-1432071D01*
X5988170Y-1460643D01*
X5973884Y-1474929D01*
X5945313Y-1489214D01*
X5902455Y-1489214D01*
X6173884Y-1489214D02*
X6145313Y-1474929D01*
X6131027Y-1446357D01*
X6131027Y-1189214D01*
X6402455Y-1474929D02*
X6373884Y-1489214D01*
X6316741Y-1489214D01*
X6288170Y-1474929D01*
X6273884Y-1446357D01*
X6273884Y-1332072D01*
X6288170Y-1303500D01*
X6316741Y-1289214D01*
X6373884Y-1289214D01*
X6402455Y-1303500D01*
X6416741Y-1332072D01*
X6416741Y-1360643D01*
X6273884Y-1389214D01*
X6531027Y-1474929D02*
X6559598Y-1489214D01*
X6616741Y-1489214D01*
X6645313Y-1474929D01*
X6659598Y-1446357D01*
X6659598Y-1432071D01*
X6645313Y-1403500D01*
X6616741Y-1389214D01*
X6573884Y-1389214D01*
X6545313Y-1374929D01*
X6531027Y-1346357D01*
X6531027Y-1332072D01*
X6545313Y-1303500D01*
X6573884Y-1289214D01*
X6616741Y-1289214D01*
X6645313Y-1303500D01*
X6759598Y-1603500D02*
X6773884Y-1589214D01*
X6802455Y-1546357D01*
X6816741Y-1517786D01*
X6831027Y-1474929D01*
X6845313Y-1403500D01*
X6845313Y-1346357D01*
X6831027Y-1274929D01*
X6816741Y-1232072D01*
X6802455Y-1203500D01*
X6773884Y-1160643D01*
X6759598Y-1146357D01*
X-32544Y-1714500D02*
X-32544Y-1784500D01*
X-67545Y-1749500D02*
X2456Y-1749500D01*
X331027Y-1585214D02*
X359598Y-1585214D01*
X388170Y-1599500D01*
X402455Y-1613786D01*
X416741Y-1642357D01*
X431027Y-1699500D01*
X431027Y-1770929D01*
X416741Y-1828071D01*
X402455Y-1856643D01*
X388170Y-1870929D01*
X359598Y-1885214D01*
X331027Y-1885214D01*
X302456Y-1870929D01*
X288170Y-1856643D01*
X273884Y-1828071D01*
X259598Y-1770929D01*
X259598Y-1699500D01*
X273884Y-1642357D01*
X288170Y-1613786D01*
X302456Y-1599500D01*
X331027Y-1585214D01*
X559598Y-1856643D02*
X573884Y-1870929D01*
X559598Y-1885214D01*
X545313Y-1870929D01*
X559598Y-1856643D01*
X559598Y-1885214D01*
X673884Y-1585214D02*
X873884Y-1585214D01*
X745313Y-1885214D01*
X1045313Y-1585214D02*
X1073884Y-1585214D01*
X1102456Y-1599500D01*
X1116741Y-1613786D01*
X1131027Y-1642357D01*
X1145313Y-1699500D01*
X1145313Y-1770929D01*
X1131027Y-1828071D01*
X1116741Y-1856643D01*
X1102456Y-1870929D01*
X1073884Y-1885214D01*
X1045313Y-1885214D01*
X1016741Y-1870929D01*
X1002455Y-1856643D01*
X988170Y-1828071D01*
X973884Y-1770929D01*
X973884Y-1699500D01*
X988170Y-1642357D01*
X1002455Y-1613786D01*
X1016741Y-1599500D01*
X1045313Y-1585214D01*
X1273884Y-1885214D02*
X1273884Y-1685214D01*
X1273884Y-1713786D02*
X1288170Y-1699500D01*
X1316741Y-1685214D01*
X1359598Y-1685214D01*
X1388170Y-1699500D01*
X1402455Y-1728071D01*
X1402455Y-1885214D01*
X1402455Y-1728071D02*
X1416741Y-1699500D01*
X1445313Y-1685214D01*
X1488170Y-1685214D01*
X1516741Y-1699500D01*
X1531027Y-1728071D01*
X1531027Y-1885214D01*
X1673884Y-1885214D02*
X1673884Y-1685214D01*
X1673884Y-1713786D02*
X1688170Y-1699500D01*
X1716741Y-1685214D01*
X1759598Y-1685214D01*
X1788170Y-1699500D01*
X1802455Y-1728071D01*
X1802455Y-1885214D01*
X1802455Y-1728071D02*
X1816741Y-1699500D01*
X1845313Y-1685214D01*
X1888170Y-1685214D01*
X1916741Y-1699500D01*
X1931027Y-1728071D01*
X1931027Y-1885214D01*
X2516741Y-1570929D02*
X2259598Y-1956643D01*
X2902455Y-1585214D02*
X2931027Y-1585214D01*
X2959598Y-1599500D01*
X2973884Y-1613786D01*
X2988170Y-1642357D01*
X3002455Y-1699500D01*
X3002455Y-1770929D01*
X2988170Y-1828071D01*
X2973884Y-1856643D01*
X2959598Y-1870929D01*
X2931027Y-1885214D01*
X2902455Y-1885214D01*
X2873884Y-1870929D01*
X2859598Y-1856643D01*
X2845313Y-1828071D01*
X2831027Y-1770929D01*
X2831027Y-1699500D01*
X2845313Y-1642357D01*
X2859598Y-1613786D01*
X2873884Y-1599500D01*
X2902455Y-1585214D01*
X3131027Y-1856643D02*
X3145313Y-1870929D01*
X3131027Y-1885214D01*
X3116741Y-1870929D01*
X3131027Y-1856643D01*
X3131027Y-1885214D01*
X3331027Y-1585214D02*
X3359598Y-1585214D01*
X3388170Y-1599500D01*
X3402455Y-1613786D01*
X3416741Y-1642357D01*
X3431027Y-1699500D01*
X3431027Y-1770929D01*
X3416741Y-1828071D01*
X3402455Y-1856643D01*
X3388170Y-1870929D01*
X3359598Y-1885214D01*
X3331027Y-1885214D01*
X3302455Y-1870929D01*
X3288170Y-1856643D01*
X3273884Y-1828071D01*
X3259598Y-1770929D01*
X3259598Y-1699500D01*
X3273884Y-1642357D01*
X3288170Y-1613786D01*
X3302455Y-1599500D01*
X3331027Y-1585214D01*
X3545313Y-1613786D02*
X3559598Y-1599500D01*
X3588170Y-1585214D01*
X3659598Y-1585214D01*
X3688170Y-1599500D01*
X3702455Y-1613786D01*
X3716741Y-1642357D01*
X3716741Y-1670929D01*
X3702455Y-1713786D01*
X3531027Y-1885214D01*
X3716741Y-1885214D01*
X3888170Y-1713786D02*
X3859598Y-1699500D01*
X3845313Y-1685214D01*
X3831027Y-1656643D01*
X3831027Y-1642357D01*
X3845313Y-1613786D01*
X3859598Y-1599500D01*
X3888170Y-1585214D01*
X3945313Y-1585214D01*
X3973884Y-1599500D01*
X3988170Y-1613786D01*
X4002455Y-1642357D01*
X4002455Y-1656643D01*
X3988170Y-1685214D01*
X3973884Y-1699500D01*
X3945313Y-1713786D01*
X3888170Y-1713786D01*
X3859598Y-1728071D01*
X3845313Y-1742357D01*
X3831027Y-1770929D01*
X3831027Y-1828071D01*
X3845313Y-1856643D01*
X3859598Y-1870929D01*
X3888170Y-1885214D01*
X3945313Y-1885214D01*
X3973884Y-1870929D01*
X3988170Y-1856643D01*
X4002455Y-1828071D01*
X4002455Y-1770929D01*
X3988170Y-1742357D01*
X3973884Y-1728071D01*
X3945313Y-1713786D01*
X4116741Y-1585214D02*
X4116741Y-1642357D01*
X4231027Y-1585214D02*
X4231027Y-1642357D01*
X4673884Y-1999500D02*
X4659598Y-1985214D01*
X4631027Y-1942357D01*
X4616741Y-1913786D01*
X4602455Y-1870929D01*
X4588170Y-1799500D01*
X4588170Y-1742357D01*
X4602455Y-1670929D01*
X4616741Y-1628071D01*
X4631027Y-1599500D01*
X4659598Y-1556643D01*
X4673884Y-1542357D01*
X4916741Y-1585214D02*
X4859598Y-1585214D01*
X4831027Y-1599500D01*
X4816741Y-1613786D01*
X4788170Y-1656643D01*
X4773884Y-1713786D01*
X4773884Y-1828071D01*
X4788170Y-1856643D01*
X4802455Y-1870929D01*
X4831027Y-1885214D01*
X4888170Y-1885214D01*
X4916741Y-1870929D01*
X4931027Y-1856643D01*
X4945313Y-1828071D01*
X4945313Y-1756643D01*
X4931027Y-1728071D01*
X4916741Y-1713786D01*
X4888170Y-1699500D01*
X4831027Y-1699500D01*
X4802455Y-1713786D01*
X4788170Y-1728071D01*
X4773884Y-1756643D01*
X5202455Y-1585214D02*
X5145313Y-1585214D01*
X5116741Y-1599500D01*
X5102455Y-1613786D01*
X5073884Y-1656643D01*
X5059598Y-1713786D01*
X5059598Y-1828071D01*
X5073884Y-1856643D01*
X5088170Y-1870929D01*
X5116741Y-1885214D01*
X5173884Y-1885214D01*
X5202455Y-1870929D01*
X5216741Y-1856643D01*
X5231027Y-1828071D01*
X5231027Y-1756643D01*
X5216741Y-1728071D01*
X5202455Y-1713786D01*
X5173884Y-1699500D01*
X5116741Y-1699500D01*
X5088170Y-1713786D01*
X5073884Y-1728071D01*
X5059598Y-1756643D01*
X5588170Y-1885214D02*
X5588170Y-1585214D01*
X5716741Y-1885214D02*
X5716741Y-1728071D01*
X5702455Y-1699500D01*
X5673884Y-1685214D01*
X5631027Y-1685214D01*
X5602455Y-1699500D01*
X5588170Y-1713786D01*
X5902455Y-1885214D02*
X5873884Y-1870929D01*
X5859598Y-1856643D01*
X5845313Y-1828071D01*
X5845313Y-1742357D01*
X5859598Y-1713786D01*
X5873884Y-1699500D01*
X5902455Y-1685214D01*
X5945313Y-1685214D01*
X5973884Y-1699500D01*
X5988170Y-1713786D01*
X6002455Y-1742357D01*
X6002455Y-1828071D01*
X5988170Y-1856643D01*
X5973884Y-1870929D01*
X5945313Y-1885214D01*
X5902455Y-1885214D01*
X6173884Y-1885214D02*
X6145313Y-1870929D01*
X6131027Y-1842357D01*
X6131027Y-1585214D01*
X6402455Y-1870929D02*
X6373884Y-1885214D01*
X6316741Y-1885214D01*
X6288170Y-1870929D01*
X6273884Y-1842357D01*
X6273884Y-1728071D01*
X6288170Y-1699500D01*
X6316741Y-1685214D01*
X6373884Y-1685214D01*
X6402455Y-1699500D01*
X6416741Y-1728071D01*
X6416741Y-1756643D01*
X6273884Y-1785214D01*
X6531027Y-1870929D02*
X6559598Y-1885214D01*
X6616741Y-1885214D01*
X6645313Y-1870929D01*
X6659598Y-1842357D01*
X6659598Y-1828071D01*
X6645313Y-1799500D01*
X6616741Y-1785214D01*
X6573884Y-1785214D01*
X6545313Y-1770929D01*
X6531027Y-1742357D01*
X6531027Y-1728071D01*
X6545313Y-1699500D01*
X6573884Y-1685214D01*
X6616741Y-1685214D01*
X6645313Y-1699500D01*
X6759598Y-1999500D02*
X6773884Y-1985214D01*
X6802455Y-1942357D01*
X6816741Y-1913786D01*
X6831027Y-1870929D01*
X6845313Y-1799500D01*
X6845313Y-1742357D01*
X6831027Y-1670929D01*
X6816741Y-1628071D01*
X6802455Y-1599500D01*
X6773884Y-1556643D01*
X6759598Y-1542357D01*
X-8704Y-2172441D02*
X-8704Y-2118559D01*
X-62585Y-2118559D01*
X-62585Y-2172441D01*
X-8704Y-2172441D01*
X331027Y-1981214D02*
X359598Y-1981214D01*
X388170Y-1995500D01*
X402455Y-2009786D01*
X416741Y-2038357D01*
X431027Y-2095500D01*
X431027Y-2166929D01*
X416741Y-2224072D01*
X402455Y-2252643D01*
X388170Y-2266929D01*
X359598Y-2281214D01*
X331027Y-2281214D01*
X302456Y-2266929D01*
X288170Y-2252643D01*
X273884Y-2224072D01*
X259598Y-2166929D01*
X259598Y-2095500D01*
X273884Y-2038357D01*
X288170Y-2009786D01*
X302456Y-1995500D01*
X331027Y-1981214D01*
X559598Y-2252643D02*
X573884Y-2266929D01*
X559598Y-2281214D01*
X545313Y-2266929D01*
X559598Y-2252643D01*
X559598Y-2281214D01*
X673884Y-1981214D02*
X873884Y-1981214D01*
X745313Y-2281214D01*
X1116741Y-1981214D02*
X1059598Y-1981214D01*
X1031027Y-1995500D01*
X1016741Y-2009786D01*
X988170Y-2052643D01*
X973884Y-2109786D01*
X973884Y-2224072D01*
X988170Y-2252643D01*
X1002455Y-2266929D01*
X1031027Y-2281214D01*
X1088170Y-2281214D01*
X1116741Y-2266929D01*
X1131027Y-2252643D01*
X1145313Y-2224072D01*
X1145313Y-2152643D01*
X1131027Y-2124072D01*
X1116741Y-2109786D01*
X1088170Y-2095500D01*
X1031027Y-2095500D01*
X1002455Y-2109786D01*
X988170Y-2124072D01*
X973884Y-2152643D01*
X1273884Y-2281214D02*
X1273884Y-2081214D01*
X1273884Y-2109786D02*
X1288170Y-2095500D01*
X1316741Y-2081214D01*
X1359598Y-2081214D01*
X1388170Y-2095500D01*
X1402455Y-2124072D01*
X1402455Y-2281214D01*
X1402455Y-2124072D02*
X1416741Y-2095500D01*
X1445313Y-2081214D01*
X1488170Y-2081214D01*
X1516741Y-2095500D01*
X1531027Y-2124072D01*
X1531027Y-2281214D01*
X1673884Y-2281214D02*
X1673884Y-2081214D01*
X1673884Y-2109786D02*
X1688170Y-2095500D01*
X1716741Y-2081214D01*
X1759598Y-2081214D01*
X1788170Y-2095500D01*
X1802455Y-2124072D01*
X1802455Y-2281214D01*
X1802455Y-2124072D02*
X1816741Y-2095500D01*
X1845313Y-2081214D01*
X1888170Y-2081214D01*
X1916741Y-2095500D01*
X1931027Y-2124072D01*
X1931027Y-2281214D01*
X2516741Y-1966929D02*
X2259598Y-2352643D01*
X2902455Y-1981214D02*
X2931027Y-1981214D01*
X2959598Y-1995500D01*
X2973884Y-2009786D01*
X2988170Y-2038357D01*
X3002455Y-2095500D01*
X3002455Y-2166929D01*
X2988170Y-2224072D01*
X2973884Y-2252643D01*
X2959598Y-2266929D01*
X2931027Y-2281214D01*
X2902455Y-2281214D01*
X2873884Y-2266929D01*
X2859598Y-2252643D01*
X2845313Y-2224072D01*
X2831027Y-2166929D01*
X2831027Y-2095500D01*
X2845313Y-2038357D01*
X2859598Y-2009786D01*
X2873884Y-1995500D01*
X2902455Y-1981214D01*
X3131027Y-2252643D02*
X3145313Y-2266929D01*
X3131027Y-2281214D01*
X3116741Y-2266929D01*
X3131027Y-2252643D01*
X3131027Y-2281214D01*
X3331027Y-1981214D02*
X3359598Y-1981214D01*
X3388170Y-1995500D01*
X3402455Y-2009786D01*
X3416741Y-2038357D01*
X3431027Y-2095500D01*
X3431027Y-2166929D01*
X3416741Y-2224072D01*
X3402455Y-2252643D01*
X3388170Y-2266929D01*
X3359598Y-2281214D01*
X3331027Y-2281214D01*
X3302455Y-2266929D01*
X3288170Y-2252643D01*
X3273884Y-2224072D01*
X3259598Y-2166929D01*
X3259598Y-2095500D01*
X3273884Y-2038357D01*
X3288170Y-2009786D01*
X3302455Y-1995500D01*
X3331027Y-1981214D01*
X3531027Y-1981214D02*
X3716741Y-1981214D01*
X3616741Y-2095500D01*
X3659598Y-2095500D01*
X3688170Y-2109786D01*
X3702455Y-2124072D01*
X3716741Y-2152643D01*
X3716741Y-2224072D01*
X3702455Y-2252643D01*
X3688170Y-2266929D01*
X3659598Y-2281214D01*
X3573884Y-2281214D01*
X3545313Y-2266929D01*
X3531027Y-2252643D01*
X3902455Y-1981214D02*
X3931027Y-1981214D01*
X3959598Y-1995500D01*
X3973884Y-2009786D01*
X3988170Y-2038357D01*
X4002455Y-2095500D01*
X4002455Y-2166929D01*
X3988170Y-2224072D01*
X3973884Y-2252643D01*
X3959598Y-2266929D01*
X3931027Y-2281214D01*
X3902455Y-2281214D01*
X3873884Y-2266929D01*
X3859598Y-2252643D01*
X3845313Y-2224072D01*
X3831027Y-2166929D01*
X3831027Y-2095500D01*
X3845313Y-2038357D01*
X3859598Y-2009786D01*
X3873884Y-1995500D01*
X3902455Y-1981214D01*
X4116741Y-1981214D02*
X4116741Y-2038357D01*
X4231027Y-1981214D02*
X4231027Y-2038357D01*
X4673884Y-2395500D02*
X4659598Y-2381214D01*
X4631027Y-2338357D01*
X4616741Y-2309786D01*
X4602455Y-2266929D01*
X4588170Y-2195500D01*
X4588170Y-2138357D01*
X4602455Y-2066929D01*
X4616741Y-2024071D01*
X4631027Y-1995500D01*
X4659598Y-1952643D01*
X4673884Y-1938357D01*
X4773884Y-2009786D02*
X4788170Y-1995500D01*
X4816741Y-1981214D01*
X4888170Y-1981214D01*
X4916741Y-1995500D01*
X4931027Y-2009786D01*
X4945313Y-2038357D01*
X4945313Y-2066929D01*
X4931027Y-2109786D01*
X4759598Y-2281214D01*
X4945313Y-2281214D01*
X5302455Y-2281214D02*
X5302455Y-1981214D01*
X5431027Y-2281214D02*
X5431027Y-2124072D01*
X5416741Y-2095500D01*
X5388170Y-2081214D01*
X5345313Y-2081214D01*
X5316741Y-2095500D01*
X5302455Y-2109786D01*
X5616741Y-2281214D02*
X5588170Y-2266929D01*
X5573884Y-2252643D01*
X5559598Y-2224072D01*
X5559598Y-2138357D01*
X5573884Y-2109786D01*
X5588170Y-2095500D01*
X5616741Y-2081214D01*
X5659598Y-2081214D01*
X5688170Y-2095500D01*
X5702455Y-2109786D01*
X5716741Y-2138357D01*
X5716741Y-2224072D01*
X5702455Y-2252643D01*
X5688170Y-2266929D01*
X5659598Y-2281214D01*
X5616741Y-2281214D01*
X5888170Y-2281214D02*
X5859598Y-2266929D01*
X5845313Y-2238357D01*
X5845313Y-1981214D01*
X6116741Y-2266929D02*
X6088170Y-2281214D01*
X6031027Y-2281214D01*
X6002455Y-2266929D01*
X5988170Y-2238357D01*
X5988170Y-2124072D01*
X6002455Y-2095500D01*
X6031027Y-2081214D01*
X6088170Y-2081214D01*
X6116741Y-2095500D01*
X6131027Y-2124072D01*
X6131027Y-2152643D01*
X5988170Y-2181214D01*
X6245313Y-2266929D02*
X6273884Y-2281214D01*
X6331027Y-2281214D01*
X6359598Y-2266929D01*
X6373884Y-2238357D01*
X6373884Y-2224072D01*
X6359598Y-2195500D01*
X6331027Y-2181214D01*
X6288170Y-2181214D01*
X6259598Y-2166929D01*
X6245313Y-2138357D01*
X6245313Y-2124072D01*
X6259598Y-2095500D01*
X6288170Y-2081214D01*
X6331027Y-2081214D01*
X6359598Y-2095500D01*
X6473884Y-2395500D02*
X6488170Y-2381214D01*
X6516741Y-2338357D01*
X6531027Y-2309786D01*
X6545313Y-2266929D01*
X6559598Y-2195500D01*
X6559598Y-2138357D01*
X6545313Y-2066929D01*
X6531027Y-2024071D01*
X6516741Y-1995500D01*
X6488170Y-1952643D01*
X6473884Y-1938357D01*
X-37545Y-2581500D02*
X2456Y-2541500D01*
X-37545Y-2501500D01*
X-77545Y-2541500D01*
X-37545Y-2581500D01*
X331027Y-2377214D02*
X359598Y-2377214D01*
X388170Y-2391500D01*
X402455Y-2405786D01*
X416741Y-2434357D01*
X431027Y-2491500D01*
X431027Y-2562929D01*
X416741Y-2620072D01*
X402455Y-2648643D01*
X388170Y-2662929D01*
X359598Y-2677214D01*
X331027Y-2677214D01*
X302456Y-2662929D01*
X288170Y-2648643D01*
X273884Y-2620072D01*
X259598Y-2562929D01*
X259598Y-2491500D01*
X273884Y-2434357D01*
X288170Y-2405786D01*
X302456Y-2391500D01*
X331027Y-2377214D01*
X559598Y-2648643D02*
X573884Y-2662929D01*
X559598Y-2677214D01*
X545313Y-2662929D01*
X559598Y-2648643D01*
X559598Y-2677214D01*
X745313Y-2505786D02*
X716741Y-2491500D01*
X702455Y-2477214D01*
X688170Y-2448643D01*
X688170Y-2434357D01*
X702455Y-2405786D01*
X716741Y-2391500D01*
X745313Y-2377214D01*
X802455Y-2377214D01*
X831027Y-2391500D01*
X845313Y-2405786D01*
X859598Y-2434357D01*
X859598Y-2448643D01*
X845313Y-2477214D01*
X831027Y-2491500D01*
X802455Y-2505786D01*
X745313Y-2505786D01*
X716741Y-2520072D01*
X702455Y-2534357D01*
X688170Y-2562929D01*
X688170Y-2620072D01*
X702455Y-2648643D01*
X716741Y-2662929D01*
X745313Y-2677214D01*
X802455Y-2677214D01*
X831027Y-2662929D01*
X845313Y-2648643D01*
X859598Y-2620072D01*
X859598Y-2562929D01*
X845313Y-2534357D01*
X831027Y-2520072D01*
X802455Y-2505786D01*
X1045313Y-2377214D02*
X1073884Y-2377214D01*
X1102456Y-2391500D01*
X1116741Y-2405786D01*
X1131027Y-2434357D01*
X1145313Y-2491500D01*
X1145313Y-2562929D01*
X1131027Y-2620072D01*
X1116741Y-2648643D01*
X1102456Y-2662929D01*
X1073884Y-2677214D01*
X1045313Y-2677214D01*
X1016741Y-2662929D01*
X1002455Y-2648643D01*
X988170Y-2620072D01*
X973884Y-2562929D01*
X973884Y-2491500D01*
X988170Y-2434357D01*
X1002455Y-2405786D01*
X1016741Y-2391500D01*
X1045313Y-2377214D01*
X1273884Y-2677214D02*
X1273884Y-2477214D01*
X1273884Y-2505786D02*
X1288170Y-2491500D01*
X1316741Y-2477214D01*
X1359598Y-2477214D01*
X1388170Y-2491500D01*
X1402455Y-2520072D01*
X1402455Y-2677214D01*
X1402455Y-2520072D02*
X1416741Y-2491500D01*
X1445313Y-2477214D01*
X1488170Y-2477214D01*
X1516741Y-2491500D01*
X1531027Y-2520072D01*
X1531027Y-2677214D01*
X1673884Y-2677214D02*
X1673884Y-2477214D01*
X1673884Y-2505786D02*
X1688170Y-2491500D01*
X1716741Y-2477214D01*
X1759598Y-2477214D01*
X1788170Y-2491500D01*
X1802455Y-2520072D01*
X1802455Y-2677214D01*
X1802455Y-2520072D02*
X1816741Y-2491500D01*
X1845313Y-2477214D01*
X1888170Y-2477214D01*
X1916741Y-2491500D01*
X1931027Y-2520072D01*
X1931027Y-2677214D01*
X2516741Y-2362929D02*
X2259598Y-2748643D01*
X2902455Y-2377214D02*
X2931027Y-2377214D01*
X2959598Y-2391500D01*
X2973884Y-2405786D01*
X2988170Y-2434357D01*
X3002455Y-2491500D01*
X3002455Y-2562929D01*
X2988170Y-2620072D01*
X2973884Y-2648643D01*
X2959598Y-2662929D01*
X2931027Y-2677214D01*
X2902455Y-2677214D01*
X2873884Y-2662929D01*
X2859598Y-2648643D01*
X2845313Y-2620072D01*
X2831027Y-2562929D01*
X2831027Y-2491500D01*
X2845313Y-2434357D01*
X2859598Y-2405786D01*
X2873884Y-2391500D01*
X2902455Y-2377214D01*
X3131027Y-2648643D02*
X3145313Y-2662929D01*
X3131027Y-2677214D01*
X3116741Y-2662929D01*
X3131027Y-2648643D01*
X3131027Y-2677214D01*
X3331027Y-2377214D02*
X3359598Y-2377214D01*
X3388170Y-2391500D01*
X3402455Y-2405786D01*
X3416741Y-2434357D01*
X3431027Y-2491500D01*
X3431027Y-2562929D01*
X3416741Y-2620072D01*
X3402455Y-2648643D01*
X3388170Y-2662929D01*
X3359598Y-2677214D01*
X3331027Y-2677214D01*
X3302455Y-2662929D01*
X3288170Y-2648643D01*
X3273884Y-2620072D01*
X3259598Y-2562929D01*
X3259598Y-2491500D01*
X3273884Y-2434357D01*
X3288170Y-2405786D01*
X3302455Y-2391500D01*
X3331027Y-2377214D01*
X3531027Y-2377214D02*
X3716741Y-2377214D01*
X3616741Y-2491500D01*
X3659598Y-2491500D01*
X3688170Y-2505786D01*
X3702455Y-2520072D01*
X3716741Y-2548643D01*
X3716741Y-2620072D01*
X3702455Y-2648643D01*
X3688170Y-2662929D01*
X3659598Y-2677214D01*
X3573884Y-2677214D01*
X3545313Y-2662929D01*
X3531027Y-2648643D01*
X4002455Y-2677214D02*
X3831027Y-2677214D01*
X3916741Y-2677214D02*
X3916741Y-2377214D01*
X3888170Y-2420072D01*
X3859598Y-2448643D01*
X3831027Y-2462929D01*
X4116741Y-2377214D02*
X4116741Y-2434357D01*
X4231027Y-2377214D02*
X4231027Y-2434357D01*
X4673884Y-2791500D02*
X4659598Y-2777214D01*
X4631027Y-2734357D01*
X4616741Y-2705786D01*
X4602455Y-2662929D01*
X4588170Y-2591500D01*
X4588170Y-2534357D01*
X4602455Y-2462929D01*
X4616741Y-2420072D01*
X4631027Y-2391500D01*
X4659598Y-2348643D01*
X4673884Y-2334357D01*
X4759598Y-2377214D02*
X4945313Y-2377214D01*
X4845313Y-2491500D01*
X4888170Y-2491500D01*
X4916741Y-2505786D01*
X4931027Y-2520072D01*
X4945313Y-2548643D01*
X4945313Y-2620072D01*
X4931027Y-2648643D01*
X4916741Y-2662929D01*
X4888170Y-2677214D01*
X4802455Y-2677214D01*
X4773884Y-2662929D01*
X4759598Y-2648643D01*
X5116741Y-2505786D02*
X5088170Y-2491500D01*
X5073884Y-2477214D01*
X5059598Y-2448643D01*
X5059598Y-2434357D01*
X5073884Y-2405786D01*
X5088170Y-2391500D01*
X5116741Y-2377214D01*
X5173884Y-2377214D01*
X5202455Y-2391500D01*
X5216741Y-2405786D01*
X5231027Y-2434357D01*
X5231027Y-2448643D01*
X5216741Y-2477214D01*
X5202455Y-2491500D01*
X5173884Y-2505786D01*
X5116741Y-2505786D01*
X5088170Y-2520072D01*
X5073884Y-2534357D01*
X5059598Y-2562929D01*
X5059598Y-2620072D01*
X5073884Y-2648643D01*
X5088170Y-2662929D01*
X5116741Y-2677214D01*
X5173884Y-2677214D01*
X5202455Y-2662929D01*
X5216741Y-2648643D01*
X5231027Y-2620072D01*
X5231027Y-2562929D01*
X5216741Y-2534357D01*
X5202455Y-2520072D01*
X5173884Y-2505786D01*
X5588170Y-2677214D02*
X5588170Y-2377214D01*
X5716741Y-2677214D02*
X5716741Y-2520072D01*
X5702455Y-2491500D01*
X5673884Y-2477214D01*
X5631027Y-2477214D01*
X5602455Y-2491500D01*
X5588170Y-2505786D01*
X5902455Y-2677214D02*
X5873884Y-2662929D01*
X5859598Y-2648643D01*
X5845313Y-2620072D01*
X5845313Y-2534357D01*
X5859598Y-2505786D01*
X5873884Y-2491500D01*
X5902455Y-2477214D01*
X5945313Y-2477214D01*
X5973884Y-2491500D01*
X5988170Y-2505786D01*
X6002455Y-2534357D01*
X6002455Y-2620072D01*
X5988170Y-2648643D01*
X5973884Y-2662929D01*
X5945313Y-2677214D01*
X5902455Y-2677214D01*
X6173884Y-2677214D02*
X6145313Y-2662929D01*
X6131027Y-2634357D01*
X6131027Y-2377214D01*
X6402455Y-2662929D02*
X6373884Y-2677214D01*
X6316741Y-2677214D01*
X6288170Y-2662929D01*
X6273884Y-2634357D01*
X6273884Y-2520072D01*
X6288170Y-2491500D01*
X6316741Y-2477214D01*
X6373884Y-2477214D01*
X6402455Y-2491500D01*
X6416741Y-2520072D01*
X6416741Y-2548643D01*
X6273884Y-2577214D01*
X6531027Y-2662929D02*
X6559598Y-2677214D01*
X6616741Y-2677214D01*
X6645313Y-2662929D01*
X6659598Y-2634357D01*
X6659598Y-2620072D01*
X6645313Y-2591500D01*
X6616741Y-2577214D01*
X6573884Y-2577214D01*
X6545313Y-2562929D01*
X6531027Y-2534357D01*
X6531027Y-2520072D01*
X6545313Y-2491500D01*
X6573884Y-2477214D01*
X6616741Y-2477214D01*
X6645313Y-2491500D01*
X6759598Y-2791500D02*
X6773884Y-2777214D01*
X6802455Y-2734357D01*
X6816741Y-2705786D01*
X6831027Y-2662929D01*
X6845313Y-2591500D01*
X6845313Y-2534357D01*
X6831027Y-2462929D01*
X6816741Y-2420072D01*
X6802455Y-2391500D01*
X6773884Y-2348643D01*
X6759598Y-2334357D01*
X-97544Y-2887500D02*
X2456Y-2987500D01*
X2456Y-2887500D02*
X-97544Y-2987500D01*
X2456Y-2937500D02*
G75*
G03X2456Y-2937500I-50000J0D01*
G01*
X431027Y-3073214D02*
X259598Y-3073214D01*
X345313Y-3073214D02*
X345313Y-2773214D01*
X316741Y-2816071D01*
X288170Y-2844643D01*
X259598Y-2858929D01*
X559598Y-3044643D02*
X573884Y-3058929D01*
X559598Y-3073214D01*
X545313Y-3058929D01*
X559598Y-3044643D01*
X559598Y-3073214D01*
X759598Y-2773214D02*
X788170Y-2773214D01*
X816741Y-2787500D01*
X831027Y-2801786D01*
X845313Y-2830357D01*
X859598Y-2887500D01*
X859598Y-2958929D01*
X845313Y-3016071D01*
X831027Y-3044643D01*
X816741Y-3058929D01*
X788170Y-3073214D01*
X759598Y-3073214D01*
X731027Y-3058929D01*
X716741Y-3044643D01*
X702455Y-3016071D01*
X688170Y-2958929D01*
X688170Y-2887500D01*
X702455Y-2830357D01*
X716741Y-2801786D01*
X731027Y-2787500D01*
X759598Y-2773214D01*
X1045313Y-2773214D02*
X1073884Y-2773214D01*
X1102456Y-2787500D01*
X1116741Y-2801786D01*
X1131027Y-2830357D01*
X1145313Y-2887500D01*
X1145313Y-2958929D01*
X1131027Y-3016071D01*
X1116741Y-3044643D01*
X1102456Y-3058929D01*
X1073884Y-3073214D01*
X1045313Y-3073214D01*
X1016741Y-3058929D01*
X1002455Y-3044643D01*
X988170Y-3016071D01*
X973884Y-2958929D01*
X973884Y-2887500D01*
X988170Y-2830357D01*
X1002455Y-2801786D01*
X1016741Y-2787500D01*
X1045313Y-2773214D01*
X1273884Y-3073214D02*
X1273884Y-2873214D01*
X1273884Y-2901786D02*
X1288170Y-2887500D01*
X1316741Y-2873214D01*
X1359598Y-2873214D01*
X1388170Y-2887500D01*
X1402455Y-2916071D01*
X1402455Y-3073214D01*
X1402455Y-2916071D02*
X1416741Y-2887500D01*
X1445313Y-2873214D01*
X1488170Y-2873214D01*
X1516741Y-2887500D01*
X1531027Y-2916071D01*
X1531027Y-3073214D01*
X1673884Y-3073214D02*
X1673884Y-2873214D01*
X1673884Y-2901786D02*
X1688170Y-2887500D01*
X1716741Y-2873214D01*
X1759598Y-2873214D01*
X1788170Y-2887500D01*
X1802455Y-2916071D01*
X1802455Y-3073214D01*
X1802455Y-2916071D02*
X1816741Y-2887500D01*
X1845313Y-2873214D01*
X1888170Y-2873214D01*
X1916741Y-2887500D01*
X1931027Y-2916071D01*
X1931027Y-3073214D01*
X2516741Y-2758929D02*
X2259598Y-3144643D01*
X2902455Y-2773214D02*
X2931027Y-2773214D01*
X2959598Y-2787500D01*
X2973884Y-2801786D01*
X2988170Y-2830357D01*
X3002455Y-2887500D01*
X3002455Y-2958929D01*
X2988170Y-3016071D01*
X2973884Y-3044643D01*
X2959598Y-3058929D01*
X2931027Y-3073214D01*
X2902455Y-3073214D01*
X2873884Y-3058929D01*
X2859598Y-3044643D01*
X2845313Y-3016071D01*
X2831027Y-2958929D01*
X2831027Y-2887500D01*
X2845313Y-2830357D01*
X2859598Y-2801786D01*
X2873884Y-2787500D01*
X2902455Y-2773214D01*
X3131027Y-3044643D02*
X3145313Y-3058929D01*
X3131027Y-3073214D01*
X3116741Y-3058929D01*
X3131027Y-3044643D01*
X3131027Y-3073214D01*
X3331027Y-2773214D02*
X3359598Y-2773214D01*
X3388170Y-2787500D01*
X3402455Y-2801786D01*
X3416741Y-2830357D01*
X3431027Y-2887500D01*
X3431027Y-2958929D01*
X3416741Y-3016071D01*
X3402455Y-3044643D01*
X3388170Y-3058929D01*
X3359598Y-3073214D01*
X3331027Y-3073214D01*
X3302455Y-3058929D01*
X3288170Y-3044643D01*
X3273884Y-3016071D01*
X3259598Y-2958929D01*
X3259598Y-2887500D01*
X3273884Y-2830357D01*
X3288170Y-2801786D01*
X3302455Y-2787500D01*
X3331027Y-2773214D01*
X3531027Y-2773214D02*
X3716741Y-2773214D01*
X3616741Y-2887500D01*
X3659598Y-2887500D01*
X3688170Y-2901786D01*
X3702455Y-2916071D01*
X3716741Y-2944643D01*
X3716741Y-3016071D01*
X3702455Y-3044643D01*
X3688170Y-3058929D01*
X3659598Y-3073214D01*
X3573884Y-3073214D01*
X3545313Y-3058929D01*
X3531027Y-3044643D01*
X3859598Y-3073214D02*
X3916741Y-3073214D01*
X3945313Y-3058929D01*
X3959598Y-3044643D01*
X3988170Y-3001786D01*
X4002455Y-2944643D01*
X4002455Y-2830357D01*
X3988170Y-2801786D01*
X3973884Y-2787500D01*
X3945313Y-2773214D01*
X3888170Y-2773214D01*
X3859598Y-2787500D01*
X3845313Y-2801786D01*
X3831027Y-2830357D01*
X3831027Y-2901786D01*
X3845313Y-2930357D01*
X3859598Y-2944643D01*
X3888170Y-2958929D01*
X3945313Y-2958929D01*
X3973884Y-2944643D01*
X3988170Y-2930357D01*
X4002455Y-2901786D01*
X4116741Y-2773214D02*
X4116741Y-2830357D01*
X4231027Y-2773214D02*
X4231027Y-2830357D01*
X4673884Y-3187500D02*
X4659598Y-3173214D01*
X4631027Y-3130357D01*
X4616741Y-3101786D01*
X4602455Y-3058929D01*
X4588170Y-2987500D01*
X4588170Y-2930357D01*
X4602455Y-2858929D01*
X4616741Y-2816071D01*
X4631027Y-2787500D01*
X4659598Y-2744643D01*
X4673884Y-2730357D01*
X4773884Y-2801786D02*
X4788170Y-2787500D01*
X4816741Y-2773214D01*
X4888170Y-2773214D01*
X4916741Y-2787500D01*
X4931027Y-2801786D01*
X4945313Y-2830357D01*
X4945313Y-2858929D01*
X4931027Y-2901786D01*
X4759598Y-3073214D01*
X4945313Y-3073214D01*
X5231027Y-3073214D02*
X5059598Y-3073214D01*
X5145313Y-3073214D02*
X5145313Y-2773214D01*
X5116741Y-2816071D01*
X5088170Y-2844643D01*
X5059598Y-2858929D01*
X5588170Y-3073214D02*
X5588170Y-2773214D01*
X5716741Y-3073214D02*
X5716741Y-2916071D01*
X5702455Y-2887500D01*
X5673884Y-2873214D01*
X5631027Y-2873214D01*
X5602455Y-2887500D01*
X5588170Y-2901786D01*
X5902455Y-3073214D02*
X5873884Y-3058929D01*
X5859598Y-3044643D01*
X5845313Y-3016071D01*
X5845313Y-2930357D01*
X5859598Y-2901786D01*
X5873884Y-2887500D01*
X5902455Y-2873214D01*
X5945313Y-2873214D01*
X5973884Y-2887500D01*
X5988170Y-2901786D01*
X6002455Y-2930357D01*
X6002455Y-3016071D01*
X5988170Y-3044643D01*
X5973884Y-3058929D01*
X5945313Y-3073214D01*
X5902455Y-3073214D01*
X6173884Y-3073214D02*
X6145313Y-3058929D01*
X6131027Y-3030357D01*
X6131027Y-2773214D01*
X6402455Y-3058929D02*
X6373884Y-3073214D01*
X6316741Y-3073214D01*
X6288170Y-3058929D01*
X6273884Y-3030357D01*
X6273884Y-2916071D01*
X6288170Y-2887500D01*
X6316741Y-2873214D01*
X6373884Y-2873214D01*
X6402455Y-2887500D01*
X6416741Y-2916071D01*
X6416741Y-2944643D01*
X6273884Y-2973214D01*
X6531027Y-3058929D02*
X6559598Y-3073214D01*
X6616741Y-3073214D01*
X6645313Y-3058929D01*
X6659598Y-3030357D01*
X6659598Y-3016071D01*
X6645313Y-2987500D01*
X6616741Y-2973214D01*
X6573884Y-2973214D01*
X6545313Y-2958929D01*
X6531027Y-2930357D01*
X6531027Y-2916071D01*
X6545313Y-2887500D01*
X6573884Y-2873214D01*
X6616741Y-2873214D01*
X6645313Y-2887500D01*
X6759598Y-3187500D02*
X6773884Y-3173214D01*
X6802455Y-3130357D01*
X6816741Y-3101786D01*
X6831027Y-3058929D01*
X6845313Y-2987500D01*
X6845313Y-2930357D01*
X6831027Y-2858929D01*
X6816741Y-2816071D01*
X6802455Y-2787500D01*
X6773884Y-2744643D01*
X6759598Y-2730357D01*
X-117544Y-3273500D02*
X2456Y-3393500D01*
X2456Y-3273500D02*
X-117544Y-3393500D01*
X-57544Y-3273500D02*
X-57544Y-3393500D01*
X-117544Y-3333500D02*
X2456Y-3333500D01*
X431027Y-3469214D02*
X259598Y-3469214D01*
X345313Y-3469214D02*
X345313Y-3169214D01*
X316741Y-3212071D01*
X288170Y-3240643D01*
X259598Y-3254929D01*
X559598Y-3440643D02*
X573884Y-3454929D01*
X559598Y-3469214D01*
X545313Y-3454929D01*
X559598Y-3440643D01*
X559598Y-3469214D01*
X688170Y-3197786D02*
X702455Y-3183500D01*
X731027Y-3169214D01*
X802455Y-3169214D01*
X831027Y-3183500D01*
X845313Y-3197786D01*
X859598Y-3226357D01*
X859598Y-3254929D01*
X845313Y-3297786D01*
X673884Y-3469214D01*
X859598Y-3469214D01*
X1045313Y-3169214D02*
X1073884Y-3169214D01*
X1102456Y-3183500D01*
X1116741Y-3197786D01*
X1131027Y-3226357D01*
X1145313Y-3283500D01*
X1145313Y-3354929D01*
X1131027Y-3412071D01*
X1116741Y-3440643D01*
X1102456Y-3454929D01*
X1073884Y-3469214D01*
X1045313Y-3469214D01*
X1016741Y-3454929D01*
X1002455Y-3440643D01*
X988170Y-3412071D01*
X973884Y-3354929D01*
X973884Y-3283500D01*
X988170Y-3226357D01*
X1002455Y-3197786D01*
X1016741Y-3183500D01*
X1045313Y-3169214D01*
X1273884Y-3469214D02*
X1273884Y-3269214D01*
X1273884Y-3297786D02*
X1288170Y-3283500D01*
X1316741Y-3269214D01*
X1359598Y-3269214D01*
X1388170Y-3283500D01*
X1402455Y-3312071D01*
X1402455Y-3469214D01*
X1402455Y-3312071D02*
X1416741Y-3283500D01*
X1445313Y-3269214D01*
X1488170Y-3269214D01*
X1516741Y-3283500D01*
X1531027Y-3312071D01*
X1531027Y-3469214D01*
X1673884Y-3469214D02*
X1673884Y-3269214D01*
X1673884Y-3297786D02*
X1688170Y-3283500D01*
X1716741Y-3269214D01*
X1759598Y-3269214D01*
X1788170Y-3283500D01*
X1802455Y-3312071D01*
X1802455Y-3469214D01*
X1802455Y-3312071D02*
X1816741Y-3283500D01*
X1845313Y-3269214D01*
X1888170Y-3269214D01*
X1916741Y-3283500D01*
X1931027Y-3312071D01*
X1931027Y-3469214D01*
X2516741Y-3154929D02*
X2259598Y-3540643D01*
X2902455Y-3169214D02*
X2931027Y-3169214D01*
X2959598Y-3183500D01*
X2973884Y-3197786D01*
X2988170Y-3226357D01*
X3002455Y-3283500D01*
X3002455Y-3354929D01*
X2988170Y-3412071D01*
X2973884Y-3440643D01*
X2959598Y-3454929D01*
X2931027Y-3469214D01*
X2902455Y-3469214D01*
X2873884Y-3454929D01*
X2859598Y-3440643D01*
X2845313Y-3412071D01*
X2831027Y-3354929D01*
X2831027Y-3283500D01*
X2845313Y-3226357D01*
X2859598Y-3197786D01*
X2873884Y-3183500D01*
X2902455Y-3169214D01*
X3131027Y-3440643D02*
X3145313Y-3454929D01*
X3131027Y-3469214D01*
X3116741Y-3454929D01*
X3131027Y-3440643D01*
X3131027Y-3469214D01*
X3331027Y-3169214D02*
X3359598Y-3169214D01*
X3388170Y-3183500D01*
X3402455Y-3197786D01*
X3416741Y-3226357D01*
X3431027Y-3283500D01*
X3431027Y-3354929D01*
X3416741Y-3412071D01*
X3402455Y-3440643D01*
X3388170Y-3454929D01*
X3359598Y-3469214D01*
X3331027Y-3469214D01*
X3302455Y-3454929D01*
X3288170Y-3440643D01*
X3273884Y-3412071D01*
X3259598Y-3354929D01*
X3259598Y-3283500D01*
X3273884Y-3226357D01*
X3288170Y-3197786D01*
X3302455Y-3183500D01*
X3331027Y-3169214D01*
X3688170Y-3269214D02*
X3688170Y-3469214D01*
X3616741Y-3154929D02*
X3545313Y-3369214D01*
X3731027Y-3369214D01*
X3816741Y-3169214D02*
X4016741Y-3169214D01*
X3888170Y-3469214D01*
X4116741Y-3169214D02*
X4116741Y-3226357D01*
X4231027Y-3169214D02*
X4231027Y-3226357D01*
X4673884Y-3583500D02*
X4659598Y-3569214D01*
X4631027Y-3526357D01*
X4616741Y-3497786D01*
X4602455Y-3454929D01*
X4588170Y-3383500D01*
X4588170Y-3326357D01*
X4602455Y-3254929D01*
X4616741Y-3212071D01*
X4631027Y-3183500D01*
X4659598Y-3140643D01*
X4673884Y-3126357D01*
X4916741Y-3269214D02*
X4916741Y-3469214D01*
X4845313Y-3154929D02*
X4773884Y-3369214D01*
X4959598Y-3369214D01*
X5302455Y-3469214D02*
X5302455Y-3169214D01*
X5431027Y-3469214D02*
X5431027Y-3312071D01*
X5416741Y-3283500D01*
X5388170Y-3269214D01*
X5345313Y-3269214D01*
X5316741Y-3283500D01*
X5302455Y-3297786D01*
X5616741Y-3469214D02*
X5588170Y-3454929D01*
X5573884Y-3440643D01*
X5559598Y-3412071D01*
X5559598Y-3326357D01*
X5573884Y-3297786D01*
X5588170Y-3283500D01*
X5616741Y-3269214D01*
X5659598Y-3269214D01*
X5688170Y-3283500D01*
X5702455Y-3297786D01*
X5716741Y-3326357D01*
X5716741Y-3412071D01*
X5702455Y-3440643D01*
X5688170Y-3454929D01*
X5659598Y-3469214D01*
X5616741Y-3469214D01*
X5888170Y-3469214D02*
X5859598Y-3454929D01*
X5845313Y-3426357D01*
X5845313Y-3169214D01*
X6116741Y-3454929D02*
X6088170Y-3469214D01*
X6031027Y-3469214D01*
X6002455Y-3454929D01*
X5988170Y-3426357D01*
X5988170Y-3312071D01*
X6002455Y-3283500D01*
X6031027Y-3269214D01*
X6088170Y-3269214D01*
X6116741Y-3283500D01*
X6131027Y-3312071D01*
X6131027Y-3340643D01*
X5988170Y-3369214D01*
X6245313Y-3454929D02*
X6273884Y-3469214D01*
X6331027Y-3469214D01*
X6359598Y-3454929D01*
X6373884Y-3426357D01*
X6373884Y-3412071D01*
X6359598Y-3383500D01*
X6331027Y-3369214D01*
X6288170Y-3369214D01*
X6259598Y-3354929D01*
X6245313Y-3326357D01*
X6245313Y-3312071D01*
X6259598Y-3283500D01*
X6288170Y-3269214D01*
X6331027Y-3269214D01*
X6359598Y-3283500D01*
X6473884Y-3583500D02*
X6488170Y-3569214D01*
X6516741Y-3526357D01*
X6531027Y-3497786D01*
X6545313Y-3454929D01*
X6559598Y-3383500D01*
X6559598Y-3326357D01*
X6545313Y-3254929D01*
X6531027Y-3212071D01*
X6516741Y-3183500D01*
X6488170Y-3140643D01*
X6473884Y-3126357D01*
X-137545Y-3659500D02*
X2456Y-3799500D01*
X2456Y-3659500D02*
X-137545Y-3799500D01*
X-18047Y-3778998D02*
X-18047Y-3680002D01*
X-117042Y-3680002D01*
X-117042Y-3778998D01*
X-18047Y-3778998D01*
X431027Y-3865214D02*
X259598Y-3865214D01*
X345313Y-3865214D02*
X345313Y-3565214D01*
X316741Y-3608071D01*
X288170Y-3636643D01*
X259598Y-3650929D01*
X559598Y-3836643D02*
X573884Y-3850929D01*
X559598Y-3865214D01*
X545313Y-3850929D01*
X559598Y-3836643D01*
X559598Y-3865214D01*
X831027Y-3665214D02*
X831027Y-3865214D01*
X759598Y-3550929D02*
X688170Y-3765214D01*
X873884Y-3765214D01*
X1045313Y-3565214D02*
X1073884Y-3565214D01*
X1102456Y-3579500D01*
X1116741Y-3593786D01*
X1131027Y-3622357D01*
X1145313Y-3679500D01*
X1145313Y-3750929D01*
X1131027Y-3808071D01*
X1116741Y-3836643D01*
X1102456Y-3850929D01*
X1073884Y-3865214D01*
X1045313Y-3865214D01*
X1016741Y-3850929D01*
X1002455Y-3836643D01*
X988170Y-3808071D01*
X973884Y-3750929D01*
X973884Y-3679500D01*
X988170Y-3622357D01*
X1002455Y-3593786D01*
X1016741Y-3579500D01*
X1045313Y-3565214D01*
X1273884Y-3865214D02*
X1273884Y-3665214D01*
X1273884Y-3693786D02*
X1288170Y-3679500D01*
X1316741Y-3665214D01*
X1359598Y-3665214D01*
X1388170Y-3679500D01*
X1402455Y-3708071D01*
X1402455Y-3865214D01*
X1402455Y-3708071D02*
X1416741Y-3679500D01*
X1445313Y-3665214D01*
X1488170Y-3665214D01*
X1516741Y-3679500D01*
X1531027Y-3708071D01*
X1531027Y-3865214D01*
X1673884Y-3865214D02*
X1673884Y-3665214D01*
X1673884Y-3693786D02*
X1688170Y-3679500D01*
X1716741Y-3665214D01*
X1759598Y-3665214D01*
X1788170Y-3679500D01*
X1802455Y-3708071D01*
X1802455Y-3865214D01*
X1802455Y-3708071D02*
X1816741Y-3679500D01*
X1845313Y-3665214D01*
X1888170Y-3665214D01*
X1916741Y-3679500D01*
X1931027Y-3708071D01*
X1931027Y-3865214D01*
X2516741Y-3550929D02*
X2259598Y-3936643D01*
X2902455Y-3565214D02*
X2931027Y-3565214D01*
X2959598Y-3579500D01*
X2973884Y-3593786D01*
X2988170Y-3622357D01*
X3002455Y-3679500D01*
X3002455Y-3750929D01*
X2988170Y-3808071D01*
X2973884Y-3836643D01*
X2959598Y-3850929D01*
X2931027Y-3865214D01*
X2902455Y-3865214D01*
X2873884Y-3850929D01*
X2859598Y-3836643D01*
X2845313Y-3808071D01*
X2831027Y-3750929D01*
X2831027Y-3679500D01*
X2845313Y-3622357D01*
X2859598Y-3593786D01*
X2873884Y-3579500D01*
X2902455Y-3565214D01*
X3131027Y-3836643D02*
X3145313Y-3850929D01*
X3131027Y-3865214D01*
X3116741Y-3850929D01*
X3131027Y-3836643D01*
X3131027Y-3865214D01*
X3331027Y-3565214D02*
X3359598Y-3565214D01*
X3388170Y-3579500D01*
X3402455Y-3593786D01*
X3416741Y-3622357D01*
X3431027Y-3679500D01*
X3431027Y-3750929D01*
X3416741Y-3808071D01*
X3402455Y-3836643D01*
X3388170Y-3850929D01*
X3359598Y-3865214D01*
X3331027Y-3865214D01*
X3302455Y-3850929D01*
X3288170Y-3836643D01*
X3273884Y-3808071D01*
X3259598Y-3750929D01*
X3259598Y-3679500D01*
X3273884Y-3622357D01*
X3288170Y-3593786D01*
X3302455Y-3579500D01*
X3331027Y-3565214D01*
X3702455Y-3565214D02*
X3559598Y-3565214D01*
X3545313Y-3708071D01*
X3559598Y-3693786D01*
X3588170Y-3679500D01*
X3659598Y-3679500D01*
X3688170Y-3693786D01*
X3702455Y-3708071D01*
X3716741Y-3736643D01*
X3716741Y-3808071D01*
X3702455Y-3836643D01*
X3688170Y-3850929D01*
X3659598Y-3865214D01*
X3588170Y-3865214D01*
X3559598Y-3850929D01*
X3545313Y-3836643D01*
X3988170Y-3565214D02*
X3845313Y-3565214D01*
X3831027Y-3708071D01*
X3845313Y-3693786D01*
X3873884Y-3679500D01*
X3945313Y-3679500D01*
X3973884Y-3693786D01*
X3988170Y-3708071D01*
X4002455Y-3736643D01*
X4002455Y-3808071D01*
X3988170Y-3836643D01*
X3973884Y-3850929D01*
X3945313Y-3865214D01*
X3873884Y-3865214D01*
X3845313Y-3850929D01*
X3831027Y-3836643D01*
X4116741Y-3565214D02*
X4116741Y-3622357D01*
X4231027Y-3565214D02*
X4231027Y-3622357D01*
X4673884Y-3979500D02*
X4659598Y-3965214D01*
X4631027Y-3922357D01*
X4616741Y-3893786D01*
X4602455Y-3850929D01*
X4588170Y-3779500D01*
X4588170Y-3722357D01*
X4602455Y-3650929D01*
X4616741Y-3608071D01*
X4631027Y-3579500D01*
X4659598Y-3536643D01*
X4673884Y-3522357D01*
X4931027Y-3565214D02*
X4788170Y-3565214D01*
X4773884Y-3708071D01*
X4788170Y-3693786D01*
X4816741Y-3679500D01*
X4888170Y-3679500D01*
X4916741Y-3693786D01*
X4931027Y-3708071D01*
X4945313Y-3736643D01*
X4945313Y-3808071D01*
X4931027Y-3836643D01*
X4916741Y-3850929D01*
X4888170Y-3865214D01*
X4816741Y-3865214D01*
X4788170Y-3850929D01*
X4773884Y-3836643D01*
X5302455Y-3865214D02*
X5302455Y-3565214D01*
X5431027Y-3865214D02*
X5431027Y-3708071D01*
X5416741Y-3679500D01*
X5388170Y-3665214D01*
X5345313Y-3665214D01*
X5316741Y-3679500D01*
X5302455Y-3693786D01*
X5616741Y-3865214D02*
X5588170Y-3850929D01*
X5573884Y-3836643D01*
X5559598Y-3808071D01*
X5559598Y-3722357D01*
X5573884Y-3693786D01*
X5588170Y-3679500D01*
X5616741Y-3665214D01*
X5659598Y-3665214D01*
X5688170Y-3679500D01*
X5702455Y-3693786D01*
X5716741Y-3722357D01*
X5716741Y-3808071D01*
X5702455Y-3836643D01*
X5688170Y-3850929D01*
X5659598Y-3865214D01*
X5616741Y-3865214D01*
X5888170Y-3865214D02*
X5859598Y-3850929D01*
X5845313Y-3822357D01*
X5845313Y-3565214D01*
X6116741Y-3850929D02*
X6088170Y-3865214D01*
X6031027Y-3865214D01*
X6002455Y-3850929D01*
X5988170Y-3822357D01*
X5988170Y-3708071D01*
X6002455Y-3679500D01*
X6031027Y-3665214D01*
X6088170Y-3665214D01*
X6116741Y-3679500D01*
X6131027Y-3708071D01*
X6131027Y-3736643D01*
X5988170Y-3765214D01*
X6245313Y-3850929D02*
X6273884Y-3865214D01*
X6331027Y-3865214D01*
X6359598Y-3850929D01*
X6373884Y-3822357D01*
X6373884Y-3808071D01*
X6359598Y-3779500D01*
X6331027Y-3765214D01*
X6288170Y-3765214D01*
X6259598Y-3750929D01*
X6245313Y-3722357D01*
X6245313Y-3708071D01*
X6259598Y-3679500D01*
X6288170Y-3665214D01*
X6331027Y-3665214D01*
X6359598Y-3679500D01*
X6473884Y-3979500D02*
X6488170Y-3965214D01*
X6516741Y-3922357D01*
X6531027Y-3893786D01*
X6545313Y-3850929D01*
X6559598Y-3779500D01*
X6559598Y-3722357D01*
X6545313Y-3650929D01*
X6531027Y-3608071D01*
X6516741Y-3579500D01*
X6488170Y-3536643D01*
X6473884Y-3522357D01*
X-297545Y-3975500D02*
X2456Y-4275500D01*
X2456Y-3975500D02*
X-297545Y-4275500D01*
X-147545Y-4275500D02*
X2456Y-4125500D01*
X-147545Y-3975500D01*
X-297545Y-4125500D01*
X-147545Y-4275500D01*
X245313Y-3961214D02*
X431027Y-3961214D01*
X331027Y-4075500D01*
X373884Y-4075500D01*
X402455Y-4089786D01*
X416741Y-4104071D01*
X431027Y-4132643D01*
X431027Y-4204072D01*
X416741Y-4232643D01*
X402455Y-4246929D01*
X373884Y-4261214D01*
X288170Y-4261214D01*
X259598Y-4246929D01*
X245313Y-4232643D01*
X559598Y-4232643D02*
X573884Y-4246929D01*
X559598Y-4261214D01*
X545313Y-4246929D01*
X559598Y-4232643D01*
X559598Y-4261214D01*
X759598Y-3961214D02*
X788170Y-3961214D01*
X816741Y-3975500D01*
X831027Y-3989786D01*
X845313Y-4018357D01*
X859598Y-4075500D01*
X859598Y-4146929D01*
X845313Y-4204072D01*
X831027Y-4232643D01*
X816741Y-4246929D01*
X788170Y-4261214D01*
X759598Y-4261214D01*
X731027Y-4246929D01*
X716741Y-4232643D01*
X702455Y-4204072D01*
X688170Y-4146929D01*
X688170Y-4075500D01*
X702455Y-4018357D01*
X716741Y-3989786D01*
X731027Y-3975500D01*
X759598Y-3961214D01*
X1045313Y-3961214D02*
X1073884Y-3961214D01*
X1102456Y-3975500D01*
X1116741Y-3989786D01*
X1131027Y-4018357D01*
X1145313Y-4075500D01*
X1145313Y-4146929D01*
X1131027Y-4204072D01*
X1116741Y-4232643D01*
X1102456Y-4246929D01*
X1073884Y-4261214D01*
X1045313Y-4261214D01*
X1016741Y-4246929D01*
X1002455Y-4232643D01*
X988170Y-4204072D01*
X973884Y-4146929D01*
X973884Y-4075500D01*
X988170Y-4018357D01*
X1002455Y-3989786D01*
X1016741Y-3975500D01*
X1045313Y-3961214D01*
X1273884Y-4261214D02*
X1273884Y-4061214D01*
X1273884Y-4089786D02*
X1288170Y-4075500D01*
X1316741Y-4061214D01*
X1359598Y-4061214D01*
X1388170Y-4075500D01*
X1402455Y-4104071D01*
X1402455Y-4261214D01*
X1402455Y-4104071D02*
X1416741Y-4075500D01*
X1445313Y-4061214D01*
X1488170Y-4061214D01*
X1516741Y-4075500D01*
X1531027Y-4104071D01*
X1531027Y-4261214D01*
X1673884Y-4261214D02*
X1673884Y-4061214D01*
X1673884Y-4089786D02*
X1688170Y-4075500D01*
X1716741Y-4061214D01*
X1759598Y-4061214D01*
X1788170Y-4075500D01*
X1802455Y-4104071D01*
X1802455Y-4261214D01*
X1802455Y-4104071D02*
X1816741Y-4075500D01*
X1845313Y-4061214D01*
X1888170Y-4061214D01*
X1916741Y-4075500D01*
X1931027Y-4104071D01*
X1931027Y-4261214D01*
X2516741Y-3946929D02*
X2259598Y-4332643D01*
X2902455Y-3961214D02*
X2931027Y-3961214D01*
X2959598Y-3975500D01*
X2973884Y-3989786D01*
X2988170Y-4018357D01*
X3002455Y-4075500D01*
X3002455Y-4146929D01*
X2988170Y-4204072D01*
X2973884Y-4232643D01*
X2959598Y-4246929D01*
X2931027Y-4261214D01*
X2902455Y-4261214D01*
X2873884Y-4246929D01*
X2859598Y-4232643D01*
X2845313Y-4204072D01*
X2831027Y-4146929D01*
X2831027Y-4075500D01*
X2845313Y-4018357D01*
X2859598Y-3989786D01*
X2873884Y-3975500D01*
X2902455Y-3961214D01*
X3131027Y-4232643D02*
X3145313Y-4246929D01*
X3131027Y-4261214D01*
X3116741Y-4246929D01*
X3131027Y-4232643D01*
X3131027Y-4261214D01*
X3431027Y-4261214D02*
X3259598Y-4261214D01*
X3345312Y-4261214D02*
X3345312Y-3961214D01*
X3316741Y-4004071D01*
X3288170Y-4032643D01*
X3259598Y-4046929D01*
X3716741Y-4261214D02*
X3545313Y-4261214D01*
X3631027Y-4261214D02*
X3631027Y-3961214D01*
X3602455Y-4004071D01*
X3573884Y-4032643D01*
X3545313Y-4046929D01*
X3888170Y-4089786D02*
X3859598Y-4075500D01*
X3845313Y-4061214D01*
X3831027Y-4032643D01*
X3831027Y-4018357D01*
X3845313Y-3989786D01*
X3859598Y-3975500D01*
X3888170Y-3961214D01*
X3945313Y-3961214D01*
X3973884Y-3975500D01*
X3988170Y-3989786D01*
X4002455Y-4018357D01*
X4002455Y-4032643D01*
X3988170Y-4061214D01*
X3973884Y-4075500D01*
X3945313Y-4089786D01*
X3888170Y-4089786D01*
X3859598Y-4104071D01*
X3845313Y-4118357D01*
X3831027Y-4146929D01*
X3831027Y-4204072D01*
X3845313Y-4232643D01*
X3859598Y-4246929D01*
X3888170Y-4261214D01*
X3945313Y-4261214D01*
X3973884Y-4246929D01*
X3988170Y-4232643D01*
X4002455Y-4204072D01*
X4002455Y-4146929D01*
X3988170Y-4118357D01*
X3973884Y-4104071D01*
X3945313Y-4089786D01*
X4116741Y-3961214D02*
X4116741Y-4018357D01*
X4231027Y-3961214D02*
X4231027Y-4018357D01*
X4673884Y-4375500D02*
X4659598Y-4361214D01*
X4631027Y-4318357D01*
X4616741Y-4289786D01*
X4602455Y-4246929D01*
X4588170Y-4175500D01*
X4588170Y-4118357D01*
X4602455Y-4046929D01*
X4616741Y-4004071D01*
X4631027Y-3975500D01*
X4659598Y-3932643D01*
X4673884Y-3918357D01*
X4916741Y-4061214D02*
X4916741Y-4261214D01*
X4845313Y-3946929D02*
X4773884Y-4161214D01*
X4959598Y-4161214D01*
X5302455Y-4261214D02*
X5302455Y-3961214D01*
X5431027Y-4261214D02*
X5431027Y-4104071D01*
X5416741Y-4075500D01*
X5388170Y-4061214D01*
X5345313Y-4061214D01*
X5316741Y-4075500D01*
X5302455Y-4089786D01*
X5616741Y-4261214D02*
X5588170Y-4246929D01*
X5573884Y-4232643D01*
X5559598Y-4204072D01*
X5559598Y-4118357D01*
X5573884Y-4089786D01*
X5588170Y-4075500D01*
X5616741Y-4061214D01*
X5659598Y-4061214D01*
X5688170Y-4075500D01*
X5702455Y-4089786D01*
X5716741Y-4118357D01*
X5716741Y-4204072D01*
X5702455Y-4232643D01*
X5688170Y-4246929D01*
X5659598Y-4261214D01*
X5616741Y-4261214D01*
X5888170Y-4261214D02*
X5859598Y-4246929D01*
X5845313Y-4218357D01*
X5845313Y-3961214D01*
X6116741Y-4246929D02*
X6088170Y-4261214D01*
X6031027Y-4261214D01*
X6002455Y-4246929D01*
X5988170Y-4218357D01*
X5988170Y-4104071D01*
X6002455Y-4075500D01*
X6031027Y-4061214D01*
X6088170Y-4061214D01*
X6116741Y-4075500D01*
X6131027Y-4104071D01*
X6131027Y-4132643D01*
X5988170Y-4161214D01*
X6245313Y-4246929D02*
X6273884Y-4261214D01*
X6331027Y-4261214D01*
X6359598Y-4246929D01*
X6373884Y-4218357D01*
X6373884Y-4204072D01*
X6359598Y-4175500D01*
X6331027Y-4161214D01*
X6288170Y-4161214D01*
X6259598Y-4146929D01*
X6245313Y-4118357D01*
X6245313Y-4104071D01*
X6259598Y-4075500D01*
X6288170Y-4061214D01*
X6331027Y-4061214D01*
X6359598Y-4075500D01*
X6473884Y-4375500D02*
X6488170Y-4361214D01*
X6516741Y-4318357D01*
X6531027Y-4289786D01*
X6545313Y-4246929D01*
X6559598Y-4175500D01*
X6559598Y-4118357D01*
X6545313Y-4046929D01*
X6531027Y-4004071D01*
X6516741Y-3975500D01*
X6488170Y-3932643D01*
X6473884Y-3918357D01*
M02*
