G04 #@! TF.FileFunction,Copper,L2,Bot,Signal*
%FSLAX46Y46*%
G04 Gerber Fmt 4.6, Leading zero omitted, Abs format (unit mm)*
G04 Created by KiCad (PCBNEW 4.0.4-stable) date 09/28/17 23:31:09*
%MOMM*%
%LPD*%
G01*
G04 APERTURE LIST*
%ADD10C,0.100000*%
%ADD11R,1.600000X1.600000*%
%ADD12C,1.600000*%
%ADD13R,2.800000X2.800000*%
%ADD14O,2.800000X2.800000*%
%ADD15C,1.524000*%
%ADD16R,1.800000X1.800000*%
%ADD17O,1.800000X1.800000*%
%ADD18R,1.700000X1.700000*%
%ADD19O,1.700000X1.700000*%
%ADD20C,6.000000*%
%ADD21O,1.500000X0.900000*%
%ADD22R,1.500000X0.900000*%
%ADD23O,0.900000X1.500000*%
%ADD24R,0.900000X1.500000*%
%ADD25C,1.400000*%
%ADD26O,1.400000X1.400000*%
%ADD27C,1.440000*%
%ADD28O,1.600000X1.600000*%
%ADD29C,2.400000*%
%ADD30O,2.400000X2.400000*%
%ADD31C,0.600000*%
%ADD32C,1.000000*%
%ADD33C,2.000000*%
%ADD34C,0.500000*%
%ADD35C,0.700000*%
%ADD36C,1.000000*%
%ADD37C,0.900000*%
%ADD38C,1.500000*%
%ADD39C,0.254000*%
G04 APERTURE END LIST*
D10*
D11*
X35800000Y36450000D03*
D12*
X30800000Y36450000D03*
X28400000Y50850000D03*
X25900000Y50850000D03*
X23300000Y51150000D03*
X23300000Y48650000D03*
D11*
X28500000Y47250000D03*
D12*
X33500000Y47250000D03*
X9500000Y53050000D03*
X12000000Y53050000D03*
X9500000Y55500000D03*
X12000000Y55500000D03*
D11*
X17104653Y12565931D03*
D12*
X12104653Y12565931D03*
D11*
X16200000Y53350000D03*
D12*
X16200000Y50850000D03*
X33600000Y11425000D03*
X36100000Y11425000D03*
D11*
X17900000Y36050000D03*
D12*
X20400000Y36050000D03*
X25700000Y23600000D03*
X23200000Y23600000D03*
X25700000Y21100000D03*
X23200000Y21100000D03*
X43600000Y21850000D03*
X41100000Y21850000D03*
X63700000Y3150000D03*
X61200000Y3150000D03*
X61400000Y33150000D03*
X63900000Y33150000D03*
D13*
X16804653Y5715931D03*
D14*
X11724653Y5715931D03*
D15*
X44270000Y55550000D03*
X55700000Y55550000D03*
D16*
X67100000Y38290000D03*
D17*
X67100000Y35750000D03*
X67100000Y33210000D03*
D18*
X23300000Y55550000D03*
D19*
X25840000Y55550000D03*
X28380000Y55550000D03*
X30920000Y55550000D03*
X33460000Y55550000D03*
X36000000Y55550000D03*
D20*
X4200000Y53100000D03*
X63550000Y50700000D03*
X6250000Y7500000D03*
X51350000Y6700000D03*
D21*
X6100000Y33170000D03*
X6100000Y34440000D03*
D22*
X6100000Y31900000D03*
D21*
X6100000Y27530000D03*
X6100000Y28800000D03*
D22*
X6100000Y26260000D03*
D21*
X11100000Y38970000D03*
X11100000Y37700000D03*
D22*
X11100000Y40240000D03*
D21*
X10500000Y27500000D03*
X10500000Y26230000D03*
D22*
X10500000Y28770000D03*
D21*
X11200000Y33170000D03*
X11200000Y34440000D03*
D22*
X11200000Y31900000D03*
D21*
X6100000Y45920000D03*
X6100000Y47190000D03*
D22*
X6100000Y44650000D03*
D21*
X18000000Y44450000D03*
X18000000Y45720000D03*
D22*
X18000000Y43180000D03*
D23*
X8330000Y22700000D03*
X7060000Y22700000D03*
D24*
X9600000Y22700000D03*
D16*
X41700000Y50030000D03*
D17*
X41700000Y47490000D03*
X41700000Y44950000D03*
D23*
X24430000Y27550000D03*
X25700000Y27550000D03*
D24*
X23160000Y27550000D03*
D16*
X41700000Y40730000D03*
D17*
X41700000Y38190000D03*
X41700000Y35650000D03*
D16*
X41700000Y31430000D03*
D17*
X41700000Y28890000D03*
X41700000Y26350000D03*
D16*
X67100000Y8290000D03*
D17*
X67100000Y5750000D03*
X67100000Y3210000D03*
D25*
X1800000Y33180000D03*
D26*
X1800000Y28100000D03*
D25*
X4700000Y42080000D03*
D26*
X4700000Y37000000D03*
D25*
X4300000Y23680000D03*
D26*
X4300000Y18600000D03*
D25*
X1850000Y42700000D03*
D26*
X1850000Y47780000D03*
D25*
X1850000Y35420000D03*
D26*
X1850000Y40500000D03*
D25*
X6850000Y42080000D03*
D26*
X6850000Y37000000D03*
D25*
X12300000Y23700000D03*
D26*
X12300000Y18620000D03*
D25*
X20129653Y17365931D03*
D26*
X25209653Y17365931D03*
D25*
X20124653Y13115931D03*
D26*
X25204653Y13115931D03*
D25*
X20129653Y15240931D03*
D26*
X25209653Y15240931D03*
D25*
X12000000Y47880000D03*
D26*
X12000000Y42800000D03*
D25*
X9850000Y42750000D03*
D26*
X9850000Y47830000D03*
D25*
X33500000Y14325000D03*
D26*
X28420000Y14325000D03*
D25*
X33525000Y8600000D03*
D26*
X28445000Y8600000D03*
D25*
X14150000Y47880000D03*
D26*
X14150000Y42800000D03*
D25*
X20050000Y48250000D03*
D26*
X20050000Y53330000D03*
D27*
X19000000Y30490000D03*
X19000000Y27950000D03*
X19000000Y25410000D03*
D25*
X15620000Y21450000D03*
D26*
X20700000Y21450000D03*
D25*
X15000000Y32350000D03*
D26*
X15000000Y37430000D03*
D25*
X15000000Y25170000D03*
D26*
X15000000Y30250000D03*
D25*
X20080000Y40550000D03*
D26*
X15000000Y40550000D03*
D25*
X56700000Y38150000D03*
D26*
X56700000Y33070000D03*
D25*
X46200000Y18750000D03*
D26*
X41120000Y18750000D03*
D25*
X41120000Y14350000D03*
D26*
X46200000Y14350000D03*
D25*
X56600000Y3170000D03*
D26*
X56600000Y8250000D03*
D25*
X58820000Y8150000D03*
D26*
X63900000Y8150000D03*
D25*
X58820000Y38150000D03*
D26*
X63900000Y38150000D03*
D25*
X46220000Y11850000D03*
D26*
X51300000Y11850000D03*
D25*
X51300000Y21250000D03*
D26*
X46220000Y21250000D03*
D12*
X48855000Y18350000D03*
D28*
X66000000Y18350000D03*
D12*
X48855000Y14750000D03*
D28*
X66000000Y14750000D03*
D29*
X47300000Y51450000D03*
D30*
X47300000Y26050000D03*
D29*
X52800000Y26050000D03*
D30*
X52800000Y51450000D03*
D25*
X63900000Y5750000D03*
D26*
X58820000Y5750000D03*
D25*
X58820000Y35750000D03*
D26*
X63900000Y35750000D03*
D25*
X20124653Y11015931D03*
D26*
X25204653Y11015931D03*
D25*
X20124653Y6815931D03*
D26*
X25204653Y6815931D03*
D25*
X20099653Y8915931D03*
D26*
X25179653Y8915931D03*
D12*
X49850001Y54350001D03*
D31*
X1900000Y1900000D03*
X10700000Y51600000D03*
X7950000Y54200000D03*
X7550000Y56150000D03*
X1150000Y55700000D03*
X1250000Y49950000D03*
X4150000Y49250000D03*
X2200000Y45100000D03*
X4550000Y43700000D03*
X5800000Y43200000D03*
X7300000Y43550000D03*
X1950000Y23950000D03*
X1800000Y20300000D03*
X9000000Y15350000D03*
X4950000Y15150000D03*
X4900000Y12900000D03*
X8250000Y13150000D03*
X17400000Y31900000D03*
X25150000Y31250000D03*
X23050000Y31250000D03*
X23050000Y35050000D03*
X25050000Y39750000D03*
X25050000Y42100000D03*
X20900000Y43700000D03*
X22200000Y42450000D03*
X23800000Y40900000D03*
X20250000Y38400000D03*
X17550000Y38550000D03*
X17600000Y40450000D03*
X16050000Y42850000D03*
X12350000Y45700000D03*
X15950000Y45800000D03*
X16300000Y48250000D03*
X17900000Y48350000D03*
X20000000Y50550000D03*
X21500000Y49900000D03*
X22100000Y46550000D03*
X23600000Y44900000D03*
X25800000Y43250000D03*
X25850000Y48100000D03*
X68700000Y51150000D03*
X68700000Y48800000D03*
X68750000Y45850000D03*
X60100000Y55300000D03*
X58200000Y53750000D03*
X51950000Y54850000D03*
X41850000Y56650000D03*
X35900000Y25750000D03*
X35450000Y50750000D03*
X35500000Y41650000D03*
X38900000Y44800000D03*
X37700000Y43250000D03*
X38350000Y38500000D03*
X35700000Y20200000D03*
X35600000Y17400000D03*
X38400000Y14700000D03*
X41150000Y11550000D03*
X36400000Y7800000D03*
X36400000Y5600000D03*
X38700000Y4550000D03*
X38950000Y6700000D03*
X41750000Y6700000D03*
X41700000Y4750000D03*
X44400000Y4850000D03*
X44450000Y7000000D03*
X55400000Y11750000D03*
X61050000Y7050000D03*
X55400000Y11750000D03*
X61900000Y10700000D03*
X65650000Y12000000D03*
X63200000Y12100000D03*
X63200000Y16700000D03*
X68400000Y16700000D03*
X65550000Y21350000D03*
X65800000Y24550000D03*
X65800000Y27900000D03*
X61800000Y27900000D03*
X56550000Y28500000D03*
X56850000Y24850000D03*
X59000000Y22100000D03*
X63650000Y22350000D03*
X63600000Y25900000D03*
X47600000Y46000000D03*
X55550000Y45300000D03*
X53550000Y46750000D03*
X57600000Y51400000D03*
X67800000Y40700000D03*
X64350000Y40650000D03*
X61200000Y40800000D03*
X57450000Y40750000D03*
X57550000Y44750000D03*
X57550000Y48000000D03*
X60100000Y46650000D03*
X68750000Y43200000D03*
X67300000Y43150000D03*
X67350000Y45700000D03*
X65400000Y45650000D03*
X65350000Y43250000D03*
X63300000Y43350000D03*
X63300000Y45600000D03*
X61250000Y45550000D03*
X59250000Y45450000D03*
X59100000Y43300000D03*
X61200000Y43250000D03*
X59050000Y26000000D03*
X49100000Y36000000D03*
X46700000Y29550000D03*
X35900000Y23300000D03*
X41650000Y23650000D03*
D12*
X27550000Y31200000D03*
X25500000Y34800000D03*
D32*
X49900000Y38250000D03*
D33*
X53200000Y41950000D02*
X49850001Y45299999D01*
X49850001Y45299999D02*
X49850001Y54350001D01*
X53200000Y36300000D02*
X53200000Y41950000D01*
X55730001Y33769999D02*
X53200000Y36300000D01*
X56700000Y33070000D02*
X56000001Y33769999D01*
X56000001Y33769999D02*
X55730001Y33769999D01*
D34*
X7550000Y56150000D02*
X7550000Y54600000D01*
X7550000Y54600000D02*
X7950000Y54200000D01*
X1250000Y49950000D02*
X599999Y50600001D01*
X599999Y50600001D02*
X599999Y55149999D01*
X599999Y55149999D02*
X1150000Y55700000D01*
X2200000Y45100000D02*
X4150000Y47050000D01*
X4150000Y47050000D02*
X4150000Y49250000D01*
X7300000Y43550000D02*
X6150000Y43550000D01*
X6150000Y43550000D02*
X5800000Y43200000D01*
D35*
X1800000Y20300000D02*
X1800000Y23800000D01*
X1800000Y23800000D02*
X1950000Y23950000D01*
X4950000Y15150000D02*
X8800000Y15150000D01*
X8800000Y15150000D02*
X9000000Y15350000D01*
X8250000Y13150000D02*
X5150000Y13150000D01*
X5150000Y13150000D02*
X4900000Y12900000D01*
X11724653Y5715931D02*
X11724653Y12185931D01*
X11724653Y12185931D02*
X12104653Y12565931D01*
X17400000Y31900000D02*
X17100001Y31600001D01*
X17100001Y31600001D02*
X17100001Y27309999D01*
X17100001Y27309999D02*
X18280001Y26129999D01*
X18280001Y26129999D02*
X19000000Y25410000D01*
X23050000Y35050000D02*
X23050000Y31250000D01*
X20250000Y38400000D02*
X23050000Y35600000D01*
X23050000Y35600000D02*
X23050000Y35050000D01*
X23600000Y40550000D02*
X23600000Y40650000D01*
X23600000Y40650000D02*
X25050000Y42100000D01*
X20900000Y43700000D02*
X22400000Y43700000D01*
X22400000Y43700000D02*
X23600000Y44900000D01*
X23600000Y40550000D02*
X23600000Y41050000D01*
X23600000Y41050000D02*
X22200000Y42450000D01*
X17550000Y38550000D02*
X20100000Y38550000D01*
X20100000Y38550000D02*
X20250000Y38400000D01*
X16050000Y42850000D02*
X16050000Y42000000D01*
X16050000Y42000000D02*
X17600000Y40450000D01*
X15950000Y45800000D02*
X15950000Y42950000D01*
X15950000Y42950000D02*
X16050000Y42850000D01*
X11300000Y45700000D02*
X9850000Y44250000D01*
X9850000Y44250000D02*
X9850000Y42750000D01*
X12350000Y45700000D02*
X11300000Y45700000D01*
X15950000Y45800000D02*
X12450000Y45800000D01*
X12450000Y45800000D02*
X12350000Y45700000D01*
X16300000Y48250000D02*
X16300000Y46150000D01*
X16300000Y46150000D02*
X15950000Y45800000D01*
X20000000Y50550000D02*
X20000000Y50450000D01*
X20000000Y50450000D02*
X17900000Y48350000D01*
X22100000Y46550000D02*
X21500000Y47150000D01*
X21500000Y47150000D02*
X21500000Y49900000D01*
X25800000Y43250000D02*
X25250000Y43250000D01*
X25250000Y43250000D02*
X23600000Y44900000D01*
D36*
X25840000Y55550000D02*
X25840000Y50910000D01*
X25840000Y50910000D02*
X25900000Y50850000D01*
X23300000Y51150000D02*
X25840000Y53690000D01*
X25840000Y53690000D02*
X25840000Y55550000D01*
D33*
X34550001Y2349999D02*
X33510001Y2349999D01*
X33510001Y2349999D02*
X33210000Y2650000D01*
X33730000Y3170000D02*
X34550001Y2349999D01*
X34550001Y2349999D02*
X55779999Y2349999D01*
X55779999Y2349999D02*
X55900001Y2470001D01*
X55900001Y2470001D02*
X56600000Y3170000D01*
X33730000Y3170000D02*
X33210000Y2650000D01*
X33210000Y2650000D02*
X4111998Y2650000D01*
X4111998Y2650000D02*
X1399999Y5361999D01*
X1399999Y5361999D02*
X1399999Y15699999D01*
X1399999Y15699999D02*
X4300000Y18600000D01*
D37*
X12300000Y18620000D02*
X12790000Y18620000D01*
X12790000Y18620000D02*
X15620000Y21450000D01*
D33*
X30800000Y31150000D02*
X30800000Y24350000D01*
X30800000Y24350000D02*
X30800000Y6100000D01*
D37*
X25700000Y27550000D02*
X27600000Y27550000D01*
X27600000Y27550000D02*
X30800000Y24350000D01*
D33*
X30800000Y36450000D02*
X30800000Y31150000D01*
D37*
X27050000Y27550000D02*
X30650000Y31150000D01*
X25700000Y27550000D02*
X27050000Y27550000D01*
X30650000Y31150000D02*
X30800000Y31150000D01*
D33*
X12300000Y18620000D02*
X4320000Y18620000D01*
X4320000Y18620000D02*
X4300000Y18600000D01*
X30920000Y44950000D02*
X30920000Y43500000D01*
X30920000Y43500000D02*
X30920000Y36570000D01*
D36*
X29400000Y44950000D02*
X29470000Y44950000D01*
X29470000Y44950000D02*
X30920000Y43500000D01*
X29400000Y44950000D02*
X30920000Y44950000D01*
X25868630Y44950000D02*
X29400000Y44950000D01*
D33*
X30920000Y55550000D02*
X30920000Y46250000D01*
X30920000Y46250000D02*
X30920000Y44950000D01*
D36*
X29400000Y44950000D02*
X29620000Y44950000D01*
X29620000Y44950000D02*
X30920000Y46250000D01*
X23300000Y48650000D02*
X23300000Y47518630D01*
X23300000Y47518630D02*
X25868630Y44950000D01*
D33*
X30800000Y6100000D02*
X33730000Y3170000D01*
X30920000Y36570000D02*
X30800000Y36450000D01*
D35*
X68750000Y45850000D02*
X68750000Y48750000D01*
X68750000Y48750000D02*
X68700000Y48800000D01*
X67350000Y45700000D02*
X68600000Y45700000D01*
X68600000Y45700000D02*
X68750000Y45850000D01*
X57550000Y48000000D02*
X58750000Y48000000D01*
X58750000Y48000000D02*
X60100000Y46650000D01*
X57600000Y51400000D02*
X57600000Y53150000D01*
X57600000Y53150000D02*
X58200000Y53750000D01*
X51950000Y54850000D02*
X52712001Y54087999D01*
X52712001Y54087999D02*
X54912001Y54087999D01*
X54912001Y54087999D02*
X57300001Y51699999D01*
X57300001Y51699999D02*
X57600000Y51400000D01*
X35450000Y50750000D02*
X35950000Y50750000D01*
X35950000Y50750000D02*
X41850000Y56650000D01*
D37*
X35900000Y25750000D02*
X35900000Y29350000D01*
D35*
X35900000Y23300000D02*
X35900000Y25750000D01*
X33500000Y47250000D02*
X33500000Y52750000D01*
X33500000Y52750000D02*
X33500000Y55510000D01*
X35450000Y50750000D02*
X35150001Y51049999D01*
X35150001Y51049999D02*
X35150001Y51099999D01*
X35150001Y51099999D02*
X33500000Y52750000D01*
X33500000Y55510000D02*
X33460000Y55550000D01*
X38900000Y44800000D02*
X38900000Y47300000D01*
X38900000Y47300000D02*
X35450000Y50750000D01*
X37700000Y43250000D02*
X37100000Y43250000D01*
X37100000Y43250000D02*
X35500000Y41650000D01*
X38350000Y38500000D02*
X38350000Y42600000D01*
X38350000Y42600000D02*
X37700000Y43250000D01*
X35900000Y29350000D02*
X35800000Y29450000D01*
X35800000Y29450000D02*
X35800000Y36450000D01*
D37*
X35700000Y20200000D02*
X35700000Y23100000D01*
X35700000Y23100000D02*
X35900000Y23300000D01*
X38400000Y14700000D02*
X38300000Y14700000D01*
X38300000Y14700000D02*
X35600000Y17400000D01*
X38400000Y14700000D02*
X38400000Y16030000D01*
X38400000Y16030000D02*
X41120000Y18750000D01*
X36400000Y7800000D02*
X37400000Y7800000D01*
X37400000Y7800000D02*
X41150000Y11550000D01*
X38700000Y4550000D02*
X37450000Y4550000D01*
X37450000Y4550000D02*
X36400000Y5600000D01*
X41750000Y6700000D02*
X38950000Y6700000D01*
X44400000Y4850000D02*
X41800000Y4850000D01*
X41800000Y4850000D02*
X41700000Y4750000D01*
X48800000Y11900000D02*
X48800000Y11350000D01*
X48800000Y11350000D02*
X44450000Y7000000D01*
X50450000Y13550000D02*
X48800000Y11900000D01*
X53175736Y13550000D02*
X50450000Y13550000D01*
X55400000Y11750000D02*
X54975736Y11750000D01*
X54975736Y11750000D02*
X53175736Y13550000D01*
X61900000Y10700000D02*
X61900000Y7900000D01*
X61900000Y7900000D02*
X61050000Y7050000D01*
X65650000Y12000000D02*
X63200000Y12000000D01*
X63200000Y12000000D02*
X61900000Y10700000D01*
X63200000Y16700000D02*
X63200000Y12100000D01*
X68400000Y16700000D02*
X63200000Y16700000D01*
X65800000Y27900000D02*
X65800000Y24550000D01*
X59050000Y26000000D02*
X59900000Y26000000D01*
X59900000Y26000000D02*
X61800000Y27900000D01*
X56850000Y24850000D02*
X56850000Y28200000D01*
X56850000Y28200000D02*
X56550000Y28500000D01*
X63650000Y22350000D02*
X59250000Y22350000D01*
X59250000Y22350000D02*
X59000000Y22100000D01*
X59050000Y26000000D02*
X63500000Y26000000D01*
X63500000Y26000000D02*
X63600000Y25900000D01*
X53550000Y46750000D02*
X54100000Y46750000D01*
X54100000Y46750000D02*
X55550000Y45300000D01*
X57550000Y48000000D02*
X57550000Y51350000D01*
X57550000Y51350000D02*
X57600000Y51400000D01*
X67800000Y40700000D02*
X68700000Y41600000D01*
X68700000Y41600000D02*
X68700000Y43150000D01*
X61200000Y35750000D02*
X61200000Y40800000D01*
X61200000Y40800000D02*
X61200000Y43250000D01*
X57450000Y40750000D02*
X61150000Y40750000D01*
X61150000Y40750000D02*
X61200000Y40800000D01*
X57550000Y48000000D02*
X57550000Y44750000D01*
X67300000Y43150000D02*
X68700000Y43150000D01*
X68700000Y43150000D02*
X68750000Y43200000D01*
X65400000Y45650000D02*
X67300000Y45650000D01*
X67300000Y45650000D02*
X67350000Y45700000D01*
X63300000Y43350000D02*
X65250000Y43350000D01*
X65250000Y43350000D02*
X65350000Y43250000D01*
X61250000Y45550000D02*
X63250000Y45550000D01*
X63250000Y45550000D02*
X63300000Y45600000D01*
X59100000Y43300000D02*
X59100000Y45300000D01*
X59100000Y45300000D02*
X59250000Y45450000D01*
X59050000Y33600000D02*
X61200000Y35750000D01*
X59050000Y33200000D02*
X59050000Y33600000D01*
X59050000Y26000000D02*
X59050000Y33200000D01*
X46700000Y29550000D02*
X46700000Y33600000D01*
X46700000Y33600000D02*
X49100000Y36000000D01*
X43000000Y33500000D02*
X43000000Y33250000D01*
X43000000Y33250000D02*
X46700000Y29550000D01*
X40050000Y33500000D02*
X43000000Y33500000D01*
X35900000Y29350000D02*
X40050000Y33500000D01*
D33*
X41025736Y23450000D02*
X36050000Y23450000D01*
X36050000Y23450000D02*
X35900000Y23300000D01*
X41650000Y23650000D02*
X41225736Y23650000D01*
X41225736Y23650000D02*
X41025736Y23450000D01*
D35*
X8400000Y51950000D02*
X9500000Y53050000D01*
X8400000Y34020000D02*
X8400000Y51950000D01*
X7550000Y33170000D02*
X8400000Y34020000D01*
X6100000Y33170000D02*
X7550000Y33170000D01*
X27550000Y31200000D02*
X27550000Y35100000D01*
X27550000Y35100000D02*
X19470000Y43180000D01*
X19470000Y43180000D02*
X19450000Y43180000D01*
X19450000Y43180000D02*
X18000000Y43180000D01*
X20400000Y36050000D02*
X21199999Y35250001D01*
X23160000Y27850000D02*
X23160000Y27550000D01*
X21199999Y35250001D02*
X21199999Y29810001D01*
X21199999Y29810001D02*
X23160000Y27850000D01*
X21149999Y30099999D02*
X19000000Y27950000D01*
D37*
X51399991Y27450009D02*
X51600001Y27249999D01*
X51399991Y38674013D02*
X51399991Y27450009D01*
X44270000Y45804004D02*
X51399991Y38674013D01*
X44270000Y55550000D02*
X44270000Y45804004D01*
X51600001Y27249999D02*
X52800000Y26050000D01*
D38*
X67100000Y35750000D02*
X67520002Y35750000D01*
X67520002Y35750000D02*
X69100001Y34170001D01*
X69100001Y34170001D02*
X69100001Y21450001D01*
X69100001Y21450001D02*
X66799999Y19149999D01*
X66799999Y19149999D02*
X66000000Y18350000D01*
D35*
X9260000Y27530000D02*
X10100000Y28370000D01*
X11200000Y29470000D02*
X10100000Y28370000D01*
X10100000Y28370000D02*
X10500000Y28770000D01*
X11200000Y31900000D02*
X11200000Y29470000D01*
X6100000Y27530000D02*
X9260000Y27530000D01*
X10500000Y27500000D02*
X6130000Y27500000D01*
X6130000Y27500000D02*
X6100000Y27530000D01*
X6100000Y28800000D02*
X5250000Y28800000D01*
X5250000Y28800000D02*
X4300000Y27850000D01*
X4300000Y27850000D02*
X4300000Y23680000D01*
X28420000Y24130000D02*
X28420000Y21950000D01*
X28420000Y21950000D02*
X28420000Y14325000D01*
X25209653Y17365931D02*
X28420000Y20576278D01*
X28420000Y20576278D02*
X28420000Y21950000D01*
X11200000Y33170000D02*
X12650000Y33170000D01*
X12650000Y33170000D02*
X13350000Y32470000D01*
X13350000Y32470000D02*
X13350000Y29400000D01*
X18150000Y23650000D02*
X19950000Y23650000D01*
X13350000Y29400000D02*
X16900000Y25850000D01*
X26950000Y25600000D02*
X28420000Y24130000D01*
X16900000Y25850000D02*
X16900000Y24900000D01*
X21900000Y25600000D02*
X26950000Y25600000D01*
X16900000Y24900000D02*
X18150000Y23650000D01*
X19950000Y23650000D02*
X21900000Y25600000D01*
X6100000Y45920000D02*
X4909998Y45920000D01*
X4909998Y45920000D02*
X3250001Y44260003D01*
X3250001Y44260003D02*
X3250001Y41900001D01*
X3250001Y41900001D02*
X2549999Y41199999D01*
X2549999Y41199999D02*
X1850000Y40500000D01*
X7060000Y22700000D02*
X7060000Y21240000D01*
X7060000Y21240000D02*
X7550000Y20750000D01*
X17365072Y22899989D02*
X18815061Y21450000D01*
X7550000Y20750000D02*
X12450000Y20750000D01*
X18815061Y21450000D02*
X20700000Y21450000D01*
X12450000Y20750000D02*
X14599989Y22899989D01*
X14599989Y22899989D02*
X17365072Y22899989D01*
D37*
X25500000Y34800000D02*
X25500000Y35130000D01*
X25500000Y35130000D02*
X20080000Y40550000D01*
X41700000Y38190000D02*
X49840000Y38190000D01*
X49840000Y38190000D02*
X49900000Y38250000D01*
D38*
X41700000Y28890000D02*
X42972792Y28890000D01*
X51764002Y23550000D02*
X53150000Y23550000D01*
X42972792Y28890000D02*
X44150000Y27712792D01*
X44150000Y27712792D02*
X44150000Y24800000D01*
X53150000Y23550000D02*
X58820000Y17880000D01*
X44150000Y24800000D02*
X45450000Y23500000D01*
X45450000Y23500000D02*
X51714002Y23500000D01*
X51714002Y23500000D02*
X51764002Y23550000D01*
X58820000Y17880000D02*
X58820000Y8150000D01*
X66000000Y14750000D02*
X69100001Y11649999D01*
X69100001Y6477209D02*
X68372792Y5750000D01*
X69100001Y11649999D02*
X69100001Y6477209D01*
X68372792Y5750000D02*
X67100000Y5750000D01*
D39*
G36*
X43479697Y56735010D02*
X43086371Y56342370D01*
X42873243Y55829100D01*
X42872758Y55273339D01*
X43084990Y54759697D01*
X43185000Y54659512D01*
X43185000Y51193542D01*
X43064090Y51381441D01*
X42851890Y51526431D01*
X42600000Y51577440D01*
X40800000Y51577440D01*
X40564683Y51533162D01*
X40348559Y51394090D01*
X40203569Y51181890D01*
X40152560Y50930000D01*
X40152560Y49130000D01*
X40196838Y48894683D01*
X40335910Y48678559D01*
X40548110Y48533569D01*
X40564344Y48530281D01*
X40281845Y48107491D01*
X40165000Y47520072D01*
X40165000Y47459928D01*
X40281845Y46872509D01*
X40614591Y46374519D01*
X40845845Y46220000D01*
X40614591Y46065481D01*
X40281845Y45567491D01*
X40165000Y44980072D01*
X40165000Y44919928D01*
X40281845Y44332509D01*
X40614591Y43834519D01*
X41112581Y43501773D01*
X41700000Y43384928D01*
X42287419Y43501773D01*
X42785409Y43834519D01*
X43118155Y44332509D01*
X43235000Y44919928D01*
X43235000Y44980072D01*
X43118155Y45567491D01*
X42785409Y46065481D01*
X42554155Y46220000D01*
X42785409Y46374519D01*
X43118155Y46872509D01*
X43185000Y47208561D01*
X43185000Y45804004D01*
X43267591Y45388792D01*
X43326921Y45299999D01*
X43502789Y45036793D01*
X49264582Y39275000D01*
X42910163Y39275000D01*
X43051441Y39365910D01*
X43196431Y39578110D01*
X43247440Y39830000D01*
X43247440Y41630000D01*
X43203162Y41865317D01*
X43064090Y42081441D01*
X42851890Y42226431D01*
X42600000Y42277440D01*
X40800000Y42277440D01*
X40564683Y42233162D01*
X40348559Y42094090D01*
X40203569Y41881890D01*
X40152560Y41630000D01*
X40152560Y39830000D01*
X40196838Y39594683D01*
X40335910Y39378559D01*
X40548110Y39233569D01*
X40564344Y39230281D01*
X40281845Y38807491D01*
X40165000Y38220072D01*
X40165000Y38159928D01*
X40281845Y37572509D01*
X40614591Y37074519D01*
X40845845Y36920000D01*
X40614591Y36765481D01*
X40281845Y36267491D01*
X40165000Y35680072D01*
X40165000Y35619928D01*
X40281845Y35032509D01*
X40614591Y34534519D01*
X41112581Y34201773D01*
X41700000Y34084928D01*
X42287419Y34201773D01*
X42785409Y34534519D01*
X43118155Y35032509D01*
X43235000Y35619928D01*
X43235000Y35680072D01*
X43118155Y36267491D01*
X42785409Y36765481D01*
X42554155Y36920000D01*
X42785409Y37074519D01*
X42805776Y37105000D01*
X49840000Y37105000D01*
X49890311Y37115008D01*
X50124775Y37114803D01*
X50314991Y37193399D01*
X50314991Y27450009D01*
X50397582Y27034797D01*
X50531224Y26834788D01*
X50632780Y26682798D01*
X50965261Y26350317D01*
X50964682Y25686597D01*
X51243455Y25011914D01*
X51370148Y24885000D01*
X48710123Y24885000D01*
X48995319Y25311826D01*
X49135000Y26014050D01*
X49135000Y26085950D01*
X48995319Y26788174D01*
X48597541Y27383491D01*
X48002224Y27781269D01*
X47300000Y27920950D01*
X46597776Y27781269D01*
X46002459Y27383491D01*
X45604681Y26788174D01*
X45535000Y26437864D01*
X45535000Y27712792D01*
X45500809Y27884681D01*
X45429574Y28242808D01*
X45129343Y28692135D01*
X43952135Y29869343D01*
X43932354Y29882560D01*
X43502809Y30169573D01*
X43167802Y30236210D01*
X43196431Y30278110D01*
X43247440Y30530000D01*
X43247440Y32330000D01*
X43203162Y32565317D01*
X43064090Y32781441D01*
X42851890Y32926431D01*
X42600000Y32977440D01*
X40800000Y32977440D01*
X40564683Y32933162D01*
X40348559Y32794090D01*
X40203569Y32581890D01*
X40152560Y32330000D01*
X40152560Y30530000D01*
X40196838Y30294683D01*
X40335910Y30078559D01*
X40548110Y29933569D01*
X40564344Y29930281D01*
X40281845Y29507491D01*
X40165000Y28920072D01*
X40165000Y28859928D01*
X40281845Y28272509D01*
X40614591Y27774519D01*
X40845845Y27620000D01*
X40614591Y27465481D01*
X40281845Y26967491D01*
X40165000Y26380072D01*
X40165000Y26319928D01*
X40281845Y25732509D01*
X40614591Y25234519D01*
X41112581Y24901773D01*
X41700000Y24784928D01*
X42287419Y24901773D01*
X42765000Y25220882D01*
X42765000Y24800000D01*
X42870427Y24269983D01*
X42997359Y24080016D01*
X43170657Y23820657D01*
X43706407Y23284907D01*
X43315813Y23285248D01*
X42788200Y23067243D01*
X42384176Y22663923D01*
X42356577Y22597456D01*
X42353864Y22604005D01*
X42107745Y22678139D01*
X41279605Y21850000D01*
X42107745Y21021861D01*
X42353864Y21095995D01*
X42356196Y21102483D01*
X42382757Y21038200D01*
X42786077Y20634176D01*
X43313309Y20415250D01*
X43884187Y20414752D01*
X44411800Y20632757D01*
X44815824Y21036077D01*
X44873682Y21175414D01*
X44960467Y20739118D01*
X45249858Y20306012D01*
X45682964Y20016621D01*
X45741424Y20004992D01*
X45444771Y19882418D01*
X45068902Y19507204D01*
X44865232Y19016713D01*
X44864769Y18485617D01*
X45067582Y17994771D01*
X45442796Y17618902D01*
X45933287Y17415232D01*
X46464383Y17414769D01*
X46955229Y17617582D01*
X47331098Y17992796D01*
X47419875Y18206594D01*
X47419752Y18065813D01*
X47637757Y17538200D01*
X48041077Y17134176D01*
X48568309Y16915250D01*
X49139187Y16914752D01*
X49666800Y17132757D01*
X50070824Y17536077D01*
X50289750Y18063309D01*
X50290248Y18634187D01*
X50072243Y19161800D01*
X49668923Y19565824D01*
X49141691Y19784750D01*
X48570813Y19785248D01*
X48043200Y19567243D01*
X47639176Y19163923D01*
X47535143Y18913384D01*
X47535231Y19014383D01*
X47332418Y19505229D01*
X46957204Y19881098D01*
X46671705Y19999648D01*
X46757036Y20016621D01*
X47190142Y20306012D01*
X47479533Y20739118D01*
X47581154Y21250000D01*
X47479533Y21760882D01*
X47242920Y22115000D01*
X50276886Y22115000D01*
X50168902Y22007204D01*
X49965232Y21516713D01*
X49964769Y20985617D01*
X50167582Y20494771D01*
X50542796Y20118902D01*
X51033287Y19915232D01*
X51564383Y19914769D01*
X52055229Y20117582D01*
X52431098Y20492796D01*
X52634768Y20983287D01*
X52635231Y21514383D01*
X52432418Y22005229D01*
X52272925Y22165000D01*
X52576314Y22165000D01*
X57435000Y17306314D01*
X57435000Y9292965D01*
X57110882Y9509533D01*
X56600000Y9611154D01*
X56089118Y9509533D01*
X55656012Y9220142D01*
X55366621Y8787036D01*
X55265000Y8276154D01*
X55265000Y8223846D01*
X55366621Y7712964D01*
X55656012Y7279858D01*
X56089118Y6990467D01*
X56600000Y6888846D01*
X57110882Y6990467D01*
X57543988Y7279858D01*
X57655839Y7447256D01*
X57682191Y7407818D01*
X57687582Y7394771D01*
X57697643Y7384692D01*
X57840657Y7170657D01*
X58052824Y7028892D01*
X58062796Y7018902D01*
X58075947Y7013441D01*
X58201951Y6929248D01*
X57849858Y6693988D01*
X57560467Y6260882D01*
X57458846Y5750000D01*
X57560467Y5239118D01*
X57849858Y4806012D01*
X58282964Y4516621D01*
X58793846Y4415000D01*
X58846154Y4415000D01*
X59357036Y4516621D01*
X59790142Y4806012D01*
X60079533Y5239118D01*
X60181154Y5750000D01*
X60079533Y6260882D01*
X59790142Y6693988D01*
X59438049Y6929248D01*
X59562182Y7012191D01*
X59575229Y7017582D01*
X59585308Y7027643D01*
X59799343Y7170657D01*
X59941108Y7382824D01*
X59951098Y7392796D01*
X59956559Y7405947D01*
X60099573Y7619983D01*
X60149354Y7870249D01*
X60154768Y7883287D01*
X60154780Y7897529D01*
X60205000Y8150000D01*
X60205000Y17880000D01*
X60099573Y18410017D01*
X59799343Y18859343D01*
X54129343Y24529343D01*
X53976405Y24631533D01*
X54354730Y25009199D01*
X54634681Y25683395D01*
X54635318Y26413403D01*
X54356545Y27088086D01*
X53840801Y27604730D01*
X53166605Y27884681D01*
X52499159Y27885263D01*
X52484991Y27899431D01*
X52484991Y34702769D01*
X54573879Y32613882D01*
X54573881Y32613879D01*
X54827657Y32444312D01*
X55104314Y32259456D01*
X55221642Y32236118D01*
X55543880Y31913880D01*
X56074312Y31559457D01*
X56700000Y31434999D01*
X57325688Y31559457D01*
X57856120Y31913880D01*
X58210543Y32444312D01*
X58294385Y32865813D01*
X59964752Y32865813D01*
X60182757Y32338200D01*
X60586077Y31934176D01*
X61113309Y31715250D01*
X61684187Y31714752D01*
X62211800Y31932757D01*
X62615824Y32336077D01*
X62649813Y32417931D01*
X62682757Y32338200D01*
X63086077Y31934176D01*
X63613309Y31715250D01*
X64184187Y31714752D01*
X64711800Y31932757D01*
X65115824Y32336077D01*
X65334750Y32863309D01*
X65335248Y33434187D01*
X65117243Y33961800D01*
X64713923Y34365824D01*
X64378706Y34505018D01*
X64437036Y34516621D01*
X64870142Y34806012D01*
X65159533Y35239118D01*
X65261154Y35750000D01*
X65159533Y36260882D01*
X64870142Y36693988D01*
X64486991Y36950000D01*
X64870142Y37206012D01*
X65159533Y37639118D01*
X65261154Y38150000D01*
X65159533Y38660882D01*
X64870142Y39093988D01*
X64437036Y39383379D01*
X63926154Y39485000D01*
X63873846Y39485000D01*
X63362964Y39383379D01*
X62929858Y39093988D01*
X62640467Y38660882D01*
X62538846Y38150000D01*
X62640467Y37639118D01*
X62929858Y37206012D01*
X63313009Y36950000D01*
X62929858Y36693988D01*
X62640467Y36260882D01*
X62538846Y35750000D01*
X62640467Y35239118D01*
X62929858Y34806012D01*
X63362964Y34516621D01*
X63421529Y34504972D01*
X63088200Y34367243D01*
X62684176Y33963923D01*
X62650187Y33882069D01*
X62617243Y33961800D01*
X62213923Y34365824D01*
X61686691Y34584750D01*
X61115813Y34585248D01*
X60588200Y34367243D01*
X60184176Y33963923D01*
X59965250Y33436691D01*
X59964752Y32865813D01*
X58294385Y32865813D01*
X58335001Y33070000D01*
X58210543Y33695688D01*
X57856120Y34226120D01*
X57156121Y34926119D01*
X56625689Y35280542D01*
X56508358Y35303881D01*
X54835000Y36977240D01*
X54835000Y37885617D01*
X55364769Y37885617D01*
X55567582Y37394771D01*
X55942796Y37018902D01*
X56433287Y36815232D01*
X56964383Y36814769D01*
X57455229Y37017582D01*
X57760202Y37322024D01*
X58062796Y37018902D01*
X58228532Y36950082D01*
X58064771Y36882418D01*
X57688902Y36507204D01*
X57485232Y36016713D01*
X57484769Y35485617D01*
X57687582Y34994771D01*
X58062796Y34618902D01*
X58553287Y34415232D01*
X59084383Y34414769D01*
X59575229Y34617582D01*
X59951098Y34992796D01*
X60154768Y35483287D01*
X60155231Y36014383D01*
X59952418Y36505229D01*
X59577204Y36881098D01*
X59411468Y36949918D01*
X59575229Y37017582D01*
X59951098Y37392796D01*
X60154768Y37883287D01*
X60155231Y38414383D01*
X59952418Y38905229D01*
X59577204Y39281098D01*
X59086713Y39484768D01*
X58555617Y39485231D01*
X58064771Y39282418D01*
X57759798Y38977976D01*
X57457204Y39281098D01*
X56966713Y39484768D01*
X56435617Y39485231D01*
X55944771Y39282418D01*
X55568902Y38907204D01*
X55365232Y38416713D01*
X55364769Y37885617D01*
X54835000Y37885617D01*
X54835000Y41949995D01*
X54835001Y41950000D01*
X54710543Y42575688D01*
X54356120Y43106120D01*
X51485001Y45977239D01*
X51485001Y50142637D01*
X51502459Y50116509D01*
X52097776Y49718731D01*
X52800000Y49579050D01*
X53502224Y49718731D01*
X53893429Y49980126D01*
X59914370Y49980126D01*
X60466600Y48643628D01*
X61488249Y47620194D01*
X62823782Y47065632D01*
X64269874Y47064370D01*
X65606372Y47616600D01*
X66629806Y48638249D01*
X67184368Y49973782D01*
X67185630Y51419874D01*
X66633400Y52756372D01*
X65611751Y53779806D01*
X64276218Y54334368D01*
X62830126Y54335630D01*
X61493628Y53783400D01*
X60470194Y52761751D01*
X59915632Y51426218D01*
X59914370Y49980126D01*
X53893429Y49980126D01*
X54097541Y50116509D01*
X54495319Y50711826D01*
X54635000Y51414050D01*
X54635000Y51485950D01*
X54495319Y52188174D01*
X54097541Y52783491D01*
X53502224Y53181269D01*
X52800000Y53320950D01*
X52097776Y53181269D01*
X51502459Y52783491D01*
X51485001Y52757363D01*
X51485001Y54350001D01*
X51360544Y54975688D01*
X51006121Y55506121D01*
X50475688Y55860544D01*
X49850001Y55985001D01*
X49224314Y55860544D01*
X48693881Y55506121D01*
X48339458Y54975688D01*
X48215001Y54350001D01*
X48215001Y53056967D01*
X47666605Y53284681D01*
X46936597Y53285318D01*
X46261914Y53006545D01*
X45745270Y52490801D01*
X45465319Y51816605D01*
X45464682Y51086597D01*
X45743455Y50411914D01*
X46259199Y49895270D01*
X46933395Y49615319D01*
X47663403Y49614682D01*
X48215001Y49842597D01*
X48215001Y45300004D01*
X48215000Y45299999D01*
X48339458Y44674311D01*
X48693881Y44143879D01*
X51565000Y41272760D01*
X51565000Y40043426D01*
X45355000Y46253426D01*
X45355000Y54659173D01*
X45453629Y54757630D01*
X45666757Y55270900D01*
X45667242Y55826661D01*
X45455010Y56340303D01*
X45062370Y56733629D01*
X44685786Y56890000D01*
X55284802Y56890000D01*
X54909697Y56735010D01*
X54516371Y56342370D01*
X54303243Y55829100D01*
X54302758Y55273339D01*
X54514990Y54759697D01*
X54907630Y54366371D01*
X55420900Y54153243D01*
X55976661Y54152758D01*
X56490303Y54364990D01*
X56883629Y54757630D01*
X57096757Y55270900D01*
X57097242Y55826661D01*
X56885010Y56340303D01*
X56492370Y56733629D01*
X56115786Y56890000D01*
X65105908Y56890000D01*
X69690000Y52305908D01*
X69690000Y35538688D01*
X68499345Y36729343D01*
X68445261Y36765481D01*
X68325983Y36845180D01*
X68451441Y36925910D01*
X68596431Y37138110D01*
X68647440Y37390000D01*
X68647440Y39190000D01*
X68603162Y39425317D01*
X68464090Y39641441D01*
X68251890Y39786431D01*
X68000000Y39837440D01*
X66200000Y39837440D01*
X65964683Y39793162D01*
X65748559Y39654090D01*
X65603569Y39441890D01*
X65552560Y39190000D01*
X65552560Y37390000D01*
X65596838Y37154683D01*
X65735910Y36938559D01*
X65948110Y36793569D01*
X65964344Y36790281D01*
X65681845Y36367491D01*
X65565000Y35780072D01*
X65565000Y35719928D01*
X65681845Y35132509D01*
X66014591Y34634519D01*
X66245845Y34480000D01*
X66014591Y34325481D01*
X65681845Y33827491D01*
X65565000Y33240072D01*
X65565000Y33179928D01*
X65681845Y32592509D01*
X66014591Y32094519D01*
X66512581Y31761773D01*
X67100000Y31644928D01*
X67687419Y31761773D01*
X67715001Y31780203D01*
X67715001Y22023687D01*
X65255010Y19563696D01*
X64957189Y19364698D01*
X64646120Y18899151D01*
X64536887Y18350000D01*
X64646120Y17800849D01*
X64957189Y17335302D01*
X65422736Y17024233D01*
X65971887Y16915000D01*
X66028113Y16915000D01*
X66577264Y17024233D01*
X67042811Y17335302D01*
X67241809Y17633123D01*
X69690000Y20081314D01*
X69690000Y13018686D01*
X67241809Y15466877D01*
X67042811Y15764698D01*
X66577264Y16075767D01*
X66028113Y16185000D01*
X65971887Y16185000D01*
X65422736Y16075767D01*
X64957189Y15764698D01*
X64646120Y15299151D01*
X64536887Y14750000D01*
X64646120Y14200849D01*
X64957189Y13735302D01*
X65255010Y13536304D01*
X67715001Y11076313D01*
X67715001Y9837440D01*
X66200000Y9837440D01*
X65964683Y9793162D01*
X65748559Y9654090D01*
X65603569Y9441890D01*
X65552560Y9190000D01*
X65552560Y7390000D01*
X65596838Y7154683D01*
X65735910Y6938559D01*
X65948110Y6793569D01*
X65964344Y6790281D01*
X65681845Y6367491D01*
X65565000Y5780072D01*
X65565000Y5719928D01*
X65681845Y5132509D01*
X66014591Y4634519D01*
X66245845Y4480000D01*
X66014591Y4325481D01*
X65681845Y3827491D01*
X65565000Y3240072D01*
X65565000Y3179928D01*
X65681845Y2592509D01*
X66014591Y2094519D01*
X66512581Y1761773D01*
X67100000Y1644928D01*
X67687419Y1761773D01*
X68185409Y2094519D01*
X68518155Y2592509D01*
X68635000Y3179928D01*
X68635000Y3240072D01*
X68518155Y3827491D01*
X68185409Y4325481D01*
X68126265Y4365000D01*
X68372792Y4365000D01*
X68902809Y4470427D01*
X69352135Y4770657D01*
X69690000Y5108522D01*
X69690000Y810000D01*
X56257603Y810000D01*
X56405687Y839456D01*
X56936119Y1193879D01*
X57056118Y1313879D01*
X57056121Y1313881D01*
X57756120Y2013880D01*
X58110543Y2544312D01*
X58174493Y2865813D01*
X59764752Y2865813D01*
X59982757Y2338200D01*
X60386077Y1934176D01*
X60913309Y1715250D01*
X61484187Y1714752D01*
X62011800Y1932757D01*
X62415824Y2336077D01*
X62449813Y2417931D01*
X62482757Y2338200D01*
X62886077Y1934176D01*
X63413309Y1715250D01*
X63984187Y1714752D01*
X64511800Y1932757D01*
X64915824Y2336077D01*
X65134750Y2863309D01*
X65135248Y3434187D01*
X64917243Y3961800D01*
X64513923Y4365824D01*
X64280503Y4462749D01*
X64655229Y4617582D01*
X65031098Y4992796D01*
X65234768Y5483287D01*
X65235231Y6014383D01*
X65032418Y6505229D01*
X64657204Y6881098D01*
X64488631Y6951096D01*
X64870142Y7206012D01*
X65159533Y7639118D01*
X65261154Y8150000D01*
X65159533Y8660882D01*
X64870142Y9093988D01*
X64437036Y9383379D01*
X63926154Y9485000D01*
X63873846Y9485000D01*
X63362964Y9383379D01*
X62929858Y9093988D01*
X62640467Y8660882D01*
X62538846Y8150000D01*
X62640467Y7639118D01*
X62929858Y7206012D01*
X63311222Y6951194D01*
X63144771Y6882418D01*
X62768902Y6507204D01*
X62565232Y6016713D01*
X62564769Y5485617D01*
X62767582Y4994771D01*
X63142796Y4618902D01*
X63319591Y4545490D01*
X62888200Y4367243D01*
X62484176Y3963923D01*
X62450187Y3882069D01*
X62417243Y3961800D01*
X62013923Y4365824D01*
X61486691Y4584750D01*
X60915813Y4585248D01*
X60388200Y4367243D01*
X59984176Y3963923D01*
X59765250Y3436691D01*
X59764752Y2865813D01*
X58174493Y2865813D01*
X58235001Y3170000D01*
X58110543Y3795688D01*
X57756120Y4326120D01*
X57225688Y4680543D01*
X56600000Y4805001D01*
X55974312Y4680543D01*
X55443880Y4326120D01*
X55102759Y3984999D01*
X53775415Y3984999D01*
X54429806Y4638249D01*
X54984368Y5973782D01*
X54985630Y7419874D01*
X54433400Y8756372D01*
X53411751Y9779806D01*
X52076218Y10334368D01*
X50630126Y10335630D01*
X49293628Y9783400D01*
X48270194Y8761751D01*
X47715632Y7426218D01*
X47714370Y5980126D01*
X48266600Y4643628D01*
X48924080Y3984999D01*
X35227241Y3984999D01*
X34886120Y4326120D01*
X34886117Y4326122D01*
X32435000Y6777240D01*
X32435000Y7802279D01*
X32767796Y7468902D01*
X33258287Y7265232D01*
X33789383Y7264769D01*
X34280229Y7467582D01*
X34656098Y7842796D01*
X34859768Y8333287D01*
X34860231Y8864383D01*
X34657418Y9355229D01*
X34282204Y9731098D01*
X33791713Y9934768D01*
X33260617Y9935231D01*
X32769771Y9732418D01*
X32435000Y9398230D01*
X32435000Y10560866D01*
X32786077Y10209176D01*
X33313309Y9990250D01*
X33884187Y9989752D01*
X34411800Y10207757D01*
X34815824Y10611077D01*
X34849813Y10692931D01*
X34882757Y10613200D01*
X35286077Y10209176D01*
X35813309Y9990250D01*
X36384187Y9989752D01*
X36911800Y10207757D01*
X37315824Y10611077D01*
X37534750Y11138309D01*
X37535248Y11709187D01*
X37317243Y12236800D01*
X36913923Y12640824D01*
X36386691Y12859750D01*
X35815813Y12860248D01*
X35288200Y12642243D01*
X34884176Y12238923D01*
X34850187Y12157069D01*
X34817243Y12236800D01*
X34413923Y12640824D01*
X33886691Y12859750D01*
X33315813Y12860248D01*
X32788200Y12642243D01*
X32435000Y12289658D01*
X32435000Y13502235D01*
X32742796Y13193902D01*
X33233287Y12990232D01*
X33764383Y12989769D01*
X34255229Y13192582D01*
X34477759Y13414725D01*
X40364331Y13414725D01*
X40426169Y13178958D01*
X40927122Y13002581D01*
X41457440Y13031336D01*
X41813831Y13178958D01*
X41875669Y13414725D01*
X41120000Y14170395D01*
X40364331Y13414725D01*
X34477759Y13414725D01*
X34631098Y13567796D01*
X34834768Y14058287D01*
X34835190Y14542878D01*
X39772581Y14542878D01*
X39801336Y14012560D01*
X39948958Y13656169D01*
X40184725Y13594331D01*
X40940395Y14350000D01*
X41299605Y14350000D01*
X42055275Y13594331D01*
X42291042Y13656169D01*
X42467419Y14157122D01*
X42456961Y14350000D01*
X44838846Y14350000D01*
X44940467Y13839118D01*
X45229858Y13406012D01*
X45662964Y13116621D01*
X45748426Y13099622D01*
X45464771Y12982418D01*
X45088902Y12607204D01*
X44885232Y12116713D01*
X44884769Y11585617D01*
X45087582Y11094771D01*
X45462796Y10718902D01*
X45953287Y10515232D01*
X46484383Y10514769D01*
X46975229Y10717582D01*
X47351098Y11092796D01*
X47554768Y11583287D01*
X47555000Y11850000D01*
X49938846Y11850000D01*
X50040467Y11339118D01*
X50329858Y10906012D01*
X50762964Y10616621D01*
X51273846Y10515000D01*
X51326154Y10515000D01*
X51837036Y10616621D01*
X52270142Y10906012D01*
X52559533Y11339118D01*
X52661154Y11850000D01*
X52559533Y12360882D01*
X52270142Y12793988D01*
X51837036Y13083379D01*
X51326154Y13185000D01*
X51273846Y13185000D01*
X50762964Y13083379D01*
X50329858Y12793988D01*
X50040467Y12360882D01*
X49938846Y11850000D01*
X47555000Y11850000D01*
X47555231Y12114383D01*
X47352418Y12605229D01*
X46977204Y12981098D01*
X46678750Y13105027D01*
X46737036Y13116621D01*
X47170142Y13406012D01*
X47459533Y13839118D01*
X47530754Y14197168D01*
X47637757Y13938200D01*
X48041077Y13534176D01*
X48568309Y13315250D01*
X49139187Y13314752D01*
X49666800Y13532757D01*
X50070824Y13936077D01*
X50289750Y14463309D01*
X50290248Y15034187D01*
X50072243Y15561800D01*
X49668923Y15965824D01*
X49141691Y16184750D01*
X48570813Y16185248D01*
X48043200Y15967243D01*
X47639176Y15563923D01*
X47420250Y15036691D01*
X47420148Y14919826D01*
X47170142Y15293988D01*
X46737036Y15583379D01*
X46226154Y15685000D01*
X46173846Y15685000D01*
X45662964Y15583379D01*
X45229858Y15293988D01*
X44940467Y14860882D01*
X44838846Y14350000D01*
X42456961Y14350000D01*
X42438664Y14687440D01*
X42291042Y15043831D01*
X42055275Y15105669D01*
X41299605Y14350000D01*
X40940395Y14350000D01*
X40184725Y15105669D01*
X39948958Y15043831D01*
X39772581Y14542878D01*
X34835190Y14542878D01*
X34835231Y14589383D01*
X34632418Y15080229D01*
X34427730Y15285275D01*
X40364331Y15285275D01*
X41120000Y14529605D01*
X41875669Y15285275D01*
X41813831Y15521042D01*
X41312878Y15697419D01*
X40782560Y15668664D01*
X40426169Y15521042D01*
X40364331Y15285275D01*
X34427730Y15285275D01*
X34257204Y15456098D01*
X33766713Y15659768D01*
X33235617Y15660231D01*
X32744771Y15457418D01*
X32435000Y15148187D01*
X32435000Y18416671D01*
X39827284Y18416671D01*
X39970203Y18071604D01*
X40317337Y17683236D01*
X40786669Y17457273D01*
X40993000Y17579794D01*
X40993000Y18623000D01*
X41247000Y18623000D01*
X41247000Y17579794D01*
X41453331Y17457273D01*
X41922663Y17683236D01*
X42269797Y18071604D01*
X42412716Y18416671D01*
X42289374Y18623000D01*
X41247000Y18623000D01*
X40993000Y18623000D01*
X39950626Y18623000D01*
X39827284Y18416671D01*
X32435000Y18416671D01*
X32435000Y19083329D01*
X39827284Y19083329D01*
X39950626Y18877000D01*
X40993000Y18877000D01*
X40993000Y19920206D01*
X41247000Y19920206D01*
X41247000Y18877000D01*
X42289374Y18877000D01*
X42412716Y19083329D01*
X42269797Y19428396D01*
X41922663Y19816764D01*
X41453331Y20042727D01*
X41247000Y19920206D01*
X40993000Y19920206D01*
X40786669Y20042727D01*
X40317337Y19816764D01*
X39970203Y19428396D01*
X39827284Y19083329D01*
X32435000Y19083329D01*
X32435000Y20842255D01*
X40271861Y20842255D01*
X40345995Y20596136D01*
X40883223Y20403035D01*
X41453454Y20430222D01*
X41854005Y20596136D01*
X41928139Y20842255D01*
X41100000Y21670395D01*
X40271861Y20842255D01*
X32435000Y20842255D01*
X32435000Y22066777D01*
X39653035Y22066777D01*
X39680222Y21496546D01*
X39846136Y21095995D01*
X40092255Y21021861D01*
X40920395Y21850000D01*
X40092255Y22678139D01*
X39846136Y22604005D01*
X39653035Y22066777D01*
X32435000Y22066777D01*
X32435000Y22857745D01*
X40271861Y22857745D01*
X41100000Y22029605D01*
X41928139Y22857745D01*
X41854005Y23103864D01*
X41316777Y23296965D01*
X40746546Y23269778D01*
X40345995Y23103864D01*
X40271861Y22857745D01*
X32435000Y22857745D01*
X32435000Y35966720D01*
X32474104Y36163309D01*
X32474291Y36164250D01*
X34365000Y36164250D01*
X34365000Y35523690D01*
X34461673Y35290301D01*
X34640302Y35111673D01*
X34873691Y35015000D01*
X35514250Y35015000D01*
X35673000Y35173750D01*
X35673000Y36323000D01*
X35927000Y36323000D01*
X35927000Y35173750D01*
X36085750Y35015000D01*
X36726309Y35015000D01*
X36959698Y35111673D01*
X37138327Y35290301D01*
X37235000Y35523690D01*
X37235000Y36164250D01*
X37076250Y36323000D01*
X35927000Y36323000D01*
X35673000Y36323000D01*
X34523750Y36323000D01*
X34365000Y36164250D01*
X32474291Y36164250D01*
X32555001Y36570000D01*
X32555000Y36570005D01*
X32555000Y37376310D01*
X34365000Y37376310D01*
X34365000Y36735750D01*
X34523750Y36577000D01*
X35673000Y36577000D01*
X35673000Y37726250D01*
X35927000Y37726250D01*
X35927000Y36577000D01*
X37076250Y36577000D01*
X37235000Y36735750D01*
X37235000Y37376310D01*
X37138327Y37609699D01*
X36959698Y37788327D01*
X36726309Y37885000D01*
X36085750Y37885000D01*
X35927000Y37726250D01*
X35673000Y37726250D01*
X35514250Y37885000D01*
X34873691Y37885000D01*
X34640302Y37788327D01*
X34461673Y37609699D01*
X34365000Y37376310D01*
X32555000Y37376310D01*
X32555000Y46129364D01*
X32556986Y46127378D01*
X32671861Y46242253D01*
X32745995Y45996136D01*
X33283223Y45803035D01*
X33853454Y45830222D01*
X34254005Y45996136D01*
X34328139Y46242255D01*
X33500000Y47070395D01*
X33485858Y47056252D01*
X33306252Y47235858D01*
X33320395Y47250000D01*
X33679605Y47250000D01*
X34507745Y46421861D01*
X34753864Y46495995D01*
X34946965Y47033223D01*
X34919778Y47603454D01*
X34753864Y48004005D01*
X34507745Y48078139D01*
X33679605Y47250000D01*
X33320395Y47250000D01*
X33306252Y47264142D01*
X33485858Y47443748D01*
X33500000Y47429605D01*
X34328139Y48257745D01*
X34254005Y48503864D01*
X33716777Y48696965D01*
X33146546Y48669778D01*
X32745995Y48503864D01*
X32671861Y48257747D01*
X32556986Y48372622D01*
X32555000Y48370636D01*
X32555000Y54404188D01*
X32693076Y54278355D01*
X33103110Y54108524D01*
X33333000Y54229845D01*
X33333000Y55423000D01*
X33313000Y55423000D01*
X33313000Y55677000D01*
X33333000Y55677000D01*
X33333000Y55697000D01*
X33587000Y55697000D01*
X33587000Y55677000D01*
X33607000Y55677000D01*
X33607000Y55423000D01*
X33587000Y55423000D01*
X33587000Y54229845D01*
X33816890Y54108524D01*
X34226924Y54278355D01*
X34655183Y54668642D01*
X34722298Y54811553D01*
X34949946Y54470853D01*
X35431715Y54148946D01*
X36000000Y54035907D01*
X36568285Y54148946D01*
X37050054Y54470853D01*
X37371961Y54952622D01*
X37485000Y55520907D01*
X37485000Y55579093D01*
X37371961Y56147378D01*
X37050054Y56629147D01*
X36659659Y56890000D01*
X43854802Y56890000D01*
X43479697Y56735010D01*
X43479697Y56735010D01*
G37*
X43479697Y56735010D02*
X43086371Y56342370D01*
X42873243Y55829100D01*
X42872758Y55273339D01*
X43084990Y54759697D01*
X43185000Y54659512D01*
X43185000Y51193542D01*
X43064090Y51381441D01*
X42851890Y51526431D01*
X42600000Y51577440D01*
X40800000Y51577440D01*
X40564683Y51533162D01*
X40348559Y51394090D01*
X40203569Y51181890D01*
X40152560Y50930000D01*
X40152560Y49130000D01*
X40196838Y48894683D01*
X40335910Y48678559D01*
X40548110Y48533569D01*
X40564344Y48530281D01*
X40281845Y48107491D01*
X40165000Y47520072D01*
X40165000Y47459928D01*
X40281845Y46872509D01*
X40614591Y46374519D01*
X40845845Y46220000D01*
X40614591Y46065481D01*
X40281845Y45567491D01*
X40165000Y44980072D01*
X40165000Y44919928D01*
X40281845Y44332509D01*
X40614591Y43834519D01*
X41112581Y43501773D01*
X41700000Y43384928D01*
X42287419Y43501773D01*
X42785409Y43834519D01*
X43118155Y44332509D01*
X43235000Y44919928D01*
X43235000Y44980072D01*
X43118155Y45567491D01*
X42785409Y46065481D01*
X42554155Y46220000D01*
X42785409Y46374519D01*
X43118155Y46872509D01*
X43185000Y47208561D01*
X43185000Y45804004D01*
X43267591Y45388792D01*
X43326921Y45299999D01*
X43502789Y45036793D01*
X49264582Y39275000D01*
X42910163Y39275000D01*
X43051441Y39365910D01*
X43196431Y39578110D01*
X43247440Y39830000D01*
X43247440Y41630000D01*
X43203162Y41865317D01*
X43064090Y42081441D01*
X42851890Y42226431D01*
X42600000Y42277440D01*
X40800000Y42277440D01*
X40564683Y42233162D01*
X40348559Y42094090D01*
X40203569Y41881890D01*
X40152560Y41630000D01*
X40152560Y39830000D01*
X40196838Y39594683D01*
X40335910Y39378559D01*
X40548110Y39233569D01*
X40564344Y39230281D01*
X40281845Y38807491D01*
X40165000Y38220072D01*
X40165000Y38159928D01*
X40281845Y37572509D01*
X40614591Y37074519D01*
X40845845Y36920000D01*
X40614591Y36765481D01*
X40281845Y36267491D01*
X40165000Y35680072D01*
X40165000Y35619928D01*
X40281845Y35032509D01*
X40614591Y34534519D01*
X41112581Y34201773D01*
X41700000Y34084928D01*
X42287419Y34201773D01*
X42785409Y34534519D01*
X43118155Y35032509D01*
X43235000Y35619928D01*
X43235000Y35680072D01*
X43118155Y36267491D01*
X42785409Y36765481D01*
X42554155Y36920000D01*
X42785409Y37074519D01*
X42805776Y37105000D01*
X49840000Y37105000D01*
X49890311Y37115008D01*
X50124775Y37114803D01*
X50314991Y37193399D01*
X50314991Y27450009D01*
X50397582Y27034797D01*
X50531224Y26834788D01*
X50632780Y26682798D01*
X50965261Y26350317D01*
X50964682Y25686597D01*
X51243455Y25011914D01*
X51370148Y24885000D01*
X48710123Y24885000D01*
X48995319Y25311826D01*
X49135000Y26014050D01*
X49135000Y26085950D01*
X48995319Y26788174D01*
X48597541Y27383491D01*
X48002224Y27781269D01*
X47300000Y27920950D01*
X46597776Y27781269D01*
X46002459Y27383491D01*
X45604681Y26788174D01*
X45535000Y26437864D01*
X45535000Y27712792D01*
X45500809Y27884681D01*
X45429574Y28242808D01*
X45129343Y28692135D01*
X43952135Y29869343D01*
X43932354Y29882560D01*
X43502809Y30169573D01*
X43167802Y30236210D01*
X43196431Y30278110D01*
X43247440Y30530000D01*
X43247440Y32330000D01*
X43203162Y32565317D01*
X43064090Y32781441D01*
X42851890Y32926431D01*
X42600000Y32977440D01*
X40800000Y32977440D01*
X40564683Y32933162D01*
X40348559Y32794090D01*
X40203569Y32581890D01*
X40152560Y32330000D01*
X40152560Y30530000D01*
X40196838Y30294683D01*
X40335910Y30078559D01*
X40548110Y29933569D01*
X40564344Y29930281D01*
X40281845Y29507491D01*
X40165000Y28920072D01*
X40165000Y28859928D01*
X40281845Y28272509D01*
X40614591Y27774519D01*
X40845845Y27620000D01*
X40614591Y27465481D01*
X40281845Y26967491D01*
X40165000Y26380072D01*
X40165000Y26319928D01*
X40281845Y25732509D01*
X40614591Y25234519D01*
X41112581Y24901773D01*
X41700000Y24784928D01*
X42287419Y24901773D01*
X42765000Y25220882D01*
X42765000Y24800000D01*
X42870427Y24269983D01*
X42997359Y24080016D01*
X43170657Y23820657D01*
X43706407Y23284907D01*
X43315813Y23285248D01*
X42788200Y23067243D01*
X42384176Y22663923D01*
X42356577Y22597456D01*
X42353864Y22604005D01*
X42107745Y22678139D01*
X41279605Y21850000D01*
X42107745Y21021861D01*
X42353864Y21095995D01*
X42356196Y21102483D01*
X42382757Y21038200D01*
X42786077Y20634176D01*
X43313309Y20415250D01*
X43884187Y20414752D01*
X44411800Y20632757D01*
X44815824Y21036077D01*
X44873682Y21175414D01*
X44960467Y20739118D01*
X45249858Y20306012D01*
X45682964Y20016621D01*
X45741424Y20004992D01*
X45444771Y19882418D01*
X45068902Y19507204D01*
X44865232Y19016713D01*
X44864769Y18485617D01*
X45067582Y17994771D01*
X45442796Y17618902D01*
X45933287Y17415232D01*
X46464383Y17414769D01*
X46955229Y17617582D01*
X47331098Y17992796D01*
X47419875Y18206594D01*
X47419752Y18065813D01*
X47637757Y17538200D01*
X48041077Y17134176D01*
X48568309Y16915250D01*
X49139187Y16914752D01*
X49666800Y17132757D01*
X50070824Y17536077D01*
X50289750Y18063309D01*
X50290248Y18634187D01*
X50072243Y19161800D01*
X49668923Y19565824D01*
X49141691Y19784750D01*
X48570813Y19785248D01*
X48043200Y19567243D01*
X47639176Y19163923D01*
X47535143Y18913384D01*
X47535231Y19014383D01*
X47332418Y19505229D01*
X46957204Y19881098D01*
X46671705Y19999648D01*
X46757036Y20016621D01*
X47190142Y20306012D01*
X47479533Y20739118D01*
X47581154Y21250000D01*
X47479533Y21760882D01*
X47242920Y22115000D01*
X50276886Y22115000D01*
X50168902Y22007204D01*
X49965232Y21516713D01*
X49964769Y20985617D01*
X50167582Y20494771D01*
X50542796Y20118902D01*
X51033287Y19915232D01*
X51564383Y19914769D01*
X52055229Y20117582D01*
X52431098Y20492796D01*
X52634768Y20983287D01*
X52635231Y21514383D01*
X52432418Y22005229D01*
X52272925Y22165000D01*
X52576314Y22165000D01*
X57435000Y17306314D01*
X57435000Y9292965D01*
X57110882Y9509533D01*
X56600000Y9611154D01*
X56089118Y9509533D01*
X55656012Y9220142D01*
X55366621Y8787036D01*
X55265000Y8276154D01*
X55265000Y8223846D01*
X55366621Y7712964D01*
X55656012Y7279858D01*
X56089118Y6990467D01*
X56600000Y6888846D01*
X57110882Y6990467D01*
X57543988Y7279858D01*
X57655839Y7447256D01*
X57682191Y7407818D01*
X57687582Y7394771D01*
X57697643Y7384692D01*
X57840657Y7170657D01*
X58052824Y7028892D01*
X58062796Y7018902D01*
X58075947Y7013441D01*
X58201951Y6929248D01*
X57849858Y6693988D01*
X57560467Y6260882D01*
X57458846Y5750000D01*
X57560467Y5239118D01*
X57849858Y4806012D01*
X58282964Y4516621D01*
X58793846Y4415000D01*
X58846154Y4415000D01*
X59357036Y4516621D01*
X59790142Y4806012D01*
X60079533Y5239118D01*
X60181154Y5750000D01*
X60079533Y6260882D01*
X59790142Y6693988D01*
X59438049Y6929248D01*
X59562182Y7012191D01*
X59575229Y7017582D01*
X59585308Y7027643D01*
X59799343Y7170657D01*
X59941108Y7382824D01*
X59951098Y7392796D01*
X59956559Y7405947D01*
X60099573Y7619983D01*
X60149354Y7870249D01*
X60154768Y7883287D01*
X60154780Y7897529D01*
X60205000Y8150000D01*
X60205000Y17880000D01*
X60099573Y18410017D01*
X59799343Y18859343D01*
X54129343Y24529343D01*
X53976405Y24631533D01*
X54354730Y25009199D01*
X54634681Y25683395D01*
X54635318Y26413403D01*
X54356545Y27088086D01*
X53840801Y27604730D01*
X53166605Y27884681D01*
X52499159Y27885263D01*
X52484991Y27899431D01*
X52484991Y34702769D01*
X54573879Y32613882D01*
X54573881Y32613879D01*
X54827657Y32444312D01*
X55104314Y32259456D01*
X55221642Y32236118D01*
X55543880Y31913880D01*
X56074312Y31559457D01*
X56700000Y31434999D01*
X57325688Y31559457D01*
X57856120Y31913880D01*
X58210543Y32444312D01*
X58294385Y32865813D01*
X59964752Y32865813D01*
X60182757Y32338200D01*
X60586077Y31934176D01*
X61113309Y31715250D01*
X61684187Y31714752D01*
X62211800Y31932757D01*
X62615824Y32336077D01*
X62649813Y32417931D01*
X62682757Y32338200D01*
X63086077Y31934176D01*
X63613309Y31715250D01*
X64184187Y31714752D01*
X64711800Y31932757D01*
X65115824Y32336077D01*
X65334750Y32863309D01*
X65335248Y33434187D01*
X65117243Y33961800D01*
X64713923Y34365824D01*
X64378706Y34505018D01*
X64437036Y34516621D01*
X64870142Y34806012D01*
X65159533Y35239118D01*
X65261154Y35750000D01*
X65159533Y36260882D01*
X64870142Y36693988D01*
X64486991Y36950000D01*
X64870142Y37206012D01*
X65159533Y37639118D01*
X65261154Y38150000D01*
X65159533Y38660882D01*
X64870142Y39093988D01*
X64437036Y39383379D01*
X63926154Y39485000D01*
X63873846Y39485000D01*
X63362964Y39383379D01*
X62929858Y39093988D01*
X62640467Y38660882D01*
X62538846Y38150000D01*
X62640467Y37639118D01*
X62929858Y37206012D01*
X63313009Y36950000D01*
X62929858Y36693988D01*
X62640467Y36260882D01*
X62538846Y35750000D01*
X62640467Y35239118D01*
X62929858Y34806012D01*
X63362964Y34516621D01*
X63421529Y34504972D01*
X63088200Y34367243D01*
X62684176Y33963923D01*
X62650187Y33882069D01*
X62617243Y33961800D01*
X62213923Y34365824D01*
X61686691Y34584750D01*
X61115813Y34585248D01*
X60588200Y34367243D01*
X60184176Y33963923D01*
X59965250Y33436691D01*
X59964752Y32865813D01*
X58294385Y32865813D01*
X58335001Y33070000D01*
X58210543Y33695688D01*
X57856120Y34226120D01*
X57156121Y34926119D01*
X56625689Y35280542D01*
X56508358Y35303881D01*
X54835000Y36977240D01*
X54835000Y37885617D01*
X55364769Y37885617D01*
X55567582Y37394771D01*
X55942796Y37018902D01*
X56433287Y36815232D01*
X56964383Y36814769D01*
X57455229Y37017582D01*
X57760202Y37322024D01*
X58062796Y37018902D01*
X58228532Y36950082D01*
X58064771Y36882418D01*
X57688902Y36507204D01*
X57485232Y36016713D01*
X57484769Y35485617D01*
X57687582Y34994771D01*
X58062796Y34618902D01*
X58553287Y34415232D01*
X59084383Y34414769D01*
X59575229Y34617582D01*
X59951098Y34992796D01*
X60154768Y35483287D01*
X60155231Y36014383D01*
X59952418Y36505229D01*
X59577204Y36881098D01*
X59411468Y36949918D01*
X59575229Y37017582D01*
X59951098Y37392796D01*
X60154768Y37883287D01*
X60155231Y38414383D01*
X59952418Y38905229D01*
X59577204Y39281098D01*
X59086713Y39484768D01*
X58555617Y39485231D01*
X58064771Y39282418D01*
X57759798Y38977976D01*
X57457204Y39281098D01*
X56966713Y39484768D01*
X56435617Y39485231D01*
X55944771Y39282418D01*
X55568902Y38907204D01*
X55365232Y38416713D01*
X55364769Y37885617D01*
X54835000Y37885617D01*
X54835000Y41949995D01*
X54835001Y41950000D01*
X54710543Y42575688D01*
X54356120Y43106120D01*
X51485001Y45977239D01*
X51485001Y50142637D01*
X51502459Y50116509D01*
X52097776Y49718731D01*
X52800000Y49579050D01*
X53502224Y49718731D01*
X53893429Y49980126D01*
X59914370Y49980126D01*
X60466600Y48643628D01*
X61488249Y47620194D01*
X62823782Y47065632D01*
X64269874Y47064370D01*
X65606372Y47616600D01*
X66629806Y48638249D01*
X67184368Y49973782D01*
X67185630Y51419874D01*
X66633400Y52756372D01*
X65611751Y53779806D01*
X64276218Y54334368D01*
X62830126Y54335630D01*
X61493628Y53783400D01*
X60470194Y52761751D01*
X59915632Y51426218D01*
X59914370Y49980126D01*
X53893429Y49980126D01*
X54097541Y50116509D01*
X54495319Y50711826D01*
X54635000Y51414050D01*
X54635000Y51485950D01*
X54495319Y52188174D01*
X54097541Y52783491D01*
X53502224Y53181269D01*
X52800000Y53320950D01*
X52097776Y53181269D01*
X51502459Y52783491D01*
X51485001Y52757363D01*
X51485001Y54350001D01*
X51360544Y54975688D01*
X51006121Y55506121D01*
X50475688Y55860544D01*
X49850001Y55985001D01*
X49224314Y55860544D01*
X48693881Y55506121D01*
X48339458Y54975688D01*
X48215001Y54350001D01*
X48215001Y53056967D01*
X47666605Y53284681D01*
X46936597Y53285318D01*
X46261914Y53006545D01*
X45745270Y52490801D01*
X45465319Y51816605D01*
X45464682Y51086597D01*
X45743455Y50411914D01*
X46259199Y49895270D01*
X46933395Y49615319D01*
X47663403Y49614682D01*
X48215001Y49842597D01*
X48215001Y45300004D01*
X48215000Y45299999D01*
X48339458Y44674311D01*
X48693881Y44143879D01*
X51565000Y41272760D01*
X51565000Y40043426D01*
X45355000Y46253426D01*
X45355000Y54659173D01*
X45453629Y54757630D01*
X45666757Y55270900D01*
X45667242Y55826661D01*
X45455010Y56340303D01*
X45062370Y56733629D01*
X44685786Y56890000D01*
X55284802Y56890000D01*
X54909697Y56735010D01*
X54516371Y56342370D01*
X54303243Y55829100D01*
X54302758Y55273339D01*
X54514990Y54759697D01*
X54907630Y54366371D01*
X55420900Y54153243D01*
X55976661Y54152758D01*
X56490303Y54364990D01*
X56883629Y54757630D01*
X57096757Y55270900D01*
X57097242Y55826661D01*
X56885010Y56340303D01*
X56492370Y56733629D01*
X56115786Y56890000D01*
X65105908Y56890000D01*
X69690000Y52305908D01*
X69690000Y35538688D01*
X68499345Y36729343D01*
X68445261Y36765481D01*
X68325983Y36845180D01*
X68451441Y36925910D01*
X68596431Y37138110D01*
X68647440Y37390000D01*
X68647440Y39190000D01*
X68603162Y39425317D01*
X68464090Y39641441D01*
X68251890Y39786431D01*
X68000000Y39837440D01*
X66200000Y39837440D01*
X65964683Y39793162D01*
X65748559Y39654090D01*
X65603569Y39441890D01*
X65552560Y39190000D01*
X65552560Y37390000D01*
X65596838Y37154683D01*
X65735910Y36938559D01*
X65948110Y36793569D01*
X65964344Y36790281D01*
X65681845Y36367491D01*
X65565000Y35780072D01*
X65565000Y35719928D01*
X65681845Y35132509D01*
X66014591Y34634519D01*
X66245845Y34480000D01*
X66014591Y34325481D01*
X65681845Y33827491D01*
X65565000Y33240072D01*
X65565000Y33179928D01*
X65681845Y32592509D01*
X66014591Y32094519D01*
X66512581Y31761773D01*
X67100000Y31644928D01*
X67687419Y31761773D01*
X67715001Y31780203D01*
X67715001Y22023687D01*
X65255010Y19563696D01*
X64957189Y19364698D01*
X64646120Y18899151D01*
X64536887Y18350000D01*
X64646120Y17800849D01*
X64957189Y17335302D01*
X65422736Y17024233D01*
X65971887Y16915000D01*
X66028113Y16915000D01*
X66577264Y17024233D01*
X67042811Y17335302D01*
X67241809Y17633123D01*
X69690000Y20081314D01*
X69690000Y13018686D01*
X67241809Y15466877D01*
X67042811Y15764698D01*
X66577264Y16075767D01*
X66028113Y16185000D01*
X65971887Y16185000D01*
X65422736Y16075767D01*
X64957189Y15764698D01*
X64646120Y15299151D01*
X64536887Y14750000D01*
X64646120Y14200849D01*
X64957189Y13735302D01*
X65255010Y13536304D01*
X67715001Y11076313D01*
X67715001Y9837440D01*
X66200000Y9837440D01*
X65964683Y9793162D01*
X65748559Y9654090D01*
X65603569Y9441890D01*
X65552560Y9190000D01*
X65552560Y7390000D01*
X65596838Y7154683D01*
X65735910Y6938559D01*
X65948110Y6793569D01*
X65964344Y6790281D01*
X65681845Y6367491D01*
X65565000Y5780072D01*
X65565000Y5719928D01*
X65681845Y5132509D01*
X66014591Y4634519D01*
X66245845Y4480000D01*
X66014591Y4325481D01*
X65681845Y3827491D01*
X65565000Y3240072D01*
X65565000Y3179928D01*
X65681845Y2592509D01*
X66014591Y2094519D01*
X66512581Y1761773D01*
X67100000Y1644928D01*
X67687419Y1761773D01*
X68185409Y2094519D01*
X68518155Y2592509D01*
X68635000Y3179928D01*
X68635000Y3240072D01*
X68518155Y3827491D01*
X68185409Y4325481D01*
X68126265Y4365000D01*
X68372792Y4365000D01*
X68902809Y4470427D01*
X69352135Y4770657D01*
X69690000Y5108522D01*
X69690000Y810000D01*
X56257603Y810000D01*
X56405687Y839456D01*
X56936119Y1193879D01*
X57056118Y1313879D01*
X57056121Y1313881D01*
X57756120Y2013880D01*
X58110543Y2544312D01*
X58174493Y2865813D01*
X59764752Y2865813D01*
X59982757Y2338200D01*
X60386077Y1934176D01*
X60913309Y1715250D01*
X61484187Y1714752D01*
X62011800Y1932757D01*
X62415824Y2336077D01*
X62449813Y2417931D01*
X62482757Y2338200D01*
X62886077Y1934176D01*
X63413309Y1715250D01*
X63984187Y1714752D01*
X64511800Y1932757D01*
X64915824Y2336077D01*
X65134750Y2863309D01*
X65135248Y3434187D01*
X64917243Y3961800D01*
X64513923Y4365824D01*
X64280503Y4462749D01*
X64655229Y4617582D01*
X65031098Y4992796D01*
X65234768Y5483287D01*
X65235231Y6014383D01*
X65032418Y6505229D01*
X64657204Y6881098D01*
X64488631Y6951096D01*
X64870142Y7206012D01*
X65159533Y7639118D01*
X65261154Y8150000D01*
X65159533Y8660882D01*
X64870142Y9093988D01*
X64437036Y9383379D01*
X63926154Y9485000D01*
X63873846Y9485000D01*
X63362964Y9383379D01*
X62929858Y9093988D01*
X62640467Y8660882D01*
X62538846Y8150000D01*
X62640467Y7639118D01*
X62929858Y7206012D01*
X63311222Y6951194D01*
X63144771Y6882418D01*
X62768902Y6507204D01*
X62565232Y6016713D01*
X62564769Y5485617D01*
X62767582Y4994771D01*
X63142796Y4618902D01*
X63319591Y4545490D01*
X62888200Y4367243D01*
X62484176Y3963923D01*
X62450187Y3882069D01*
X62417243Y3961800D01*
X62013923Y4365824D01*
X61486691Y4584750D01*
X60915813Y4585248D01*
X60388200Y4367243D01*
X59984176Y3963923D01*
X59765250Y3436691D01*
X59764752Y2865813D01*
X58174493Y2865813D01*
X58235001Y3170000D01*
X58110543Y3795688D01*
X57756120Y4326120D01*
X57225688Y4680543D01*
X56600000Y4805001D01*
X55974312Y4680543D01*
X55443880Y4326120D01*
X55102759Y3984999D01*
X53775415Y3984999D01*
X54429806Y4638249D01*
X54984368Y5973782D01*
X54985630Y7419874D01*
X54433400Y8756372D01*
X53411751Y9779806D01*
X52076218Y10334368D01*
X50630126Y10335630D01*
X49293628Y9783400D01*
X48270194Y8761751D01*
X47715632Y7426218D01*
X47714370Y5980126D01*
X48266600Y4643628D01*
X48924080Y3984999D01*
X35227241Y3984999D01*
X34886120Y4326120D01*
X34886117Y4326122D01*
X32435000Y6777240D01*
X32435000Y7802279D01*
X32767796Y7468902D01*
X33258287Y7265232D01*
X33789383Y7264769D01*
X34280229Y7467582D01*
X34656098Y7842796D01*
X34859768Y8333287D01*
X34860231Y8864383D01*
X34657418Y9355229D01*
X34282204Y9731098D01*
X33791713Y9934768D01*
X33260617Y9935231D01*
X32769771Y9732418D01*
X32435000Y9398230D01*
X32435000Y10560866D01*
X32786077Y10209176D01*
X33313309Y9990250D01*
X33884187Y9989752D01*
X34411800Y10207757D01*
X34815824Y10611077D01*
X34849813Y10692931D01*
X34882757Y10613200D01*
X35286077Y10209176D01*
X35813309Y9990250D01*
X36384187Y9989752D01*
X36911800Y10207757D01*
X37315824Y10611077D01*
X37534750Y11138309D01*
X37535248Y11709187D01*
X37317243Y12236800D01*
X36913923Y12640824D01*
X36386691Y12859750D01*
X35815813Y12860248D01*
X35288200Y12642243D01*
X34884176Y12238923D01*
X34850187Y12157069D01*
X34817243Y12236800D01*
X34413923Y12640824D01*
X33886691Y12859750D01*
X33315813Y12860248D01*
X32788200Y12642243D01*
X32435000Y12289658D01*
X32435000Y13502235D01*
X32742796Y13193902D01*
X33233287Y12990232D01*
X33764383Y12989769D01*
X34255229Y13192582D01*
X34477759Y13414725D01*
X40364331Y13414725D01*
X40426169Y13178958D01*
X40927122Y13002581D01*
X41457440Y13031336D01*
X41813831Y13178958D01*
X41875669Y13414725D01*
X41120000Y14170395D01*
X40364331Y13414725D01*
X34477759Y13414725D01*
X34631098Y13567796D01*
X34834768Y14058287D01*
X34835190Y14542878D01*
X39772581Y14542878D01*
X39801336Y14012560D01*
X39948958Y13656169D01*
X40184725Y13594331D01*
X40940395Y14350000D01*
X41299605Y14350000D01*
X42055275Y13594331D01*
X42291042Y13656169D01*
X42467419Y14157122D01*
X42456961Y14350000D01*
X44838846Y14350000D01*
X44940467Y13839118D01*
X45229858Y13406012D01*
X45662964Y13116621D01*
X45748426Y13099622D01*
X45464771Y12982418D01*
X45088902Y12607204D01*
X44885232Y12116713D01*
X44884769Y11585617D01*
X45087582Y11094771D01*
X45462796Y10718902D01*
X45953287Y10515232D01*
X46484383Y10514769D01*
X46975229Y10717582D01*
X47351098Y11092796D01*
X47554768Y11583287D01*
X47555000Y11850000D01*
X49938846Y11850000D01*
X50040467Y11339118D01*
X50329858Y10906012D01*
X50762964Y10616621D01*
X51273846Y10515000D01*
X51326154Y10515000D01*
X51837036Y10616621D01*
X52270142Y10906012D01*
X52559533Y11339118D01*
X52661154Y11850000D01*
X52559533Y12360882D01*
X52270142Y12793988D01*
X51837036Y13083379D01*
X51326154Y13185000D01*
X51273846Y13185000D01*
X50762964Y13083379D01*
X50329858Y12793988D01*
X50040467Y12360882D01*
X49938846Y11850000D01*
X47555000Y11850000D01*
X47555231Y12114383D01*
X47352418Y12605229D01*
X46977204Y12981098D01*
X46678750Y13105027D01*
X46737036Y13116621D01*
X47170142Y13406012D01*
X47459533Y13839118D01*
X47530754Y14197168D01*
X47637757Y13938200D01*
X48041077Y13534176D01*
X48568309Y13315250D01*
X49139187Y13314752D01*
X49666800Y13532757D01*
X50070824Y13936077D01*
X50289750Y14463309D01*
X50290248Y15034187D01*
X50072243Y15561800D01*
X49668923Y15965824D01*
X49141691Y16184750D01*
X48570813Y16185248D01*
X48043200Y15967243D01*
X47639176Y15563923D01*
X47420250Y15036691D01*
X47420148Y14919826D01*
X47170142Y15293988D01*
X46737036Y15583379D01*
X46226154Y15685000D01*
X46173846Y15685000D01*
X45662964Y15583379D01*
X45229858Y15293988D01*
X44940467Y14860882D01*
X44838846Y14350000D01*
X42456961Y14350000D01*
X42438664Y14687440D01*
X42291042Y15043831D01*
X42055275Y15105669D01*
X41299605Y14350000D01*
X40940395Y14350000D01*
X40184725Y15105669D01*
X39948958Y15043831D01*
X39772581Y14542878D01*
X34835190Y14542878D01*
X34835231Y14589383D01*
X34632418Y15080229D01*
X34427730Y15285275D01*
X40364331Y15285275D01*
X41120000Y14529605D01*
X41875669Y15285275D01*
X41813831Y15521042D01*
X41312878Y15697419D01*
X40782560Y15668664D01*
X40426169Y15521042D01*
X40364331Y15285275D01*
X34427730Y15285275D01*
X34257204Y15456098D01*
X33766713Y15659768D01*
X33235617Y15660231D01*
X32744771Y15457418D01*
X32435000Y15148187D01*
X32435000Y18416671D01*
X39827284Y18416671D01*
X39970203Y18071604D01*
X40317337Y17683236D01*
X40786669Y17457273D01*
X40993000Y17579794D01*
X40993000Y18623000D01*
X41247000Y18623000D01*
X41247000Y17579794D01*
X41453331Y17457273D01*
X41922663Y17683236D01*
X42269797Y18071604D01*
X42412716Y18416671D01*
X42289374Y18623000D01*
X41247000Y18623000D01*
X40993000Y18623000D01*
X39950626Y18623000D01*
X39827284Y18416671D01*
X32435000Y18416671D01*
X32435000Y19083329D01*
X39827284Y19083329D01*
X39950626Y18877000D01*
X40993000Y18877000D01*
X40993000Y19920206D01*
X41247000Y19920206D01*
X41247000Y18877000D01*
X42289374Y18877000D01*
X42412716Y19083329D01*
X42269797Y19428396D01*
X41922663Y19816764D01*
X41453331Y20042727D01*
X41247000Y19920206D01*
X40993000Y19920206D01*
X40786669Y20042727D01*
X40317337Y19816764D01*
X39970203Y19428396D01*
X39827284Y19083329D01*
X32435000Y19083329D01*
X32435000Y20842255D01*
X40271861Y20842255D01*
X40345995Y20596136D01*
X40883223Y20403035D01*
X41453454Y20430222D01*
X41854005Y20596136D01*
X41928139Y20842255D01*
X41100000Y21670395D01*
X40271861Y20842255D01*
X32435000Y20842255D01*
X32435000Y22066777D01*
X39653035Y22066777D01*
X39680222Y21496546D01*
X39846136Y21095995D01*
X40092255Y21021861D01*
X40920395Y21850000D01*
X40092255Y22678139D01*
X39846136Y22604005D01*
X39653035Y22066777D01*
X32435000Y22066777D01*
X32435000Y22857745D01*
X40271861Y22857745D01*
X41100000Y22029605D01*
X41928139Y22857745D01*
X41854005Y23103864D01*
X41316777Y23296965D01*
X40746546Y23269778D01*
X40345995Y23103864D01*
X40271861Y22857745D01*
X32435000Y22857745D01*
X32435000Y35966720D01*
X32474104Y36163309D01*
X32474291Y36164250D01*
X34365000Y36164250D01*
X34365000Y35523690D01*
X34461673Y35290301D01*
X34640302Y35111673D01*
X34873691Y35015000D01*
X35514250Y35015000D01*
X35673000Y35173750D01*
X35673000Y36323000D01*
X35927000Y36323000D01*
X35927000Y35173750D01*
X36085750Y35015000D01*
X36726309Y35015000D01*
X36959698Y35111673D01*
X37138327Y35290301D01*
X37235000Y35523690D01*
X37235000Y36164250D01*
X37076250Y36323000D01*
X35927000Y36323000D01*
X35673000Y36323000D01*
X34523750Y36323000D01*
X34365000Y36164250D01*
X32474291Y36164250D01*
X32555001Y36570000D01*
X32555000Y36570005D01*
X32555000Y37376310D01*
X34365000Y37376310D01*
X34365000Y36735750D01*
X34523750Y36577000D01*
X35673000Y36577000D01*
X35673000Y37726250D01*
X35927000Y37726250D01*
X35927000Y36577000D01*
X37076250Y36577000D01*
X37235000Y36735750D01*
X37235000Y37376310D01*
X37138327Y37609699D01*
X36959698Y37788327D01*
X36726309Y37885000D01*
X36085750Y37885000D01*
X35927000Y37726250D01*
X35673000Y37726250D01*
X35514250Y37885000D01*
X34873691Y37885000D01*
X34640302Y37788327D01*
X34461673Y37609699D01*
X34365000Y37376310D01*
X32555000Y37376310D01*
X32555000Y46129364D01*
X32556986Y46127378D01*
X32671861Y46242253D01*
X32745995Y45996136D01*
X33283223Y45803035D01*
X33853454Y45830222D01*
X34254005Y45996136D01*
X34328139Y46242255D01*
X33500000Y47070395D01*
X33485858Y47056252D01*
X33306252Y47235858D01*
X33320395Y47250000D01*
X33679605Y47250000D01*
X34507745Y46421861D01*
X34753864Y46495995D01*
X34946965Y47033223D01*
X34919778Y47603454D01*
X34753864Y48004005D01*
X34507745Y48078139D01*
X33679605Y47250000D01*
X33320395Y47250000D01*
X33306252Y47264142D01*
X33485858Y47443748D01*
X33500000Y47429605D01*
X34328139Y48257745D01*
X34254005Y48503864D01*
X33716777Y48696965D01*
X33146546Y48669778D01*
X32745995Y48503864D01*
X32671861Y48257747D01*
X32556986Y48372622D01*
X32555000Y48370636D01*
X32555000Y54404188D01*
X32693076Y54278355D01*
X33103110Y54108524D01*
X33333000Y54229845D01*
X33333000Y55423000D01*
X33313000Y55423000D01*
X33313000Y55677000D01*
X33333000Y55677000D01*
X33333000Y55697000D01*
X33587000Y55697000D01*
X33587000Y55677000D01*
X33607000Y55677000D01*
X33607000Y55423000D01*
X33587000Y55423000D01*
X33587000Y54229845D01*
X33816890Y54108524D01*
X34226924Y54278355D01*
X34655183Y54668642D01*
X34722298Y54811553D01*
X34949946Y54470853D01*
X35431715Y54148946D01*
X36000000Y54035907D01*
X36568285Y54148946D01*
X37050054Y54470853D01*
X37371961Y54952622D01*
X37485000Y55520907D01*
X37485000Y55579093D01*
X37371961Y56147378D01*
X37050054Y56629147D01*
X36659659Y56890000D01*
X43854802Y56890000D01*
X43479697Y56735010D01*
G36*
X2955876Y1493883D02*
X2955878Y1493880D01*
X3221095Y1316668D01*
X3486310Y1139457D01*
X4111998Y1014999D01*
X4112003Y1015000D01*
X27071629Y1015000D01*
X27071798Y810000D01*
X810000Y810000D01*
X810000Y3639758D01*
X2955876Y1493883D01*
X2955876Y1493883D01*
G37*
X2955876Y1493883D02*
X2955878Y1493880D01*
X3221095Y1316668D01*
X3486310Y1139457D01*
X4111998Y1014999D01*
X4112003Y1015000D01*
X27071629Y1015000D01*
X27071798Y810000D01*
X810000Y810000D01*
X810000Y3639758D01*
X2955876Y1493883D01*
G36*
X18118561Y20753500D02*
X18438118Y20539979D01*
X18815061Y20465000D01*
X19791237Y20465000D01*
X20162964Y20216621D01*
X20673846Y20115000D01*
X20726154Y20115000D01*
X21237036Y20216621D01*
X21670142Y20506012D01*
X21807697Y20711878D01*
X21982757Y20288200D01*
X22386077Y19884176D01*
X22913309Y19665250D01*
X23484187Y19664752D01*
X24011800Y19882757D01*
X24415824Y20286077D01*
X24449813Y20367931D01*
X24482757Y20288200D01*
X24886077Y19884176D01*
X25413309Y19665250D01*
X25984187Y19664752D01*
X26207917Y19757195D01*
X25143746Y18693024D01*
X24672617Y18599310D01*
X24239511Y18309919D01*
X23950120Y17876813D01*
X23848499Y17365931D01*
X23950120Y16855049D01*
X24239511Y16421943D01*
X24416877Y16303431D01*
X24239511Y16184919D01*
X23950120Y15751813D01*
X23848499Y15240931D01*
X23950120Y14730049D01*
X24239511Y14296943D01*
X24414377Y14180101D01*
X24234511Y14059919D01*
X23945120Y13626813D01*
X23843499Y13115931D01*
X23945120Y12605049D01*
X24234511Y12171943D01*
X24393170Y12065931D01*
X24234511Y11959919D01*
X23945120Y11526813D01*
X23843499Y11015931D01*
X23945120Y10505049D01*
X24234511Y10071943D01*
X24380670Y9974283D01*
X24209511Y9859919D01*
X23920120Y9426813D01*
X23818499Y8915931D01*
X23920120Y8405049D01*
X24209511Y7971943D01*
X24380670Y7857579D01*
X24234511Y7759919D01*
X23945120Y7326813D01*
X23843499Y6815931D01*
X23945120Y6305049D01*
X24234511Y5871943D01*
X24667617Y5582552D01*
X25178499Y5480931D01*
X25230807Y5480931D01*
X25741689Y5582552D01*
X26174795Y5871943D01*
X26464186Y6305049D01*
X26565807Y6815931D01*
X26464186Y7326813D01*
X26174795Y7759919D01*
X26003636Y7874283D01*
X26149795Y7971943D01*
X26439186Y8405049D01*
X26540807Y8915931D01*
X26439186Y9426813D01*
X26149795Y9859919D01*
X26003636Y9957579D01*
X26174795Y10071943D01*
X26464186Y10505049D01*
X26565807Y11015931D01*
X26464186Y11526813D01*
X26174795Y11959919D01*
X26016136Y12065931D01*
X26174795Y12171943D01*
X26464186Y12605049D01*
X26565807Y13115931D01*
X26464186Y13626813D01*
X26174795Y14059919D01*
X25999929Y14176761D01*
X26179795Y14296943D01*
X26469186Y14730049D01*
X26570807Y15240931D01*
X26469186Y15751813D01*
X26179795Y16184919D01*
X26002429Y16303431D01*
X26179795Y16421943D01*
X26469186Y16855049D01*
X26562900Y17326178D01*
X27057797Y17821075D01*
X27060667Y14334154D01*
X27058846Y14325000D01*
X27060682Y14315770D01*
X27068938Y4285000D01*
X18845829Y4285000D01*
X18852093Y4315931D01*
X18852093Y6399872D01*
X18992235Y6060702D01*
X19367449Y5684833D01*
X19857940Y5481163D01*
X20389036Y5480700D01*
X20879882Y5683513D01*
X21255751Y6058727D01*
X21459421Y6549218D01*
X21459884Y7080314D01*
X21257071Y7571160D01*
X20950151Y7878616D01*
X21230751Y8158727D01*
X21434421Y8649218D01*
X21434884Y9180314D01*
X21232071Y9671160D01*
X20950107Y9953616D01*
X21255751Y10258727D01*
X21459421Y10749218D01*
X21459884Y11280314D01*
X21257071Y11771160D01*
X20962629Y12066116D01*
X21255751Y12358727D01*
X21459421Y12849218D01*
X21459884Y13380314D01*
X21257071Y13871160D01*
X20952625Y14176138D01*
X21260751Y14483727D01*
X21464421Y14974218D01*
X21464884Y15505314D01*
X21262071Y15996160D01*
X20955129Y16303638D01*
X21260751Y16608727D01*
X21464421Y17099218D01*
X21464884Y17630314D01*
X21262071Y18121160D01*
X20886857Y18497029D01*
X20396366Y18700699D01*
X19865270Y18701162D01*
X19374424Y18498349D01*
X18998555Y18123135D01*
X18794885Y17632644D01*
X18794422Y17101548D01*
X18997235Y16610702D01*
X19304177Y16303224D01*
X18998555Y15998135D01*
X18794885Y15507644D01*
X18794422Y14976548D01*
X18997235Y14485702D01*
X19301681Y14180724D01*
X18993555Y13873135D01*
X18789885Y13382644D01*
X18789422Y12851548D01*
X18992235Y12360702D01*
X19286677Y12065746D01*
X18993555Y11773135D01*
X18789885Y11282644D01*
X18789422Y10751548D01*
X18992235Y10260702D01*
X19274199Y9978246D01*
X18968555Y9673135D01*
X18764885Y9182644D01*
X18764422Y8651548D01*
X18967235Y8160702D01*
X19274155Y7853246D01*
X18993555Y7573135D01*
X18837004Y7196120D01*
X18807815Y7351248D01*
X18668743Y7567372D01*
X18456543Y7712362D01*
X18204653Y7763371D01*
X15404653Y7763371D01*
X15169336Y7719093D01*
X14953212Y7580021D01*
X14808222Y7367821D01*
X14757213Y7115931D01*
X14757213Y4315931D01*
X14763033Y4285000D01*
X13117988Y4285000D01*
X13442448Y4624861D01*
X13710813Y5272771D01*
X13596600Y5588931D01*
X11851653Y5588931D01*
X11851653Y5568931D01*
X11597653Y5568931D01*
X11597653Y5588931D01*
X9852706Y5588931D01*
X9738493Y5272771D01*
X10006858Y4624861D01*
X10331318Y4285000D01*
X7987876Y4285000D01*
X8306372Y4416600D01*
X9329806Y5438249D01*
X9629125Y6159091D01*
X9738493Y6159091D01*
X9852706Y5842931D01*
X11597653Y5842931D01*
X11597653Y7588221D01*
X11851653Y7588221D01*
X11851653Y5842931D01*
X13596600Y5842931D01*
X13710813Y6159091D01*
X13442448Y6807001D01*
X12894154Y7381320D01*
X12167814Y7702098D01*
X11851653Y7588221D01*
X11597653Y7588221D01*
X11281492Y7702098D01*
X10555152Y7381320D01*
X10006858Y6807001D01*
X9738493Y6159091D01*
X9629125Y6159091D01*
X9884368Y6773782D01*
X9885630Y8219874D01*
X9333400Y9556372D01*
X8311751Y10579806D01*
X6976218Y11134368D01*
X5530126Y11135630D01*
X4193628Y10583400D01*
X3170194Y9561751D01*
X3034999Y9236165D01*
X3034999Y11558186D01*
X11276514Y11558186D01*
X11350648Y11312067D01*
X11887876Y11118966D01*
X12458107Y11146153D01*
X12858658Y11312067D01*
X12932792Y11558186D01*
X12104653Y12386326D01*
X11276514Y11558186D01*
X3034999Y11558186D01*
X3034999Y12782708D01*
X10657688Y12782708D01*
X10684875Y12212477D01*
X10850789Y11811926D01*
X11096908Y11737792D01*
X11925048Y12565931D01*
X12284258Y12565931D01*
X13112398Y11737792D01*
X13358517Y11811926D01*
X13551618Y12349154D01*
X13524431Y12919385D01*
X13358517Y13319936D01*
X13205818Y13365931D01*
X15657213Y13365931D01*
X15657213Y11765931D01*
X15701491Y11530614D01*
X15840563Y11314490D01*
X16052763Y11169500D01*
X16304653Y11118491D01*
X17904653Y11118491D01*
X18139970Y11162769D01*
X18356094Y11301841D01*
X18501084Y11514041D01*
X18552093Y11765931D01*
X18552093Y13365931D01*
X18507815Y13601248D01*
X18368743Y13817372D01*
X18156543Y13962362D01*
X17904653Y14013371D01*
X16304653Y14013371D01*
X16069336Y13969093D01*
X15853212Y13830021D01*
X15708222Y13617821D01*
X15657213Y13365931D01*
X13205818Y13365931D01*
X13112398Y13394070D01*
X12284258Y12565931D01*
X11925048Y12565931D01*
X11096908Y13394070D01*
X10850789Y13319936D01*
X10657688Y12782708D01*
X3034999Y12782708D01*
X3034999Y13573676D01*
X11276514Y13573676D01*
X12104653Y12745536D01*
X12932792Y13573676D01*
X12858658Y13819795D01*
X12321430Y14012896D01*
X11751199Y13985709D01*
X11350648Y13819795D01*
X11276514Y13573676D01*
X3034999Y13573676D01*
X3034999Y15022759D01*
X4997239Y16985000D01*
X12300000Y16985000D01*
X12925687Y17109457D01*
X13456120Y17463880D01*
X13810543Y17994313D01*
X13838305Y18133883D01*
X15819248Y20114826D01*
X15884383Y20114769D01*
X16375229Y20317582D01*
X16751098Y20692796D01*
X16954768Y21183287D01*
X16955231Y21714383D01*
X16872342Y21914989D01*
X16957072Y21914989D01*
X18118561Y20753500D01*
X18118561Y20753500D01*
G37*
X18118561Y20753500D02*
X18438118Y20539979D01*
X18815061Y20465000D01*
X19791237Y20465000D01*
X20162964Y20216621D01*
X20673846Y20115000D01*
X20726154Y20115000D01*
X21237036Y20216621D01*
X21670142Y20506012D01*
X21807697Y20711878D01*
X21982757Y20288200D01*
X22386077Y19884176D01*
X22913309Y19665250D01*
X23484187Y19664752D01*
X24011800Y19882757D01*
X24415824Y20286077D01*
X24449813Y20367931D01*
X24482757Y20288200D01*
X24886077Y19884176D01*
X25413309Y19665250D01*
X25984187Y19664752D01*
X26207917Y19757195D01*
X25143746Y18693024D01*
X24672617Y18599310D01*
X24239511Y18309919D01*
X23950120Y17876813D01*
X23848499Y17365931D01*
X23950120Y16855049D01*
X24239511Y16421943D01*
X24416877Y16303431D01*
X24239511Y16184919D01*
X23950120Y15751813D01*
X23848499Y15240931D01*
X23950120Y14730049D01*
X24239511Y14296943D01*
X24414377Y14180101D01*
X24234511Y14059919D01*
X23945120Y13626813D01*
X23843499Y13115931D01*
X23945120Y12605049D01*
X24234511Y12171943D01*
X24393170Y12065931D01*
X24234511Y11959919D01*
X23945120Y11526813D01*
X23843499Y11015931D01*
X23945120Y10505049D01*
X24234511Y10071943D01*
X24380670Y9974283D01*
X24209511Y9859919D01*
X23920120Y9426813D01*
X23818499Y8915931D01*
X23920120Y8405049D01*
X24209511Y7971943D01*
X24380670Y7857579D01*
X24234511Y7759919D01*
X23945120Y7326813D01*
X23843499Y6815931D01*
X23945120Y6305049D01*
X24234511Y5871943D01*
X24667617Y5582552D01*
X25178499Y5480931D01*
X25230807Y5480931D01*
X25741689Y5582552D01*
X26174795Y5871943D01*
X26464186Y6305049D01*
X26565807Y6815931D01*
X26464186Y7326813D01*
X26174795Y7759919D01*
X26003636Y7874283D01*
X26149795Y7971943D01*
X26439186Y8405049D01*
X26540807Y8915931D01*
X26439186Y9426813D01*
X26149795Y9859919D01*
X26003636Y9957579D01*
X26174795Y10071943D01*
X26464186Y10505049D01*
X26565807Y11015931D01*
X26464186Y11526813D01*
X26174795Y11959919D01*
X26016136Y12065931D01*
X26174795Y12171943D01*
X26464186Y12605049D01*
X26565807Y13115931D01*
X26464186Y13626813D01*
X26174795Y14059919D01*
X25999929Y14176761D01*
X26179795Y14296943D01*
X26469186Y14730049D01*
X26570807Y15240931D01*
X26469186Y15751813D01*
X26179795Y16184919D01*
X26002429Y16303431D01*
X26179795Y16421943D01*
X26469186Y16855049D01*
X26562900Y17326178D01*
X27057797Y17821075D01*
X27060667Y14334154D01*
X27058846Y14325000D01*
X27060682Y14315770D01*
X27068938Y4285000D01*
X18845829Y4285000D01*
X18852093Y4315931D01*
X18852093Y6399872D01*
X18992235Y6060702D01*
X19367449Y5684833D01*
X19857940Y5481163D01*
X20389036Y5480700D01*
X20879882Y5683513D01*
X21255751Y6058727D01*
X21459421Y6549218D01*
X21459884Y7080314D01*
X21257071Y7571160D01*
X20950151Y7878616D01*
X21230751Y8158727D01*
X21434421Y8649218D01*
X21434884Y9180314D01*
X21232071Y9671160D01*
X20950107Y9953616D01*
X21255751Y10258727D01*
X21459421Y10749218D01*
X21459884Y11280314D01*
X21257071Y11771160D01*
X20962629Y12066116D01*
X21255751Y12358727D01*
X21459421Y12849218D01*
X21459884Y13380314D01*
X21257071Y13871160D01*
X20952625Y14176138D01*
X21260751Y14483727D01*
X21464421Y14974218D01*
X21464884Y15505314D01*
X21262071Y15996160D01*
X20955129Y16303638D01*
X21260751Y16608727D01*
X21464421Y17099218D01*
X21464884Y17630314D01*
X21262071Y18121160D01*
X20886857Y18497029D01*
X20396366Y18700699D01*
X19865270Y18701162D01*
X19374424Y18498349D01*
X18998555Y18123135D01*
X18794885Y17632644D01*
X18794422Y17101548D01*
X18997235Y16610702D01*
X19304177Y16303224D01*
X18998555Y15998135D01*
X18794885Y15507644D01*
X18794422Y14976548D01*
X18997235Y14485702D01*
X19301681Y14180724D01*
X18993555Y13873135D01*
X18789885Y13382644D01*
X18789422Y12851548D01*
X18992235Y12360702D01*
X19286677Y12065746D01*
X18993555Y11773135D01*
X18789885Y11282644D01*
X18789422Y10751548D01*
X18992235Y10260702D01*
X19274199Y9978246D01*
X18968555Y9673135D01*
X18764885Y9182644D01*
X18764422Y8651548D01*
X18967235Y8160702D01*
X19274155Y7853246D01*
X18993555Y7573135D01*
X18837004Y7196120D01*
X18807815Y7351248D01*
X18668743Y7567372D01*
X18456543Y7712362D01*
X18204653Y7763371D01*
X15404653Y7763371D01*
X15169336Y7719093D01*
X14953212Y7580021D01*
X14808222Y7367821D01*
X14757213Y7115931D01*
X14757213Y4315931D01*
X14763033Y4285000D01*
X13117988Y4285000D01*
X13442448Y4624861D01*
X13710813Y5272771D01*
X13596600Y5588931D01*
X11851653Y5588931D01*
X11851653Y5568931D01*
X11597653Y5568931D01*
X11597653Y5588931D01*
X9852706Y5588931D01*
X9738493Y5272771D01*
X10006858Y4624861D01*
X10331318Y4285000D01*
X7987876Y4285000D01*
X8306372Y4416600D01*
X9329806Y5438249D01*
X9629125Y6159091D01*
X9738493Y6159091D01*
X9852706Y5842931D01*
X11597653Y5842931D01*
X11597653Y7588221D01*
X11851653Y7588221D01*
X11851653Y5842931D01*
X13596600Y5842931D01*
X13710813Y6159091D01*
X13442448Y6807001D01*
X12894154Y7381320D01*
X12167814Y7702098D01*
X11851653Y7588221D01*
X11597653Y7588221D01*
X11281492Y7702098D01*
X10555152Y7381320D01*
X10006858Y6807001D01*
X9738493Y6159091D01*
X9629125Y6159091D01*
X9884368Y6773782D01*
X9885630Y8219874D01*
X9333400Y9556372D01*
X8311751Y10579806D01*
X6976218Y11134368D01*
X5530126Y11135630D01*
X4193628Y10583400D01*
X3170194Y9561751D01*
X3034999Y9236165D01*
X3034999Y11558186D01*
X11276514Y11558186D01*
X11350648Y11312067D01*
X11887876Y11118966D01*
X12458107Y11146153D01*
X12858658Y11312067D01*
X12932792Y11558186D01*
X12104653Y12386326D01*
X11276514Y11558186D01*
X3034999Y11558186D01*
X3034999Y12782708D01*
X10657688Y12782708D01*
X10684875Y12212477D01*
X10850789Y11811926D01*
X11096908Y11737792D01*
X11925048Y12565931D01*
X12284258Y12565931D01*
X13112398Y11737792D01*
X13358517Y11811926D01*
X13551618Y12349154D01*
X13524431Y12919385D01*
X13358517Y13319936D01*
X13205818Y13365931D01*
X15657213Y13365931D01*
X15657213Y11765931D01*
X15701491Y11530614D01*
X15840563Y11314490D01*
X16052763Y11169500D01*
X16304653Y11118491D01*
X17904653Y11118491D01*
X18139970Y11162769D01*
X18356094Y11301841D01*
X18501084Y11514041D01*
X18552093Y11765931D01*
X18552093Y13365931D01*
X18507815Y13601248D01*
X18368743Y13817372D01*
X18156543Y13962362D01*
X17904653Y14013371D01*
X16304653Y14013371D01*
X16069336Y13969093D01*
X15853212Y13830021D01*
X15708222Y13617821D01*
X15657213Y13365931D01*
X13205818Y13365931D01*
X13112398Y13394070D01*
X12284258Y12565931D01*
X11925048Y12565931D01*
X11096908Y13394070D01*
X10850789Y13319936D01*
X10657688Y12782708D01*
X3034999Y12782708D01*
X3034999Y13573676D01*
X11276514Y13573676D01*
X12104653Y12745536D01*
X12932792Y13573676D01*
X12858658Y13819795D01*
X12321430Y14012896D01*
X11751199Y13985709D01*
X11350648Y13819795D01*
X11276514Y13573676D01*
X3034999Y13573676D01*
X3034999Y15022759D01*
X4997239Y16985000D01*
X12300000Y16985000D01*
X12925687Y17109457D01*
X13456120Y17463880D01*
X13810543Y17994313D01*
X13838305Y18133883D01*
X15819248Y20114826D01*
X15884383Y20114769D01*
X16375229Y20317582D01*
X16751098Y20692796D01*
X16954768Y21183287D01*
X16955231Y21714383D01*
X16872342Y21914989D01*
X16957072Y21914989D01*
X18118561Y20753500D01*
G36*
X21998559Y56864090D02*
X21853569Y56651890D01*
X21802560Y56400000D01*
X21802560Y54700000D01*
X21846838Y54464683D01*
X21985910Y54248559D01*
X22198110Y54103569D01*
X22450000Y54052560D01*
X24150000Y54052560D01*
X24385317Y54096838D01*
X24601441Y54235910D01*
X24746431Y54448110D01*
X24768301Y54556107D01*
X25073076Y54278355D01*
X25483110Y54108524D01*
X25713000Y54229845D01*
X25713000Y55423000D01*
X25693000Y55423000D01*
X25693000Y55677000D01*
X25713000Y55677000D01*
X25713000Y55697000D01*
X25967000Y55697000D01*
X25967000Y55677000D01*
X25987000Y55677000D01*
X25987000Y55423000D01*
X25967000Y55423000D01*
X25967000Y54229845D01*
X26196890Y54108524D01*
X26606924Y54278355D01*
X27027476Y54661618D01*
X27029961Y51641326D01*
X26907745Y51678139D01*
X26079605Y50850000D01*
X26907745Y50021861D01*
X27031264Y50059066D01*
X27034534Y46085000D01*
X26338762Y46085000D01*
X24536908Y47886854D01*
X24734750Y48363309D01*
X24735248Y48934187D01*
X24517243Y49461800D01*
X24137451Y49842255D01*
X25071861Y49842255D01*
X25145995Y49596136D01*
X25683223Y49403035D01*
X26253454Y49430222D01*
X26654005Y49596136D01*
X26728139Y49842255D01*
X25900000Y50670395D01*
X25071861Y49842255D01*
X24137451Y49842255D01*
X24113923Y49865824D01*
X24047456Y49893423D01*
X24054005Y49896136D01*
X24128139Y50142255D01*
X23300000Y50970395D01*
X22471861Y50142255D01*
X22545995Y49896136D01*
X22552483Y49893804D01*
X22488200Y49867243D01*
X22084176Y49463923D01*
X21865250Y48936691D01*
X21864752Y48365813D01*
X22082757Y47838200D01*
X22165000Y47755813D01*
X22165000Y47518630D01*
X22251397Y47084284D01*
X22371191Y46905000D01*
X22497434Y46716064D01*
X25066064Y44147434D01*
X25434284Y43901397D01*
X25868630Y43815000D01*
X27036403Y43815000D01*
X27042011Y37000989D01*
X20166500Y43876500D01*
X19846943Y44090021D01*
X19470000Y44165000D01*
X19355444Y44165000D01*
X19412134Y44450000D01*
X19329543Y44865212D01*
X19182685Y45085000D01*
X19329543Y45304788D01*
X19412134Y45720000D01*
X19329543Y46135212D01*
X19094345Y46487211D01*
X18742346Y46722409D01*
X18327134Y46805000D01*
X17672866Y46805000D01*
X17257654Y46722409D01*
X16905655Y46487211D01*
X16670457Y46135212D01*
X16587866Y45720000D01*
X16670457Y45304788D01*
X16817315Y45085000D01*
X16670457Y44865212D01*
X16587866Y44450000D01*
X16670457Y44034788D01*
X16713759Y43969981D01*
X16653569Y43881890D01*
X16602560Y43630000D01*
X16602560Y42730000D01*
X16646838Y42494683D01*
X16785910Y42278559D01*
X16998110Y42133569D01*
X17250000Y42082560D01*
X18750000Y42082560D01*
X18985317Y42126838D01*
X19073450Y42183550D01*
X19501542Y41755458D01*
X19324771Y41682418D01*
X18948902Y41307204D01*
X18745232Y40816713D01*
X18744769Y40285617D01*
X18947582Y39794771D01*
X19322796Y39418902D01*
X19813287Y39215232D01*
X19880405Y39215173D01*
X24065201Y35030377D01*
X24064752Y34515813D01*
X24282757Y33988200D01*
X24686077Y33584176D01*
X25213309Y33365250D01*
X25784187Y33364752D01*
X26311800Y33582757D01*
X26565000Y33835516D01*
X26565000Y32244345D01*
X26334176Y32013923D01*
X26115250Y31486691D01*
X26114752Y30915813D01*
X26332757Y30388200D01*
X26736077Y29984176D01*
X27047893Y29854699D01*
X27048528Y29082950D01*
X26600578Y28635000D01*
X26473455Y28635000D01*
X26467211Y28644345D01*
X26115212Y28879543D01*
X25700000Y28962134D01*
X25284788Y28879543D01*
X25065000Y28732685D01*
X24845212Y28879543D01*
X24430000Y28962134D01*
X24014788Y28879543D01*
X23949981Y28836241D01*
X23861890Y28896431D01*
X23610000Y28947440D01*
X23455560Y28947440D01*
X22184999Y30218001D01*
X22184999Y35250001D01*
X22110020Y35626944D01*
X21896499Y35946501D01*
X21834963Y36008037D01*
X21835248Y36334187D01*
X21617243Y36861800D01*
X21213923Y37265824D01*
X20686691Y37484750D01*
X20115813Y37485248D01*
X19588200Y37267243D01*
X19319417Y36998928D01*
X19303162Y37085317D01*
X19164090Y37301441D01*
X18951890Y37446431D01*
X18700000Y37497440D01*
X17100000Y37497440D01*
X16864683Y37453162D01*
X16648559Y37314090D01*
X16503569Y37101890D01*
X16452560Y36850000D01*
X16452560Y35250000D01*
X16496838Y35014683D01*
X16635910Y34798559D01*
X16848110Y34653569D01*
X17100000Y34602560D01*
X18700000Y34602560D01*
X18935317Y34646838D01*
X19151441Y34785910D01*
X19296431Y34998110D01*
X19317680Y35103041D01*
X19586077Y34834176D01*
X20113309Y34615250D01*
X20214999Y34615161D01*
X20214999Y31097740D01*
X20149383Y31256543D01*
X19768548Y31638043D01*
X19270709Y31844764D01*
X18731656Y31845235D01*
X18233457Y31639383D01*
X17851957Y31258548D01*
X17645236Y30760709D01*
X17644765Y30221656D01*
X17850617Y29723457D01*
X18231452Y29341957D01*
X18525264Y29219955D01*
X18233457Y29099383D01*
X17851957Y28718548D01*
X17645236Y28220709D01*
X17644765Y27681656D01*
X17850617Y27183457D01*
X18231452Y26801957D01*
X18509116Y26686661D01*
X18294131Y26597611D01*
X18229831Y26359774D01*
X19000000Y25589605D01*
X19770169Y26359774D01*
X19705869Y26597611D01*
X19473828Y26679669D01*
X19766543Y26800617D01*
X20148043Y27181452D01*
X20354764Y27679291D01*
X20354967Y27911967D01*
X21030000Y28587000D01*
X22062560Y27554440D01*
X22062560Y26800000D01*
X22103015Y26585000D01*
X21900000Y26585000D01*
X21548093Y26515001D01*
X21523057Y26510021D01*
X21203500Y26296500D01*
X20354888Y25447888D01*
X20338892Y25750644D01*
X20187611Y26115869D01*
X19949774Y26180169D01*
X19179605Y25410000D01*
X19193748Y25395857D01*
X19014143Y25216252D01*
X19000000Y25230395D01*
X18985858Y25216252D01*
X18806253Y25395857D01*
X18820395Y25410000D01*
X18050226Y26180169D01*
X17831108Y26120930D01*
X17810021Y26226943D01*
X17596500Y26546500D01*
X15211987Y28931013D01*
X15510882Y28990467D01*
X15943988Y29279858D01*
X16233379Y29712964D01*
X16335000Y30223846D01*
X16335000Y30276154D01*
X16233379Y30787036D01*
X15943988Y31220142D01*
X15832450Y31294669D01*
X16131098Y31592796D01*
X16334768Y32083287D01*
X16335231Y32614383D01*
X16132418Y33105229D01*
X15757204Y33481098D01*
X15266713Y33684768D01*
X14735617Y33685231D01*
X14244771Y33482418D01*
X13987453Y33225548D01*
X13346500Y33866500D01*
X13026943Y34080021D01*
X12650000Y34155000D01*
X12555444Y34155000D01*
X12612134Y34440000D01*
X12529543Y34855212D01*
X12294345Y35207211D01*
X11942346Y35442409D01*
X11527134Y35525000D01*
X10872866Y35525000D01*
X10457654Y35442409D01*
X10105655Y35207211D01*
X9870457Y34855212D01*
X9787866Y34440000D01*
X9870457Y34024788D01*
X10017315Y33805000D01*
X9870457Y33585212D01*
X9787866Y33170000D01*
X9870457Y32754788D01*
X9913759Y32689981D01*
X9853569Y32601890D01*
X9802560Y32350000D01*
X9802560Y31450000D01*
X9846838Y31214683D01*
X9985910Y30998559D01*
X10198110Y30853569D01*
X10215000Y30850149D01*
X10215000Y29878000D01*
X10204440Y29867440D01*
X9750000Y29867440D01*
X9514683Y29823162D01*
X9298559Y29684090D01*
X9153569Y29471890D01*
X9102560Y29220000D01*
X9102560Y28765560D01*
X8852000Y28515000D01*
X7455444Y28515000D01*
X7512134Y28800000D01*
X7429543Y29215212D01*
X7194345Y29567211D01*
X6842346Y29802409D01*
X6427134Y29885000D01*
X5772866Y29885000D01*
X5357654Y29802409D01*
X5331600Y29785000D01*
X5250000Y29785000D01*
X4873057Y29710021D01*
X4553500Y29496500D01*
X3603500Y28546500D01*
X3389979Y28226943D01*
X3315000Y27850000D01*
X3315000Y24583047D01*
X3168902Y24437204D01*
X2965232Y23946713D01*
X2964769Y23415617D01*
X3167582Y22924771D01*
X3542796Y22548902D01*
X4033287Y22345232D01*
X4564383Y22344769D01*
X5055229Y22547582D01*
X5431098Y22922796D01*
X5634768Y23413287D01*
X5635231Y23944383D01*
X5432418Y24435229D01*
X5285000Y24582904D01*
X5285000Y25175723D01*
X5350000Y25162560D01*
X6850000Y25162560D01*
X7085317Y25206838D01*
X7301441Y25345910D01*
X7446431Y25558110D01*
X7497440Y25810000D01*
X7497440Y26515000D01*
X9144556Y26515000D01*
X9087866Y26230000D01*
X9170457Y25814788D01*
X9405655Y25462789D01*
X9757654Y25227591D01*
X10172866Y25145000D01*
X10827134Y25145000D01*
X11242346Y25227591D01*
X11594345Y25462789D01*
X11829543Y25814788D01*
X11912134Y26230000D01*
X11829543Y26645212D01*
X11682685Y26865000D01*
X11829543Y27084788D01*
X11912134Y27500000D01*
X11829543Y27915212D01*
X11786241Y27980019D01*
X11846431Y28068110D01*
X11897440Y28320000D01*
X11897440Y28774907D01*
X12110021Y29093057D01*
X12185000Y29470000D01*
X12185000Y30846778D01*
X12185317Y30846838D01*
X12365000Y30962461D01*
X12365000Y29400000D01*
X12439979Y29023057D01*
X12653500Y28703500D01*
X14851870Y26505130D01*
X14735617Y26505231D01*
X14244771Y26302418D01*
X13868902Y25927204D01*
X13665232Y25436713D01*
X13664769Y24905617D01*
X13867582Y24414771D01*
X14242796Y24038902D01*
X14613459Y23884989D01*
X14599989Y23884989D01*
X14223046Y23810010D01*
X13903489Y23596489D01*
X13559840Y23252840D01*
X13634768Y23433287D01*
X13635231Y23964383D01*
X13432418Y24455229D01*
X13057204Y24831098D01*
X12566713Y25034768D01*
X12035617Y25035231D01*
X11544771Y24832418D01*
X11168902Y24457204D01*
X10965232Y23966713D01*
X10964769Y23435617D01*
X11167582Y22944771D01*
X11542796Y22568902D01*
X12033287Y22365232D01*
X12564383Y22364769D01*
X12747383Y22440383D01*
X12042000Y21735000D01*
X10648263Y21735000D01*
X10685000Y21823690D01*
X10685000Y22414250D01*
X10526250Y22573000D01*
X9727000Y22573000D01*
X9727000Y22553000D01*
X9473000Y22553000D01*
X9473000Y22573000D01*
X9453000Y22573000D01*
X9453000Y22827000D01*
X9473000Y22827000D01*
X9473000Y23926250D01*
X9727000Y23926250D01*
X9727000Y22827000D01*
X10526250Y22827000D01*
X10685000Y22985750D01*
X10685000Y23576310D01*
X10588327Y23809699D01*
X10409698Y23988327D01*
X10176309Y24085000D01*
X9885750Y24085000D01*
X9727000Y23926250D01*
X9473000Y23926250D01*
X9314250Y24085000D01*
X9023691Y24085000D01*
X8800546Y23992570D01*
X8745212Y24029543D01*
X8330000Y24112134D01*
X7914788Y24029543D01*
X7695000Y23882685D01*
X7475212Y24029543D01*
X7060000Y24112134D01*
X6644788Y24029543D01*
X6292789Y23794345D01*
X6057591Y23442346D01*
X5975000Y23027134D01*
X5975000Y22372866D01*
X6057591Y21957654D01*
X6075000Y21931600D01*
X6075000Y21240000D01*
X6149979Y20863057D01*
X6363500Y20543500D01*
X6652000Y20255000D01*
X4320000Y20255000D01*
X3694312Y20130543D01*
X3481851Y19988581D01*
X3163880Y19776120D01*
X3163878Y19776117D01*
X3143880Y19756120D01*
X3143878Y19756117D01*
X810000Y17422240D01*
X810000Y27228723D01*
X1121604Y26950203D01*
X1466671Y26807284D01*
X1673000Y26930626D01*
X1673000Y27973000D01*
X1927000Y27973000D01*
X1927000Y26930626D01*
X2133329Y26807284D01*
X2478396Y26950203D01*
X2866764Y27297337D01*
X3092727Y27766669D01*
X2970206Y27973000D01*
X1927000Y27973000D01*
X1673000Y27973000D01*
X1653000Y27973000D01*
X1653000Y28227000D01*
X1673000Y28227000D01*
X1673000Y29269374D01*
X1927000Y29269374D01*
X1927000Y28227000D01*
X2970206Y28227000D01*
X3092727Y28433331D01*
X2866764Y28902663D01*
X2478396Y29249797D01*
X2133329Y29392716D01*
X1927000Y29269374D01*
X1673000Y29269374D01*
X1466671Y29392716D01*
X1121604Y29249797D01*
X810000Y28971277D01*
X810000Y32282104D01*
X1042796Y32048902D01*
X1533287Y31845232D01*
X2064383Y31844769D01*
X2555229Y32047582D01*
X2931098Y32422796D01*
X3134768Y32913287D01*
X3135231Y33444383D01*
X2932418Y33935229D01*
X2587848Y34280400D01*
X2605229Y34287582D01*
X2981098Y34662796D01*
X3184768Y35153287D01*
X3185231Y35684383D01*
X2982418Y36175229D01*
X2607204Y36551098D01*
X2116713Y36754768D01*
X1585617Y36755231D01*
X1094771Y36552418D01*
X810000Y36268143D01*
X810000Y39673551D01*
X906012Y39529858D01*
X1339118Y39240467D01*
X1850000Y39138846D01*
X2360882Y39240467D01*
X2793988Y39529858D01*
X3083379Y39962964D01*
X3177093Y40434093D01*
X3817458Y41074458D01*
X3942796Y40948902D01*
X4433287Y40745232D01*
X4964383Y40744769D01*
X5455229Y40947582D01*
X5775229Y41267024D01*
X6092796Y40948902D01*
X6583287Y40745232D01*
X7114383Y40744769D01*
X7415000Y40868981D01*
X7415000Y38223373D01*
X7360882Y38259533D01*
X6850000Y38361154D01*
X6339118Y38259533D01*
X5906012Y37970142D01*
X5775000Y37774068D01*
X5643988Y37970142D01*
X5210882Y38259533D01*
X4700000Y38361154D01*
X4189118Y38259533D01*
X3756012Y37970142D01*
X3466621Y37537036D01*
X3365000Y37026154D01*
X3365000Y36973846D01*
X3466621Y36462964D01*
X3756012Y36029858D01*
X4189118Y35740467D01*
X4700000Y35638846D01*
X5210882Y35740467D01*
X5643988Y36029858D01*
X5775000Y36225932D01*
X5906012Y36029858D01*
X6339118Y35740467D01*
X6850000Y35638846D01*
X7360882Y35740467D01*
X7415000Y35776627D01*
X7415000Y34876977D01*
X7194345Y35207211D01*
X6842346Y35442409D01*
X6427134Y35525000D01*
X5772866Y35525000D01*
X5357654Y35442409D01*
X5005655Y35207211D01*
X4770457Y34855212D01*
X4687866Y34440000D01*
X4770457Y34024788D01*
X4917315Y33805000D01*
X4770457Y33585212D01*
X4687866Y33170000D01*
X4770457Y32754788D01*
X4813759Y32689981D01*
X4753569Y32601890D01*
X4702560Y32350000D01*
X4702560Y31450000D01*
X4746838Y31214683D01*
X4885910Y30998559D01*
X5098110Y30853569D01*
X5350000Y30802560D01*
X6850000Y30802560D01*
X7085317Y30846838D01*
X7301441Y30985910D01*
X7446431Y31198110D01*
X7497440Y31450000D01*
X7497440Y32185000D01*
X7550000Y32185000D01*
X7926943Y32259979D01*
X8246500Y32473500D01*
X9096501Y33323500D01*
X9310021Y33643057D01*
X9385000Y34020000D01*
X9385000Y38970000D01*
X9687866Y38970000D01*
X9770457Y38554788D01*
X9917315Y38335000D01*
X9770457Y38115212D01*
X9687866Y37700000D01*
X9770457Y37284788D01*
X10005655Y36932789D01*
X10357654Y36697591D01*
X10772866Y36615000D01*
X11427134Y36615000D01*
X11842346Y36697591D01*
X12194345Y36932789D01*
X12429543Y37284788D01*
X12463629Y37456154D01*
X13665000Y37456154D01*
X13665000Y37403846D01*
X13766621Y36892964D01*
X14056012Y36459858D01*
X14489118Y36170467D01*
X15000000Y36068846D01*
X15510882Y36170467D01*
X15943988Y36459858D01*
X16233379Y36892964D01*
X16335000Y37403846D01*
X16335000Y37456154D01*
X16233379Y37967036D01*
X15943988Y38400142D01*
X15510882Y38689533D01*
X15000000Y38791154D01*
X14489118Y38689533D01*
X14056012Y38400142D01*
X13766621Y37967036D01*
X13665000Y37456154D01*
X12463629Y37456154D01*
X12512134Y37700000D01*
X12429543Y38115212D01*
X12282685Y38335000D01*
X12429543Y38554788D01*
X12512134Y38970000D01*
X12429543Y39385212D01*
X12386241Y39450019D01*
X12446431Y39538110D01*
X12497440Y39790000D01*
X12497440Y40690000D01*
X12453162Y40925317D01*
X12314090Y41141441D01*
X12101890Y41286431D01*
X11850000Y41337440D01*
X10350000Y41337440D01*
X10114683Y41293162D01*
X9898559Y41154090D01*
X9753569Y40941890D01*
X9702560Y40690000D01*
X9702560Y39790000D01*
X9746838Y39554683D01*
X9813978Y39450345D01*
X9770457Y39385212D01*
X9687866Y38970000D01*
X9385000Y38970000D01*
X9385000Y41498391D01*
X9657122Y41402581D01*
X10187440Y41431336D01*
X10543831Y41578958D01*
X10605669Y41814725D01*
X9850000Y42570395D01*
X9835858Y42556252D01*
X9656253Y42735857D01*
X9670395Y42750000D01*
X10029605Y42750000D01*
X10785275Y41994331D01*
X10922131Y42030226D01*
X11056012Y41829858D01*
X11489118Y41540467D01*
X12000000Y41438846D01*
X12510882Y41540467D01*
X12943988Y41829858D01*
X13075000Y42025932D01*
X13206012Y41829858D01*
X13639118Y41540467D01*
X14011431Y41466409D01*
X13740467Y41060882D01*
X13638846Y40550000D01*
X13740467Y40039118D01*
X14029858Y39606012D01*
X14462964Y39316621D01*
X14973846Y39215000D01*
X15026154Y39215000D01*
X15537036Y39316621D01*
X15970142Y39606012D01*
X16259533Y40039118D01*
X16361154Y40550000D01*
X16259533Y41060882D01*
X15970142Y41493988D01*
X15537036Y41783379D01*
X15118552Y41866621D01*
X15383379Y42262964D01*
X15485000Y42773846D01*
X15485000Y42826154D01*
X15383379Y43337036D01*
X15093988Y43770142D01*
X14660882Y44059533D01*
X14150000Y44161154D01*
X13639118Y44059533D01*
X13206012Y43770142D01*
X13075000Y43574068D01*
X12943988Y43770142D01*
X12510882Y44059533D01*
X12000000Y44161154D01*
X11489118Y44059533D01*
X11056012Y43770142D01*
X10865277Y43484686D01*
X10785275Y43505669D01*
X10029605Y42750000D01*
X9670395Y42750000D01*
X9656253Y42764142D01*
X9835858Y42943748D01*
X9850000Y42929605D01*
X10605669Y43685275D01*
X10543831Y43921042D01*
X10042878Y44097419D01*
X9512560Y44068664D01*
X9385000Y44015827D01*
X9385000Y46561340D01*
X9850000Y46468846D01*
X10360882Y46570467D01*
X10793988Y46859858D01*
X10929531Y47062714D01*
X11242796Y46748902D01*
X11733287Y46545232D01*
X12264383Y46544769D01*
X12755229Y46747582D01*
X13075229Y47067024D01*
X13392796Y46748902D01*
X13883287Y46545232D01*
X14414383Y46544769D01*
X14905229Y46747582D01*
X15281098Y47122796D01*
X15484768Y47613287D01*
X15485092Y47985617D01*
X18714769Y47985617D01*
X18917582Y47494771D01*
X19292796Y47118902D01*
X19783287Y46915232D01*
X20314383Y46914769D01*
X20805229Y47117582D01*
X21181098Y47492796D01*
X21384768Y47983287D01*
X21385231Y48514383D01*
X21182418Y49005229D01*
X20807204Y49381098D01*
X20316713Y49584768D01*
X19785617Y49585231D01*
X19294771Y49382418D01*
X18918902Y49007204D01*
X18715232Y48516713D01*
X18714769Y47985617D01*
X15485092Y47985617D01*
X15485231Y48144383D01*
X15282418Y48635229D01*
X14907204Y49011098D01*
X14416713Y49214768D01*
X13885617Y49215231D01*
X13394771Y49012418D01*
X13074771Y48692976D01*
X12757204Y49011098D01*
X12266713Y49214768D01*
X11735617Y49215231D01*
X11244771Y49012418D01*
X10889272Y48657539D01*
X10793988Y48800142D01*
X10360882Y49089533D01*
X9850000Y49191154D01*
X9385000Y49098660D01*
X9385000Y51542000D01*
X9458037Y51615037D01*
X9784187Y51614752D01*
X10311800Y51832757D01*
X10715824Y52236077D01*
X10749813Y52317931D01*
X10782757Y52238200D01*
X11186077Y51834176D01*
X11713309Y51615250D01*
X12284187Y51614752D01*
X12811800Y51832757D01*
X13215824Y52236077D01*
X13434750Y52763309D01*
X13435248Y53334187D01*
X13217243Y53861800D01*
X12929546Y54150000D01*
X14752560Y54150000D01*
X14752560Y52550000D01*
X14796838Y52314683D01*
X14935910Y52098559D01*
X15148110Y51953569D01*
X15253041Y51932320D01*
X14984176Y51663923D01*
X14765250Y51136691D01*
X14764752Y50565813D01*
X14982757Y50038200D01*
X15386077Y49634176D01*
X15913309Y49415250D01*
X16484187Y49414752D01*
X17011800Y49632757D01*
X17415824Y50036077D01*
X17634750Y50563309D01*
X17635248Y51134187D01*
X17539144Y51366777D01*
X21853035Y51366777D01*
X21880222Y50796546D01*
X22046136Y50395995D01*
X22292255Y50321861D01*
X23120395Y51150000D01*
X23479605Y51150000D01*
X24307745Y50321861D01*
X24525420Y50387427D01*
X24646136Y50095995D01*
X24892255Y50021861D01*
X25720395Y50850000D01*
X24892255Y51678139D01*
X24674580Y51612573D01*
X24573026Y51857745D01*
X25071861Y51857745D01*
X25900000Y51029605D01*
X26728139Y51857745D01*
X26654005Y52103864D01*
X26116777Y52296965D01*
X25546546Y52269778D01*
X25145995Y52103864D01*
X25071861Y51857745D01*
X24573026Y51857745D01*
X24553864Y51904005D01*
X24307745Y51978139D01*
X23479605Y51150000D01*
X23120395Y51150000D01*
X22292255Y51978139D01*
X22046136Y51904005D01*
X21853035Y51366777D01*
X17539144Y51366777D01*
X17417243Y51661800D01*
X17148928Y51930583D01*
X17235317Y51946838D01*
X17451441Y52085910D01*
X17596431Y52298110D01*
X17647440Y52550000D01*
X17647440Y53356154D01*
X18715000Y53356154D01*
X18715000Y53303846D01*
X18816621Y52792964D01*
X19106012Y52359858D01*
X19539118Y52070467D01*
X20050000Y51968846D01*
X20560882Y52070467D01*
X20691503Y52157745D01*
X22471861Y52157745D01*
X23300000Y51329605D01*
X24128139Y52157745D01*
X24054005Y52403864D01*
X23516777Y52596965D01*
X22946546Y52569778D01*
X22545995Y52403864D01*
X22471861Y52157745D01*
X20691503Y52157745D01*
X20993988Y52359858D01*
X21283379Y52792964D01*
X21385000Y53303846D01*
X21385000Y53356154D01*
X21283379Y53867036D01*
X20993988Y54300142D01*
X20560882Y54589533D01*
X20050000Y54691154D01*
X19539118Y54589533D01*
X19106012Y54300142D01*
X18816621Y53867036D01*
X18715000Y53356154D01*
X17647440Y53356154D01*
X17647440Y54150000D01*
X17603162Y54385317D01*
X17464090Y54601441D01*
X17251890Y54746431D01*
X17000000Y54797440D01*
X15400000Y54797440D01*
X15164683Y54753162D01*
X14948559Y54614090D01*
X14803569Y54401890D01*
X14752560Y54150000D01*
X12929546Y54150000D01*
X12813923Y54265824D01*
X12792424Y54274751D01*
X12811800Y54282757D01*
X13215824Y54686077D01*
X13434750Y55213309D01*
X13435248Y55784187D01*
X13217243Y56311800D01*
X12813923Y56715824D01*
X12394461Y56890000D01*
X22038824Y56890000D01*
X21998559Y56864090D01*
X21998559Y56864090D01*
G37*
X21998559Y56864090D02*
X21853569Y56651890D01*
X21802560Y56400000D01*
X21802560Y54700000D01*
X21846838Y54464683D01*
X21985910Y54248559D01*
X22198110Y54103569D01*
X22450000Y54052560D01*
X24150000Y54052560D01*
X24385317Y54096838D01*
X24601441Y54235910D01*
X24746431Y54448110D01*
X24768301Y54556107D01*
X25073076Y54278355D01*
X25483110Y54108524D01*
X25713000Y54229845D01*
X25713000Y55423000D01*
X25693000Y55423000D01*
X25693000Y55677000D01*
X25713000Y55677000D01*
X25713000Y55697000D01*
X25967000Y55697000D01*
X25967000Y55677000D01*
X25987000Y55677000D01*
X25987000Y55423000D01*
X25967000Y55423000D01*
X25967000Y54229845D01*
X26196890Y54108524D01*
X26606924Y54278355D01*
X27027476Y54661618D01*
X27029961Y51641326D01*
X26907745Y51678139D01*
X26079605Y50850000D01*
X26907745Y50021861D01*
X27031264Y50059066D01*
X27034534Y46085000D01*
X26338762Y46085000D01*
X24536908Y47886854D01*
X24734750Y48363309D01*
X24735248Y48934187D01*
X24517243Y49461800D01*
X24137451Y49842255D01*
X25071861Y49842255D01*
X25145995Y49596136D01*
X25683223Y49403035D01*
X26253454Y49430222D01*
X26654005Y49596136D01*
X26728139Y49842255D01*
X25900000Y50670395D01*
X25071861Y49842255D01*
X24137451Y49842255D01*
X24113923Y49865824D01*
X24047456Y49893423D01*
X24054005Y49896136D01*
X24128139Y50142255D01*
X23300000Y50970395D01*
X22471861Y50142255D01*
X22545995Y49896136D01*
X22552483Y49893804D01*
X22488200Y49867243D01*
X22084176Y49463923D01*
X21865250Y48936691D01*
X21864752Y48365813D01*
X22082757Y47838200D01*
X22165000Y47755813D01*
X22165000Y47518630D01*
X22251397Y47084284D01*
X22371191Y46905000D01*
X22497434Y46716064D01*
X25066064Y44147434D01*
X25434284Y43901397D01*
X25868630Y43815000D01*
X27036403Y43815000D01*
X27042011Y37000989D01*
X20166500Y43876500D01*
X19846943Y44090021D01*
X19470000Y44165000D01*
X19355444Y44165000D01*
X19412134Y44450000D01*
X19329543Y44865212D01*
X19182685Y45085000D01*
X19329543Y45304788D01*
X19412134Y45720000D01*
X19329543Y46135212D01*
X19094345Y46487211D01*
X18742346Y46722409D01*
X18327134Y46805000D01*
X17672866Y46805000D01*
X17257654Y46722409D01*
X16905655Y46487211D01*
X16670457Y46135212D01*
X16587866Y45720000D01*
X16670457Y45304788D01*
X16817315Y45085000D01*
X16670457Y44865212D01*
X16587866Y44450000D01*
X16670457Y44034788D01*
X16713759Y43969981D01*
X16653569Y43881890D01*
X16602560Y43630000D01*
X16602560Y42730000D01*
X16646838Y42494683D01*
X16785910Y42278559D01*
X16998110Y42133569D01*
X17250000Y42082560D01*
X18750000Y42082560D01*
X18985317Y42126838D01*
X19073450Y42183550D01*
X19501542Y41755458D01*
X19324771Y41682418D01*
X18948902Y41307204D01*
X18745232Y40816713D01*
X18744769Y40285617D01*
X18947582Y39794771D01*
X19322796Y39418902D01*
X19813287Y39215232D01*
X19880405Y39215173D01*
X24065201Y35030377D01*
X24064752Y34515813D01*
X24282757Y33988200D01*
X24686077Y33584176D01*
X25213309Y33365250D01*
X25784187Y33364752D01*
X26311800Y33582757D01*
X26565000Y33835516D01*
X26565000Y32244345D01*
X26334176Y32013923D01*
X26115250Y31486691D01*
X26114752Y30915813D01*
X26332757Y30388200D01*
X26736077Y29984176D01*
X27047893Y29854699D01*
X27048528Y29082950D01*
X26600578Y28635000D01*
X26473455Y28635000D01*
X26467211Y28644345D01*
X26115212Y28879543D01*
X25700000Y28962134D01*
X25284788Y28879543D01*
X25065000Y28732685D01*
X24845212Y28879543D01*
X24430000Y28962134D01*
X24014788Y28879543D01*
X23949981Y28836241D01*
X23861890Y28896431D01*
X23610000Y28947440D01*
X23455560Y28947440D01*
X22184999Y30218001D01*
X22184999Y35250001D01*
X22110020Y35626944D01*
X21896499Y35946501D01*
X21834963Y36008037D01*
X21835248Y36334187D01*
X21617243Y36861800D01*
X21213923Y37265824D01*
X20686691Y37484750D01*
X20115813Y37485248D01*
X19588200Y37267243D01*
X19319417Y36998928D01*
X19303162Y37085317D01*
X19164090Y37301441D01*
X18951890Y37446431D01*
X18700000Y37497440D01*
X17100000Y37497440D01*
X16864683Y37453162D01*
X16648559Y37314090D01*
X16503569Y37101890D01*
X16452560Y36850000D01*
X16452560Y35250000D01*
X16496838Y35014683D01*
X16635910Y34798559D01*
X16848110Y34653569D01*
X17100000Y34602560D01*
X18700000Y34602560D01*
X18935317Y34646838D01*
X19151441Y34785910D01*
X19296431Y34998110D01*
X19317680Y35103041D01*
X19586077Y34834176D01*
X20113309Y34615250D01*
X20214999Y34615161D01*
X20214999Y31097740D01*
X20149383Y31256543D01*
X19768548Y31638043D01*
X19270709Y31844764D01*
X18731656Y31845235D01*
X18233457Y31639383D01*
X17851957Y31258548D01*
X17645236Y30760709D01*
X17644765Y30221656D01*
X17850617Y29723457D01*
X18231452Y29341957D01*
X18525264Y29219955D01*
X18233457Y29099383D01*
X17851957Y28718548D01*
X17645236Y28220709D01*
X17644765Y27681656D01*
X17850617Y27183457D01*
X18231452Y26801957D01*
X18509116Y26686661D01*
X18294131Y26597611D01*
X18229831Y26359774D01*
X19000000Y25589605D01*
X19770169Y26359774D01*
X19705869Y26597611D01*
X19473828Y26679669D01*
X19766543Y26800617D01*
X20148043Y27181452D01*
X20354764Y27679291D01*
X20354967Y27911967D01*
X21030000Y28587000D01*
X22062560Y27554440D01*
X22062560Y26800000D01*
X22103015Y26585000D01*
X21900000Y26585000D01*
X21548093Y26515001D01*
X21523057Y26510021D01*
X21203500Y26296500D01*
X20354888Y25447888D01*
X20338892Y25750644D01*
X20187611Y26115869D01*
X19949774Y26180169D01*
X19179605Y25410000D01*
X19193748Y25395857D01*
X19014143Y25216252D01*
X19000000Y25230395D01*
X18985858Y25216252D01*
X18806253Y25395857D01*
X18820395Y25410000D01*
X18050226Y26180169D01*
X17831108Y26120930D01*
X17810021Y26226943D01*
X17596500Y26546500D01*
X15211987Y28931013D01*
X15510882Y28990467D01*
X15943988Y29279858D01*
X16233379Y29712964D01*
X16335000Y30223846D01*
X16335000Y30276154D01*
X16233379Y30787036D01*
X15943988Y31220142D01*
X15832450Y31294669D01*
X16131098Y31592796D01*
X16334768Y32083287D01*
X16335231Y32614383D01*
X16132418Y33105229D01*
X15757204Y33481098D01*
X15266713Y33684768D01*
X14735617Y33685231D01*
X14244771Y33482418D01*
X13987453Y33225548D01*
X13346500Y33866500D01*
X13026943Y34080021D01*
X12650000Y34155000D01*
X12555444Y34155000D01*
X12612134Y34440000D01*
X12529543Y34855212D01*
X12294345Y35207211D01*
X11942346Y35442409D01*
X11527134Y35525000D01*
X10872866Y35525000D01*
X10457654Y35442409D01*
X10105655Y35207211D01*
X9870457Y34855212D01*
X9787866Y34440000D01*
X9870457Y34024788D01*
X10017315Y33805000D01*
X9870457Y33585212D01*
X9787866Y33170000D01*
X9870457Y32754788D01*
X9913759Y32689981D01*
X9853569Y32601890D01*
X9802560Y32350000D01*
X9802560Y31450000D01*
X9846838Y31214683D01*
X9985910Y30998559D01*
X10198110Y30853569D01*
X10215000Y30850149D01*
X10215000Y29878000D01*
X10204440Y29867440D01*
X9750000Y29867440D01*
X9514683Y29823162D01*
X9298559Y29684090D01*
X9153569Y29471890D01*
X9102560Y29220000D01*
X9102560Y28765560D01*
X8852000Y28515000D01*
X7455444Y28515000D01*
X7512134Y28800000D01*
X7429543Y29215212D01*
X7194345Y29567211D01*
X6842346Y29802409D01*
X6427134Y29885000D01*
X5772866Y29885000D01*
X5357654Y29802409D01*
X5331600Y29785000D01*
X5250000Y29785000D01*
X4873057Y29710021D01*
X4553500Y29496500D01*
X3603500Y28546500D01*
X3389979Y28226943D01*
X3315000Y27850000D01*
X3315000Y24583047D01*
X3168902Y24437204D01*
X2965232Y23946713D01*
X2964769Y23415617D01*
X3167582Y22924771D01*
X3542796Y22548902D01*
X4033287Y22345232D01*
X4564383Y22344769D01*
X5055229Y22547582D01*
X5431098Y22922796D01*
X5634768Y23413287D01*
X5635231Y23944383D01*
X5432418Y24435229D01*
X5285000Y24582904D01*
X5285000Y25175723D01*
X5350000Y25162560D01*
X6850000Y25162560D01*
X7085317Y25206838D01*
X7301441Y25345910D01*
X7446431Y25558110D01*
X7497440Y25810000D01*
X7497440Y26515000D01*
X9144556Y26515000D01*
X9087866Y26230000D01*
X9170457Y25814788D01*
X9405655Y25462789D01*
X9757654Y25227591D01*
X10172866Y25145000D01*
X10827134Y25145000D01*
X11242346Y25227591D01*
X11594345Y25462789D01*
X11829543Y25814788D01*
X11912134Y26230000D01*
X11829543Y26645212D01*
X11682685Y26865000D01*
X11829543Y27084788D01*
X11912134Y27500000D01*
X11829543Y27915212D01*
X11786241Y27980019D01*
X11846431Y28068110D01*
X11897440Y28320000D01*
X11897440Y28774907D01*
X12110021Y29093057D01*
X12185000Y29470000D01*
X12185000Y30846778D01*
X12185317Y30846838D01*
X12365000Y30962461D01*
X12365000Y29400000D01*
X12439979Y29023057D01*
X12653500Y28703500D01*
X14851870Y26505130D01*
X14735617Y26505231D01*
X14244771Y26302418D01*
X13868902Y25927204D01*
X13665232Y25436713D01*
X13664769Y24905617D01*
X13867582Y24414771D01*
X14242796Y24038902D01*
X14613459Y23884989D01*
X14599989Y23884989D01*
X14223046Y23810010D01*
X13903489Y23596489D01*
X13559840Y23252840D01*
X13634768Y23433287D01*
X13635231Y23964383D01*
X13432418Y24455229D01*
X13057204Y24831098D01*
X12566713Y25034768D01*
X12035617Y25035231D01*
X11544771Y24832418D01*
X11168902Y24457204D01*
X10965232Y23966713D01*
X10964769Y23435617D01*
X11167582Y22944771D01*
X11542796Y22568902D01*
X12033287Y22365232D01*
X12564383Y22364769D01*
X12747383Y22440383D01*
X12042000Y21735000D01*
X10648263Y21735000D01*
X10685000Y21823690D01*
X10685000Y22414250D01*
X10526250Y22573000D01*
X9727000Y22573000D01*
X9727000Y22553000D01*
X9473000Y22553000D01*
X9473000Y22573000D01*
X9453000Y22573000D01*
X9453000Y22827000D01*
X9473000Y22827000D01*
X9473000Y23926250D01*
X9727000Y23926250D01*
X9727000Y22827000D01*
X10526250Y22827000D01*
X10685000Y22985750D01*
X10685000Y23576310D01*
X10588327Y23809699D01*
X10409698Y23988327D01*
X10176309Y24085000D01*
X9885750Y24085000D01*
X9727000Y23926250D01*
X9473000Y23926250D01*
X9314250Y24085000D01*
X9023691Y24085000D01*
X8800546Y23992570D01*
X8745212Y24029543D01*
X8330000Y24112134D01*
X7914788Y24029543D01*
X7695000Y23882685D01*
X7475212Y24029543D01*
X7060000Y24112134D01*
X6644788Y24029543D01*
X6292789Y23794345D01*
X6057591Y23442346D01*
X5975000Y23027134D01*
X5975000Y22372866D01*
X6057591Y21957654D01*
X6075000Y21931600D01*
X6075000Y21240000D01*
X6149979Y20863057D01*
X6363500Y20543500D01*
X6652000Y20255000D01*
X4320000Y20255000D01*
X3694312Y20130543D01*
X3481851Y19988581D01*
X3163880Y19776120D01*
X3163878Y19776117D01*
X3143880Y19756120D01*
X3143878Y19756117D01*
X810000Y17422240D01*
X810000Y27228723D01*
X1121604Y26950203D01*
X1466671Y26807284D01*
X1673000Y26930626D01*
X1673000Y27973000D01*
X1927000Y27973000D01*
X1927000Y26930626D01*
X2133329Y26807284D01*
X2478396Y26950203D01*
X2866764Y27297337D01*
X3092727Y27766669D01*
X2970206Y27973000D01*
X1927000Y27973000D01*
X1673000Y27973000D01*
X1653000Y27973000D01*
X1653000Y28227000D01*
X1673000Y28227000D01*
X1673000Y29269374D01*
X1927000Y29269374D01*
X1927000Y28227000D01*
X2970206Y28227000D01*
X3092727Y28433331D01*
X2866764Y28902663D01*
X2478396Y29249797D01*
X2133329Y29392716D01*
X1927000Y29269374D01*
X1673000Y29269374D01*
X1466671Y29392716D01*
X1121604Y29249797D01*
X810000Y28971277D01*
X810000Y32282104D01*
X1042796Y32048902D01*
X1533287Y31845232D01*
X2064383Y31844769D01*
X2555229Y32047582D01*
X2931098Y32422796D01*
X3134768Y32913287D01*
X3135231Y33444383D01*
X2932418Y33935229D01*
X2587848Y34280400D01*
X2605229Y34287582D01*
X2981098Y34662796D01*
X3184768Y35153287D01*
X3185231Y35684383D01*
X2982418Y36175229D01*
X2607204Y36551098D01*
X2116713Y36754768D01*
X1585617Y36755231D01*
X1094771Y36552418D01*
X810000Y36268143D01*
X810000Y39673551D01*
X906012Y39529858D01*
X1339118Y39240467D01*
X1850000Y39138846D01*
X2360882Y39240467D01*
X2793988Y39529858D01*
X3083379Y39962964D01*
X3177093Y40434093D01*
X3817458Y41074458D01*
X3942796Y40948902D01*
X4433287Y40745232D01*
X4964383Y40744769D01*
X5455229Y40947582D01*
X5775229Y41267024D01*
X6092796Y40948902D01*
X6583287Y40745232D01*
X7114383Y40744769D01*
X7415000Y40868981D01*
X7415000Y38223373D01*
X7360882Y38259533D01*
X6850000Y38361154D01*
X6339118Y38259533D01*
X5906012Y37970142D01*
X5775000Y37774068D01*
X5643988Y37970142D01*
X5210882Y38259533D01*
X4700000Y38361154D01*
X4189118Y38259533D01*
X3756012Y37970142D01*
X3466621Y37537036D01*
X3365000Y37026154D01*
X3365000Y36973846D01*
X3466621Y36462964D01*
X3756012Y36029858D01*
X4189118Y35740467D01*
X4700000Y35638846D01*
X5210882Y35740467D01*
X5643988Y36029858D01*
X5775000Y36225932D01*
X5906012Y36029858D01*
X6339118Y35740467D01*
X6850000Y35638846D01*
X7360882Y35740467D01*
X7415000Y35776627D01*
X7415000Y34876977D01*
X7194345Y35207211D01*
X6842346Y35442409D01*
X6427134Y35525000D01*
X5772866Y35525000D01*
X5357654Y35442409D01*
X5005655Y35207211D01*
X4770457Y34855212D01*
X4687866Y34440000D01*
X4770457Y34024788D01*
X4917315Y33805000D01*
X4770457Y33585212D01*
X4687866Y33170000D01*
X4770457Y32754788D01*
X4813759Y32689981D01*
X4753569Y32601890D01*
X4702560Y32350000D01*
X4702560Y31450000D01*
X4746838Y31214683D01*
X4885910Y30998559D01*
X5098110Y30853569D01*
X5350000Y30802560D01*
X6850000Y30802560D01*
X7085317Y30846838D01*
X7301441Y30985910D01*
X7446431Y31198110D01*
X7497440Y31450000D01*
X7497440Y32185000D01*
X7550000Y32185000D01*
X7926943Y32259979D01*
X8246500Y32473500D01*
X9096501Y33323500D01*
X9310021Y33643057D01*
X9385000Y34020000D01*
X9385000Y38970000D01*
X9687866Y38970000D01*
X9770457Y38554788D01*
X9917315Y38335000D01*
X9770457Y38115212D01*
X9687866Y37700000D01*
X9770457Y37284788D01*
X10005655Y36932789D01*
X10357654Y36697591D01*
X10772866Y36615000D01*
X11427134Y36615000D01*
X11842346Y36697591D01*
X12194345Y36932789D01*
X12429543Y37284788D01*
X12463629Y37456154D01*
X13665000Y37456154D01*
X13665000Y37403846D01*
X13766621Y36892964D01*
X14056012Y36459858D01*
X14489118Y36170467D01*
X15000000Y36068846D01*
X15510882Y36170467D01*
X15943988Y36459858D01*
X16233379Y36892964D01*
X16335000Y37403846D01*
X16335000Y37456154D01*
X16233379Y37967036D01*
X15943988Y38400142D01*
X15510882Y38689533D01*
X15000000Y38791154D01*
X14489118Y38689533D01*
X14056012Y38400142D01*
X13766621Y37967036D01*
X13665000Y37456154D01*
X12463629Y37456154D01*
X12512134Y37700000D01*
X12429543Y38115212D01*
X12282685Y38335000D01*
X12429543Y38554788D01*
X12512134Y38970000D01*
X12429543Y39385212D01*
X12386241Y39450019D01*
X12446431Y39538110D01*
X12497440Y39790000D01*
X12497440Y40690000D01*
X12453162Y40925317D01*
X12314090Y41141441D01*
X12101890Y41286431D01*
X11850000Y41337440D01*
X10350000Y41337440D01*
X10114683Y41293162D01*
X9898559Y41154090D01*
X9753569Y40941890D01*
X9702560Y40690000D01*
X9702560Y39790000D01*
X9746838Y39554683D01*
X9813978Y39450345D01*
X9770457Y39385212D01*
X9687866Y38970000D01*
X9385000Y38970000D01*
X9385000Y41498391D01*
X9657122Y41402581D01*
X10187440Y41431336D01*
X10543831Y41578958D01*
X10605669Y41814725D01*
X9850000Y42570395D01*
X9835858Y42556252D01*
X9656253Y42735857D01*
X9670395Y42750000D01*
X10029605Y42750000D01*
X10785275Y41994331D01*
X10922131Y42030226D01*
X11056012Y41829858D01*
X11489118Y41540467D01*
X12000000Y41438846D01*
X12510882Y41540467D01*
X12943988Y41829858D01*
X13075000Y42025932D01*
X13206012Y41829858D01*
X13639118Y41540467D01*
X14011431Y41466409D01*
X13740467Y41060882D01*
X13638846Y40550000D01*
X13740467Y40039118D01*
X14029858Y39606012D01*
X14462964Y39316621D01*
X14973846Y39215000D01*
X15026154Y39215000D01*
X15537036Y39316621D01*
X15970142Y39606012D01*
X16259533Y40039118D01*
X16361154Y40550000D01*
X16259533Y41060882D01*
X15970142Y41493988D01*
X15537036Y41783379D01*
X15118552Y41866621D01*
X15383379Y42262964D01*
X15485000Y42773846D01*
X15485000Y42826154D01*
X15383379Y43337036D01*
X15093988Y43770142D01*
X14660882Y44059533D01*
X14150000Y44161154D01*
X13639118Y44059533D01*
X13206012Y43770142D01*
X13075000Y43574068D01*
X12943988Y43770142D01*
X12510882Y44059533D01*
X12000000Y44161154D01*
X11489118Y44059533D01*
X11056012Y43770142D01*
X10865277Y43484686D01*
X10785275Y43505669D01*
X10029605Y42750000D01*
X9670395Y42750000D01*
X9656253Y42764142D01*
X9835858Y42943748D01*
X9850000Y42929605D01*
X10605669Y43685275D01*
X10543831Y43921042D01*
X10042878Y44097419D01*
X9512560Y44068664D01*
X9385000Y44015827D01*
X9385000Y46561340D01*
X9850000Y46468846D01*
X10360882Y46570467D01*
X10793988Y46859858D01*
X10929531Y47062714D01*
X11242796Y46748902D01*
X11733287Y46545232D01*
X12264383Y46544769D01*
X12755229Y46747582D01*
X13075229Y47067024D01*
X13392796Y46748902D01*
X13883287Y46545232D01*
X14414383Y46544769D01*
X14905229Y46747582D01*
X15281098Y47122796D01*
X15484768Y47613287D01*
X15485092Y47985617D01*
X18714769Y47985617D01*
X18917582Y47494771D01*
X19292796Y47118902D01*
X19783287Y46915232D01*
X20314383Y46914769D01*
X20805229Y47117582D01*
X21181098Y47492796D01*
X21384768Y47983287D01*
X21385231Y48514383D01*
X21182418Y49005229D01*
X20807204Y49381098D01*
X20316713Y49584768D01*
X19785617Y49585231D01*
X19294771Y49382418D01*
X18918902Y49007204D01*
X18715232Y48516713D01*
X18714769Y47985617D01*
X15485092Y47985617D01*
X15485231Y48144383D01*
X15282418Y48635229D01*
X14907204Y49011098D01*
X14416713Y49214768D01*
X13885617Y49215231D01*
X13394771Y49012418D01*
X13074771Y48692976D01*
X12757204Y49011098D01*
X12266713Y49214768D01*
X11735617Y49215231D01*
X11244771Y49012418D01*
X10889272Y48657539D01*
X10793988Y48800142D01*
X10360882Y49089533D01*
X9850000Y49191154D01*
X9385000Y49098660D01*
X9385000Y51542000D01*
X9458037Y51615037D01*
X9784187Y51614752D01*
X10311800Y51832757D01*
X10715824Y52236077D01*
X10749813Y52317931D01*
X10782757Y52238200D01*
X11186077Y51834176D01*
X11713309Y51615250D01*
X12284187Y51614752D01*
X12811800Y51832757D01*
X13215824Y52236077D01*
X13434750Y52763309D01*
X13435248Y53334187D01*
X13217243Y53861800D01*
X12929546Y54150000D01*
X14752560Y54150000D01*
X14752560Y52550000D01*
X14796838Y52314683D01*
X14935910Y52098559D01*
X15148110Y51953569D01*
X15253041Y51932320D01*
X14984176Y51663923D01*
X14765250Y51136691D01*
X14764752Y50565813D01*
X14982757Y50038200D01*
X15386077Y49634176D01*
X15913309Y49415250D01*
X16484187Y49414752D01*
X17011800Y49632757D01*
X17415824Y50036077D01*
X17634750Y50563309D01*
X17635248Y51134187D01*
X17539144Y51366777D01*
X21853035Y51366777D01*
X21880222Y50796546D01*
X22046136Y50395995D01*
X22292255Y50321861D01*
X23120395Y51150000D01*
X23479605Y51150000D01*
X24307745Y50321861D01*
X24525420Y50387427D01*
X24646136Y50095995D01*
X24892255Y50021861D01*
X25720395Y50850000D01*
X24892255Y51678139D01*
X24674580Y51612573D01*
X24573026Y51857745D01*
X25071861Y51857745D01*
X25900000Y51029605D01*
X26728139Y51857745D01*
X26654005Y52103864D01*
X26116777Y52296965D01*
X25546546Y52269778D01*
X25145995Y52103864D01*
X25071861Y51857745D01*
X24573026Y51857745D01*
X24553864Y51904005D01*
X24307745Y51978139D01*
X23479605Y51150000D01*
X23120395Y51150000D01*
X22292255Y51978139D01*
X22046136Y51904005D01*
X21853035Y51366777D01*
X17539144Y51366777D01*
X17417243Y51661800D01*
X17148928Y51930583D01*
X17235317Y51946838D01*
X17451441Y52085910D01*
X17596431Y52298110D01*
X17647440Y52550000D01*
X17647440Y53356154D01*
X18715000Y53356154D01*
X18715000Y53303846D01*
X18816621Y52792964D01*
X19106012Y52359858D01*
X19539118Y52070467D01*
X20050000Y51968846D01*
X20560882Y52070467D01*
X20691503Y52157745D01*
X22471861Y52157745D01*
X23300000Y51329605D01*
X24128139Y52157745D01*
X24054005Y52403864D01*
X23516777Y52596965D01*
X22946546Y52569778D01*
X22545995Y52403864D01*
X22471861Y52157745D01*
X20691503Y52157745D01*
X20993988Y52359858D01*
X21283379Y52792964D01*
X21385000Y53303846D01*
X21385000Y53356154D01*
X21283379Y53867036D01*
X20993988Y54300142D01*
X20560882Y54589533D01*
X20050000Y54691154D01*
X19539118Y54589533D01*
X19106012Y54300142D01*
X18816621Y53867036D01*
X18715000Y53356154D01*
X17647440Y53356154D01*
X17647440Y54150000D01*
X17603162Y54385317D01*
X17464090Y54601441D01*
X17251890Y54746431D01*
X17000000Y54797440D01*
X15400000Y54797440D01*
X15164683Y54753162D01*
X14948559Y54614090D01*
X14803569Y54401890D01*
X14752560Y54150000D01*
X12929546Y54150000D01*
X12813923Y54265824D01*
X12792424Y54274751D01*
X12811800Y54282757D01*
X13215824Y54686077D01*
X13434750Y55213309D01*
X13435248Y55784187D01*
X13217243Y56311800D01*
X12813923Y56715824D01*
X12394461Y56890000D01*
X22038824Y56890000D01*
X21998559Y56864090D01*
G36*
X4702560Y44200000D02*
X4746838Y43964683D01*
X4885910Y43748559D01*
X5098110Y43603569D01*
X5350000Y43552560D01*
X6850000Y43552560D01*
X7085317Y43596838D01*
X7301441Y43735910D01*
X7415000Y43902109D01*
X7415000Y43290908D01*
X7116713Y43414768D01*
X6585617Y43415231D01*
X6094771Y43212418D01*
X5774771Y42892976D01*
X5457204Y43211098D01*
X4966713Y43414768D01*
X4435617Y43415231D01*
X4235001Y43332338D01*
X4235001Y43852003D01*
X4702560Y44319562D01*
X4702560Y44200000D01*
X4702560Y44200000D01*
G37*
X4702560Y44200000D02*
X4746838Y43964683D01*
X4885910Y43748559D01*
X5098110Y43603569D01*
X5350000Y43552560D01*
X6850000Y43552560D01*
X7085317Y43596838D01*
X7301441Y43735910D01*
X7415000Y43902109D01*
X7415000Y43290908D01*
X7116713Y43414768D01*
X6585617Y43415231D01*
X6094771Y43212418D01*
X5774771Y42892976D01*
X5457204Y43211098D01*
X4966713Y43414768D01*
X4435617Y43415231D01*
X4235001Y43332338D01*
X4235001Y43852003D01*
X4702560Y44319562D01*
X4702560Y44200000D01*
G36*
X1116600Y51043628D02*
X2138249Y50020194D01*
X3473782Y49465632D01*
X4919874Y49464370D01*
X6256372Y50016600D01*
X7279806Y51038249D01*
X7415000Y51363832D01*
X7415000Y47626977D01*
X7194345Y47957211D01*
X6842346Y48192409D01*
X6427134Y48275000D01*
X5772866Y48275000D01*
X5357654Y48192409D01*
X5005655Y47957211D01*
X4770457Y47605212D01*
X4687866Y47190000D01*
X4750853Y46873344D01*
X4533055Y46830021D01*
X4213498Y46616500D01*
X2553501Y44956503D01*
X2339980Y44636946D01*
X2265001Y44260003D01*
X2265001Y43973193D01*
X2116713Y44034768D01*
X1585617Y44035231D01*
X1094771Y43832418D01*
X810000Y43548143D01*
X810000Y46953551D01*
X906012Y46809858D01*
X1339118Y46520467D01*
X1850000Y46418846D01*
X2360882Y46520467D01*
X2793988Y46809858D01*
X3083379Y47242964D01*
X3185000Y47753846D01*
X3185000Y47806154D01*
X3083379Y48317036D01*
X2793988Y48750142D01*
X2360882Y49039533D01*
X1850000Y49141154D01*
X1339118Y49039533D01*
X906012Y48750142D01*
X810000Y48606449D01*
X810000Y51785656D01*
X1116600Y51043628D01*
X1116600Y51043628D01*
G37*
X1116600Y51043628D02*
X2138249Y50020194D01*
X3473782Y49465632D01*
X4919874Y49464370D01*
X6256372Y50016600D01*
X7279806Y51038249D01*
X7415000Y51363832D01*
X7415000Y47626977D01*
X7194345Y47957211D01*
X6842346Y48192409D01*
X6427134Y48275000D01*
X5772866Y48275000D01*
X5357654Y48192409D01*
X5005655Y47957211D01*
X4770457Y47605212D01*
X4687866Y47190000D01*
X4750853Y46873344D01*
X4533055Y46830021D01*
X4213498Y46616500D01*
X2553501Y44956503D01*
X2339980Y44636946D01*
X2265001Y44260003D01*
X2265001Y43973193D01*
X2116713Y44034768D01*
X1585617Y44035231D01*
X1094771Y43832418D01*
X810000Y43548143D01*
X810000Y46953551D01*
X906012Y46809858D01*
X1339118Y46520467D01*
X1850000Y46418846D01*
X2360882Y46520467D01*
X2793988Y46809858D01*
X3083379Y47242964D01*
X3185000Y47753846D01*
X3185000Y47806154D01*
X3083379Y48317036D01*
X2793988Y48750142D01*
X2360882Y49039533D01*
X1850000Y49141154D01*
X1339118Y49039533D01*
X906012Y48750142D01*
X810000Y48606449D01*
X810000Y51785656D01*
X1116600Y51043628D01*
G36*
X8688200Y56717243D02*
X8284176Y56313923D01*
X8065250Y55786691D01*
X8064752Y55215813D01*
X8282757Y54688200D01*
X8686077Y54284176D01*
X8707576Y54275249D01*
X8688200Y54267243D01*
X8284176Y53863923D01*
X8065250Y53336691D01*
X8064963Y53007963D01*
X7834721Y52777721D01*
X7835630Y53819874D01*
X7283400Y55156372D01*
X6261751Y56179806D01*
X4926218Y56734368D01*
X3480126Y56735630D01*
X2143628Y56183400D01*
X1120194Y55161751D01*
X810000Y54414721D01*
X810000Y56890000D01*
X9106304Y56890000D01*
X8688200Y56717243D01*
X8688200Y56717243D01*
G37*
X8688200Y56717243D02*
X8284176Y56313923D01*
X8065250Y55786691D01*
X8064752Y55215813D01*
X8282757Y54688200D01*
X8686077Y54284176D01*
X8707576Y54275249D01*
X8688200Y54267243D01*
X8284176Y53863923D01*
X8065250Y53336691D01*
X8064963Y53007963D01*
X7834721Y52777721D01*
X7835630Y53819874D01*
X7283400Y55156372D01*
X6261751Y56179806D01*
X4926218Y56734368D01*
X3480126Y56735630D01*
X2143628Y56183400D01*
X1120194Y55161751D01*
X810000Y54414721D01*
X810000Y56890000D01*
X9106304Y56890000D01*
X8688200Y56717243D01*
M02*
