G04 #@! TF.FileFunction,Copper,L1,Top,Signal*
%FSLAX46Y46*%
G04 Gerber Fmt 4.6, Leading zero omitted, Abs format (unit mm)*
G04 Created by KiCad (PCBNEW 4.0.4-stable) date 09/28/17 23:31:09*
%MOMM*%
%LPD*%
G01*
G04 APERTURE LIST*
%ADD10C,0.100000*%
%ADD11R,1.600000X1.600000*%
%ADD12C,1.600000*%
%ADD13R,2.800000X2.800000*%
%ADD14O,2.800000X2.800000*%
%ADD15C,1.524000*%
%ADD16R,1.800000X1.800000*%
%ADD17O,1.800000X1.800000*%
%ADD18R,1.700000X1.700000*%
%ADD19O,1.700000X1.700000*%
%ADD20C,6.000000*%
%ADD21O,1.500000X0.900000*%
%ADD22R,1.500000X0.900000*%
%ADD23O,0.900000X1.500000*%
%ADD24R,0.900000X1.500000*%
%ADD25C,1.400000*%
%ADD26O,1.400000X1.400000*%
%ADD27C,1.440000*%
%ADD28O,1.600000X1.600000*%
%ADD29C,2.400000*%
%ADD30O,2.400000X2.400000*%
%ADD31C,0.600000*%
%ADD32C,1.000000*%
%ADD33C,1.500000*%
%ADD34C,2.000000*%
%ADD35C,0.700000*%
%ADD36C,0.500000*%
%ADD37C,0.900000*%
%ADD38C,1.000000*%
%ADD39C,0.254000*%
G04 APERTURE END LIST*
D10*
D11*
X35800000Y36450000D03*
D12*
X30800000Y36450000D03*
X28400000Y50850000D03*
X25900000Y50850000D03*
X23300000Y51150000D03*
X23300000Y48650000D03*
D11*
X28500000Y47250000D03*
D12*
X33500000Y47250000D03*
X9500000Y53050000D03*
X12000000Y53050000D03*
X9500000Y55500000D03*
X12000000Y55500000D03*
D11*
X17104653Y12565931D03*
D12*
X12104653Y12565931D03*
D11*
X16200000Y53350000D03*
D12*
X16200000Y50850000D03*
X33600000Y11425000D03*
X36100000Y11425000D03*
D11*
X17900000Y36050000D03*
D12*
X20400000Y36050000D03*
X25700000Y23600000D03*
X23200000Y23600000D03*
X25700000Y21100000D03*
X23200000Y21100000D03*
X43600000Y21850000D03*
X41100000Y21850000D03*
X63700000Y3150000D03*
X61200000Y3150000D03*
X61400000Y33150000D03*
X63900000Y33150000D03*
D13*
X16804653Y5715931D03*
D14*
X11724653Y5715931D03*
D15*
X44270000Y55550000D03*
X55700000Y55550000D03*
D16*
X67100000Y38290000D03*
D17*
X67100000Y35750000D03*
X67100000Y33210000D03*
D18*
X23300000Y55550000D03*
D19*
X25840000Y55550000D03*
X28380000Y55550000D03*
X30920000Y55550000D03*
X33460000Y55550000D03*
X36000000Y55550000D03*
D20*
X4200000Y53100000D03*
X63550000Y50700000D03*
X6250000Y7500000D03*
X51350000Y6700000D03*
D21*
X6100000Y33170000D03*
X6100000Y34440000D03*
D22*
X6100000Y31900000D03*
D21*
X6100000Y27530000D03*
X6100000Y28800000D03*
D22*
X6100000Y26260000D03*
D21*
X11100000Y38970000D03*
X11100000Y37700000D03*
D22*
X11100000Y40240000D03*
D21*
X10500000Y27500000D03*
X10500000Y26230000D03*
D22*
X10500000Y28770000D03*
D21*
X11200000Y33170000D03*
X11200000Y34440000D03*
D22*
X11200000Y31900000D03*
D21*
X6100000Y45920000D03*
X6100000Y47190000D03*
D22*
X6100000Y44650000D03*
D21*
X18000000Y44450000D03*
X18000000Y45720000D03*
D22*
X18000000Y43180000D03*
D23*
X8330000Y22700000D03*
X7060000Y22700000D03*
D24*
X9600000Y22700000D03*
D16*
X41700000Y50030000D03*
D17*
X41700000Y47490000D03*
X41700000Y44950000D03*
D23*
X24430000Y27550000D03*
X25700000Y27550000D03*
D24*
X23160000Y27550000D03*
D16*
X41700000Y40730000D03*
D17*
X41700000Y38190000D03*
X41700000Y35650000D03*
D16*
X41700000Y31430000D03*
D17*
X41700000Y28890000D03*
X41700000Y26350000D03*
D16*
X67100000Y8290000D03*
D17*
X67100000Y5750000D03*
X67100000Y3210000D03*
D25*
X1800000Y33180000D03*
D26*
X1800000Y28100000D03*
D25*
X4700000Y42080000D03*
D26*
X4700000Y37000000D03*
D25*
X4300000Y23680000D03*
D26*
X4300000Y18600000D03*
D25*
X1850000Y42700000D03*
D26*
X1850000Y47780000D03*
D25*
X1850000Y35420000D03*
D26*
X1850000Y40500000D03*
D25*
X6850000Y42080000D03*
D26*
X6850000Y37000000D03*
D25*
X12300000Y23700000D03*
D26*
X12300000Y18620000D03*
D25*
X20129653Y17365931D03*
D26*
X25209653Y17365931D03*
D25*
X20124653Y13115931D03*
D26*
X25204653Y13115931D03*
D25*
X20129653Y15240931D03*
D26*
X25209653Y15240931D03*
D25*
X12000000Y47880000D03*
D26*
X12000000Y42800000D03*
D25*
X9850000Y42750000D03*
D26*
X9850000Y47830000D03*
D25*
X33500000Y14325000D03*
D26*
X28420000Y14325000D03*
D25*
X33525000Y8600000D03*
D26*
X28445000Y8600000D03*
D25*
X14150000Y47880000D03*
D26*
X14150000Y42800000D03*
D25*
X20050000Y48250000D03*
D26*
X20050000Y53330000D03*
D27*
X19000000Y30490000D03*
X19000000Y27950000D03*
X19000000Y25410000D03*
D25*
X15620000Y21450000D03*
D26*
X20700000Y21450000D03*
D25*
X15000000Y32350000D03*
D26*
X15000000Y37430000D03*
D25*
X15000000Y25170000D03*
D26*
X15000000Y30250000D03*
D25*
X20080000Y40550000D03*
D26*
X15000000Y40550000D03*
D25*
X56700000Y38150000D03*
D26*
X56700000Y33070000D03*
D25*
X46200000Y18750000D03*
D26*
X41120000Y18750000D03*
D25*
X41120000Y14350000D03*
D26*
X46200000Y14350000D03*
D25*
X56600000Y3170000D03*
D26*
X56600000Y8250000D03*
D25*
X58820000Y8150000D03*
D26*
X63900000Y8150000D03*
D25*
X58820000Y38150000D03*
D26*
X63900000Y38150000D03*
D25*
X46220000Y11850000D03*
D26*
X51300000Y11850000D03*
D25*
X51300000Y21250000D03*
D26*
X46220000Y21250000D03*
D12*
X48855000Y18350000D03*
D28*
X66000000Y18350000D03*
D12*
X48855000Y14750000D03*
D28*
X66000000Y14750000D03*
D29*
X47300000Y51450000D03*
D30*
X47300000Y26050000D03*
D29*
X52800000Y26050000D03*
D30*
X52800000Y51450000D03*
D25*
X63900000Y5750000D03*
D26*
X58820000Y5750000D03*
D25*
X58820000Y35750000D03*
D26*
X63900000Y35750000D03*
D25*
X20124653Y11015931D03*
D26*
X25204653Y11015931D03*
D25*
X20124653Y6815931D03*
D26*
X25204653Y6815931D03*
D25*
X20099653Y8915931D03*
D26*
X25179653Y8915931D03*
D12*
X49850001Y54350001D03*
D31*
X1900000Y1900000D03*
X10700000Y51600000D03*
X7950000Y54200000D03*
X7550000Y56150000D03*
X1150000Y55700000D03*
X1250000Y49950000D03*
X4150000Y49250000D03*
X2200000Y45100000D03*
X4550000Y43700000D03*
X5800000Y43200000D03*
X7300000Y43550000D03*
X1950000Y23950000D03*
X1800000Y20300000D03*
X9000000Y15350000D03*
X4950000Y15150000D03*
X4900000Y12900000D03*
X8250000Y13150000D03*
X17400000Y31900000D03*
X25150000Y31250000D03*
X23050000Y31250000D03*
X23050000Y35050000D03*
X25050000Y39750000D03*
X25050000Y42100000D03*
X20900000Y43700000D03*
X22200000Y42450000D03*
X23800000Y40900000D03*
X20250000Y38400000D03*
X17550000Y38550000D03*
X17600000Y40450000D03*
X16050000Y42850000D03*
X12350000Y45700000D03*
X15950000Y45800000D03*
X16300000Y48250000D03*
X17900000Y48350000D03*
X20000000Y50550000D03*
X21500000Y49900000D03*
X22100000Y46550000D03*
X23600000Y44900000D03*
X25800000Y43250000D03*
X25850000Y48100000D03*
X68700000Y51150000D03*
X68700000Y48800000D03*
X68750000Y45850000D03*
X60100000Y55300000D03*
X58200000Y53750000D03*
X51950000Y54850000D03*
X41850000Y56650000D03*
X35900000Y25750000D03*
X35450000Y50750000D03*
X35500000Y41650000D03*
X38900000Y44800000D03*
X37700000Y43250000D03*
X38350000Y38500000D03*
X35700000Y20200000D03*
X35600000Y17400000D03*
X38400000Y14700000D03*
X41150000Y11550000D03*
X36400000Y7800000D03*
X36400000Y5600000D03*
X38700000Y4550000D03*
X38950000Y6700000D03*
X41750000Y6700000D03*
X41700000Y4750000D03*
X44400000Y4850000D03*
X44450000Y7000000D03*
X55400000Y11750000D03*
X61050000Y7050000D03*
X55400000Y11750000D03*
X61900000Y10700000D03*
X65650000Y12000000D03*
X63200000Y12100000D03*
X63200000Y16700000D03*
X68400000Y16700000D03*
X65550000Y21350000D03*
X65800000Y24550000D03*
X65800000Y27900000D03*
X61800000Y27900000D03*
X56550000Y28500000D03*
X56850000Y24850000D03*
X59000000Y22100000D03*
X63650000Y22350000D03*
X63600000Y25900000D03*
X47600000Y46000000D03*
X55550000Y45300000D03*
X53550000Y46750000D03*
X57600000Y51400000D03*
X67800000Y40700000D03*
X64350000Y40650000D03*
X61200000Y40800000D03*
X57450000Y40750000D03*
X57550000Y44750000D03*
X57550000Y48000000D03*
X60100000Y46650000D03*
X68750000Y43200000D03*
X67300000Y43150000D03*
X67350000Y45700000D03*
X65400000Y45650000D03*
X65350000Y43250000D03*
X63300000Y43350000D03*
X63300000Y45600000D03*
X61250000Y45550000D03*
X59250000Y45450000D03*
X59100000Y43300000D03*
X61200000Y43250000D03*
X59050000Y26000000D03*
X49100000Y36000000D03*
X46700000Y29550000D03*
X35900000Y23300000D03*
X41650000Y23650000D03*
D12*
X27550000Y31200000D03*
X25500000Y34800000D03*
D32*
X49900000Y38250000D03*
D33*
X15269378Y53350000D02*
X16200000Y53350000D01*
X12119376Y50199998D02*
X15269378Y53350000D01*
X8299998Y50199998D02*
X12119376Y50199998D01*
X7350000Y49250000D02*
X8299998Y50199998D01*
D34*
X16200000Y53350000D02*
X18080000Y53350000D01*
X18080000Y53350000D02*
X18100000Y53330000D01*
D35*
X20050000Y53330000D02*
X19089949Y53330000D01*
X20050000Y53330000D02*
X16220000Y53330000D01*
X16220000Y53330000D02*
X16200000Y53350000D01*
D33*
X5900000Y47800000D02*
X7350000Y49250000D01*
X1850000Y47780000D02*
X5880000Y47780000D01*
X5880000Y47780000D02*
X7350000Y49250000D01*
D35*
X5490000Y47800000D02*
X6100000Y47190000D01*
D34*
X49850001Y54350001D02*
X46425999Y54350001D01*
X46425999Y54350001D02*
X45425997Y53349999D01*
X29377920Y53349999D02*
X28380000Y54347919D01*
X45425997Y53349999D02*
X29377920Y53349999D01*
X28400000Y50850000D02*
X28400000Y47350000D01*
X28400000Y47350000D02*
X28500000Y47250000D01*
X28380000Y55550000D02*
X28380000Y50870000D01*
X28380000Y50870000D02*
X28400000Y50850000D01*
X28380000Y55550000D02*
X28380000Y54347919D01*
X28380000Y54347919D02*
X27362081Y53330000D01*
X27362081Y53330000D02*
X19089949Y53330000D01*
X19089949Y53330000D02*
X18100000Y53330000D01*
D33*
X56700000Y33070000D02*
X56700000Y32080051D01*
X56700000Y32080051D02*
X57530052Y31249999D01*
X57530052Y31249999D02*
X65139999Y31249999D01*
X65139999Y31249999D02*
X66200001Y32310001D01*
X66200001Y32310001D02*
X67100000Y33210000D01*
D34*
X67100000Y33210000D02*
X63960000Y33210000D01*
X63960000Y33210000D02*
X63900000Y33150000D01*
D36*
X23800000Y40900000D02*
X23800000Y40750000D01*
X23800000Y40750000D02*
X23600000Y40550000D01*
X25050000Y39750000D02*
X25700000Y40400000D01*
X25700000Y40400000D02*
X25700000Y40700000D01*
X4900000Y12900000D02*
X1900000Y9900000D01*
X1900000Y9900000D02*
X1900000Y1900000D01*
X7950000Y54200000D02*
X7950000Y52527998D01*
X7950000Y52527998D02*
X8877998Y51600000D01*
X8877998Y51600000D02*
X10700000Y51600000D01*
X1150000Y55700000D02*
X2150001Y56700001D01*
X2150001Y56700001D02*
X6999999Y56700001D01*
X6999999Y56700001D02*
X7550000Y56150000D01*
X4150000Y49250000D02*
X1950000Y49250000D01*
X1950000Y49250000D02*
X1250000Y49950000D01*
X4550000Y43700000D02*
X3600000Y43700000D01*
X3600000Y43700000D02*
X2200000Y45100000D01*
X5800000Y43200000D02*
X5500001Y43499999D01*
X5500001Y43499999D02*
X4750001Y43499999D01*
X4750001Y43499999D02*
X4550000Y43700000D01*
D35*
X9850000Y42750000D02*
X9050000Y43550000D01*
X9050000Y43550000D02*
X7300000Y43550000D01*
X1950000Y23950000D02*
X1950000Y27950000D01*
X1950000Y27950000D02*
X1800000Y28100000D01*
X2000000Y17675736D02*
X2000000Y20100000D01*
X2000000Y20100000D02*
X1800000Y20300000D01*
X4950000Y15150000D02*
X4525736Y15150000D01*
X4525736Y15150000D02*
X2000000Y17675736D01*
X9000000Y15350000D02*
X9600000Y15950000D01*
X9600000Y15950000D02*
X9600000Y22700000D01*
X4900000Y12900000D02*
X4900000Y15100000D01*
X4900000Y15100000D02*
X4950000Y15150000D01*
X12104653Y12565931D02*
X8834069Y12565931D01*
X8834069Y12565931D02*
X8250000Y13150000D01*
X21000000Y31250000D02*
X20339999Y31910001D01*
X20339999Y31910001D02*
X17410001Y31910001D01*
X17410001Y31910001D02*
X17400000Y31900000D01*
X23050000Y31250000D02*
X21000000Y31250000D01*
X23050000Y31250000D02*
X25150000Y31250000D01*
X25050000Y42100000D02*
X25050000Y41350000D01*
X25050000Y41350000D02*
X25700000Y40700000D01*
X25050000Y42100000D02*
X25050000Y42500000D01*
X25050000Y42500000D02*
X25800000Y43250000D01*
X22200000Y42450000D02*
X22150000Y42450000D01*
X22150000Y42450000D02*
X20900000Y43700000D01*
X20250000Y38400000D02*
X21450000Y38400000D01*
X21450000Y38400000D02*
X23600000Y40550000D01*
X17600000Y40450000D02*
X17600000Y38600000D01*
X17600000Y38600000D02*
X17550000Y38550000D01*
X17900000Y48350000D02*
X16400000Y48350000D01*
X16400000Y48350000D02*
X16300000Y48250000D01*
X21500000Y49900000D02*
X20650000Y49900000D01*
X20650000Y49900000D02*
X20000000Y50550000D01*
X23600000Y44900000D02*
X23600000Y45050000D01*
X23600000Y45050000D02*
X22100000Y46550000D01*
X25850000Y48100000D02*
X25850000Y43300000D01*
X25850000Y43300000D02*
X25800000Y43250000D01*
D37*
X25900000Y50850000D02*
X25900000Y48150000D01*
X25900000Y48150000D02*
X25850000Y48100000D01*
D35*
X17350000Y21450000D02*
X19649991Y23749991D01*
X19649991Y23749991D02*
X19649991Y23754931D01*
X15620000Y21450000D02*
X17350000Y21450000D01*
X21300000Y28150002D02*
X21300000Y25404940D01*
X21300000Y25404940D02*
X19649991Y23754931D01*
X25450000Y29250000D02*
X22399998Y29250000D01*
X22399998Y29250000D02*
X21300000Y28150002D01*
X25700000Y27550000D02*
X25700000Y29000000D01*
X25700000Y29000000D02*
X25450000Y29250000D01*
D33*
X67100000Y3210000D02*
X65139999Y1249999D01*
X65139999Y1249999D02*
X58520001Y1249999D01*
X58520001Y1249999D02*
X57299999Y2470001D01*
X57299999Y2470001D02*
X56600000Y3170000D01*
X63700000Y3150000D02*
X67040000Y3150000D01*
X67040000Y3150000D02*
X67100000Y3210000D01*
D35*
X68700000Y48800000D02*
X68700000Y51150000D01*
X58200000Y53750000D02*
X58550000Y53750000D01*
X58550000Y53750000D02*
X60100000Y55300000D01*
X49750000Y57050000D02*
X42250000Y57050000D01*
X42250000Y57050000D02*
X42212001Y57012001D01*
X49750000Y57050000D02*
X51950000Y54850000D01*
X41850000Y56650000D02*
X42212001Y57012001D01*
X35450000Y50750000D02*
X35450000Y49200000D01*
X35450000Y49200000D02*
X33500000Y47250000D01*
X37700000Y43250000D02*
X37700000Y43600000D01*
X37700000Y43600000D02*
X38900000Y44800000D01*
X35800000Y36450000D02*
X36300000Y36450000D01*
X36300000Y36450000D02*
X38350000Y38500000D01*
D37*
X35600000Y17400000D02*
X35600000Y20100000D01*
X35600000Y20100000D02*
X35700000Y20200000D01*
X41120000Y14350000D02*
X38750000Y14350000D01*
X38750000Y14350000D02*
X38400000Y14700000D01*
X41150000Y11550000D02*
X41150000Y14320000D01*
X41150000Y14320000D02*
X41120000Y14350000D01*
X36400000Y5600000D02*
X36400000Y7800000D01*
X38950000Y6700000D02*
X38950000Y4800000D01*
X38950000Y4800000D02*
X38700000Y4550000D01*
X41700000Y4750000D02*
X41700000Y6650000D01*
X41700000Y6650000D02*
X41750000Y6700000D01*
X44450000Y7000000D02*
X44450000Y4900000D01*
X44450000Y4900000D02*
X44400000Y4850000D01*
X61900000Y10700000D02*
X56450000Y10700000D01*
X56450000Y10700000D02*
X55400000Y11750000D01*
X63200000Y12100000D02*
X65550000Y12100000D01*
X65550000Y12100000D02*
X65650000Y12000000D01*
X65550000Y21350000D02*
X68400000Y18500000D01*
X68400000Y18500000D02*
X68400000Y16700000D01*
X65800000Y24550000D02*
X65800000Y21600000D01*
X65800000Y21600000D02*
X65550000Y21350000D01*
X61800000Y27900000D02*
X65800000Y27900000D01*
X53450000Y31600000D02*
X56550000Y28500000D01*
X56550000Y28500000D02*
X59050000Y26000000D01*
X59000000Y22100000D02*
X59000000Y22700000D01*
X59000000Y22700000D02*
X56850000Y24850000D01*
X63600000Y25900000D02*
X63600000Y22400000D01*
X63600000Y22400000D02*
X63650000Y22350000D01*
X55550000Y45300000D02*
X48300000Y45300000D01*
X48300000Y45300000D02*
X47600000Y46000000D01*
X57600000Y51400000D02*
X57600000Y50800000D01*
X57600000Y50800000D02*
X53550000Y46750000D01*
X64350000Y40650000D02*
X67750000Y40650000D01*
X67750000Y40650000D02*
X67800000Y40700000D01*
X61200000Y40800000D02*
X64200000Y40800000D01*
X64200000Y40800000D02*
X64350000Y40650000D01*
X57550000Y44750000D02*
X57550000Y40850000D01*
X57550000Y40850000D02*
X57450000Y40750000D01*
X57650000Y47900000D02*
X57550000Y48000000D01*
X68750000Y43200000D02*
X68750000Y45850000D01*
X67350000Y45700000D02*
X67350000Y43200000D01*
X67350000Y43200000D02*
X67300000Y43150000D01*
X65350000Y43250000D02*
X65350000Y45600000D01*
X65350000Y45600000D02*
X65400000Y45650000D01*
X63300000Y45600000D02*
X63300000Y43350000D01*
X59250000Y45450000D02*
X61150000Y45450000D01*
X61150000Y45450000D02*
X61250000Y45550000D01*
X61200000Y43250000D02*
X59150000Y43250000D01*
X59150000Y43250000D02*
X59100000Y43300000D01*
X53450000Y33600000D02*
X53450000Y31600000D01*
X51349999Y35700001D02*
X53450000Y33600000D01*
X49100000Y36000000D02*
X49399999Y35700001D01*
X49399999Y35700001D02*
X51349999Y35700001D01*
D34*
X41100000Y21850000D02*
X41100000Y23100000D01*
X41100000Y23100000D02*
X41650000Y23650000D01*
D33*
X41100000Y21850000D02*
X41100000Y18770000D01*
X41100000Y18770000D02*
X41120000Y18750000D01*
D35*
X1800000Y33180000D02*
X6090000Y33180000D01*
X6090000Y33180000D02*
X6100000Y33170000D01*
X9500000Y55500000D02*
X9500000Y53050000D01*
X12000000Y55500000D02*
X21700000Y55500000D01*
X21700000Y55500000D02*
X21750000Y55550000D01*
X12000000Y53050000D02*
X12000000Y55500000D01*
X23300000Y55550000D02*
X21750000Y55550000D01*
X16804653Y5715931D02*
X19024653Y5715931D01*
X19024653Y5715931D02*
X20124653Y6815931D01*
D37*
X17104653Y12565931D02*
X17104653Y6015931D01*
X17104653Y6015931D02*
X16804653Y5715931D01*
D35*
X9850000Y47830000D02*
X11950000Y47830000D01*
X11950000Y47830000D02*
X12000000Y47880000D01*
X16200000Y50850000D02*
X14820000Y50850000D01*
X14820000Y50850000D02*
X11850000Y47880000D01*
D38*
X35250001Y9774999D02*
X34699999Y9774999D01*
X34699999Y9774999D02*
X33525000Y8600000D01*
X48855000Y10705000D02*
X47924999Y9774999D01*
X47924999Y9774999D02*
X35250001Y9774999D01*
X35250001Y9774999D02*
X34399999Y10625001D01*
X34399999Y10625001D02*
X33600000Y11425000D01*
X48855000Y14750000D02*
X48855000Y10705000D01*
X48855000Y18350000D02*
X48855000Y14750000D01*
D37*
X48855000Y19481370D02*
X48855000Y18350000D01*
X50599989Y23399989D02*
X48855000Y21655000D01*
X48855000Y21655000D02*
X48855000Y19481370D01*
X46100001Y50250001D02*
X46100001Y36554401D01*
X50599989Y32054413D02*
X50599989Y23399989D01*
X47300000Y51450000D02*
X46100001Y50250001D01*
X46100001Y36554401D02*
X50599989Y32054413D01*
X33600000Y11425000D02*
X33600000Y8675000D01*
X33600000Y8675000D02*
X33525000Y8600000D01*
D33*
X55700000Y55550000D02*
X55700000Y54350000D01*
X55700000Y54350000D02*
X52800000Y51450000D01*
X52800000Y51450000D02*
X47300000Y51450000D01*
D38*
X36100000Y11425000D02*
X36100000Y11725000D01*
X36100000Y11725000D02*
X33500000Y14325000D01*
D35*
X34523640Y31200000D02*
X28681370Y31200000D01*
X38973640Y35650000D02*
X34523640Y31200000D01*
X41700000Y35650000D02*
X38973640Y35650000D01*
X28681370Y31200000D02*
X27550000Y31200000D01*
X17900000Y36050000D02*
X16380000Y36050000D01*
X16380000Y36050000D02*
X15000000Y37430000D01*
X15000000Y37430000D02*
X15000000Y40550000D01*
X15000000Y40550000D02*
X15370000Y40550000D01*
X15370000Y40550000D02*
X18000000Y43180000D01*
D37*
X41700000Y50030000D02*
X38648002Y50030000D01*
X21199999Y36849999D02*
X20400000Y36050000D01*
X38648002Y50030000D02*
X25468001Y36849999D01*
X25468001Y36849999D02*
X21199999Y36849999D01*
D35*
X39200000Y33600000D02*
X32550000Y26950000D01*
X32550000Y26950000D02*
X32150000Y26550000D01*
X25700000Y23600000D02*
X29200000Y23600000D01*
X29200000Y23600000D02*
X32550000Y26950000D01*
X42950000Y33600000D02*
X39200000Y33600000D01*
X44550000Y32000000D02*
X42950000Y33600000D01*
X44550000Y27927208D02*
X44550000Y32000000D01*
X41700000Y26350000D02*
X42972792Y26350000D01*
X42972792Y26350000D02*
X44550000Y27927208D01*
D33*
X25700000Y23600000D02*
X25700000Y21100000D01*
D35*
X8330000Y29970000D02*
X8330000Y29980000D01*
X11700000Y30400000D02*
X13350009Y28749991D01*
X13350009Y24721993D02*
X13850000Y24222002D01*
X8330000Y29980000D02*
X8750000Y30400000D01*
X13850000Y20350000D02*
X14550000Y19650000D01*
X8750000Y30400000D02*
X11700000Y30400000D01*
X13350009Y28749991D02*
X13350009Y24721993D01*
X13850000Y24222002D02*
X13850000Y20350000D01*
X14550000Y19650000D02*
X21750000Y19650000D01*
X21750000Y19650000D02*
X23200000Y21100000D01*
X8330000Y22700000D02*
X8330000Y29970000D01*
X8330000Y29970000D02*
X6400000Y31900000D01*
X6400000Y31900000D02*
X6100000Y31900000D01*
X6100000Y26260000D02*
X8330000Y24030000D01*
X8330000Y24030000D02*
X8330000Y22700000D01*
D33*
X23200000Y23600000D02*
X23200000Y21100000D01*
X43600000Y21850000D02*
X43600000Y22350000D01*
X43600000Y22350000D02*
X47300000Y26050000D01*
D37*
X61200000Y3150000D02*
X61200000Y3370000D01*
X61200000Y3370000D02*
X58820000Y5750000D01*
D33*
X61400000Y33150000D02*
X61400000Y33170000D01*
X61400000Y33170000D02*
X58820000Y35750000D01*
D37*
X37252091Y55499990D02*
X43142360Y55499990D01*
X37202081Y55550000D02*
X37252091Y55499990D01*
X43142360Y55499990D02*
X43192370Y55550000D01*
X36000000Y55550000D02*
X37202081Y55550000D01*
X43192370Y55550000D02*
X44270000Y55550000D01*
D33*
X63900000Y38150000D02*
X66960000Y38150000D01*
X66960000Y38150000D02*
X67100000Y38290000D01*
X66000000Y18350000D02*
X52950000Y18350000D01*
X52950000Y18350000D02*
X51300000Y20000000D01*
X51300000Y20000000D02*
X51300000Y21250000D01*
X63900000Y35750000D02*
X67100000Y35750000D01*
D35*
X6100000Y34440000D02*
X6100000Y35600000D01*
X6100000Y35600000D02*
X4700000Y37000000D01*
X6100000Y44650000D02*
X10150000Y44650000D01*
X10150000Y44650000D02*
X12000000Y42800000D01*
X14150000Y47880000D02*
X14150000Y44950000D01*
X14150000Y44950000D02*
X12000000Y42800000D01*
X13050000Y41200000D02*
X13050000Y39450000D01*
X12000000Y42400000D02*
X13050000Y41350000D01*
X13050000Y41350000D02*
X13050000Y41200000D01*
X12000000Y42800000D02*
X12000000Y42400000D01*
X13050000Y39450000D02*
X12570000Y38970000D01*
X12570000Y38970000D02*
X11100000Y38970000D01*
X1850000Y42700000D02*
X3450000Y41100000D01*
X3450000Y41100000D02*
X4800000Y39750000D01*
X3700000Y39750000D02*
X3700000Y40850000D01*
X3700000Y40850000D02*
X3450000Y41100000D01*
X7600000Y39750000D02*
X5250000Y39750000D01*
X4800000Y39750000D02*
X5250000Y39750000D01*
X5250000Y39750000D02*
X3700000Y39750000D01*
X3700000Y39750000D02*
X1850000Y37900000D01*
X9650000Y37700000D02*
X7600000Y39750000D01*
X11100000Y37700000D02*
X9650000Y37700000D01*
X1850000Y37900000D02*
X1850000Y35420000D01*
X11100000Y40240000D02*
X8690000Y40240000D01*
X8690000Y40240000D02*
X6850000Y42080000D01*
X4700000Y42080000D02*
X6850000Y42080000D01*
X6830000Y42100000D02*
X6850000Y42080000D01*
X12300000Y23700000D02*
X12300000Y24430000D01*
X12300000Y24430000D02*
X10500000Y26230000D01*
D38*
X25209653Y15240931D02*
X25209653Y17365931D01*
X28420000Y14325000D02*
X27504069Y15240931D01*
X27504069Y15240931D02*
X25209653Y15240931D01*
X28420000Y14325000D02*
X28420000Y8625000D01*
X28420000Y8625000D02*
X28445000Y8600000D01*
D35*
X7549999Y36300001D02*
X6850000Y37000000D01*
X9410000Y34440000D02*
X7549999Y36300001D01*
X11200000Y34440000D02*
X9410000Y34440000D01*
X6850000Y37000000D02*
X6890000Y37000000D01*
X14150000Y42800000D02*
X15800000Y44450000D01*
X15800000Y44450000D02*
X18000000Y44450000D01*
X20050000Y48250000D02*
X20050000Y47770000D01*
X20050000Y47770000D02*
X18000000Y45720000D01*
X18100000Y45820000D02*
X18000000Y45720000D01*
X23730000Y25400000D02*
X22779998Y25400000D01*
X20700000Y23320002D02*
X20700000Y22439949D01*
X22779998Y25400000D02*
X20700000Y23320002D01*
X20700000Y22439949D02*
X20700000Y21450000D01*
X24430000Y27550000D02*
X24430000Y26100000D01*
X24430000Y26100000D02*
X23730000Y25400000D01*
D37*
X37290001Y46590001D02*
X25500000Y34800000D01*
X41700000Y47490000D02*
X38190000Y47490000D01*
X38190000Y47490000D02*
X37290001Y46590001D01*
D35*
X40800001Y44050001D02*
X41700000Y44950000D01*
X29799999Y33049999D02*
X40800001Y44050001D01*
X15699999Y33049999D02*
X29799999Y33049999D01*
X15000000Y32350000D02*
X15699999Y33049999D01*
X15000000Y32350000D02*
X15000000Y30250000D01*
D37*
X43500000Y37386620D02*
X43500000Y38930000D01*
X43500000Y38930000D02*
X41700000Y40730000D01*
X46220000Y21250000D02*
X49300001Y24330001D01*
X49300001Y24330001D02*
X49300001Y31586619D01*
X49300001Y31586619D02*
X43500000Y37386620D01*
D33*
X46220000Y21250000D02*
X46220000Y18770000D01*
X46220000Y18770000D02*
X46200000Y18750000D01*
D37*
X56700000Y38150000D02*
X58820000Y38150000D01*
X49900000Y38250000D02*
X56600000Y38250000D01*
X56600000Y38250000D02*
X56700000Y38150000D01*
D33*
X40150000Y16550000D02*
X44000000Y16550000D01*
X44000000Y16550000D02*
X46200000Y14350000D01*
X38950000Y17750000D02*
X40150000Y16550000D01*
X38950000Y29100002D02*
X38950000Y17750000D01*
X41700000Y31430000D02*
X41279998Y31430000D01*
X41279998Y31430000D02*
X38950000Y29100002D01*
X46200000Y14350000D02*
X46200000Y11870000D01*
X46200000Y11870000D02*
X46220000Y11850000D01*
D37*
X56600000Y8250000D02*
X58720000Y8250000D01*
X58720000Y8250000D02*
X58820000Y8150000D01*
D33*
X63900000Y8150000D02*
X66960000Y8150000D01*
X66960000Y8150000D02*
X67100000Y8290000D01*
X51300000Y11850000D02*
X51300000Y12839949D01*
X51300000Y12839949D02*
X53200000Y14739949D01*
X53200000Y14739949D02*
X53200000Y14750000D01*
X66000000Y14750000D02*
X53200000Y14750000D01*
D37*
X63900000Y5750000D02*
X67100000Y5750000D01*
X20129653Y17365931D02*
X20129653Y15240931D01*
X20124653Y13115931D02*
X20124653Y15235931D01*
X20124653Y15235931D02*
X20129653Y15240931D01*
D35*
X15000000Y25170000D02*
X15000000Y26490000D01*
X15000000Y26490000D02*
X19000000Y30490000D01*
D37*
X25204653Y11015931D02*
X25204653Y13115931D01*
X20099653Y8915931D02*
X20099653Y10990931D01*
X20099653Y10990931D02*
X20124653Y11015931D01*
X25204653Y6815931D02*
X25204653Y8890931D01*
X25204653Y8890931D02*
X25179653Y8915931D01*
D39*
G36*
X69690000Y52305908D02*
X69690000Y810000D01*
X66658686Y810000D01*
X67591350Y1742664D01*
X67687419Y1761773D01*
X68185409Y2094519D01*
X68518155Y2592509D01*
X68635000Y3179928D01*
X68635000Y3240072D01*
X68518155Y3827491D01*
X68185409Y4325481D01*
X67954155Y4480000D01*
X68185409Y4634519D01*
X68518155Y5132509D01*
X68635000Y5719928D01*
X68635000Y5780072D01*
X68518155Y6367491D01*
X68237163Y6788026D01*
X68451441Y6925910D01*
X68596431Y7138110D01*
X68647440Y7390000D01*
X68647440Y9190000D01*
X68603162Y9425317D01*
X68464090Y9641441D01*
X68251890Y9786431D01*
X68000000Y9837440D01*
X66200000Y9837440D01*
X65964683Y9793162D01*
X65748559Y9654090D01*
X65667188Y9535000D01*
X63900000Y9535000D01*
X63369983Y9429573D01*
X62920657Y9129343D01*
X62620427Y8680017D01*
X62515000Y8150000D01*
X62620427Y7619983D01*
X62920657Y7170657D01*
X63272841Y6935335D01*
X63144771Y6882418D01*
X62768902Y6507204D01*
X62565232Y6016713D01*
X62564769Y5485617D01*
X62767582Y4994771D01*
X63142796Y4618902D01*
X63319591Y4545490D01*
X62888200Y4367243D01*
X62484176Y3963923D01*
X62450187Y3882069D01*
X62417243Y3961800D01*
X62013923Y4365824D01*
X61543092Y4561330D01*
X60138131Y5966291D01*
X60079533Y6260882D01*
X59790142Y6693988D01*
X59408778Y6948806D01*
X59575229Y7017582D01*
X59951098Y7392796D01*
X60154768Y7883287D01*
X60155231Y8414383D01*
X59952418Y8905229D01*
X59577204Y9281098D01*
X59086713Y9484768D01*
X58555617Y9485231D01*
X58192029Y9335000D01*
X57372090Y9335000D01*
X57110882Y9509533D01*
X56600000Y9611154D01*
X56089118Y9509533D01*
X55656012Y9220142D01*
X55366621Y8787036D01*
X55265000Y8276154D01*
X55265000Y8223846D01*
X55366621Y7712964D01*
X55656012Y7279858D01*
X56089118Y6990467D01*
X56600000Y6888846D01*
X57110882Y6990467D01*
X57372090Y7165000D01*
X57916953Y7165000D01*
X58062796Y7018902D01*
X58231369Y6948904D01*
X57849858Y6693988D01*
X57560467Y6260882D01*
X57458846Y5750000D01*
X57560467Y5239118D01*
X57849858Y4806012D01*
X58282964Y4516621D01*
X58577555Y4458023D01*
X59765105Y3270473D01*
X59764752Y2865813D01*
X59860122Y2634999D01*
X59093687Y2634999D01*
X57579343Y4149343D01*
X57367177Y4291107D01*
X57357204Y4301098D01*
X57344051Y4306559D01*
X57130016Y4449573D01*
X56879752Y4499354D01*
X56866713Y4504768D01*
X56852470Y4504780D01*
X56600000Y4555000D01*
X56349733Y4505219D01*
X56335617Y4505231D01*
X56322456Y4499793D01*
X56069984Y4449573D01*
X55857819Y4307809D01*
X55844771Y4302418D01*
X55834691Y4292356D01*
X55620657Y4149343D01*
X55478893Y3937177D01*
X55468902Y3927204D01*
X55463441Y3914051D01*
X55320427Y3700016D01*
X55270646Y3449752D01*
X55265232Y3436713D01*
X55265220Y3422470D01*
X55215000Y3170000D01*
X55264781Y2919733D01*
X55264769Y2905617D01*
X55270207Y2892456D01*
X55320427Y2639984D01*
X55462191Y2427819D01*
X55467582Y2414771D01*
X55477644Y2404691D01*
X55620657Y2190657D01*
X57001314Y810000D01*
X32377000Y810000D01*
X32377000Y7882482D01*
X32392582Y7844771D01*
X32767796Y7468902D01*
X33258287Y7265232D01*
X33789383Y7264769D01*
X34280229Y7467582D01*
X34656098Y7842796D01*
X34857175Y8327043D01*
X35170132Y8639999D01*
X47924999Y8639999D01*
X48246165Y8703883D01*
X47715632Y7426218D01*
X47714370Y5980126D01*
X48266600Y4643628D01*
X49288249Y3620194D01*
X50623782Y3065632D01*
X52069874Y3064370D01*
X53406372Y3616600D01*
X54429806Y4638249D01*
X54984368Y5973782D01*
X54985630Y7419874D01*
X54433400Y8756372D01*
X53411751Y9779806D01*
X52076218Y10334368D01*
X50630126Y10335630D01*
X49686495Y9945729D01*
X49716243Y9990250D01*
X49903603Y10270654D01*
X49990000Y10705000D01*
X49990000Y11472950D01*
X50020427Y11319983D01*
X50320657Y10870657D01*
X50769983Y10570427D01*
X51300000Y10465000D01*
X51830017Y10570427D01*
X52279343Y10870657D01*
X52579573Y11319983D01*
X52685000Y11850000D01*
X52685000Y12266263D01*
X53783737Y13365000D01*
X65720520Y13365000D01*
X65971887Y13315000D01*
X66028113Y13315000D01*
X66577264Y13424233D01*
X67042811Y13735302D01*
X67353880Y14200849D01*
X67463113Y14750000D01*
X67353880Y15299151D01*
X67042811Y15764698D01*
X66577264Y16075767D01*
X66028113Y16185000D01*
X65971887Y16185000D01*
X65720520Y16135000D01*
X53200000Y16135000D01*
X52669983Y16029573D01*
X52220657Y15729343D01*
X52200418Y15699053D01*
X50320657Y13819292D01*
X50020427Y13369966D01*
X49990000Y13216999D01*
X49990000Y13855394D01*
X50070824Y13936077D01*
X50289750Y14463309D01*
X50290248Y15034187D01*
X50072243Y15561800D01*
X49990000Y15644187D01*
X49990000Y17455394D01*
X50070824Y17536077D01*
X50289750Y18063309D01*
X50290248Y18634187D01*
X50072243Y19161800D01*
X49940000Y19294274D01*
X49940000Y19874317D01*
X50020427Y19469983D01*
X50278781Y19083329D01*
X50320657Y19020657D01*
X51970657Y17370657D01*
X52419983Y17070427D01*
X52950000Y16965000D01*
X65720520Y16965000D01*
X65971887Y16915000D01*
X66028113Y16915000D01*
X66577264Y17024233D01*
X67042811Y17335302D01*
X67353880Y17800849D01*
X67463113Y18350000D01*
X67353880Y18899151D01*
X67042811Y19364698D01*
X66577264Y19675767D01*
X66028113Y19785000D01*
X65971887Y19785000D01*
X65720520Y19735000D01*
X53523686Y19735000D01*
X52685000Y20573686D01*
X52685000Y21250000D01*
X52635219Y21500267D01*
X52635231Y21514383D01*
X52629793Y21527544D01*
X52579573Y21780017D01*
X52437809Y21992182D01*
X52432418Y22005229D01*
X52422357Y22015308D01*
X52279343Y22229343D01*
X52067176Y22371108D01*
X52057204Y22381098D01*
X52044053Y22386559D01*
X51830017Y22529573D01*
X51579751Y22579354D01*
X51566713Y22584768D01*
X51552471Y22584780D01*
X51357904Y22623482D01*
X51367200Y22632778D01*
X51532399Y22880016D01*
X51602398Y22984777D01*
X51684989Y23399989D01*
X51684989Y24569610D01*
X51759199Y24495270D01*
X52433395Y24215319D01*
X53163403Y24214682D01*
X53838086Y24493455D01*
X54354730Y25009199D01*
X54634681Y25683395D01*
X54635318Y26413403D01*
X54356545Y27088086D01*
X53840801Y27604730D01*
X53166605Y27884681D01*
X52436597Y27885318D01*
X51761914Y27606545D01*
X51684989Y27529754D01*
X51684989Y32054413D01*
X51602398Y32469625D01*
X51367200Y32821624D01*
X47185001Y37003823D01*
X47185001Y38025225D01*
X48764803Y38025225D01*
X48937233Y37607914D01*
X49256235Y37288355D01*
X49673244Y37115197D01*
X50124775Y37114803D01*
X50246261Y37165000D01*
X55796953Y37165000D01*
X55942796Y37018902D01*
X56433287Y36815232D01*
X56964383Y36814769D01*
X57455229Y37017582D01*
X57502730Y37065000D01*
X58016778Y37065000D01*
X58062796Y37018902D01*
X58193061Y36964811D01*
X58077819Y36887809D01*
X58064771Y36882418D01*
X58054691Y36872356D01*
X57840657Y36729343D01*
X57698893Y36517177D01*
X57688902Y36507204D01*
X57683441Y36494051D01*
X57540427Y36280016D01*
X57490646Y36029752D01*
X57485232Y36016713D01*
X57485220Y36002470D01*
X57435000Y35750000D01*
X57484781Y35499733D01*
X57484769Y35485617D01*
X57490207Y35472456D01*
X57540427Y35219984D01*
X57682191Y35007819D01*
X57687582Y34994771D01*
X57697644Y34984691D01*
X57840657Y34770657D01*
X59976315Y32634999D01*
X58103738Y32634999D01*
X58085000Y32653737D01*
X58085000Y33070000D01*
X57979573Y33600017D01*
X57679343Y34049343D01*
X57230017Y34349573D01*
X56700000Y34455000D01*
X56169983Y34349573D01*
X55720657Y34049343D01*
X55420427Y33600017D01*
X55315000Y33070000D01*
X55315000Y32080051D01*
X55420427Y31550034D01*
X55585156Y31303500D01*
X55720657Y31100708D01*
X56550709Y30270656D01*
X57000036Y29970425D01*
X57530052Y29864999D01*
X65139999Y29864999D01*
X65670016Y29970426D01*
X66119342Y30270656D01*
X67504058Y31655372D01*
X67725687Y31699457D01*
X68256120Y32053880D01*
X68610543Y32584313D01*
X68735000Y33210000D01*
X68610543Y33835687D01*
X68256120Y34366120D01*
X68019920Y34523943D01*
X68185409Y34634519D01*
X68518155Y35132509D01*
X68635000Y35719928D01*
X68635000Y35780072D01*
X68518155Y36367491D01*
X68237163Y36788026D01*
X68451441Y36925910D01*
X68596431Y37138110D01*
X68647440Y37390000D01*
X68647440Y39190000D01*
X68603162Y39425317D01*
X68464090Y39641441D01*
X68251890Y39786431D01*
X68000000Y39837440D01*
X66200000Y39837440D01*
X65964683Y39793162D01*
X65748559Y39654090D01*
X65667188Y39535000D01*
X63900000Y39535000D01*
X63369983Y39429573D01*
X62920657Y39129343D01*
X62620427Y38680017D01*
X62515000Y38150000D01*
X62620427Y37619983D01*
X62920657Y37170657D01*
X63250894Y36950000D01*
X62920657Y36729343D01*
X62620427Y36280017D01*
X62515000Y35750000D01*
X62620427Y35219983D01*
X62920657Y34770657D01*
X63164985Y34607402D01*
X63146424Y34595000D01*
X62803880Y34366120D01*
X62803878Y34366117D01*
X62743880Y34306120D01*
X62555285Y34023867D01*
X62213923Y34365824D01*
X62126604Y34402082D01*
X59799343Y36729343D01*
X59587177Y36871107D01*
X59577204Y36881098D01*
X59564051Y36886559D01*
X59447159Y36964665D01*
X59575229Y37017582D01*
X59951098Y37392796D01*
X60154768Y37883287D01*
X60155231Y38414383D01*
X59952418Y38905229D01*
X59577204Y39281098D01*
X59086713Y39484768D01*
X58555617Y39485231D01*
X58064771Y39282418D01*
X58017270Y39235000D01*
X57503222Y39235000D01*
X57457204Y39281098D01*
X56966713Y39484768D01*
X56435617Y39485231D01*
X56072029Y39335000D01*
X50246694Y39335000D01*
X50126756Y39384803D01*
X49675225Y39385197D01*
X49257914Y39212767D01*
X48938355Y38893765D01*
X48765197Y38476756D01*
X48764803Y38025225D01*
X47185001Y38025225D01*
X47185001Y49615099D01*
X47663403Y49614682D01*
X48338086Y49893455D01*
X48509930Y50065000D01*
X51579548Y50065000D01*
X52097776Y49718731D01*
X52800000Y49579050D01*
X53502224Y49718731D01*
X53893429Y49980126D01*
X59914370Y49980126D01*
X60466600Y48643628D01*
X61488249Y47620194D01*
X62823782Y47065632D01*
X64269874Y47064370D01*
X65606372Y47616600D01*
X66629806Y48638249D01*
X67184368Y49973782D01*
X67185630Y51419874D01*
X66633400Y52756372D01*
X65611751Y53779806D01*
X64276218Y54334368D01*
X62830126Y54335630D01*
X61493628Y53783400D01*
X60470194Y52761751D01*
X59915632Y51426218D01*
X59914370Y49980126D01*
X53893429Y49980126D01*
X54097541Y50116509D01*
X54495319Y50711826D01*
X54613215Y51304529D01*
X56679343Y53370657D01*
X56915648Y53724313D01*
X56979573Y53819983D01*
X57085000Y54350000D01*
X57085000Y55242586D01*
X57096757Y55270900D01*
X57097242Y55826661D01*
X56885010Y56340303D01*
X56492370Y56733629D01*
X56115786Y56890000D01*
X65105908Y56890000D01*
X69690000Y52305908D01*
X69690000Y52305908D01*
G37*
X69690000Y52305908D02*
X69690000Y810000D01*
X66658686Y810000D01*
X67591350Y1742664D01*
X67687419Y1761773D01*
X68185409Y2094519D01*
X68518155Y2592509D01*
X68635000Y3179928D01*
X68635000Y3240072D01*
X68518155Y3827491D01*
X68185409Y4325481D01*
X67954155Y4480000D01*
X68185409Y4634519D01*
X68518155Y5132509D01*
X68635000Y5719928D01*
X68635000Y5780072D01*
X68518155Y6367491D01*
X68237163Y6788026D01*
X68451441Y6925910D01*
X68596431Y7138110D01*
X68647440Y7390000D01*
X68647440Y9190000D01*
X68603162Y9425317D01*
X68464090Y9641441D01*
X68251890Y9786431D01*
X68000000Y9837440D01*
X66200000Y9837440D01*
X65964683Y9793162D01*
X65748559Y9654090D01*
X65667188Y9535000D01*
X63900000Y9535000D01*
X63369983Y9429573D01*
X62920657Y9129343D01*
X62620427Y8680017D01*
X62515000Y8150000D01*
X62620427Y7619983D01*
X62920657Y7170657D01*
X63272841Y6935335D01*
X63144771Y6882418D01*
X62768902Y6507204D01*
X62565232Y6016713D01*
X62564769Y5485617D01*
X62767582Y4994771D01*
X63142796Y4618902D01*
X63319591Y4545490D01*
X62888200Y4367243D01*
X62484176Y3963923D01*
X62450187Y3882069D01*
X62417243Y3961800D01*
X62013923Y4365824D01*
X61543092Y4561330D01*
X60138131Y5966291D01*
X60079533Y6260882D01*
X59790142Y6693988D01*
X59408778Y6948806D01*
X59575229Y7017582D01*
X59951098Y7392796D01*
X60154768Y7883287D01*
X60155231Y8414383D01*
X59952418Y8905229D01*
X59577204Y9281098D01*
X59086713Y9484768D01*
X58555617Y9485231D01*
X58192029Y9335000D01*
X57372090Y9335000D01*
X57110882Y9509533D01*
X56600000Y9611154D01*
X56089118Y9509533D01*
X55656012Y9220142D01*
X55366621Y8787036D01*
X55265000Y8276154D01*
X55265000Y8223846D01*
X55366621Y7712964D01*
X55656012Y7279858D01*
X56089118Y6990467D01*
X56600000Y6888846D01*
X57110882Y6990467D01*
X57372090Y7165000D01*
X57916953Y7165000D01*
X58062796Y7018902D01*
X58231369Y6948904D01*
X57849858Y6693988D01*
X57560467Y6260882D01*
X57458846Y5750000D01*
X57560467Y5239118D01*
X57849858Y4806012D01*
X58282964Y4516621D01*
X58577555Y4458023D01*
X59765105Y3270473D01*
X59764752Y2865813D01*
X59860122Y2634999D01*
X59093687Y2634999D01*
X57579343Y4149343D01*
X57367177Y4291107D01*
X57357204Y4301098D01*
X57344051Y4306559D01*
X57130016Y4449573D01*
X56879752Y4499354D01*
X56866713Y4504768D01*
X56852470Y4504780D01*
X56600000Y4555000D01*
X56349733Y4505219D01*
X56335617Y4505231D01*
X56322456Y4499793D01*
X56069984Y4449573D01*
X55857819Y4307809D01*
X55844771Y4302418D01*
X55834691Y4292356D01*
X55620657Y4149343D01*
X55478893Y3937177D01*
X55468902Y3927204D01*
X55463441Y3914051D01*
X55320427Y3700016D01*
X55270646Y3449752D01*
X55265232Y3436713D01*
X55265220Y3422470D01*
X55215000Y3170000D01*
X55264781Y2919733D01*
X55264769Y2905617D01*
X55270207Y2892456D01*
X55320427Y2639984D01*
X55462191Y2427819D01*
X55467582Y2414771D01*
X55477644Y2404691D01*
X55620657Y2190657D01*
X57001314Y810000D01*
X32377000Y810000D01*
X32377000Y7882482D01*
X32392582Y7844771D01*
X32767796Y7468902D01*
X33258287Y7265232D01*
X33789383Y7264769D01*
X34280229Y7467582D01*
X34656098Y7842796D01*
X34857175Y8327043D01*
X35170132Y8639999D01*
X47924999Y8639999D01*
X48246165Y8703883D01*
X47715632Y7426218D01*
X47714370Y5980126D01*
X48266600Y4643628D01*
X49288249Y3620194D01*
X50623782Y3065632D01*
X52069874Y3064370D01*
X53406372Y3616600D01*
X54429806Y4638249D01*
X54984368Y5973782D01*
X54985630Y7419874D01*
X54433400Y8756372D01*
X53411751Y9779806D01*
X52076218Y10334368D01*
X50630126Y10335630D01*
X49686495Y9945729D01*
X49716243Y9990250D01*
X49903603Y10270654D01*
X49990000Y10705000D01*
X49990000Y11472950D01*
X50020427Y11319983D01*
X50320657Y10870657D01*
X50769983Y10570427D01*
X51300000Y10465000D01*
X51830017Y10570427D01*
X52279343Y10870657D01*
X52579573Y11319983D01*
X52685000Y11850000D01*
X52685000Y12266263D01*
X53783737Y13365000D01*
X65720520Y13365000D01*
X65971887Y13315000D01*
X66028113Y13315000D01*
X66577264Y13424233D01*
X67042811Y13735302D01*
X67353880Y14200849D01*
X67463113Y14750000D01*
X67353880Y15299151D01*
X67042811Y15764698D01*
X66577264Y16075767D01*
X66028113Y16185000D01*
X65971887Y16185000D01*
X65720520Y16135000D01*
X53200000Y16135000D01*
X52669983Y16029573D01*
X52220657Y15729343D01*
X52200418Y15699053D01*
X50320657Y13819292D01*
X50020427Y13369966D01*
X49990000Y13216999D01*
X49990000Y13855394D01*
X50070824Y13936077D01*
X50289750Y14463309D01*
X50290248Y15034187D01*
X50072243Y15561800D01*
X49990000Y15644187D01*
X49990000Y17455394D01*
X50070824Y17536077D01*
X50289750Y18063309D01*
X50290248Y18634187D01*
X50072243Y19161800D01*
X49940000Y19294274D01*
X49940000Y19874317D01*
X50020427Y19469983D01*
X50278781Y19083329D01*
X50320657Y19020657D01*
X51970657Y17370657D01*
X52419983Y17070427D01*
X52950000Y16965000D01*
X65720520Y16965000D01*
X65971887Y16915000D01*
X66028113Y16915000D01*
X66577264Y17024233D01*
X67042811Y17335302D01*
X67353880Y17800849D01*
X67463113Y18350000D01*
X67353880Y18899151D01*
X67042811Y19364698D01*
X66577264Y19675767D01*
X66028113Y19785000D01*
X65971887Y19785000D01*
X65720520Y19735000D01*
X53523686Y19735000D01*
X52685000Y20573686D01*
X52685000Y21250000D01*
X52635219Y21500267D01*
X52635231Y21514383D01*
X52629793Y21527544D01*
X52579573Y21780017D01*
X52437809Y21992182D01*
X52432418Y22005229D01*
X52422357Y22015308D01*
X52279343Y22229343D01*
X52067176Y22371108D01*
X52057204Y22381098D01*
X52044053Y22386559D01*
X51830017Y22529573D01*
X51579751Y22579354D01*
X51566713Y22584768D01*
X51552471Y22584780D01*
X51357904Y22623482D01*
X51367200Y22632778D01*
X51532399Y22880016D01*
X51602398Y22984777D01*
X51684989Y23399989D01*
X51684989Y24569610D01*
X51759199Y24495270D01*
X52433395Y24215319D01*
X53163403Y24214682D01*
X53838086Y24493455D01*
X54354730Y25009199D01*
X54634681Y25683395D01*
X54635318Y26413403D01*
X54356545Y27088086D01*
X53840801Y27604730D01*
X53166605Y27884681D01*
X52436597Y27885318D01*
X51761914Y27606545D01*
X51684989Y27529754D01*
X51684989Y32054413D01*
X51602398Y32469625D01*
X51367200Y32821624D01*
X47185001Y37003823D01*
X47185001Y38025225D01*
X48764803Y38025225D01*
X48937233Y37607914D01*
X49256235Y37288355D01*
X49673244Y37115197D01*
X50124775Y37114803D01*
X50246261Y37165000D01*
X55796953Y37165000D01*
X55942796Y37018902D01*
X56433287Y36815232D01*
X56964383Y36814769D01*
X57455229Y37017582D01*
X57502730Y37065000D01*
X58016778Y37065000D01*
X58062796Y37018902D01*
X58193061Y36964811D01*
X58077819Y36887809D01*
X58064771Y36882418D01*
X58054691Y36872356D01*
X57840657Y36729343D01*
X57698893Y36517177D01*
X57688902Y36507204D01*
X57683441Y36494051D01*
X57540427Y36280016D01*
X57490646Y36029752D01*
X57485232Y36016713D01*
X57485220Y36002470D01*
X57435000Y35750000D01*
X57484781Y35499733D01*
X57484769Y35485617D01*
X57490207Y35472456D01*
X57540427Y35219984D01*
X57682191Y35007819D01*
X57687582Y34994771D01*
X57697644Y34984691D01*
X57840657Y34770657D01*
X59976315Y32634999D01*
X58103738Y32634999D01*
X58085000Y32653737D01*
X58085000Y33070000D01*
X57979573Y33600017D01*
X57679343Y34049343D01*
X57230017Y34349573D01*
X56700000Y34455000D01*
X56169983Y34349573D01*
X55720657Y34049343D01*
X55420427Y33600017D01*
X55315000Y33070000D01*
X55315000Y32080051D01*
X55420427Y31550034D01*
X55585156Y31303500D01*
X55720657Y31100708D01*
X56550709Y30270656D01*
X57000036Y29970425D01*
X57530052Y29864999D01*
X65139999Y29864999D01*
X65670016Y29970426D01*
X66119342Y30270656D01*
X67504058Y31655372D01*
X67725687Y31699457D01*
X68256120Y32053880D01*
X68610543Y32584313D01*
X68735000Y33210000D01*
X68610543Y33835687D01*
X68256120Y34366120D01*
X68019920Y34523943D01*
X68185409Y34634519D01*
X68518155Y35132509D01*
X68635000Y35719928D01*
X68635000Y35780072D01*
X68518155Y36367491D01*
X68237163Y36788026D01*
X68451441Y36925910D01*
X68596431Y37138110D01*
X68647440Y37390000D01*
X68647440Y39190000D01*
X68603162Y39425317D01*
X68464090Y39641441D01*
X68251890Y39786431D01*
X68000000Y39837440D01*
X66200000Y39837440D01*
X65964683Y39793162D01*
X65748559Y39654090D01*
X65667188Y39535000D01*
X63900000Y39535000D01*
X63369983Y39429573D01*
X62920657Y39129343D01*
X62620427Y38680017D01*
X62515000Y38150000D01*
X62620427Y37619983D01*
X62920657Y37170657D01*
X63250894Y36950000D01*
X62920657Y36729343D01*
X62620427Y36280017D01*
X62515000Y35750000D01*
X62620427Y35219983D01*
X62920657Y34770657D01*
X63164985Y34607402D01*
X63146424Y34595000D01*
X62803880Y34366120D01*
X62803878Y34366117D01*
X62743880Y34306120D01*
X62555285Y34023867D01*
X62213923Y34365824D01*
X62126604Y34402082D01*
X59799343Y36729343D01*
X59587177Y36871107D01*
X59577204Y36881098D01*
X59564051Y36886559D01*
X59447159Y36964665D01*
X59575229Y37017582D01*
X59951098Y37392796D01*
X60154768Y37883287D01*
X60155231Y38414383D01*
X59952418Y38905229D01*
X59577204Y39281098D01*
X59086713Y39484768D01*
X58555617Y39485231D01*
X58064771Y39282418D01*
X58017270Y39235000D01*
X57503222Y39235000D01*
X57457204Y39281098D01*
X56966713Y39484768D01*
X56435617Y39485231D01*
X56072029Y39335000D01*
X50246694Y39335000D01*
X50126756Y39384803D01*
X49675225Y39385197D01*
X49257914Y39212767D01*
X48938355Y38893765D01*
X48765197Y38476756D01*
X48764803Y38025225D01*
X47185001Y38025225D01*
X47185001Y49615099D01*
X47663403Y49614682D01*
X48338086Y49893455D01*
X48509930Y50065000D01*
X51579548Y50065000D01*
X52097776Y49718731D01*
X52800000Y49579050D01*
X53502224Y49718731D01*
X53893429Y49980126D01*
X59914370Y49980126D01*
X60466600Y48643628D01*
X61488249Y47620194D01*
X62823782Y47065632D01*
X64269874Y47064370D01*
X65606372Y47616600D01*
X66629806Y48638249D01*
X67184368Y49973782D01*
X67185630Y51419874D01*
X66633400Y52756372D01*
X65611751Y53779806D01*
X64276218Y54334368D01*
X62830126Y54335630D01*
X61493628Y53783400D01*
X60470194Y52761751D01*
X59915632Y51426218D01*
X59914370Y49980126D01*
X53893429Y49980126D01*
X54097541Y50116509D01*
X54495319Y50711826D01*
X54613215Y51304529D01*
X56679343Y53370657D01*
X56915648Y53724313D01*
X56979573Y53819983D01*
X57085000Y54350000D01*
X57085000Y55242586D01*
X57096757Y55270900D01*
X57097242Y55826661D01*
X56885010Y56340303D01*
X56492370Y56733629D01*
X56115786Y56890000D01*
X65105908Y56890000D01*
X69690000Y52305908D01*
G36*
X40203569Y32581890D02*
X40152560Y32330000D01*
X40152560Y32261248D01*
X37970657Y30079345D01*
X37670427Y29630019D01*
X37565000Y29100002D01*
X37565000Y17750000D01*
X37670427Y17219983D01*
X37801223Y17024233D01*
X37970657Y16770657D01*
X39170657Y15570657D01*
X39619983Y15270427D01*
X40119282Y15171110D01*
X40184723Y15105669D01*
X39948958Y15043831D01*
X39772581Y14542878D01*
X39801336Y14012560D01*
X39948958Y13656169D01*
X40184725Y13594331D01*
X40940395Y14350000D01*
X40926252Y14364142D01*
X41105858Y14543748D01*
X41120000Y14529605D01*
X41134142Y14543748D01*
X41313748Y14364142D01*
X41299605Y14350000D01*
X42055275Y13594331D01*
X42291042Y13656169D01*
X42467419Y14157122D01*
X42438664Y14687440D01*
X42291042Y15043831D01*
X42055277Y15105669D01*
X42114608Y15165000D01*
X43426314Y15165000D01*
X44815000Y13776314D01*
X44815000Y11870000D01*
X44920427Y11339983D01*
X45153841Y10990654D01*
X45207733Y10909999D01*
X37439947Y10909999D01*
X37534750Y11138309D01*
X37535248Y11709187D01*
X37317243Y12236800D01*
X36913923Y12640824D01*
X36700820Y12729312D01*
X36015407Y13414725D01*
X40364331Y13414725D01*
X40426169Y13178958D01*
X40927122Y13002581D01*
X41457440Y13031336D01*
X41813831Y13178958D01*
X41875669Y13414725D01*
X41120000Y14170395D01*
X40364331Y13414725D01*
X36015407Y13414725D01*
X34831346Y14598786D01*
X34632418Y15080229D01*
X34257204Y15456098D01*
X33766713Y15659768D01*
X33235617Y15660231D01*
X32744771Y15457418D01*
X32377000Y15090288D01*
X32377000Y25384000D01*
X39608000Y32615000D01*
X40226192Y32615000D01*
X40203569Y32581890D01*
X40203569Y32581890D01*
G37*
X40203569Y32581890D02*
X40152560Y32330000D01*
X40152560Y32261248D01*
X37970657Y30079345D01*
X37670427Y29630019D01*
X37565000Y29100002D01*
X37565000Y17750000D01*
X37670427Y17219983D01*
X37801223Y17024233D01*
X37970657Y16770657D01*
X39170657Y15570657D01*
X39619983Y15270427D01*
X40119282Y15171110D01*
X40184723Y15105669D01*
X39948958Y15043831D01*
X39772581Y14542878D01*
X39801336Y14012560D01*
X39948958Y13656169D01*
X40184725Y13594331D01*
X40940395Y14350000D01*
X40926252Y14364142D01*
X41105858Y14543748D01*
X41120000Y14529605D01*
X41134142Y14543748D01*
X41313748Y14364142D01*
X41299605Y14350000D01*
X42055275Y13594331D01*
X42291042Y13656169D01*
X42467419Y14157122D01*
X42438664Y14687440D01*
X42291042Y15043831D01*
X42055277Y15105669D01*
X42114608Y15165000D01*
X43426314Y15165000D01*
X44815000Y13776314D01*
X44815000Y11870000D01*
X44920427Y11339983D01*
X45153841Y10990654D01*
X45207733Y10909999D01*
X37439947Y10909999D01*
X37534750Y11138309D01*
X37535248Y11709187D01*
X37317243Y12236800D01*
X36913923Y12640824D01*
X36700820Y12729312D01*
X36015407Y13414725D01*
X40364331Y13414725D01*
X40426169Y13178958D01*
X40927122Y13002581D01*
X41457440Y13031336D01*
X41813831Y13178958D01*
X41875669Y13414725D01*
X41120000Y14170395D01*
X40364331Y13414725D01*
X36015407Y13414725D01*
X34831346Y14598786D01*
X34632418Y15080229D01*
X34257204Y15456098D01*
X33766713Y15659768D01*
X33235617Y15660231D01*
X32744771Y15457418D01*
X32377000Y15090288D01*
X32377000Y25384000D01*
X39608000Y32615000D01*
X40226192Y32615000D01*
X40203569Y32581890D01*
G36*
X48215001Y31137197D02*
X48215001Y27639096D01*
X48002224Y27781269D01*
X47300000Y27920950D01*
X46597776Y27781269D01*
X46002459Y27383491D01*
X45604681Y26788174D01*
X45486785Y26195471D01*
X42620657Y23329343D01*
X42320427Y22880017D01*
X42270518Y22629110D01*
X42107745Y22678139D01*
X41279605Y21850000D01*
X42107745Y21021861D01*
X42353864Y21095995D01*
X42356196Y21102483D01*
X42382757Y21038200D01*
X42786077Y20634176D01*
X43313309Y20415250D01*
X43884187Y20414752D01*
X44411800Y20632757D01*
X44815824Y21036077D01*
X44835000Y21082258D01*
X44835000Y18850547D01*
X44815000Y18750000D01*
X44864781Y18499733D01*
X44864769Y18485617D01*
X44870207Y18472456D01*
X44920427Y18219984D01*
X45062191Y18007819D01*
X45067582Y17994771D01*
X45077644Y17984691D01*
X45220657Y17770657D01*
X45432823Y17628893D01*
X45442796Y17618902D01*
X45455949Y17613441D01*
X45669984Y17470427D01*
X45920248Y17420646D01*
X45933287Y17415232D01*
X45947530Y17415220D01*
X46200000Y17365000D01*
X46450267Y17414781D01*
X46464383Y17414769D01*
X46477544Y17420207D01*
X46730016Y17470427D01*
X46942181Y17612191D01*
X46955229Y17617582D01*
X46965309Y17627644D01*
X47179343Y17770657D01*
X47199343Y17790657D01*
X47334408Y17992796D01*
X47419800Y18120594D01*
X47419752Y18065813D01*
X47637757Y17538200D01*
X47720000Y17455813D01*
X47720000Y15644606D01*
X47639176Y15563923D01*
X47420250Y15036691D01*
X47420191Y14968889D01*
X47179343Y15329343D01*
X44979343Y17529343D01*
X44845308Y17618902D01*
X44530017Y17829573D01*
X44000000Y17935000D01*
X42147697Y17935000D01*
X42269797Y18071604D01*
X42412716Y18416671D01*
X42289374Y18623000D01*
X41247000Y18623000D01*
X41247000Y18603000D01*
X40993000Y18603000D01*
X40993000Y18623000D01*
X40973000Y18623000D01*
X40973000Y18877000D01*
X40993000Y18877000D01*
X40993000Y19920206D01*
X41247000Y19920206D01*
X41247000Y18877000D01*
X42289374Y18877000D01*
X42412716Y19083329D01*
X42269797Y19428396D01*
X41922663Y19816764D01*
X41453331Y20042727D01*
X41247000Y19920206D01*
X40993000Y19920206D01*
X40786669Y20042727D01*
X40335000Y19825268D01*
X40335000Y20632639D01*
X40345995Y20596136D01*
X40883223Y20403035D01*
X41453454Y20430222D01*
X41854005Y20596136D01*
X41928139Y20842255D01*
X41100000Y21670395D01*
X41085858Y21656252D01*
X40906252Y21835858D01*
X40920395Y21850000D01*
X40906252Y21864142D01*
X41085858Y22043748D01*
X41100000Y22029605D01*
X41928139Y22857745D01*
X41854005Y23103864D01*
X41316777Y23296965D01*
X40746546Y23269778D01*
X40345995Y23103864D01*
X40335000Y23067361D01*
X40335000Y25652957D01*
X40614591Y25234519D01*
X41112581Y24901773D01*
X41700000Y24784928D01*
X42287419Y24901773D01*
X42785409Y25234519D01*
X42872594Y25365000D01*
X42972792Y25365000D01*
X43349735Y25439979D01*
X43669292Y25653500D01*
X45246500Y27230708D01*
X45460021Y27550265D01*
X45535000Y27927208D01*
X45535000Y32000000D01*
X45460021Y32376943D01*
X45246500Y32696500D01*
X43646500Y34296500D01*
X43326943Y34510021D01*
X42950000Y34585000D01*
X42819139Y34585000D01*
X43118155Y35032509D01*
X43235000Y35619928D01*
X43235000Y35680072D01*
X43126460Y36225738D01*
X48215001Y31137197D01*
X48215001Y31137197D01*
G37*
X48215001Y31137197D02*
X48215001Y27639096D01*
X48002224Y27781269D01*
X47300000Y27920950D01*
X46597776Y27781269D01*
X46002459Y27383491D01*
X45604681Y26788174D01*
X45486785Y26195471D01*
X42620657Y23329343D01*
X42320427Y22880017D01*
X42270518Y22629110D01*
X42107745Y22678139D01*
X41279605Y21850000D01*
X42107745Y21021861D01*
X42353864Y21095995D01*
X42356196Y21102483D01*
X42382757Y21038200D01*
X42786077Y20634176D01*
X43313309Y20415250D01*
X43884187Y20414752D01*
X44411800Y20632757D01*
X44815824Y21036077D01*
X44835000Y21082258D01*
X44835000Y18850547D01*
X44815000Y18750000D01*
X44864781Y18499733D01*
X44864769Y18485617D01*
X44870207Y18472456D01*
X44920427Y18219984D01*
X45062191Y18007819D01*
X45067582Y17994771D01*
X45077644Y17984691D01*
X45220657Y17770657D01*
X45432823Y17628893D01*
X45442796Y17618902D01*
X45455949Y17613441D01*
X45669984Y17470427D01*
X45920248Y17420646D01*
X45933287Y17415232D01*
X45947530Y17415220D01*
X46200000Y17365000D01*
X46450267Y17414781D01*
X46464383Y17414769D01*
X46477544Y17420207D01*
X46730016Y17470427D01*
X46942181Y17612191D01*
X46955229Y17617582D01*
X46965309Y17627644D01*
X47179343Y17770657D01*
X47199343Y17790657D01*
X47334408Y17992796D01*
X47419800Y18120594D01*
X47419752Y18065813D01*
X47637757Y17538200D01*
X47720000Y17455813D01*
X47720000Y15644606D01*
X47639176Y15563923D01*
X47420250Y15036691D01*
X47420191Y14968889D01*
X47179343Y15329343D01*
X44979343Y17529343D01*
X44845308Y17618902D01*
X44530017Y17829573D01*
X44000000Y17935000D01*
X42147697Y17935000D01*
X42269797Y18071604D01*
X42412716Y18416671D01*
X42289374Y18623000D01*
X41247000Y18623000D01*
X41247000Y18603000D01*
X40993000Y18603000D01*
X40993000Y18623000D01*
X40973000Y18623000D01*
X40973000Y18877000D01*
X40993000Y18877000D01*
X40993000Y19920206D01*
X41247000Y19920206D01*
X41247000Y18877000D01*
X42289374Y18877000D01*
X42412716Y19083329D01*
X42269797Y19428396D01*
X41922663Y19816764D01*
X41453331Y20042727D01*
X41247000Y19920206D01*
X40993000Y19920206D01*
X40786669Y20042727D01*
X40335000Y19825268D01*
X40335000Y20632639D01*
X40345995Y20596136D01*
X40883223Y20403035D01*
X41453454Y20430222D01*
X41854005Y20596136D01*
X41928139Y20842255D01*
X41100000Y21670395D01*
X41085858Y21656252D01*
X40906252Y21835858D01*
X40920395Y21850000D01*
X40906252Y21864142D01*
X41085858Y22043748D01*
X41100000Y22029605D01*
X41928139Y22857745D01*
X41854005Y23103864D01*
X41316777Y23296965D01*
X40746546Y23269778D01*
X40345995Y23103864D01*
X40335000Y23067361D01*
X40335000Y25652957D01*
X40614591Y25234519D01*
X41112581Y24901773D01*
X41700000Y24784928D01*
X42287419Y24901773D01*
X42785409Y25234519D01*
X42872594Y25365000D01*
X42972792Y25365000D01*
X43349735Y25439979D01*
X43669292Y25653500D01*
X45246500Y27230708D01*
X45460021Y27550265D01*
X45535000Y27927208D01*
X45535000Y32000000D01*
X45460021Y32376943D01*
X45246500Y32696500D01*
X43646500Y34296500D01*
X43326943Y34510021D01*
X42950000Y34585000D01*
X42819139Y34585000D01*
X43118155Y35032509D01*
X43235000Y35619928D01*
X43235000Y35680072D01*
X43126460Y36225738D01*
X48215001Y31137197D01*
G36*
X45464737Y51149159D02*
X45332790Y51017212D01*
X45097592Y50665213D01*
X45015001Y50250001D01*
X45015001Y37406041D01*
X44585000Y37836042D01*
X44585000Y38930000D01*
X44502409Y39345212D01*
X44267211Y39697211D01*
X43247440Y40716982D01*
X43247440Y41630000D01*
X43203162Y41865317D01*
X43064090Y42081441D01*
X42851890Y42226431D01*
X42600000Y42277440D01*
X40800000Y42277440D01*
X40564683Y42233162D01*
X40348559Y42094090D01*
X40203569Y41881890D01*
X40152560Y41630000D01*
X40152560Y39830000D01*
X40196838Y39594683D01*
X40335910Y39378559D01*
X40548110Y39233569D01*
X40564344Y39230281D01*
X40281845Y38807491D01*
X40165000Y38220072D01*
X40165000Y38159928D01*
X40281845Y37572509D01*
X40614591Y37074519D01*
X40845845Y36920000D01*
X40614591Y36765481D01*
X40527406Y36635000D01*
X38973640Y36635000D01*
X38596697Y36560021D01*
X38277140Y36346500D01*
X34115640Y32185000D01*
X32377000Y32185000D01*
X32377000Y34234000D01*
X34465998Y36322998D01*
X34523748Y36322998D01*
X34365000Y36164250D01*
X34365000Y35523690D01*
X34461673Y35290301D01*
X34640302Y35111673D01*
X34873691Y35015000D01*
X35514250Y35015000D01*
X35673000Y35173750D01*
X35673000Y36323000D01*
X35927000Y36323000D01*
X35927000Y35173750D01*
X36085750Y35015000D01*
X36726309Y35015000D01*
X36959698Y35111673D01*
X37138327Y35290301D01*
X37235000Y35523690D01*
X37235000Y36164250D01*
X37076250Y36323000D01*
X35927000Y36323000D01*
X35673000Y36323000D01*
X35653000Y36323000D01*
X35653000Y36577000D01*
X35673000Y36577000D01*
X35673000Y36597000D01*
X35927000Y36597000D01*
X35927000Y36577000D01*
X37076250Y36577000D01*
X37235000Y36735750D01*
X37235000Y37376310D01*
X37138327Y37609699D01*
X36959698Y37788327D01*
X36726309Y37885000D01*
X36085750Y37885000D01*
X35927002Y37726252D01*
X35927002Y37784002D01*
X41556477Y43413477D01*
X41700000Y43384928D01*
X42287419Y43501773D01*
X42785409Y43834519D01*
X43118155Y44332509D01*
X43235000Y44919928D01*
X43235000Y44980072D01*
X43118155Y45567491D01*
X42785409Y46065481D01*
X42554155Y46220000D01*
X42785409Y46374519D01*
X43118155Y46872509D01*
X43235000Y47459928D01*
X43235000Y47520072D01*
X43118155Y48107491D01*
X42837163Y48528026D01*
X43051441Y48665910D01*
X43196431Y48878110D01*
X43247440Y49130000D01*
X43247440Y50930000D01*
X43203162Y51165317D01*
X43064090Y51381441D01*
X42851890Y51526431D01*
X42600000Y51577440D01*
X40800000Y51577440D01*
X40564683Y51533162D01*
X40348559Y51394090D01*
X40203569Y51181890D01*
X40190023Y51115000D01*
X38648002Y51115000D01*
X38232790Y51032409D01*
X37880791Y50797211D01*
X34851609Y47768029D01*
X34753864Y48004005D01*
X34507745Y48078139D01*
X33679605Y47250000D01*
X33693748Y47235858D01*
X33514142Y47056252D01*
X33500000Y47070395D01*
X32671861Y46242255D01*
X32745995Y45996136D01*
X32991479Y45907899D01*
X32377000Y45293420D01*
X32377000Y46456577D01*
X32492255Y46421861D01*
X33320395Y47250000D01*
X32492255Y48078139D01*
X32377000Y48043423D01*
X32377000Y48257745D01*
X32671861Y48257745D01*
X33500000Y47429605D01*
X34328139Y48257745D01*
X34254005Y48503864D01*
X33716777Y48696965D01*
X33146546Y48669778D01*
X32745995Y48503864D01*
X32671861Y48257745D01*
X32377000Y48257745D01*
X32377000Y51714999D01*
X45425992Y51714999D01*
X45425997Y51714998D01*
X45465237Y51722803D01*
X45464737Y51149159D01*
X45464737Y51149159D01*
G37*
X45464737Y51149159D02*
X45332790Y51017212D01*
X45097592Y50665213D01*
X45015001Y50250001D01*
X45015001Y37406041D01*
X44585000Y37836042D01*
X44585000Y38930000D01*
X44502409Y39345212D01*
X44267211Y39697211D01*
X43247440Y40716982D01*
X43247440Y41630000D01*
X43203162Y41865317D01*
X43064090Y42081441D01*
X42851890Y42226431D01*
X42600000Y42277440D01*
X40800000Y42277440D01*
X40564683Y42233162D01*
X40348559Y42094090D01*
X40203569Y41881890D01*
X40152560Y41630000D01*
X40152560Y39830000D01*
X40196838Y39594683D01*
X40335910Y39378559D01*
X40548110Y39233569D01*
X40564344Y39230281D01*
X40281845Y38807491D01*
X40165000Y38220072D01*
X40165000Y38159928D01*
X40281845Y37572509D01*
X40614591Y37074519D01*
X40845845Y36920000D01*
X40614591Y36765481D01*
X40527406Y36635000D01*
X38973640Y36635000D01*
X38596697Y36560021D01*
X38277140Y36346500D01*
X34115640Y32185000D01*
X32377000Y32185000D01*
X32377000Y34234000D01*
X34465998Y36322998D01*
X34523748Y36322998D01*
X34365000Y36164250D01*
X34365000Y35523690D01*
X34461673Y35290301D01*
X34640302Y35111673D01*
X34873691Y35015000D01*
X35514250Y35015000D01*
X35673000Y35173750D01*
X35673000Y36323000D01*
X35927000Y36323000D01*
X35927000Y35173750D01*
X36085750Y35015000D01*
X36726309Y35015000D01*
X36959698Y35111673D01*
X37138327Y35290301D01*
X37235000Y35523690D01*
X37235000Y36164250D01*
X37076250Y36323000D01*
X35927000Y36323000D01*
X35673000Y36323000D01*
X35653000Y36323000D01*
X35653000Y36577000D01*
X35673000Y36577000D01*
X35673000Y36597000D01*
X35927000Y36597000D01*
X35927000Y36577000D01*
X37076250Y36577000D01*
X37235000Y36735750D01*
X37235000Y37376310D01*
X37138327Y37609699D01*
X36959698Y37788327D01*
X36726309Y37885000D01*
X36085750Y37885000D01*
X35927002Y37726252D01*
X35927002Y37784002D01*
X41556477Y43413477D01*
X41700000Y43384928D01*
X42287419Y43501773D01*
X42785409Y43834519D01*
X43118155Y44332509D01*
X43235000Y44919928D01*
X43235000Y44980072D01*
X43118155Y45567491D01*
X42785409Y46065481D01*
X42554155Y46220000D01*
X42785409Y46374519D01*
X43118155Y46872509D01*
X43235000Y47459928D01*
X43235000Y47520072D01*
X43118155Y48107491D01*
X42837163Y48528026D01*
X43051441Y48665910D01*
X43196431Y48878110D01*
X43247440Y49130000D01*
X43247440Y50930000D01*
X43203162Y51165317D01*
X43064090Y51381441D01*
X42851890Y51526431D01*
X42600000Y51577440D01*
X40800000Y51577440D01*
X40564683Y51533162D01*
X40348559Y51394090D01*
X40203569Y51181890D01*
X40190023Y51115000D01*
X38648002Y51115000D01*
X38232790Y51032409D01*
X37880791Y50797211D01*
X34851609Y47768029D01*
X34753864Y48004005D01*
X34507745Y48078139D01*
X33679605Y47250000D01*
X33693748Y47235858D01*
X33514142Y47056252D01*
X33500000Y47070395D01*
X32671861Y46242255D01*
X32745995Y45996136D01*
X32991479Y45907899D01*
X32377000Y45293420D01*
X32377000Y46456577D01*
X32492255Y46421861D01*
X33320395Y47250000D01*
X32492255Y48078139D01*
X32377000Y48043423D01*
X32377000Y48257745D01*
X32671861Y48257745D01*
X33500000Y47429605D01*
X34328139Y48257745D01*
X34254005Y48503864D01*
X33716777Y48696965D01*
X33146546Y48669778D01*
X32745995Y48503864D01*
X32671861Y48257745D01*
X32377000Y48257745D01*
X32377000Y51714999D01*
X45425992Y51714999D01*
X45425997Y51714998D01*
X45465237Y51722803D01*
X45464737Y51149159D01*
G36*
X40614591Y46374519D02*
X40845845Y46220000D01*
X40614591Y46065481D01*
X40281845Y45567491D01*
X40165000Y44980072D01*
X40165000Y44919928D01*
X40183570Y44826570D01*
X32377000Y37020000D01*
X32377000Y40142578D01*
X38639422Y46405000D01*
X40594224Y46405000D01*
X40614591Y46374519D01*
X40614591Y46374519D01*
G37*
X40614591Y46374519D02*
X40845845Y46220000D01*
X40614591Y46065481D01*
X40281845Y45567491D01*
X40165000Y44980072D01*
X40165000Y44919928D01*
X40183570Y44826570D01*
X32377000Y37020000D01*
X32377000Y40142578D01*
X38639422Y46405000D01*
X40594224Y46405000D01*
X40614591Y46374519D01*
G36*
X54909697Y56735010D02*
X54516371Y56342370D01*
X54303243Y55829100D01*
X54302758Y55273339D01*
X54315000Y55243711D01*
X54315000Y54923686D01*
X52690479Y53299165D01*
X52097776Y53181269D01*
X51579548Y52835000D01*
X50453276Y52835000D01*
X50475688Y52839458D01*
X51006121Y53193881D01*
X51360544Y53724314D01*
X51485001Y54350001D01*
X51360544Y54975688D01*
X51006121Y55506121D01*
X50475688Y55860544D01*
X49850001Y55985001D01*
X46425999Y55985001D01*
X45800312Y55860544D01*
X45667194Y55771598D01*
X45667242Y55826661D01*
X45455010Y56340303D01*
X45062370Y56733629D01*
X44685786Y56890000D01*
X55284802Y56890000D01*
X54909697Y56735010D01*
X54909697Y56735010D01*
G37*
X54909697Y56735010D02*
X54516371Y56342370D01*
X54303243Y55829100D01*
X54302758Y55273339D01*
X54315000Y55243711D01*
X54315000Y54923686D01*
X52690479Y53299165D01*
X52097776Y53181269D01*
X51579548Y52835000D01*
X50453276Y52835000D01*
X50475688Y52839458D01*
X51006121Y53193881D01*
X51360544Y53724314D01*
X51485001Y54350001D01*
X51360544Y54975688D01*
X51006121Y55506121D01*
X50475688Y55860544D01*
X49850001Y55985001D01*
X46425999Y55985001D01*
X45800312Y55860544D01*
X45667194Y55771598D01*
X45667242Y55826661D01*
X45455010Y56340303D01*
X45062370Y56733629D01*
X44685786Y56890000D01*
X55284802Y56890000D01*
X54909697Y56735010D01*
G36*
X33587000Y55677000D02*
X33607000Y55677000D01*
X33607000Y55423000D01*
X33587000Y55423000D01*
X33587000Y55403000D01*
X33333000Y55403000D01*
X33333000Y55423000D01*
X33313000Y55423000D01*
X33313000Y55677000D01*
X33333000Y55677000D01*
X33333000Y55697000D01*
X33587000Y55697000D01*
X33587000Y55677000D01*
X33587000Y55677000D01*
G37*
X33587000Y55677000D02*
X33607000Y55677000D01*
X33607000Y55423000D01*
X33587000Y55423000D01*
X33587000Y55403000D01*
X33333000Y55403000D01*
X33333000Y55423000D01*
X33313000Y55423000D01*
X33313000Y55677000D01*
X33333000Y55677000D01*
X33333000Y55697000D01*
X33587000Y55697000D01*
X33587000Y55677000D01*
G36*
X43479697Y56735010D02*
X43379512Y56635000D01*
X43192370Y56635000D01*
X42940951Y56584990D01*
X37453498Y56584990D01*
X37202081Y56635000D01*
X37041294Y56635000D01*
X36659659Y56890000D01*
X43854802Y56890000D01*
X43479697Y56735010D01*
X43479697Y56735010D01*
G37*
X43479697Y56735010D02*
X43379512Y56635000D01*
X43192370Y56635000D01*
X42940951Y56584990D01*
X37453498Y56584990D01*
X37202081Y56635000D01*
X37041294Y56635000D01*
X36659659Y56890000D01*
X43854802Y56890000D01*
X43479697Y56735010D01*
G36*
X1042796Y32048902D02*
X1533287Y31845232D01*
X2064383Y31844769D01*
X2555229Y32047582D01*
X2702904Y32195000D01*
X4702560Y32195000D01*
X4702560Y31450000D01*
X4746838Y31214683D01*
X4885910Y30998559D01*
X5098110Y30853569D01*
X5350000Y30802560D01*
X6104440Y30802560D01*
X7345000Y29562000D01*
X7345000Y29341740D01*
X7194345Y29567211D01*
X6842346Y29802409D01*
X6427134Y29885000D01*
X5772866Y29885000D01*
X5357654Y29802409D01*
X5005655Y29567211D01*
X4770457Y29215212D01*
X4687866Y28800000D01*
X4770457Y28384788D01*
X4917315Y28165000D01*
X4770457Y27945212D01*
X4687866Y27530000D01*
X4770457Y27114788D01*
X4813759Y27049981D01*
X4753569Y26961890D01*
X4702560Y26710000D01*
X4702560Y25810000D01*
X4746838Y25574683D01*
X4885910Y25358559D01*
X5098110Y25213569D01*
X5350000Y25162560D01*
X5804440Y25162560D01*
X6888900Y24078100D01*
X6644788Y24029543D01*
X6292789Y23794345D01*
X6057591Y23442346D01*
X5975000Y23027134D01*
X5975000Y22372866D01*
X6057591Y21957654D01*
X6292789Y21605655D01*
X6644788Y21370457D01*
X7060000Y21287866D01*
X7475212Y21370457D01*
X7695000Y21517315D01*
X7914788Y21370457D01*
X8330000Y21287866D01*
X8745212Y21370457D01*
X8800546Y21407430D01*
X9023691Y21315000D01*
X9314250Y21315000D01*
X9473000Y21473750D01*
X9473000Y22573000D01*
X9727000Y22573000D01*
X9727000Y21473750D01*
X9885750Y21315000D01*
X10176309Y21315000D01*
X10409698Y21411673D01*
X10588327Y21590301D01*
X10685000Y21823690D01*
X10685000Y22414250D01*
X10526250Y22573000D01*
X9727000Y22573000D01*
X9473000Y22573000D01*
X9453000Y22573000D01*
X9453000Y22827000D01*
X9473000Y22827000D01*
X9473000Y23926250D01*
X9727000Y23926250D01*
X9727000Y22827000D01*
X10526250Y22827000D01*
X10685000Y22985750D01*
X10685000Y23576310D01*
X10588327Y23809699D01*
X10409698Y23988327D01*
X10176309Y24085000D01*
X9885750Y24085000D01*
X9727000Y23926250D01*
X9473000Y23926250D01*
X9315000Y24084250D01*
X9315000Y25598464D01*
X9405655Y25462789D01*
X9757654Y25227591D01*
X10172866Y25145000D01*
X10192000Y25145000D01*
X11084077Y24252923D01*
X10965232Y23966713D01*
X10964769Y23435617D01*
X11167582Y22944771D01*
X11542796Y22568902D01*
X12033287Y22365232D01*
X12564383Y22364769D01*
X12865000Y22488981D01*
X12865000Y20350000D01*
X12939979Y19973057D01*
X13153500Y19653500D01*
X13162228Y19644772D01*
X12810882Y19879533D01*
X12300000Y19981154D01*
X11789118Y19879533D01*
X11356012Y19590142D01*
X11066621Y19157036D01*
X10965000Y18646154D01*
X10965000Y18593846D01*
X11066621Y18082964D01*
X11356012Y17649858D01*
X11789118Y17360467D01*
X12300000Y17258846D01*
X12810882Y17360467D01*
X13243988Y17649858D01*
X13533379Y18082964D01*
X13635000Y18593846D01*
X13635000Y18646154D01*
X13533379Y19157036D01*
X13298619Y19508381D01*
X13853499Y18953500D01*
X14173057Y18739979D01*
X14550000Y18665000D01*
X19777751Y18665000D01*
X19374424Y18498349D01*
X18998555Y18123135D01*
X18794885Y17632644D01*
X18794422Y17101548D01*
X18997235Y16610702D01*
X19044653Y16563201D01*
X19044653Y16044153D01*
X18998555Y15998135D01*
X18794885Y15507644D01*
X18794422Y14976548D01*
X18997235Y14485702D01*
X19039653Y14443210D01*
X19039653Y13919153D01*
X18993555Y13873135D01*
X18789885Y13382644D01*
X18789422Y12851548D01*
X18992235Y12360702D01*
X19286677Y12065746D01*
X18993555Y11773135D01*
X18789885Y11282644D01*
X18789422Y10751548D01*
X18992235Y10260702D01*
X19014653Y10238245D01*
X19014653Y9719153D01*
X18968555Y9673135D01*
X18764885Y9182644D01*
X18764422Y8651548D01*
X18967235Y8160702D01*
X19274155Y7853246D01*
X18993555Y7573135D01*
X18837004Y7196120D01*
X18807815Y7351248D01*
X18668743Y7567372D01*
X18456543Y7712362D01*
X18204653Y7763371D01*
X18189653Y7763371D01*
X18189653Y11194739D01*
X18356094Y11301841D01*
X18501084Y11514041D01*
X18552093Y11765931D01*
X18552093Y13365931D01*
X18507815Y13601248D01*
X18368743Y13817372D01*
X18156543Y13962362D01*
X17904653Y14013371D01*
X16304653Y14013371D01*
X16069336Y13969093D01*
X15853212Y13830021D01*
X15708222Y13617821D01*
X15657213Y13365931D01*
X15657213Y11765931D01*
X15701491Y11530614D01*
X15840563Y11314490D01*
X16019653Y11192123D01*
X16019653Y7763371D01*
X15404653Y7763371D01*
X15169336Y7719093D01*
X14953212Y7580021D01*
X14808222Y7367821D01*
X14757213Y7115931D01*
X14757213Y4315931D01*
X14801491Y4080614D01*
X14940563Y3864490D01*
X15152763Y3719500D01*
X15404653Y3668491D01*
X18204653Y3668491D01*
X18439970Y3712769D01*
X18656094Y3851841D01*
X18801084Y4064041D01*
X18852093Y4315931D01*
X18852093Y4730931D01*
X19024653Y4730931D01*
X19401596Y4805910D01*
X19721153Y5019431D01*
X20182602Y5480880D01*
X20389036Y5480700D01*
X20879882Y5683513D01*
X21255751Y6058727D01*
X21459421Y6549218D01*
X21459884Y7080314D01*
X21257071Y7571160D01*
X20950151Y7878616D01*
X21230751Y8158727D01*
X21434421Y8649218D01*
X21434884Y9180314D01*
X21232071Y9671160D01*
X21184653Y9718661D01*
X21184653Y10187753D01*
X21255751Y10258727D01*
X21459421Y10749218D01*
X21459884Y11280314D01*
X21257071Y11771160D01*
X20962629Y12066116D01*
X21255751Y12358727D01*
X21459421Y12849218D01*
X21459884Y13380314D01*
X21257071Y13871160D01*
X21209653Y13918661D01*
X21209653Y14432718D01*
X21260751Y14483727D01*
X21464421Y14974218D01*
X21464884Y15505314D01*
X21262071Y15996160D01*
X21214653Y16043661D01*
X21214653Y16562709D01*
X21260751Y16608727D01*
X21464421Y17099218D01*
X21464884Y17630314D01*
X21262071Y18121160D01*
X20886857Y18497029D01*
X20482339Y18665000D01*
X21750000Y18665000D01*
X22126943Y18739979D01*
X22446500Y18953500D01*
X23158037Y19665037D01*
X23484187Y19664752D01*
X24011800Y19882757D01*
X24415824Y20286077D01*
X24449813Y20367931D01*
X24482757Y20288200D01*
X24886077Y19884176D01*
X25413309Y19665250D01*
X25984187Y19664752D01*
X26511800Y19882757D01*
X26915824Y20286077D01*
X27055491Y20622433D01*
X27058986Y16375931D01*
X26344653Y16375931D01*
X26344653Y16668671D01*
X26469186Y16855049D01*
X26570807Y17365931D01*
X26469186Y17876813D01*
X26179795Y18309919D01*
X25746689Y18599310D01*
X25235807Y18700931D01*
X25183499Y18700931D01*
X24672617Y18599310D01*
X24239511Y18309919D01*
X23950120Y17876813D01*
X23848499Y17365931D01*
X23950120Y16855049D01*
X24074653Y16668671D01*
X24074653Y15938191D01*
X23950120Y15751813D01*
X23848499Y15240931D01*
X23950120Y14730049D01*
X24239511Y14296943D01*
X24414377Y14180101D01*
X24234511Y14059919D01*
X23945120Y13626813D01*
X23843499Y13115931D01*
X23945120Y12605049D01*
X24119653Y12343841D01*
X24119653Y11788021D01*
X23945120Y11526813D01*
X23843499Y11015931D01*
X23945120Y10505049D01*
X24234511Y10071943D01*
X24380670Y9974283D01*
X24209511Y9859919D01*
X23920120Y9426813D01*
X23818499Y8915931D01*
X23920120Y8405049D01*
X24119653Y8106426D01*
X24119653Y7588021D01*
X23945120Y7326813D01*
X23843499Y6815931D01*
X23945120Y6305049D01*
X24234511Y5871943D01*
X24667617Y5582552D01*
X25178499Y5480931D01*
X25230807Y5480931D01*
X25741689Y5582552D01*
X26174795Y5871943D01*
X26464186Y6305049D01*
X26565807Y6815931D01*
X26464186Y7326813D01*
X26289653Y7588021D01*
X26289653Y8181256D01*
X26439186Y8405049D01*
X26540807Y8915931D01*
X26439186Y9426813D01*
X26149795Y9859919D01*
X26003636Y9957579D01*
X26174795Y10071943D01*
X26464186Y10505049D01*
X26565807Y11015931D01*
X26464186Y11526813D01*
X26289653Y11788021D01*
X26289653Y12343841D01*
X26464186Y12605049D01*
X26565807Y13115931D01*
X26464186Y13626813D01*
X26174795Y14059919D01*
X26105933Y14105931D01*
X27033937Y14105931D01*
X27060877Y14078991D01*
X27071798Y810000D01*
X810000Y810000D01*
X810000Y6780126D01*
X2614370Y6780126D01*
X3166600Y5443628D01*
X4188249Y4420194D01*
X5523782Y3865632D01*
X6969874Y3864370D01*
X8306372Y4416600D01*
X9164038Y5272771D01*
X9738493Y5272771D01*
X10006858Y4624861D01*
X10555152Y4050542D01*
X11281492Y3729764D01*
X11597653Y3843641D01*
X11597653Y5588931D01*
X11851653Y5588931D01*
X11851653Y3843641D01*
X12167814Y3729764D01*
X12894154Y4050542D01*
X13442448Y4624861D01*
X13710813Y5272771D01*
X13596600Y5588931D01*
X11851653Y5588931D01*
X11597653Y5588931D01*
X9852706Y5588931D01*
X9738493Y5272771D01*
X9164038Y5272771D01*
X9329806Y5438249D01*
X9629125Y6159091D01*
X9738493Y6159091D01*
X9852706Y5842931D01*
X11597653Y5842931D01*
X11597653Y7588221D01*
X11851653Y7588221D01*
X11851653Y5842931D01*
X13596600Y5842931D01*
X13710813Y6159091D01*
X13442448Y6807001D01*
X12894154Y7381320D01*
X12167814Y7702098D01*
X11851653Y7588221D01*
X11597653Y7588221D01*
X11281492Y7702098D01*
X10555152Y7381320D01*
X10006858Y6807001D01*
X9738493Y6159091D01*
X9629125Y6159091D01*
X9884368Y6773782D01*
X9885630Y8219874D01*
X9333400Y9556372D01*
X8311751Y10579806D01*
X6976218Y11134368D01*
X5530126Y11135630D01*
X4193628Y10583400D01*
X3170194Y9561751D01*
X2615632Y8226218D01*
X2614370Y6780126D01*
X810000Y6780126D01*
X810000Y11558186D01*
X11276514Y11558186D01*
X11350648Y11312067D01*
X11887876Y11118966D01*
X12458107Y11146153D01*
X12858658Y11312067D01*
X12932792Y11558186D01*
X12104653Y12386326D01*
X11276514Y11558186D01*
X810000Y11558186D01*
X810000Y12782708D01*
X10657688Y12782708D01*
X10684875Y12212477D01*
X10850789Y11811926D01*
X11096908Y11737792D01*
X11925048Y12565931D01*
X12284258Y12565931D01*
X13112398Y11737792D01*
X13358517Y11811926D01*
X13551618Y12349154D01*
X13524431Y12919385D01*
X13358517Y13319936D01*
X13112398Y13394070D01*
X12284258Y12565931D01*
X11925048Y12565931D01*
X11096908Y13394070D01*
X10850789Y13319936D01*
X10657688Y12782708D01*
X810000Y12782708D01*
X810000Y13573676D01*
X11276514Y13573676D01*
X12104653Y12745536D01*
X12932792Y13573676D01*
X12858658Y13819795D01*
X12321430Y14012896D01*
X11751199Y13985709D01*
X11350648Y13819795D01*
X11276514Y13573676D01*
X810000Y13573676D01*
X810000Y18626154D01*
X2965000Y18626154D01*
X2965000Y18573846D01*
X3066621Y18062964D01*
X3356012Y17629858D01*
X3789118Y17340467D01*
X4300000Y17238846D01*
X4810882Y17340467D01*
X5243988Y17629858D01*
X5533379Y18062964D01*
X5635000Y18573846D01*
X5635000Y18626154D01*
X5533379Y19137036D01*
X5243988Y19570142D01*
X4810882Y19859533D01*
X4300000Y19961154D01*
X3789118Y19859533D01*
X3356012Y19570142D01*
X3066621Y19137036D01*
X2965000Y18626154D01*
X810000Y18626154D01*
X810000Y23415617D01*
X2964769Y23415617D01*
X3167582Y22924771D01*
X3542796Y22548902D01*
X4033287Y22345232D01*
X4564383Y22344769D01*
X5055229Y22547582D01*
X5431098Y22922796D01*
X5634768Y23413287D01*
X5635231Y23944383D01*
X5432418Y24435229D01*
X5057204Y24811098D01*
X4566713Y25014768D01*
X4035617Y25015231D01*
X3544771Y24812418D01*
X3168902Y24437204D01*
X2965232Y23946713D01*
X2964769Y23415617D01*
X810000Y23415617D01*
X810000Y27228723D01*
X1121604Y26950203D01*
X1466671Y26807284D01*
X1673000Y26930626D01*
X1673000Y27973000D01*
X1927000Y27973000D01*
X1927000Y26930626D01*
X2133329Y26807284D01*
X2478396Y26950203D01*
X2866764Y27297337D01*
X3092727Y27766669D01*
X2970206Y27973000D01*
X1927000Y27973000D01*
X1673000Y27973000D01*
X1653000Y27973000D01*
X1653000Y28227000D01*
X1673000Y28227000D01*
X1673000Y29269374D01*
X1927000Y29269374D01*
X1927000Y28227000D01*
X2970206Y28227000D01*
X3092727Y28433331D01*
X2866764Y28902663D01*
X2478396Y29249797D01*
X2133329Y29392716D01*
X1927000Y29269374D01*
X1673000Y29269374D01*
X1466671Y29392716D01*
X1121604Y29249797D01*
X810000Y28971277D01*
X810000Y32282104D01*
X1042796Y32048902D01*
X1042796Y32048902D01*
G37*
X1042796Y32048902D02*
X1533287Y31845232D01*
X2064383Y31844769D01*
X2555229Y32047582D01*
X2702904Y32195000D01*
X4702560Y32195000D01*
X4702560Y31450000D01*
X4746838Y31214683D01*
X4885910Y30998559D01*
X5098110Y30853569D01*
X5350000Y30802560D01*
X6104440Y30802560D01*
X7345000Y29562000D01*
X7345000Y29341740D01*
X7194345Y29567211D01*
X6842346Y29802409D01*
X6427134Y29885000D01*
X5772866Y29885000D01*
X5357654Y29802409D01*
X5005655Y29567211D01*
X4770457Y29215212D01*
X4687866Y28800000D01*
X4770457Y28384788D01*
X4917315Y28165000D01*
X4770457Y27945212D01*
X4687866Y27530000D01*
X4770457Y27114788D01*
X4813759Y27049981D01*
X4753569Y26961890D01*
X4702560Y26710000D01*
X4702560Y25810000D01*
X4746838Y25574683D01*
X4885910Y25358559D01*
X5098110Y25213569D01*
X5350000Y25162560D01*
X5804440Y25162560D01*
X6888900Y24078100D01*
X6644788Y24029543D01*
X6292789Y23794345D01*
X6057591Y23442346D01*
X5975000Y23027134D01*
X5975000Y22372866D01*
X6057591Y21957654D01*
X6292789Y21605655D01*
X6644788Y21370457D01*
X7060000Y21287866D01*
X7475212Y21370457D01*
X7695000Y21517315D01*
X7914788Y21370457D01*
X8330000Y21287866D01*
X8745212Y21370457D01*
X8800546Y21407430D01*
X9023691Y21315000D01*
X9314250Y21315000D01*
X9473000Y21473750D01*
X9473000Y22573000D01*
X9727000Y22573000D01*
X9727000Y21473750D01*
X9885750Y21315000D01*
X10176309Y21315000D01*
X10409698Y21411673D01*
X10588327Y21590301D01*
X10685000Y21823690D01*
X10685000Y22414250D01*
X10526250Y22573000D01*
X9727000Y22573000D01*
X9473000Y22573000D01*
X9453000Y22573000D01*
X9453000Y22827000D01*
X9473000Y22827000D01*
X9473000Y23926250D01*
X9727000Y23926250D01*
X9727000Y22827000D01*
X10526250Y22827000D01*
X10685000Y22985750D01*
X10685000Y23576310D01*
X10588327Y23809699D01*
X10409698Y23988327D01*
X10176309Y24085000D01*
X9885750Y24085000D01*
X9727000Y23926250D01*
X9473000Y23926250D01*
X9315000Y24084250D01*
X9315000Y25598464D01*
X9405655Y25462789D01*
X9757654Y25227591D01*
X10172866Y25145000D01*
X10192000Y25145000D01*
X11084077Y24252923D01*
X10965232Y23966713D01*
X10964769Y23435617D01*
X11167582Y22944771D01*
X11542796Y22568902D01*
X12033287Y22365232D01*
X12564383Y22364769D01*
X12865000Y22488981D01*
X12865000Y20350000D01*
X12939979Y19973057D01*
X13153500Y19653500D01*
X13162228Y19644772D01*
X12810882Y19879533D01*
X12300000Y19981154D01*
X11789118Y19879533D01*
X11356012Y19590142D01*
X11066621Y19157036D01*
X10965000Y18646154D01*
X10965000Y18593846D01*
X11066621Y18082964D01*
X11356012Y17649858D01*
X11789118Y17360467D01*
X12300000Y17258846D01*
X12810882Y17360467D01*
X13243988Y17649858D01*
X13533379Y18082964D01*
X13635000Y18593846D01*
X13635000Y18646154D01*
X13533379Y19157036D01*
X13298619Y19508381D01*
X13853499Y18953500D01*
X14173057Y18739979D01*
X14550000Y18665000D01*
X19777751Y18665000D01*
X19374424Y18498349D01*
X18998555Y18123135D01*
X18794885Y17632644D01*
X18794422Y17101548D01*
X18997235Y16610702D01*
X19044653Y16563201D01*
X19044653Y16044153D01*
X18998555Y15998135D01*
X18794885Y15507644D01*
X18794422Y14976548D01*
X18997235Y14485702D01*
X19039653Y14443210D01*
X19039653Y13919153D01*
X18993555Y13873135D01*
X18789885Y13382644D01*
X18789422Y12851548D01*
X18992235Y12360702D01*
X19286677Y12065746D01*
X18993555Y11773135D01*
X18789885Y11282644D01*
X18789422Y10751548D01*
X18992235Y10260702D01*
X19014653Y10238245D01*
X19014653Y9719153D01*
X18968555Y9673135D01*
X18764885Y9182644D01*
X18764422Y8651548D01*
X18967235Y8160702D01*
X19274155Y7853246D01*
X18993555Y7573135D01*
X18837004Y7196120D01*
X18807815Y7351248D01*
X18668743Y7567372D01*
X18456543Y7712362D01*
X18204653Y7763371D01*
X18189653Y7763371D01*
X18189653Y11194739D01*
X18356094Y11301841D01*
X18501084Y11514041D01*
X18552093Y11765931D01*
X18552093Y13365931D01*
X18507815Y13601248D01*
X18368743Y13817372D01*
X18156543Y13962362D01*
X17904653Y14013371D01*
X16304653Y14013371D01*
X16069336Y13969093D01*
X15853212Y13830021D01*
X15708222Y13617821D01*
X15657213Y13365931D01*
X15657213Y11765931D01*
X15701491Y11530614D01*
X15840563Y11314490D01*
X16019653Y11192123D01*
X16019653Y7763371D01*
X15404653Y7763371D01*
X15169336Y7719093D01*
X14953212Y7580021D01*
X14808222Y7367821D01*
X14757213Y7115931D01*
X14757213Y4315931D01*
X14801491Y4080614D01*
X14940563Y3864490D01*
X15152763Y3719500D01*
X15404653Y3668491D01*
X18204653Y3668491D01*
X18439970Y3712769D01*
X18656094Y3851841D01*
X18801084Y4064041D01*
X18852093Y4315931D01*
X18852093Y4730931D01*
X19024653Y4730931D01*
X19401596Y4805910D01*
X19721153Y5019431D01*
X20182602Y5480880D01*
X20389036Y5480700D01*
X20879882Y5683513D01*
X21255751Y6058727D01*
X21459421Y6549218D01*
X21459884Y7080314D01*
X21257071Y7571160D01*
X20950151Y7878616D01*
X21230751Y8158727D01*
X21434421Y8649218D01*
X21434884Y9180314D01*
X21232071Y9671160D01*
X21184653Y9718661D01*
X21184653Y10187753D01*
X21255751Y10258727D01*
X21459421Y10749218D01*
X21459884Y11280314D01*
X21257071Y11771160D01*
X20962629Y12066116D01*
X21255751Y12358727D01*
X21459421Y12849218D01*
X21459884Y13380314D01*
X21257071Y13871160D01*
X21209653Y13918661D01*
X21209653Y14432718D01*
X21260751Y14483727D01*
X21464421Y14974218D01*
X21464884Y15505314D01*
X21262071Y15996160D01*
X21214653Y16043661D01*
X21214653Y16562709D01*
X21260751Y16608727D01*
X21464421Y17099218D01*
X21464884Y17630314D01*
X21262071Y18121160D01*
X20886857Y18497029D01*
X20482339Y18665000D01*
X21750000Y18665000D01*
X22126943Y18739979D01*
X22446500Y18953500D01*
X23158037Y19665037D01*
X23484187Y19664752D01*
X24011800Y19882757D01*
X24415824Y20286077D01*
X24449813Y20367931D01*
X24482757Y20288200D01*
X24886077Y19884176D01*
X25413309Y19665250D01*
X25984187Y19664752D01*
X26511800Y19882757D01*
X26915824Y20286077D01*
X27055491Y20622433D01*
X27058986Y16375931D01*
X26344653Y16375931D01*
X26344653Y16668671D01*
X26469186Y16855049D01*
X26570807Y17365931D01*
X26469186Y17876813D01*
X26179795Y18309919D01*
X25746689Y18599310D01*
X25235807Y18700931D01*
X25183499Y18700931D01*
X24672617Y18599310D01*
X24239511Y18309919D01*
X23950120Y17876813D01*
X23848499Y17365931D01*
X23950120Y16855049D01*
X24074653Y16668671D01*
X24074653Y15938191D01*
X23950120Y15751813D01*
X23848499Y15240931D01*
X23950120Y14730049D01*
X24239511Y14296943D01*
X24414377Y14180101D01*
X24234511Y14059919D01*
X23945120Y13626813D01*
X23843499Y13115931D01*
X23945120Y12605049D01*
X24119653Y12343841D01*
X24119653Y11788021D01*
X23945120Y11526813D01*
X23843499Y11015931D01*
X23945120Y10505049D01*
X24234511Y10071943D01*
X24380670Y9974283D01*
X24209511Y9859919D01*
X23920120Y9426813D01*
X23818499Y8915931D01*
X23920120Y8405049D01*
X24119653Y8106426D01*
X24119653Y7588021D01*
X23945120Y7326813D01*
X23843499Y6815931D01*
X23945120Y6305049D01*
X24234511Y5871943D01*
X24667617Y5582552D01*
X25178499Y5480931D01*
X25230807Y5480931D01*
X25741689Y5582552D01*
X26174795Y5871943D01*
X26464186Y6305049D01*
X26565807Y6815931D01*
X26464186Y7326813D01*
X26289653Y7588021D01*
X26289653Y8181256D01*
X26439186Y8405049D01*
X26540807Y8915931D01*
X26439186Y9426813D01*
X26149795Y9859919D01*
X26003636Y9957579D01*
X26174795Y10071943D01*
X26464186Y10505049D01*
X26565807Y11015931D01*
X26464186Y11526813D01*
X26289653Y11788021D01*
X26289653Y12343841D01*
X26464186Y12605049D01*
X26565807Y13115931D01*
X26464186Y13626813D01*
X26174795Y14059919D01*
X26105933Y14105931D01*
X27033937Y14105931D01*
X27060877Y14078991D01*
X27071798Y810000D01*
X810000Y810000D01*
X810000Y6780126D01*
X2614370Y6780126D01*
X3166600Y5443628D01*
X4188249Y4420194D01*
X5523782Y3865632D01*
X6969874Y3864370D01*
X8306372Y4416600D01*
X9164038Y5272771D01*
X9738493Y5272771D01*
X10006858Y4624861D01*
X10555152Y4050542D01*
X11281492Y3729764D01*
X11597653Y3843641D01*
X11597653Y5588931D01*
X11851653Y5588931D01*
X11851653Y3843641D01*
X12167814Y3729764D01*
X12894154Y4050542D01*
X13442448Y4624861D01*
X13710813Y5272771D01*
X13596600Y5588931D01*
X11851653Y5588931D01*
X11597653Y5588931D01*
X9852706Y5588931D01*
X9738493Y5272771D01*
X9164038Y5272771D01*
X9329806Y5438249D01*
X9629125Y6159091D01*
X9738493Y6159091D01*
X9852706Y5842931D01*
X11597653Y5842931D01*
X11597653Y7588221D01*
X11851653Y7588221D01*
X11851653Y5842931D01*
X13596600Y5842931D01*
X13710813Y6159091D01*
X13442448Y6807001D01*
X12894154Y7381320D01*
X12167814Y7702098D01*
X11851653Y7588221D01*
X11597653Y7588221D01*
X11281492Y7702098D01*
X10555152Y7381320D01*
X10006858Y6807001D01*
X9738493Y6159091D01*
X9629125Y6159091D01*
X9884368Y6773782D01*
X9885630Y8219874D01*
X9333400Y9556372D01*
X8311751Y10579806D01*
X6976218Y11134368D01*
X5530126Y11135630D01*
X4193628Y10583400D01*
X3170194Y9561751D01*
X2615632Y8226218D01*
X2614370Y6780126D01*
X810000Y6780126D01*
X810000Y11558186D01*
X11276514Y11558186D01*
X11350648Y11312067D01*
X11887876Y11118966D01*
X12458107Y11146153D01*
X12858658Y11312067D01*
X12932792Y11558186D01*
X12104653Y12386326D01*
X11276514Y11558186D01*
X810000Y11558186D01*
X810000Y12782708D01*
X10657688Y12782708D01*
X10684875Y12212477D01*
X10850789Y11811926D01*
X11096908Y11737792D01*
X11925048Y12565931D01*
X12284258Y12565931D01*
X13112398Y11737792D01*
X13358517Y11811926D01*
X13551618Y12349154D01*
X13524431Y12919385D01*
X13358517Y13319936D01*
X13112398Y13394070D01*
X12284258Y12565931D01*
X11925048Y12565931D01*
X11096908Y13394070D01*
X10850789Y13319936D01*
X10657688Y12782708D01*
X810000Y12782708D01*
X810000Y13573676D01*
X11276514Y13573676D01*
X12104653Y12745536D01*
X12932792Y13573676D01*
X12858658Y13819795D01*
X12321430Y14012896D01*
X11751199Y13985709D01*
X11350648Y13819795D01*
X11276514Y13573676D01*
X810000Y13573676D01*
X810000Y18626154D01*
X2965000Y18626154D01*
X2965000Y18573846D01*
X3066621Y18062964D01*
X3356012Y17629858D01*
X3789118Y17340467D01*
X4300000Y17238846D01*
X4810882Y17340467D01*
X5243988Y17629858D01*
X5533379Y18062964D01*
X5635000Y18573846D01*
X5635000Y18626154D01*
X5533379Y19137036D01*
X5243988Y19570142D01*
X4810882Y19859533D01*
X4300000Y19961154D01*
X3789118Y19859533D01*
X3356012Y19570142D01*
X3066621Y19137036D01*
X2965000Y18626154D01*
X810000Y18626154D01*
X810000Y23415617D01*
X2964769Y23415617D01*
X3167582Y22924771D01*
X3542796Y22548902D01*
X4033287Y22345232D01*
X4564383Y22344769D01*
X5055229Y22547582D01*
X5431098Y22922796D01*
X5634768Y23413287D01*
X5635231Y23944383D01*
X5432418Y24435229D01*
X5057204Y24811098D01*
X4566713Y25014768D01*
X4035617Y25015231D01*
X3544771Y24812418D01*
X3168902Y24437204D01*
X2965232Y23946713D01*
X2964769Y23415617D01*
X810000Y23415617D01*
X810000Y27228723D01*
X1121604Y26950203D01*
X1466671Y26807284D01*
X1673000Y26930626D01*
X1673000Y27973000D01*
X1927000Y27973000D01*
X1927000Y26930626D01*
X2133329Y26807284D01*
X2478396Y26950203D01*
X2866764Y27297337D01*
X3092727Y27766669D01*
X2970206Y27973000D01*
X1927000Y27973000D01*
X1673000Y27973000D01*
X1653000Y27973000D01*
X1653000Y28227000D01*
X1673000Y28227000D01*
X1673000Y29269374D01*
X1927000Y29269374D01*
X1927000Y28227000D01*
X2970206Y28227000D01*
X3092727Y28433331D01*
X2866764Y28902663D01*
X2478396Y29249797D01*
X2133329Y29392716D01*
X1927000Y29269374D01*
X1673000Y29269374D01*
X1466671Y29392716D01*
X1121604Y29249797D01*
X810000Y28971277D01*
X810000Y32282104D01*
X1042796Y32048902D01*
G36*
X17644765Y27681656D02*
X17850617Y27183457D01*
X18231452Y26801957D01*
X18509116Y26686661D01*
X18294131Y26597611D01*
X18229831Y26359774D01*
X19000000Y25589605D01*
X19770169Y26359774D01*
X19705869Y26597611D01*
X19473828Y26679669D01*
X19766543Y26800617D01*
X20148043Y27181452D01*
X20315000Y27583529D01*
X20315000Y25812940D01*
X20313648Y25811588D01*
X20187611Y26115869D01*
X19949774Y26180169D01*
X19179605Y25410000D01*
X19193748Y25395857D01*
X19014143Y25216252D01*
X19000000Y25230395D01*
X18229831Y24460226D01*
X18294131Y24222389D01*
X18615678Y24108678D01*
X16942000Y22435000D01*
X16523047Y22435000D01*
X16377204Y22581098D01*
X15886713Y22784768D01*
X15355617Y22785231D01*
X14864771Y22582418D01*
X14835000Y22552699D01*
X14835000Y23835143D01*
X15264383Y23834769D01*
X15755229Y24037582D01*
X16131098Y24412796D01*
X16334768Y24903287D01*
X16335231Y25434383D01*
X16263636Y25607658D01*
X17632667Y25607658D01*
X17661108Y25069356D01*
X17812389Y24704131D01*
X18050226Y24639831D01*
X18820395Y25410000D01*
X18050226Y26180169D01*
X17812389Y26115869D01*
X17632667Y25607658D01*
X16263636Y25607658D01*
X16132418Y25925229D01*
X15985000Y26072904D01*
X15985000Y26082000D01*
X17644818Y27741818D01*
X17644765Y27681656D01*
X17644765Y27681656D01*
G37*
X17644765Y27681656D02*
X17850617Y27183457D01*
X18231452Y26801957D01*
X18509116Y26686661D01*
X18294131Y26597611D01*
X18229831Y26359774D01*
X19000000Y25589605D01*
X19770169Y26359774D01*
X19705869Y26597611D01*
X19473828Y26679669D01*
X19766543Y26800617D01*
X20148043Y27181452D01*
X20315000Y27583529D01*
X20315000Y25812940D01*
X20313648Y25811588D01*
X20187611Y26115869D01*
X19949774Y26180169D01*
X19179605Y25410000D01*
X19193748Y25395857D01*
X19014143Y25216252D01*
X19000000Y25230395D01*
X18229831Y24460226D01*
X18294131Y24222389D01*
X18615678Y24108678D01*
X16942000Y22435000D01*
X16523047Y22435000D01*
X16377204Y22581098D01*
X15886713Y22784768D01*
X15355617Y22785231D01*
X14864771Y22582418D01*
X14835000Y22552699D01*
X14835000Y23835143D01*
X15264383Y23834769D01*
X15755229Y24037582D01*
X16131098Y24412796D01*
X16334768Y24903287D01*
X16335231Y25434383D01*
X16263636Y25607658D01*
X17632667Y25607658D01*
X17661108Y25069356D01*
X17812389Y24704131D01*
X18050226Y24639831D01*
X18820395Y25410000D01*
X18050226Y26180169D01*
X17812389Y26115869D01*
X17632667Y25607658D01*
X16263636Y25607658D01*
X16132418Y25925229D01*
X15985000Y26072904D01*
X15985000Y26082000D01*
X17644818Y27741818D01*
X17644765Y27681656D01*
G36*
X26334176Y32013923D02*
X26115250Y31486691D01*
X26114752Y30915813D01*
X26332757Y30388200D01*
X26736077Y29984176D01*
X27047893Y29854699D01*
X27052230Y24585000D01*
X26744345Y24585000D01*
X26513923Y24815824D01*
X25986691Y25034750D01*
X25415813Y25035248D01*
X24888200Y24817243D01*
X24484176Y24413923D01*
X24450187Y24332069D01*
X24417243Y24411800D01*
X24246268Y24583073D01*
X24426500Y24703500D01*
X25126500Y25403499D01*
X25340021Y25723057D01*
X25357315Y25810000D01*
X25415000Y26100000D01*
X25415000Y26194556D01*
X25700000Y26137866D01*
X26115212Y26220457D01*
X26467211Y26455655D01*
X26702409Y26807654D01*
X26785000Y27222866D01*
X26785000Y27877134D01*
X26702409Y28292346D01*
X26685000Y28318400D01*
X26685000Y29000000D01*
X26610021Y29376943D01*
X26396500Y29696500D01*
X26146500Y29946500D01*
X25826943Y30160021D01*
X25450000Y30235000D01*
X22399998Y30235000D01*
X22023055Y30160021D01*
X21703498Y29946500D01*
X20603500Y28846502D01*
X20389979Y28526945D01*
X20337252Y28261867D01*
X20149383Y28716543D01*
X19768548Y29098043D01*
X19474736Y29220045D01*
X19766543Y29340617D01*
X20148043Y29721452D01*
X20354764Y30219291D01*
X20355235Y30758344D01*
X20149383Y31256543D01*
X19768548Y31638043D01*
X19270709Y31844764D01*
X18731656Y31845235D01*
X18233457Y31639383D01*
X17851957Y31258548D01*
X17645236Y30760709D01*
X17645033Y30528033D01*
X14335009Y27218009D01*
X14335009Y28749991D01*
X14260030Y29126934D01*
X14239987Y29156930D01*
X14489118Y28990467D01*
X15000000Y28888846D01*
X15510882Y28990467D01*
X15943988Y29279858D01*
X16233379Y29712964D01*
X16335000Y30223846D01*
X16335000Y30276154D01*
X16233379Y30787036D01*
X15985000Y31158763D01*
X15985000Y31446953D01*
X16131098Y31592796D01*
X16327174Y32064999D01*
X26385341Y32064999D01*
X26334176Y32013923D01*
X26334176Y32013923D01*
G37*
X26334176Y32013923D02*
X26115250Y31486691D01*
X26114752Y30915813D01*
X26332757Y30388200D01*
X26736077Y29984176D01*
X27047893Y29854699D01*
X27052230Y24585000D01*
X26744345Y24585000D01*
X26513923Y24815824D01*
X25986691Y25034750D01*
X25415813Y25035248D01*
X24888200Y24817243D01*
X24484176Y24413923D01*
X24450187Y24332069D01*
X24417243Y24411800D01*
X24246268Y24583073D01*
X24426500Y24703500D01*
X25126500Y25403499D01*
X25340021Y25723057D01*
X25357315Y25810000D01*
X25415000Y26100000D01*
X25415000Y26194556D01*
X25700000Y26137866D01*
X26115212Y26220457D01*
X26467211Y26455655D01*
X26702409Y26807654D01*
X26785000Y27222866D01*
X26785000Y27877134D01*
X26702409Y28292346D01*
X26685000Y28318400D01*
X26685000Y29000000D01*
X26610021Y29376943D01*
X26396500Y29696500D01*
X26146500Y29946500D01*
X25826943Y30160021D01*
X25450000Y30235000D01*
X22399998Y30235000D01*
X22023055Y30160021D01*
X21703498Y29946500D01*
X20603500Y28846502D01*
X20389979Y28526945D01*
X20337252Y28261867D01*
X20149383Y28716543D01*
X19768548Y29098043D01*
X19474736Y29220045D01*
X19766543Y29340617D01*
X20148043Y29721452D01*
X20354764Y30219291D01*
X20355235Y30758344D01*
X20149383Y31256543D01*
X19768548Y31638043D01*
X19270709Y31844764D01*
X18731656Y31845235D01*
X18233457Y31639383D01*
X17851957Y31258548D01*
X17645236Y30760709D01*
X17645033Y30528033D01*
X14335009Y27218009D01*
X14335009Y28749991D01*
X14260030Y29126934D01*
X14239987Y29156930D01*
X14489118Y28990467D01*
X15000000Y28888846D01*
X15510882Y28990467D01*
X15943988Y29279858D01*
X16233379Y29712964D01*
X16335000Y30223846D01*
X16335000Y30276154D01*
X16233379Y30787036D01*
X15985000Y31158763D01*
X15985000Y31446953D01*
X16131098Y31592796D01*
X16327174Y32064999D01*
X26385341Y32064999D01*
X26334176Y32013923D01*
G36*
X14015000Y38338763D02*
X13766621Y37967036D01*
X13665000Y37456154D01*
X13665000Y37403846D01*
X13766621Y36892964D01*
X14056012Y36459858D01*
X14489118Y36170467D01*
X14960247Y36076753D01*
X15683500Y35353500D01*
X16003057Y35139979D01*
X16380000Y35065000D01*
X16487370Y35065000D01*
X16496838Y35014683D01*
X16635910Y34798559D01*
X16848110Y34653569D01*
X17100000Y34602560D01*
X18700000Y34602560D01*
X18935317Y34646838D01*
X19151441Y34785910D01*
X19296431Y34998110D01*
X19317680Y35103041D01*
X19586077Y34834176D01*
X20113309Y34615250D01*
X20684187Y34614752D01*
X21211800Y34832757D01*
X21615824Y35236077D01*
X21834750Y35763309D01*
X21834751Y35764999D01*
X24435516Y35764999D01*
X24284176Y35613923D01*
X24065250Y35086691D01*
X24064752Y34515813D01*
X24263420Y34034999D01*
X15699999Y34034999D01*
X15323056Y33960020D01*
X15003499Y33746499D01*
X14942051Y33685051D01*
X14735617Y33685231D01*
X14244771Y33482418D01*
X13868902Y33107204D01*
X13665232Y32616713D01*
X13664769Y32085617D01*
X13867582Y31594771D01*
X14015000Y31447096D01*
X14015000Y31158763D01*
X13766621Y30787036D01*
X13665000Y30276154D01*
X13665000Y30223846D01*
X13763290Y29729710D01*
X12444326Y31048674D01*
X12546431Y31198110D01*
X12597440Y31450000D01*
X12597440Y32350000D01*
X12553162Y32585317D01*
X12486022Y32689655D01*
X12529543Y32754788D01*
X12612134Y33170000D01*
X12529543Y33585212D01*
X12382685Y33805000D01*
X12529543Y34024788D01*
X12612134Y34440000D01*
X12529543Y34855212D01*
X12294345Y35207211D01*
X11942346Y35442409D01*
X11527134Y35525000D01*
X10872866Y35525000D01*
X10457654Y35442409D01*
X10431600Y35425000D01*
X9818000Y35425000D01*
X8177093Y37065907D01*
X8083379Y37537036D01*
X7793988Y37970142D01*
X7360882Y38259533D01*
X6850000Y38361154D01*
X6339118Y38259533D01*
X5906012Y37970142D01*
X5775000Y37774068D01*
X5643988Y37970142D01*
X5210882Y38259533D01*
X4700000Y38361154D01*
X4189118Y38259533D01*
X3756012Y37970142D01*
X3466621Y37537036D01*
X3365000Y37026154D01*
X3365000Y36973846D01*
X3466621Y36462964D01*
X3756012Y36029858D01*
X4189118Y35740467D01*
X4660247Y35646753D01*
X5062084Y35244916D01*
X5005655Y35207211D01*
X4770457Y34855212D01*
X4687866Y34440000D01*
X4742567Y34165000D01*
X2703047Y34165000D01*
X2587848Y34280400D01*
X2605229Y34287582D01*
X2981098Y34662796D01*
X3184768Y35153287D01*
X3185231Y35684383D01*
X2982418Y36175229D01*
X2835000Y36322904D01*
X2835000Y37492000D01*
X4108000Y38765000D01*
X7192000Y38765000D01*
X8953500Y37003500D01*
X9273057Y36789979D01*
X9650000Y36715000D01*
X10331600Y36715000D01*
X10357654Y36697591D01*
X10772866Y36615000D01*
X11427134Y36615000D01*
X11842346Y36697591D01*
X12194345Y36932789D01*
X12429543Y37284788D01*
X12512134Y37700000D01*
X12455444Y37985000D01*
X12570000Y37985000D01*
X12946943Y38059979D01*
X13266500Y38273500D01*
X13746501Y38753500D01*
X13960021Y39073057D01*
X14015000Y39349454D01*
X14015000Y38338763D01*
X14015000Y38338763D01*
G37*
X14015000Y38338763D02*
X13766621Y37967036D01*
X13665000Y37456154D01*
X13665000Y37403846D01*
X13766621Y36892964D01*
X14056012Y36459858D01*
X14489118Y36170467D01*
X14960247Y36076753D01*
X15683500Y35353500D01*
X16003057Y35139979D01*
X16380000Y35065000D01*
X16487370Y35065000D01*
X16496838Y35014683D01*
X16635910Y34798559D01*
X16848110Y34653569D01*
X17100000Y34602560D01*
X18700000Y34602560D01*
X18935317Y34646838D01*
X19151441Y34785910D01*
X19296431Y34998110D01*
X19317680Y35103041D01*
X19586077Y34834176D01*
X20113309Y34615250D01*
X20684187Y34614752D01*
X21211800Y34832757D01*
X21615824Y35236077D01*
X21834750Y35763309D01*
X21834751Y35764999D01*
X24435516Y35764999D01*
X24284176Y35613923D01*
X24065250Y35086691D01*
X24064752Y34515813D01*
X24263420Y34034999D01*
X15699999Y34034999D01*
X15323056Y33960020D01*
X15003499Y33746499D01*
X14942051Y33685051D01*
X14735617Y33685231D01*
X14244771Y33482418D01*
X13868902Y33107204D01*
X13665232Y32616713D01*
X13664769Y32085617D01*
X13867582Y31594771D01*
X14015000Y31447096D01*
X14015000Y31158763D01*
X13766621Y30787036D01*
X13665000Y30276154D01*
X13665000Y30223846D01*
X13763290Y29729710D01*
X12444326Y31048674D01*
X12546431Y31198110D01*
X12597440Y31450000D01*
X12597440Y32350000D01*
X12553162Y32585317D01*
X12486022Y32689655D01*
X12529543Y32754788D01*
X12612134Y33170000D01*
X12529543Y33585212D01*
X12382685Y33805000D01*
X12529543Y34024788D01*
X12612134Y34440000D01*
X12529543Y34855212D01*
X12294345Y35207211D01*
X11942346Y35442409D01*
X11527134Y35525000D01*
X10872866Y35525000D01*
X10457654Y35442409D01*
X10431600Y35425000D01*
X9818000Y35425000D01*
X8177093Y37065907D01*
X8083379Y37537036D01*
X7793988Y37970142D01*
X7360882Y38259533D01*
X6850000Y38361154D01*
X6339118Y38259533D01*
X5906012Y37970142D01*
X5775000Y37774068D01*
X5643988Y37970142D01*
X5210882Y38259533D01*
X4700000Y38361154D01*
X4189118Y38259533D01*
X3756012Y37970142D01*
X3466621Y37537036D01*
X3365000Y37026154D01*
X3365000Y36973846D01*
X3466621Y36462964D01*
X3756012Y36029858D01*
X4189118Y35740467D01*
X4660247Y35646753D01*
X5062084Y35244916D01*
X5005655Y35207211D01*
X4770457Y34855212D01*
X4687866Y34440000D01*
X4742567Y34165000D01*
X2703047Y34165000D01*
X2587848Y34280400D01*
X2605229Y34287582D01*
X2981098Y34662796D01*
X3184768Y35153287D01*
X3185231Y35684383D01*
X2982418Y36175229D01*
X2835000Y36322904D01*
X2835000Y37492000D01*
X4108000Y38765000D01*
X7192000Y38765000D01*
X8953500Y37003500D01*
X9273057Y36789979D01*
X9650000Y36715000D01*
X10331600Y36715000D01*
X10357654Y36697591D01*
X10772866Y36615000D01*
X11427134Y36615000D01*
X11842346Y36697591D01*
X12194345Y36932789D01*
X12429543Y37284788D01*
X12512134Y37700000D01*
X12455444Y37985000D01*
X12570000Y37985000D01*
X12946943Y38059979D01*
X13266500Y38273500D01*
X13746501Y38753500D01*
X13960021Y39073057D01*
X14015000Y39349454D01*
X14015000Y38338763D01*
G36*
X18100000Y51695000D02*
X21971011Y51695000D01*
X21853035Y51366777D01*
X21880222Y50796546D01*
X22046136Y50395995D01*
X22292255Y50321861D01*
X23120395Y51150000D01*
X23106252Y51164142D01*
X23285858Y51343747D01*
X23300000Y51329605D01*
X23314143Y51343747D01*
X23493748Y51164142D01*
X23479605Y51150000D01*
X24307745Y50321861D01*
X24525420Y50387427D01*
X24646136Y50095995D01*
X24892255Y50021861D01*
X25720395Y50850000D01*
X25706252Y50864142D01*
X25885858Y51043748D01*
X25900000Y51029605D01*
X25914142Y51043748D01*
X26093748Y50864142D01*
X26079605Y50850000D01*
X26093748Y50835858D01*
X25914142Y50656252D01*
X25900000Y50670395D01*
X25071861Y49842255D01*
X25145995Y49596136D01*
X25683223Y49403035D01*
X26253454Y49430222D01*
X26654005Y49596136D01*
X26728139Y49842253D01*
X26765000Y49805392D01*
X26765000Y47350005D01*
X26764999Y47350000D01*
X26889457Y46724312D01*
X27034187Y46507709D01*
X27039579Y39955999D01*
X25018579Y37934999D01*
X21199999Y37934999D01*
X20784787Y37852408D01*
X20556692Y37700000D01*
X20432788Y37617210D01*
X20300665Y37485087D01*
X20115813Y37485248D01*
X19588200Y37267243D01*
X19319417Y36998928D01*
X19303162Y37085317D01*
X19164090Y37301441D01*
X18951890Y37446431D01*
X18700000Y37497440D01*
X17100000Y37497440D01*
X16864683Y37453162D01*
X16648559Y37314090D01*
X16591873Y37231127D01*
X16327093Y37495907D01*
X16233379Y37967036D01*
X15985000Y38338763D01*
X15985000Y39628249D01*
X16259533Y40039118D01*
X16261374Y40048374D01*
X16498617Y40285617D01*
X18744769Y40285617D01*
X18947582Y39794771D01*
X19322796Y39418902D01*
X19813287Y39215232D01*
X20344383Y39214769D01*
X20835229Y39417582D01*
X21211098Y39792796D01*
X21414768Y40283287D01*
X21415231Y40814383D01*
X21212418Y41305229D01*
X20837204Y41681098D01*
X20346713Y41884768D01*
X19815617Y41885231D01*
X19324771Y41682418D01*
X18948902Y41307204D01*
X18745232Y40816713D01*
X18744769Y40285617D01*
X16498617Y40285617D01*
X18295560Y42082560D01*
X18750000Y42082560D01*
X18985317Y42126838D01*
X19201441Y42265910D01*
X19346431Y42478110D01*
X19397440Y42730000D01*
X19397440Y43630000D01*
X19353162Y43865317D01*
X19286022Y43969655D01*
X19329543Y44034788D01*
X19412134Y44450000D01*
X19329543Y44865212D01*
X19182685Y45085000D01*
X19329543Y45304788D01*
X19412134Y45720000D01*
X19408959Y45735959D01*
X20746500Y47073500D01*
X20764790Y47100873D01*
X20805229Y47117582D01*
X21181098Y47492796D01*
X21384768Y47983287D01*
X21385101Y48365813D01*
X21864752Y48365813D01*
X22082757Y47838200D01*
X22486077Y47434176D01*
X23013309Y47215250D01*
X23584187Y47214752D01*
X24111800Y47432757D01*
X24515824Y47836077D01*
X24734750Y48363309D01*
X24735248Y48934187D01*
X24517243Y49461800D01*
X24113923Y49865824D01*
X24047456Y49893423D01*
X24054005Y49896136D01*
X24128139Y50142255D01*
X23300000Y50970395D01*
X22471861Y50142255D01*
X22545995Y49896136D01*
X22552483Y49893804D01*
X22488200Y49867243D01*
X22084176Y49463923D01*
X21865250Y48936691D01*
X21864752Y48365813D01*
X21385101Y48365813D01*
X21385231Y48514383D01*
X21182418Y49005229D01*
X20807204Y49381098D01*
X20316713Y49584768D01*
X19785617Y49585231D01*
X19294771Y49382418D01*
X18918902Y49007204D01*
X18715232Y48516713D01*
X18714769Y47985617D01*
X18760921Y47873921D01*
X17692000Y46805000D01*
X17672866Y46805000D01*
X17257654Y46722409D01*
X16905655Y46487211D01*
X16670457Y46135212D01*
X16587866Y45720000D01*
X16644556Y45435000D01*
X15800000Y45435000D01*
X15423057Y45360021D01*
X15135000Y45167548D01*
X15135000Y46976953D01*
X15281098Y47122796D01*
X15484768Y47613287D01*
X15485231Y48144383D01*
X15282418Y48635229D01*
X14907204Y49011098D01*
X14530514Y49167514D01*
X15191796Y49828796D01*
X15386077Y49634176D01*
X15913309Y49415250D01*
X16484187Y49414752D01*
X17011800Y49632757D01*
X17415824Y50036077D01*
X17634750Y50563309D01*
X17635248Y51134187D01*
X17417243Y51661800D01*
X17364136Y51715000D01*
X17999453Y51715000D01*
X18100000Y51695000D01*
X18100000Y51695000D01*
G37*
X18100000Y51695000D02*
X21971011Y51695000D01*
X21853035Y51366777D01*
X21880222Y50796546D01*
X22046136Y50395995D01*
X22292255Y50321861D01*
X23120395Y51150000D01*
X23106252Y51164142D01*
X23285858Y51343747D01*
X23300000Y51329605D01*
X23314143Y51343747D01*
X23493748Y51164142D01*
X23479605Y51150000D01*
X24307745Y50321861D01*
X24525420Y50387427D01*
X24646136Y50095995D01*
X24892255Y50021861D01*
X25720395Y50850000D01*
X25706252Y50864142D01*
X25885858Y51043748D01*
X25900000Y51029605D01*
X25914142Y51043748D01*
X26093748Y50864142D01*
X26079605Y50850000D01*
X26093748Y50835858D01*
X25914142Y50656252D01*
X25900000Y50670395D01*
X25071861Y49842255D01*
X25145995Y49596136D01*
X25683223Y49403035D01*
X26253454Y49430222D01*
X26654005Y49596136D01*
X26728139Y49842253D01*
X26765000Y49805392D01*
X26765000Y47350005D01*
X26764999Y47350000D01*
X26889457Y46724312D01*
X27034187Y46507709D01*
X27039579Y39955999D01*
X25018579Y37934999D01*
X21199999Y37934999D01*
X20784787Y37852408D01*
X20556692Y37700000D01*
X20432788Y37617210D01*
X20300665Y37485087D01*
X20115813Y37485248D01*
X19588200Y37267243D01*
X19319417Y36998928D01*
X19303162Y37085317D01*
X19164090Y37301441D01*
X18951890Y37446431D01*
X18700000Y37497440D01*
X17100000Y37497440D01*
X16864683Y37453162D01*
X16648559Y37314090D01*
X16591873Y37231127D01*
X16327093Y37495907D01*
X16233379Y37967036D01*
X15985000Y38338763D01*
X15985000Y39628249D01*
X16259533Y40039118D01*
X16261374Y40048374D01*
X16498617Y40285617D01*
X18744769Y40285617D01*
X18947582Y39794771D01*
X19322796Y39418902D01*
X19813287Y39215232D01*
X20344383Y39214769D01*
X20835229Y39417582D01*
X21211098Y39792796D01*
X21414768Y40283287D01*
X21415231Y40814383D01*
X21212418Y41305229D01*
X20837204Y41681098D01*
X20346713Y41884768D01*
X19815617Y41885231D01*
X19324771Y41682418D01*
X18948902Y41307204D01*
X18745232Y40816713D01*
X18744769Y40285617D01*
X16498617Y40285617D01*
X18295560Y42082560D01*
X18750000Y42082560D01*
X18985317Y42126838D01*
X19201441Y42265910D01*
X19346431Y42478110D01*
X19397440Y42730000D01*
X19397440Y43630000D01*
X19353162Y43865317D01*
X19286022Y43969655D01*
X19329543Y44034788D01*
X19412134Y44450000D01*
X19329543Y44865212D01*
X19182685Y45085000D01*
X19329543Y45304788D01*
X19412134Y45720000D01*
X19408959Y45735959D01*
X20746500Y47073500D01*
X20764790Y47100873D01*
X20805229Y47117582D01*
X21181098Y47492796D01*
X21384768Y47983287D01*
X21385101Y48365813D01*
X21864752Y48365813D01*
X22082757Y47838200D01*
X22486077Y47434176D01*
X23013309Y47215250D01*
X23584187Y47214752D01*
X24111800Y47432757D01*
X24515824Y47836077D01*
X24734750Y48363309D01*
X24735248Y48934187D01*
X24517243Y49461800D01*
X24113923Y49865824D01*
X24047456Y49893423D01*
X24054005Y49896136D01*
X24128139Y50142255D01*
X23300000Y50970395D01*
X22471861Y50142255D01*
X22545995Y49896136D01*
X22552483Y49893804D01*
X22488200Y49867243D01*
X22084176Y49463923D01*
X21865250Y48936691D01*
X21864752Y48365813D01*
X21385101Y48365813D01*
X21385231Y48514383D01*
X21182418Y49005229D01*
X20807204Y49381098D01*
X20316713Y49584768D01*
X19785617Y49585231D01*
X19294771Y49382418D01*
X18918902Y49007204D01*
X18715232Y48516713D01*
X18714769Y47985617D01*
X18760921Y47873921D01*
X17692000Y46805000D01*
X17672866Y46805000D01*
X17257654Y46722409D01*
X16905655Y46487211D01*
X16670457Y46135212D01*
X16587866Y45720000D01*
X16644556Y45435000D01*
X15800000Y45435000D01*
X15423057Y45360021D01*
X15135000Y45167548D01*
X15135000Y46976953D01*
X15281098Y47122796D01*
X15484768Y47613287D01*
X15485231Y48144383D01*
X15282418Y48635229D01*
X14907204Y49011098D01*
X14530514Y49167514D01*
X15191796Y49828796D01*
X15386077Y49634176D01*
X15913309Y49415250D01*
X16484187Y49414752D01*
X17011800Y49632757D01*
X17415824Y50036077D01*
X17634750Y50563309D01*
X17635248Y51134187D01*
X17417243Y51661800D01*
X17364136Y51715000D01*
X17999453Y51715000D01*
X18100000Y51695000D01*
G36*
X870657Y46800657D02*
X1319983Y46500427D01*
X1850000Y46395000D01*
X4810406Y46395000D01*
X4770457Y46335212D01*
X4687866Y45920000D01*
X4770457Y45504788D01*
X4813759Y45439981D01*
X4753569Y45351890D01*
X4702560Y45100000D01*
X4702560Y44200000D01*
X4746838Y43964683D01*
X4885910Y43748559D01*
X5098110Y43603569D01*
X5350000Y43552560D01*
X6850000Y43552560D01*
X7085317Y43596838D01*
X7191244Y43665000D01*
X8843556Y43665000D01*
X8799474Y43620918D01*
X8914723Y43505669D01*
X8678958Y43443831D01*
X8502581Y42942878D01*
X8531336Y42412560D01*
X8678958Y42056169D01*
X8914725Y41994331D01*
X9670395Y42750000D01*
X9656252Y42764142D01*
X9835858Y42943748D01*
X9850000Y42929605D01*
X9864142Y42943748D01*
X10043748Y42764142D01*
X10029605Y42750000D01*
X10785275Y41994331D01*
X10922131Y42030226D01*
X11056012Y41829858D01*
X11421055Y41585945D01*
X11669560Y41337440D01*
X10350000Y41337440D01*
X10114683Y41293162D01*
X10008756Y41225000D01*
X9098000Y41225000D01*
X8508275Y41814725D01*
X9094331Y41814725D01*
X9156169Y41578958D01*
X9657122Y41402581D01*
X10187440Y41431336D01*
X10543831Y41578958D01*
X10605669Y41814725D01*
X9850000Y42570395D01*
X9094331Y41814725D01*
X8508275Y41814725D01*
X8185051Y42137949D01*
X8185231Y42344383D01*
X7982418Y42835229D01*
X7607204Y43211098D01*
X7116713Y43414768D01*
X6585617Y43415231D01*
X6094771Y43212418D01*
X5947096Y43065000D01*
X5603047Y43065000D01*
X5457204Y43211098D01*
X4966713Y43414768D01*
X4435617Y43415231D01*
X3944771Y43212418D01*
X3568902Y42837204D01*
X3433025Y42509975D01*
X3185051Y42757949D01*
X3185231Y42964383D01*
X2982418Y43455229D01*
X2607204Y43831098D01*
X2116713Y44034768D01*
X1585617Y44035231D01*
X1094771Y43832418D01*
X810000Y43548143D01*
X810000Y46891437D01*
X870657Y46800657D01*
X870657Y46800657D01*
G37*
X870657Y46800657D02*
X1319983Y46500427D01*
X1850000Y46395000D01*
X4810406Y46395000D01*
X4770457Y46335212D01*
X4687866Y45920000D01*
X4770457Y45504788D01*
X4813759Y45439981D01*
X4753569Y45351890D01*
X4702560Y45100000D01*
X4702560Y44200000D01*
X4746838Y43964683D01*
X4885910Y43748559D01*
X5098110Y43603569D01*
X5350000Y43552560D01*
X6850000Y43552560D01*
X7085317Y43596838D01*
X7191244Y43665000D01*
X8843556Y43665000D01*
X8799474Y43620918D01*
X8914723Y43505669D01*
X8678958Y43443831D01*
X8502581Y42942878D01*
X8531336Y42412560D01*
X8678958Y42056169D01*
X8914725Y41994331D01*
X9670395Y42750000D01*
X9656252Y42764142D01*
X9835858Y42943748D01*
X9850000Y42929605D01*
X9864142Y42943748D01*
X10043748Y42764142D01*
X10029605Y42750000D01*
X10785275Y41994331D01*
X10922131Y42030226D01*
X11056012Y41829858D01*
X11421055Y41585945D01*
X11669560Y41337440D01*
X10350000Y41337440D01*
X10114683Y41293162D01*
X10008756Y41225000D01*
X9098000Y41225000D01*
X8508275Y41814725D01*
X9094331Y41814725D01*
X9156169Y41578958D01*
X9657122Y41402581D01*
X10187440Y41431336D01*
X10543831Y41578958D01*
X10605669Y41814725D01*
X9850000Y42570395D01*
X9094331Y41814725D01*
X8508275Y41814725D01*
X8185051Y42137949D01*
X8185231Y42344383D01*
X7982418Y42835229D01*
X7607204Y43211098D01*
X7116713Y43414768D01*
X6585617Y43415231D01*
X6094771Y43212418D01*
X5947096Y43065000D01*
X5603047Y43065000D01*
X5457204Y43211098D01*
X4966713Y43414768D01*
X4435617Y43415231D01*
X3944771Y43212418D01*
X3568902Y42837204D01*
X3433025Y42509975D01*
X3185051Y42757949D01*
X3185231Y42964383D01*
X2982418Y43455229D01*
X2607204Y43831098D01*
X2116713Y44034768D01*
X1585617Y44035231D01*
X1094771Y43832418D01*
X810000Y43548143D01*
X810000Y46891437D01*
X870657Y46800657D01*
G36*
X16602560Y43175560D02*
X15264575Y41837575D01*
X15118552Y41866621D01*
X15383379Y42262964D01*
X15477093Y42734093D01*
X16208000Y43465000D01*
X16602560Y43465000D01*
X16602560Y43175560D01*
X16602560Y43175560D01*
G37*
X16602560Y43175560D02*
X15264575Y41837575D01*
X15118552Y41866621D01*
X15383379Y42262964D01*
X15477093Y42734093D01*
X16208000Y43465000D01*
X16602560Y43465000D01*
X16602560Y43175560D01*
G36*
X8906012Y48800142D02*
X8616621Y48367036D01*
X8515000Y47856154D01*
X8515000Y47803846D01*
X8616621Y47292964D01*
X8906012Y46859858D01*
X9339118Y46570467D01*
X9850000Y46468846D01*
X10360882Y46570467D01*
X10771751Y46845000D01*
X11146865Y46845000D01*
X11242796Y46748902D01*
X11733287Y46545232D01*
X12264383Y46544769D01*
X12755229Y46747582D01*
X13075229Y47067024D01*
X13165000Y46977096D01*
X13165000Y45358000D01*
X12000000Y44193000D01*
X10846500Y45346500D01*
X10526943Y45560021D01*
X10150000Y45635000D01*
X7455444Y45635000D01*
X7512134Y45920000D01*
X7429543Y46335212D01*
X7282685Y46555000D01*
X7429543Y46774788D01*
X7512134Y47190000D01*
X7468425Y47409739D01*
X8873684Y48814998D01*
X8928246Y48814998D01*
X8906012Y48800142D01*
X8906012Y48800142D01*
G37*
X8906012Y48800142D02*
X8616621Y48367036D01*
X8515000Y47856154D01*
X8515000Y47803846D01*
X8616621Y47292964D01*
X8906012Y46859858D01*
X9339118Y46570467D01*
X9850000Y46468846D01*
X10360882Y46570467D01*
X10771751Y46845000D01*
X11146865Y46845000D01*
X11242796Y46748902D01*
X11733287Y46545232D01*
X12264383Y46544769D01*
X12755229Y46747582D01*
X13075229Y47067024D01*
X13165000Y46977096D01*
X13165000Y45358000D01*
X12000000Y44193000D01*
X10846500Y45346500D01*
X10526943Y45560021D01*
X10150000Y45635000D01*
X7455444Y45635000D01*
X7512134Y45920000D01*
X7429543Y46335212D01*
X7282685Y46555000D01*
X7429543Y46774788D01*
X7512134Y47190000D01*
X7468425Y47409739D01*
X8873684Y48814998D01*
X8928246Y48814998D01*
X8906012Y48800142D01*
G36*
X1116600Y51043628D02*
X2138249Y50020194D01*
X3473782Y49465632D01*
X4919874Y49464370D01*
X6088586Y49947272D01*
X5306314Y49165000D01*
X1850000Y49165000D01*
X1319983Y49059573D01*
X870657Y48759343D01*
X810000Y48668563D01*
X810000Y51785656D01*
X1116600Y51043628D01*
X1116600Y51043628D01*
G37*
X1116600Y51043628D02*
X2138249Y50020194D01*
X3473782Y49465632D01*
X4919874Y49464370D01*
X6088586Y49947272D01*
X5306314Y49165000D01*
X1850000Y49165000D01*
X1319983Y49059573D01*
X870657Y48759343D01*
X810000Y48668563D01*
X810000Y51785656D01*
X1116600Y51043628D01*
G36*
X8688200Y56717243D02*
X8284176Y56313923D01*
X8065250Y55786691D01*
X8064752Y55215813D01*
X8282757Y54688200D01*
X8515000Y54455552D01*
X8515000Y54094345D01*
X8284176Y53863923D01*
X8065250Y53336691D01*
X8064752Y52765813D01*
X8282757Y52238200D01*
X8686077Y51834176D01*
X9213309Y51615250D01*
X9784187Y51614752D01*
X10311800Y51832757D01*
X10715824Y52236077D01*
X10749813Y52317931D01*
X10782757Y52238200D01*
X11186077Y51834176D01*
X11616246Y51655554D01*
X11545690Y51584998D01*
X8299998Y51584998D01*
X7769981Y51479571D01*
X7356743Y51203454D01*
X7345204Y51195744D01*
X7834368Y52373782D01*
X7835630Y53819874D01*
X7283400Y55156372D01*
X6261751Y56179806D01*
X4926218Y56734368D01*
X3480126Y56735630D01*
X2143628Y56183400D01*
X1120194Y55161751D01*
X810000Y54414721D01*
X810000Y56890000D01*
X9106304Y56890000D01*
X8688200Y56717243D01*
X8688200Y56717243D01*
G37*
X8688200Y56717243D02*
X8284176Y56313923D01*
X8065250Y55786691D01*
X8064752Y55215813D01*
X8282757Y54688200D01*
X8515000Y54455552D01*
X8515000Y54094345D01*
X8284176Y53863923D01*
X8065250Y53336691D01*
X8064752Y52765813D01*
X8282757Y52238200D01*
X8686077Y51834176D01*
X9213309Y51615250D01*
X9784187Y51614752D01*
X10311800Y51832757D01*
X10715824Y52236077D01*
X10749813Y52317931D01*
X10782757Y52238200D01*
X11186077Y51834176D01*
X11616246Y51655554D01*
X11545690Y51584998D01*
X8299998Y51584998D01*
X7769981Y51479571D01*
X7356743Y51203454D01*
X7345204Y51195744D01*
X7834368Y52373782D01*
X7835630Y53819874D01*
X7283400Y55156372D01*
X6261751Y56179806D01*
X4926218Y56734368D01*
X3480126Y56735630D01*
X2143628Y56183400D01*
X1120194Y55161751D01*
X810000Y54414721D01*
X810000Y56890000D01*
X9106304Y56890000D01*
X8688200Y56717243D01*
G36*
X25967000Y55677000D02*
X25987000Y55677000D01*
X25987000Y55423000D01*
X25967000Y55423000D01*
X25967000Y55403000D01*
X25713000Y55403000D01*
X25713000Y55423000D01*
X25693000Y55423000D01*
X25693000Y55677000D01*
X25713000Y55677000D01*
X25713000Y55697000D01*
X25967000Y55697000D01*
X25967000Y55677000D01*
X25967000Y55677000D01*
G37*
X25967000Y55677000D02*
X25987000Y55677000D01*
X25987000Y55423000D01*
X25967000Y55423000D01*
X25967000Y55403000D01*
X25713000Y55403000D01*
X25713000Y55423000D01*
X25693000Y55423000D01*
X25693000Y55677000D01*
X25713000Y55677000D01*
X25713000Y55697000D01*
X25967000Y55697000D01*
X25967000Y55677000D01*
M02*
